<svg xmlns="http://www.w3.org/2000/svg" xmlns:xlink="http://www.w3.org/1999/xlink" width="500" zoomAndPan="magnify" viewBox="0 0 375 374.999991" height="500" preserveAspectRatio="xMidYMid meet" version="1.0"><defs><clipPath id="62f6596bf9"><path d="M 62.195312 274 L 312.695312 274 L 312.695312 293.992188 L 62.195312 293.992188 Z M 62.195312 274 " clip-rule="nonzero"/></clipPath></defs><path fill="#7fde4d" d="M 155.945312 208.769531 L 177.675781 163.277344 C 178.667969 161.195312 180.765625 159.894531 183.074219 159.9375 L 223.15625 160.636719 L 231.964844 121.285156 C 232.402344 119.339844 233.796875 117.75 235.667969 117.058594 C 237.53125 116.367188 239.644531 116.683594 241.230469 117.882812 L 260.828125 132.683594 L 280.570312 84.660156 C 281.796875 81.671875 285.25 80.230469 288.230469 81.460938 C 291.214844 82.691406 292.65625 86.140625 291.429688 89.125 L 268.796875 144.195312 C 268.101562 145.882812 266.667969 147.148438 264.914062 147.628906 C 263.15625 148.109375 261.28125 147.746094 259.828125 146.648438 L 241.429688 132.75 L 233.566406 167.875 C 232.964844 170.570312 230.503906 172.46875 227.734375 172.464844 L 186.640625 171.746094 L 163.855469 219.453125 C 163.160156 220.910156 161.890625 222.015625 160.355469 222.511719 C 158.816406 223.007812 157.136719 222.84375 155.722656 222.0625 L 120.730469 202.746094 L 94.183594 258.078125 C 93.203125 260.121094 91.148438 261.414062 88.890625 261.414062 C 88.011719 261.414062 87.144531 261.214844 86.351562 260.832031 C 83.433594 259.429688 82.199219 255.917969 83.601562 253 L 112.832031 192.0625 C 113.53125 190.605469 114.796875 189.5 116.335938 189.007812 C 117.871094 188.519531 119.546875 188.679688 120.960938 189.460938 Z M 155.945312 208.769531 " fill-opacity="1" fill-rule="evenodd"/><g clip-path="url(#62f6596bf9)"><path fill="#532929" d="M 308.292969 283.304688 L 292.015625 283.304688 L 292.015625 289.554688 C 292.015625 291.988281 290.046875 293.960938 287.613281 293.960938 C 285.179688 293.960938 283.210938 291.988281 283.210938 289.554688 L 283.210938 283.304688 L 251.949219 283.304688 L 251.949219 289.554688 C 251.949219 291.988281 249.976562 293.960938 247.546875 293.960938 C 245.113281 293.960938 243.144531 291.988281 243.144531 289.554688 L 243.144531 283.304688 L 211.882812 283.304688 L 211.882812 289.554688 C 211.882812 291.988281 209.914062 293.960938 207.480469 293.960938 C 205.046875 293.960938 203.078125 291.988281 203.078125 289.554688 L 203.078125 283.304688 L 171.816406 283.304688 L 171.816406 289.554688 C 171.816406 291.988281 169.84375 293.960938 167.410156 293.960938 C 164.980469 293.960938 163.007812 291.988281 163.007812 289.554688 L 163.007812 283.304688 L 131.746094 283.304688 L 131.746094 289.554688 C 131.75 291.988281 129.777344 293.960938 127.34375 293.960938 C 124.914062 293.960938 122.941406 291.988281 122.941406 289.554688 L 122.941406 283.304688 L 91.679688 283.304688 L 91.679688 289.554688 C 91.679688 291.988281 89.710938 293.960938 87.277344 293.960938 C 84.84375 293.960938 82.875 291.988281 82.875 289.554688 L 82.875 283.304688 L 66.597656 283.304688 C 64.167969 283.304688 62.195312 281.332031 62.195312 278.902344 C 62.195312 276.46875 64.167969 274.496094 66.597656 274.496094 L 308.292969 274.496094 C 310.722656 274.496094 312.695312 276.46875 312.695312 278.902344 C 312.695312 281.332031 310.722656 283.304688 308.292969 283.304688 Z M 308.292969 283.304688 " fill-opacity="1" fill-rule="evenodd"/></g><path fill="#ffce3f" d="M 260.878906 264.113281 C 236.460938 264.113281 216.601562 244.246094 216.601562 219.824219 C 216.601562 195.398438 236.460938 175.527344 260.878906 175.527344 C 285.292969 175.527344 305.15625 195.398438 305.15625 219.824219 C 305.15625 244.246094 285.292969 264.113281 260.878906 264.113281 Z M 260.878906 264.113281 " fill-opacity="1" fill-rule="evenodd"/><path fill="#ffd946" d="M 226.742188 248.003906 C 220.410156 240.339844 216.601562 230.519531 216.601562 219.824219 C 216.601562 195.398438 236.460938 175.527344 260.878906 175.527344 C 272.007812 175.527344 282.1875 179.65625 289.972656 186.464844 C 296.308594 194.125 300.117188 203.949219 300.117188 214.648438 C 300.121094 239.070312 280.257812 258.941406 255.84375 258.941406 C 244.710938 258.941406 234.53125 254.8125 226.742188 248.003906 Z M 226.742188 248.003906 " fill-opacity="1" fill-rule="evenodd"/><path fill="#532929" d="M 264.808594 244.265625 L 264.796875 244.265625 L 264.796875 245.09375 C 264.796875 247.261719 263.042969 249.015625 260.875 249.015625 C 258.710938 249.015625 256.957031 247.261719 256.957031 245.09375 L 256.957031 244.265625 L 256.945312 244.265625 C 251.296875 244.265625 246.699219 239.667969 246.699219 234.019531 C 246.699219 231.851562 248.453125 230.097656 250.617188 230.097656 C 252.785156 230.097656 254.539062 231.851562 254.539062 234.019531 C 254.539062 235.324219 255.640625 236.425781 256.945312 236.425781 L 264.808594 236.425781 C 266.113281 236.425781 267.214844 235.324219 267.214844 234.019531 L 267.214844 226.152344 C 267.214844 224.847656 266.113281 223.746094 264.808594 223.746094 L 256.945312 223.746094 C 251.296875 223.746094 246.699219 219.144531 246.699219 213.492188 L 246.699219 205.628906 C 246.699219 199.976562 251.296875 195.375 256.945312 195.375 L 256.957031 195.375 L 256.957031 194.546875 C 256.957031 192.382812 258.710938 190.625 260.875 190.625 C 263.039062 190.625 264.796875 192.382812 264.796875 194.546875 L 264.796875 195.375 L 264.808594 195.375 C 270.460938 195.375 275.054688 199.976562 275.054688 205.628906 C 275.054688 207.792969 273.300781 209.550781 271.136719 209.550781 C 268.972656 209.550781 267.214844 207.792969 267.214844 205.628906 C 267.214844 204.320312 266.113281 203.21875 264.808594 203.21875 L 256.945312 203.21875 C 255.640625 203.21875 254.539062 204.320312 254.539062 205.628906 L 254.539062 213.492188 C 254.539062 214.800781 255.640625 215.902344 256.945312 215.902344 L 264.808594 215.902344 C 270.460938 215.902344 275.054688 220.5 275.054688 226.152344 L 275.054688 234.015625 C 275.058594 239.667969 270.460938 244.265625 264.808594 244.265625 Z M 264.808594 244.265625 " fill-opacity="1" fill-rule="evenodd"/><path fill="#7fde4d" d="M 120.332031 178.878906 C 107.894531 178.878906 96.203125 174.03125 87.40625 165.234375 C 69.246094 147.070312 69.246094 117.511719 87.40625 99.351562 C 96.203125 90.550781 107.894531 85.703125 120.332031 85.703125 C 132.773438 85.703125 144.46875 90.550781 153.261719 99.351562 C 171.417969 117.511719 171.417969 147.070312 153.261719 165.234375 C 144.464844 174.03125 132.773438 178.878906 120.332031 178.878906 Z M 120.332031 178.878906 " fill-opacity="1" fill-rule="evenodd"/><path fill="#ffffff" d="M 120.332031 153.476562 C 114.675781 153.476562 109.359375 151.273438 105.359375 147.269531 C 97.101562 139.007812 97.101562 125.574219 105.359375 117.3125 C 109.359375 113.3125 114.675781 111.105469 120.332031 111.105469 C 125.988281 111.105469 131.308594 113.308594 135.304688 117.3125 C 143.5625 125.570312 143.5625 139.007812 135.304688 147.269531 C 131.304688 151.273438 125.988281 153.476562 120.332031 153.476562 Z M 120.332031 153.476562 " fill-opacity="1" fill-rule="evenodd"/><path fill="#ff8300" d="M 135.304688 117.3125 L 153.261719 99.351562 C 144.46875 90.550781 132.773438 85.703125 120.332031 85.703125 L 120.332031 111.105469 C 125.988281 111.105469 131.308594 113.308594 135.304688 117.3125 Z M 135.304688 117.3125 " fill-opacity="1" fill-rule="evenodd"/><path fill="#00ccff" d="M 153.261719 165.234375 C 171.417969 147.070312 171.417969 117.511719 153.261719 99.351562 L 135.304688 117.3125 C 143.5625 125.570312 143.5625 139.007812 135.304688 147.269531 Z M 153.261719 165.234375 " fill-opacity="1" fill-rule="evenodd"/><path fill="#72c845" d="M 120.332031 178.878906 C 132.773438 178.878906 144.464844 174.03125 153.261719 165.234375 L 148.207031 160.175781 C 139.503906 168.496094 128.128906 173.066406 116.050781 173.066406 C 103.613281 173.066406 91.917969 168.21875 83.121094 159.421875 C 82.3125 158.609375 81.539062 157.777344 80.800781 156.921875 C 82.640625 159.878906 84.839844 162.667969 87.40625 165.234375 C 96.203125 174.03125 107.894531 178.878906 120.332031 178.878906 Z M 120.332031 178.878906 " fill-opacity="1" fill-rule="evenodd"/><path fill="#00b8e6" d="M 153.261719 165.234375 C 170.609375 147.882812 171.382812 120.132812 155.585938 101.847656 C 166.777344 119.820312 164.574219 143.824219 148.980469 159.421875 C 148.726562 159.675781 148.46875 159.929688 148.207031 160.175781 Z M 153.261719 165.234375 " fill-opacity="1" fill-rule="evenodd"/></svg>