<svg xmlns="http://www.w3.org/2000/svg" xmlns:xlink="http://www.w3.org/1999/xlink" width="500" zoomAndPan="magnify" viewBox="0 0 375 374.999991" height="500" preserveAspectRatio="xMidYMid meet" version="1.0"><defs><clipPath id="cf771557c2"><path d="M 81.085938 160.898438 L 294.085938 160.898438 L 294.085938 214.148438 L 81.085938 214.148438 Z M 81.085938 160.898438 " clip-rule="nonzero"/></clipPath></defs><g clip-path="url(#cf771557c2)"><path fill="#039be5" d="M 107.71875 214.148438 C 93.019531 214.148438 81.09375 202.222656 81.09375 187.523438 C 81.09375 172.824219 93.019531 160.898438 107.71875 160.898438 C 122.414062 160.898438 134.339844 172.824219 134.339844 187.523438 C 134.339844 202.222656 122.414062 214.148438 107.71875 214.148438 Z M 187.585938 214.148438 C 172.890625 214.148438 160.964844 202.222656 160.964844 187.523438 C 160.964844 172.824219 172.890625 160.898438 187.585938 160.898438 C 202.285156 160.898438 214.210938 172.824219 214.210938 187.523438 C 214.210938 202.222656 202.285156 214.148438 187.585938 214.148438 Z M 267.457031 214.148438 C 252.761719 214.148438 240.835938 202.222656 240.835938 187.523438 C 240.835938 172.824219 252.761719 160.898438 267.457031 160.898438 C 282.15625 160.898438 294.082031 172.824219 294.082031 187.523438 C 294.082031 202.222656 282.15625 214.148438 267.457031 214.148438 Z M 267.457031 214.148438 " fill-opacity="1" fill-rule="evenodd"/></g></svg>