<svg xmlns="http://www.w3.org/2000/svg" xmlns:xlink="http://www.w3.org/1999/xlink" width="500" zoomAndPan="magnify" viewBox="0 0 375 374.999991" height="500" preserveAspectRatio="xMidYMid meet" version="1.0"><defs><clipPath id="7bb2e4eab1"><path d="M 171 99.972656 L 296.511719 99.972656 L 296.511719 227 L 171 227 Z M 171 99.972656 " clip-rule="nonzero"/></clipPath><clipPath id="8184d2b2ac"><path d="M 78.261719 126 L 93 126 L 93 180 L 78.261719 180 Z M 78.261719 126 " clip-rule="nonzero"/></clipPath><clipPath id="3b7f75a440"><path d="M 109 233 L 171 233 L 171 274.722656 L 109 274.722656 Z M 109 233 " clip-rule="nonzero"/></clipPath></defs><g clip-path="url(#7bb2e4eab1)"><path fill="#465759" d="M 184.367188 99.96875 L 283.164062 99.96875 C 284.035156 99.96875 284.894531 100.054688 285.75 100.222656 C 286.601562 100.394531 287.429688 100.644531 288.234375 100.976562 C 289.035156 101.308594 289.800781 101.714844 290.523438 102.199219 C 291.246094 102.679688 291.914062 103.230469 292.527344 103.84375 C 293.144531 104.457031 293.691406 105.128906 294.175781 105.851562 C 294.660156 106.570312 295.066406 107.335938 295.398438 108.136719 C 295.730469 108.941406 295.984375 109.765625 296.152344 110.621094 C 296.320312 111.472656 296.40625 112.332031 296.40625 113.199219 L 296.40625 212.898438 C 296.40625 213.765625 296.320312 214.628906 296.152344 215.480469 C 295.984375 216.332031 295.730469 217.160156 295.398438 217.960938 C 295.066406 218.765625 294.660156 219.527344 294.175781 220.25 C 293.691406 220.972656 293.144531 221.640625 292.527344 222.253906 C 291.914062 222.867188 291.246094 223.417969 290.523438 223.898438 C 289.800781 224.382812 289.035156 224.789062 288.234375 225.121094 C 287.429688 225.457031 286.601562 225.707031 285.75 225.875 C 284.894531 226.046875 284.035156 226.128906 283.164062 226.128906 L 184.367188 226.128906 C 183.496094 226.128906 182.636719 226.046875 181.78125 225.875 C 180.929688 225.707031 180.101562 225.457031 179.296875 225.121094 C 178.496094 224.789062 177.734375 224.382812 177.007812 223.898438 C 176.285156 223.417969 175.617188 222.867188 175.003906 222.253906 C 174.386719 221.640625 173.839844 220.972656 173.355469 220.25 C 172.875 219.527344 172.464844 218.765625 172.132812 217.960938 C 171.800781 217.160156 171.546875 216.332031 171.378906 215.480469 C 171.210938 214.628906 171.125 213.765625 171.125 212.898438 L 171.125 113.199219 C 171.125 112.332031 171.210938 111.472656 171.378906 110.621094 C 171.546875 109.765625 171.800781 108.941406 172.132812 108.136719 C 172.464844 107.335938 172.875 106.570312 173.355469 105.851562 C 173.839844 105.128906 174.386719 104.457031 175.003906 103.84375 C 175.617188 103.230469 176.285156 102.679688 177.007812 102.199219 C 177.734375 101.714844 178.496094 101.308594 179.296875 100.976562 C 180.101562 100.644531 180.929688 100.394531 181.78125 100.222656 C 182.636719 100.054688 183.496094 99.96875 184.367188 99.96875 Z M 184.367188 99.96875 " fill-opacity="1" fill-rule="nonzero"/></g><path fill="#72d561" d="M 233.765625 202.609375 C 198.6875 201.523438 177.96875 187.285156 136.28125 198.410156 L 136.28125 115.609375 C 176.777344 109.542969 198.402344 125.027344 233.765625 123.488281 Z M 233.765625 202.609375 " fill-opacity="1" fill-rule="evenodd"/><path fill="#33a235" d="M 154.691406 114.195312 C 147.953125 114.394531 143.125 115.125 136.28125 115.609375 L 136.28125 134.886719 C 146.601562 134.886719 154.167969 124.375 154.691406 114.195312 Z M 154.691406 114.195312 " fill-opacity="1" fill-rule="evenodd"/><path fill="#33a235" d="M 136.28125 179.128906 L 136.28125 198.410156 C 142.921875 197.546875 148.917969 194.621094 155.238281 194.816406 C 154.75 184.601562 146.621094 179.128906 136.28125 179.128906 Z M 136.28125 179.128906 " fill-opacity="1" fill-rule="evenodd"/><path fill="#ffda2d" d="M 222.921875 158.4375 C 222.921875 159.242188 222.894531 160.046875 222.835938 160.851562 C 222.777344 161.652344 222.6875 162.449219 222.570312 163.242188 C 222.453125 164.035156 222.304688 164.816406 222.132812 165.585938 C 221.957031 166.359375 221.753906 167.117188 221.523438 167.863281 C 221.292969 168.609375 221.035156 169.335938 220.75 170.046875 C 220.464844 170.761719 220.15625 171.449219 219.824219 172.121094 C 219.488281 172.792969 219.128906 173.441406 218.746094 174.0625 C 218.363281 174.6875 217.960938 175.285156 217.535156 175.855469 C 217.109375 176.425781 216.660156 176.964844 216.195312 177.476562 C 215.730469 177.988281 215.246094 178.46875 214.746094 178.917969 C 214.242188 179.367188 213.726562 179.78125 213.195312 180.160156 C 212.664062 180.542969 212.121094 180.886719 211.5625 181.195312 C 211.007812 181.503906 210.441406 181.773438 209.863281 182.007812 C 209.285156 182.242188 208.703125 182.4375 208.113281 182.597656 C 207.519531 182.753906 206.925781 182.871094 206.324219 182.953125 C 205.726562 183.03125 205.125 183.070312 204.519531 183.070312 C 203.917969 183.070312 203.316406 183.03125 202.71875 182.953125 C 202.117188 182.871094 201.523438 182.753906 200.929688 182.597656 C 200.339844 182.4375 199.757812 182.242188 199.179688 182.007812 C 198.601562 181.773438 198.035156 181.503906 197.480469 181.195312 C 196.921875 180.886719 196.378906 180.542969 195.847656 180.160156 C 195.316406 179.78125 194.800781 179.367188 194.296875 178.917969 C 193.796875 178.46875 193.3125 177.988281 192.847656 177.476562 C 192.382812 176.964844 191.933594 176.425781 191.507812 175.855469 C 191.082031 175.285156 190.679688 174.6875 190.296875 174.0625 C 189.914062 173.441406 189.554688 172.792969 189.21875 172.121094 C 188.886719 171.449219 188.578125 170.761719 188.292969 170.046875 C 188.007812 169.335938 187.75 168.609375 187.519531 167.863281 C 187.289062 167.117188 187.085938 166.359375 186.910156 165.585938 C 186.738281 164.816406 186.589844 164.035156 186.472656 163.242188 C 186.355469 162.449219 186.265625 161.652344 186.207031 160.851562 C 186.148438 160.046875 186.121094 159.242188 186.121094 158.4375 C 186.121094 157.628906 186.148438 156.824219 186.207031 156.023438 C 186.265625 155.21875 186.355469 154.421875 186.472656 153.628906 C 186.589844 152.839844 186.738281 152.058594 186.910156 151.285156 C 187.085938 150.511719 187.289062 149.753906 187.519531 149.007812 C 187.75 148.265625 188.007812 147.535156 188.292969 146.824219 C 188.578125 146.113281 188.886719 145.421875 189.21875 144.75 C 189.554688 144.078125 189.914062 143.433594 190.296875 142.808594 C 190.679688 142.183594 191.082031 141.585938 191.507812 141.015625 C 191.933594 140.445312 192.382812 139.90625 192.847656 139.394531 C 193.3125 138.882812 193.796875 138.402344 194.296875 137.953125 C 194.800781 137.503906 195.316406 137.089844 195.847656 136.710938 C 196.378906 136.332031 196.921875 135.984375 197.480469 135.675781 C 198.035156 135.367188 198.601562 135.097656 199.179688 134.863281 C 199.757812 134.628906 200.339844 134.433594 200.929688 134.277344 C 201.523438 134.117188 202.117188 134 202.71875 133.921875 C 203.316406 133.839844 203.917969 133.800781 204.519531 133.800781 C 205.125 133.800781 205.726562 133.839844 206.324219 133.921875 C 206.925781 134 207.519531 134.117188 208.113281 134.277344 C 208.703125 134.433594 209.285156 134.628906 209.863281 134.863281 C 210.441406 135.097656 211.007812 135.367188 211.5625 135.675781 C 212.121094 135.984375 212.664062 136.332031 213.195312 136.710938 C 213.726562 137.089844 214.242188 137.503906 214.746094 137.953125 C 215.246094 138.402344 215.730469 138.882812 216.195312 139.394531 C 216.660156 139.90625 217.109375 140.445312 217.535156 141.015625 C 217.960938 141.585938 218.363281 142.183594 218.746094 142.808594 C 219.128906 143.433594 219.488281 144.078125 219.824219 144.75 C 220.15625 145.421875 220.464844 146.113281 220.75 146.824219 C 221.035156 147.535156 221.292969 148.265625 221.523438 149.007812 C 221.753906 149.753906 221.957031 150.511719 222.132812 151.285156 C 222.304688 152.058594 222.453125 152.839844 222.570312 153.628906 C 222.6875 154.421875 222.777344 155.21875 222.835938 156.023438 C 222.894531 156.824219 222.921875 157.628906 222.921875 158.4375 Z M 222.921875 158.4375 " fill-opacity="1" fill-rule="nonzero"/><path fill="#f4a40e" d="M 196.820312 168.777344 C 195.707031 167.1875 196.097656 164.996094 197.6875 163.886719 C 199.28125 162.773438 201.472656 163.164062 202.585938 164.753906 C 202.738281 164.972656 202.957031 165.160156 203.226562 165.300781 C 203.46875 165.425781 203.746094 165.496094 204.042969 165.496094 C 204.53125 165.496094 204.972656 165.296875 205.292969 164.976562 C 205.613281 164.660156 205.808594 164.21875 205.808594 163.730469 C 205.808594 163.21875 205.605469 162.757812 205.296875 162.417969 C 205.042969 162.136719 204.757812 161.964844 204.523438 161.964844 C 202.261719 161.964844 200.085938 160.902344 198.53125 159.195312 C 197.105469 157.628906 196.171875 155.496094 196.171875 153.140625 C 196.171875 150.707031 197.160156 148.5 198.757812 146.902344 C 199.28125 146.378906 199.871094 145.921875 200.511719 145.542969 L 200.511719 142.855469 C 200.511719 140.90625 202.09375 139.324219 204.042969 139.324219 C 205.992188 139.324219 207.574219 140.90625 207.574219 142.855469 L 207.574219 144.703125 C 208.09375 144.859375 208.59375 145.066406 209.070312 145.3125 C 210.320312 145.964844 211.402344 146.921875 212.222656 148.09375 C 213.335938 149.683594 212.945312 151.875 211.355469 152.984375 C 209.761719 154.097656 207.570312 153.707031 206.457031 152.117188 C 206.304688 151.898438 206.085938 151.710938 205.816406 151.570312 C 205.574219 151.445312 205.296875 151.375 205 151.375 C 204.511719 151.375 204.070312 151.574219 203.75 151.894531 C 203.429688 152.210938 203.234375 152.652344 203.234375 153.140625 C 203.234375 153.652344 203.4375 154.113281 203.746094 154.453125 C 204 154.734375 204.285156 154.90625 204.519531 154.90625 C 206.78125 154.90625 208.957031 155.96875 210.511719 157.675781 C 211.9375 159.242188 212.871094 161.378906 212.871094 163.730469 C 212.871094 166.167969 211.882812 168.371094 210.285156 169.96875 C 209.511719 170.742188 208.59375 171.375 207.574219 171.820312 L 207.574219 174.101562 C 207.574219 176.050781 205.992188 177.628906 204.042969 177.628906 C 202.09375 177.628906 200.511719 176.050781 200.511719 174.101562 L 200.511719 171.816406 C 200.328125 171.734375 200.148438 171.648438 199.972656 171.558594 C 198.722656 170.910156 197.640625 169.949219 196.820312 168.777344 Z M 196.820312 168.777344 " fill-opacity="1" fill-rule="evenodd"/><path fill="#ffd6bd" d="M 136.28125 115.609375 L 136.28125 139.347656 C 120.441406 143.433594 128.300781 158.375 145.605469 154.355469 C 147.714844 153.863281 149.183594 153.261719 150.554688 152.484375 C 159.394531 147.484375 166.109375 154.554688 156.28125 164.742188 C 143.25 178.25 128.28125 183.792969 109.382812 178.988281 L 88.984375 172.964844 C 89.285156 148.988281 88.589844 133.847656 88.589844 133.847656 C 91.722656 134.042969 95.46875 135.273438 98.695312 136.085938 C 101.226562 136.722656 103.621094 136.402344 105.898438 135.121094 C 110.394531 132.59375 131.0625 118.585938 136.28125 115.609375 Z M 136.28125 115.609375 " fill-opacity="1" fill-rule="evenodd"/><g clip-path="url(#8184d2b2ac)"><path fill="#fc685b" d="M 79.683594 126.996094 L 90.832031 126.996094 C 91.007812 126.996094 91.175781 127.027344 91.335938 127.09375 C 91.496094 127.160156 91.640625 127.257812 91.765625 127.378906 C 91.886719 127.503906 91.984375 127.644531 92.050781 127.808594 C 92.117188 127.96875 92.152344 128.136719 92.152344 128.3125 L 92.152344 178.25 C 92.152344 178.425781 92.117188 178.59375 92.050781 178.753906 C 91.984375 178.917969 91.886719 179.058594 91.765625 179.183594 C 91.640625 179.304688 91.496094 179.402344 91.335938 179.46875 C 91.175781 179.535156 91.007812 179.570312 90.832031 179.570312 L 79.683594 179.570312 C 79.507812 179.570312 79.339844 179.535156 79.175781 179.46875 C 79.015625 179.402344 78.875 179.304688 78.75 179.183594 C 78.625 179.058594 78.53125 178.917969 78.464844 178.753906 C 78.398438 178.59375 78.363281 178.425781 78.363281 178.25 L 78.363281 128.3125 C 78.363281 128.136719 78.398438 127.96875 78.464844 127.808594 C 78.53125 127.644531 78.625 127.503906 78.75 127.378906 C 78.875 127.257812 79.015625 127.160156 79.175781 127.09375 C 79.339844 127.027344 79.507812 126.996094 79.683594 126.996094 Z M 79.683594 126.996094 " fill-opacity="1" fill-rule="nonzero"/></g><g clip-path="url(#3b7f75a440)"><path fill="#fc685b" d="M 170.363281 253.882812 L 157.285156 243.460938 L 144.210938 233.042969 L 144.210938 243.175781 L 109 243.175781 L 109 265.640625 L 144.210938 265.640625 L 144.210938 274.722656 L 157.285156 264.304688 Z M 170.363281 253.882812 " fill-opacity="1" fill-rule="evenodd"/></g><path fill="#eff4f7" d="M 230.234375 113.269531 C 230.234375 111.320312 231.816406 109.742188 233.765625 109.742188 C 235.714844 109.742188 237.296875 111.320312 237.296875 113.269531 L 237.296875 212.628906 C 237.296875 214.578125 235.714844 216.15625 233.765625 216.15625 C 231.816406 216.15625 230.234375 214.578125 230.234375 212.628906 Z M 230.234375 113.269531 " fill-opacity="1" fill-rule="evenodd"/></svg>