<svg xmlns="http://www.w3.org/2000/svg" xmlns:xlink="http://www.w3.org/1999/xlink" width="500" zoomAndPan="magnify" viewBox="0 0 375 374.999991" height="500" preserveAspectRatio="xMidYMid meet" version="1.0"><defs><clipPath id="0926777c8b"><path d="M 91.132812 91.132812 L 283.882812 91.132812 L 283.882812 283.882812 L 91.132812 283.882812 Z M 91.132812 91.132812 " clip-rule="nonzero"/></clipPath><clipPath id="b63c1fbab1"><path d="M 163.972656 281.253906 C 163.714844 282.382812 162.714844 283.078125 161.625 283.078125 C 161.367188 283.078125 161.148438 283.035156 160.886719 282.949219 C 145.71875 278.296875 131.726562 269.910156 120.425781 258.609375 C 110.515625 248.703125 102.824219 236.75 97.957031 223.667969 L 95.828125 227.621094 C 95.390625 228.449219 94.523438 228.925781 93.652344 228.925781 C 93.261719 228.925781 92.828125 228.839844 92.4375 228.621094 C 91.21875 227.96875 90.785156 226.449219 91.4375 225.230469 L 96.085938 216.714844 C 96.304688 215.929688 96.914062 215.28125 97.738281 215.019531 C 98.261719 214.84375 98.78125 214.886719 99.261719 215.0625 C 99.304688 215.0625 99.347656 215.105469 99.390625 215.105469 C 99.476562 215.148438 99.609375 215.191406 99.695312 215.234375 C 99.738281 215.234375 99.738281 215.28125 99.78125 215.28125 L 108.214844 220.148438 C 109.429688 220.84375 109.820312 222.363281 109.125 223.582031 C 108.429688 224.796875 106.910156 225.1875 105.691406 224.492188 L 103.042969 222.972656 C 113.210938 249.398438 134.941406 269.78125 162.320312 278.125 C 163.625 278.515625 164.410156 279.90625 163.972656 281.253906 Z M 93.742188 164.039062 C 94 164.125 94.21875 164.167969 94.480469 164.167969 C 95.566406 164.167969 96.566406 163.472656 96.871094 162.386719 C 105.214844 135.050781 125.597656 113.277344 152.066406 103.0625 L 150.542969 105.714844 C 149.847656 106.929688 150.238281 108.453125 151.457031 109.148438 C 151.847656 109.410156 152.28125 109.496094 152.71875 109.496094 C 153.585938 109.496094 154.414062 109.0625 154.890625 108.234375 L 159.757812 99.804688 C 159.757812 99.761719 159.800781 99.761719 159.800781 99.714844 C 159.84375 99.628906 159.886719 99.5 159.933594 99.414062 C 159.933594 99.367188 159.976562 99.324219 159.976562 99.28125 C 160.148438 98.804688 160.148438 98.238281 160.019531 97.761719 C 159.757812 96.933594 159.105469 96.328125 158.324219 96.109375 L 149.804688 91.457031 C 148.589844 90.808594 147.066406 91.242188 146.414062 92.457031 C 145.761719 93.675781 146.199219 95.195312 147.414062 95.847656 L 151.371094 97.976562 C 138.332031 102.847656 126.335938 110.539062 116.425781 120.449219 C 105.128906 131.746094 96.738281 145.742188 92.089844 160.910156 C 91.65625 162.257812 92.4375 163.648438 93.742188 164.039062 Z M 282.578125 146.394531 C 281.363281 145.742188 279.839844 146.175781 279.1875 147.394531 L 277.058594 151.347656 C 272.191406 138.308594 264.5 126.316406 254.589844 116.40625 C 243.289062 105.105469 229.296875 96.71875 214.128906 92.066406 C 212.824219 91.632812 211.390625 92.414062 211 93.71875 C 210.5625 95.066406 211.347656 96.457031 212.648438 96.847656 C 240.03125 105.191406 261.761719 125.621094 271.929688 152.042969 L 269.324219 150.523438 C 268.105469 149.828125 266.585938 150.21875 265.890625 151.433594 C 265.195312 152.652344 265.585938 154.171875 266.800781 154.867188 L 275.105469 159.648438 C 275.40625 159.867188 275.753906 159.996094 276.148438 160.039062 C 276.277344 160.039062 276.363281 160.085938 276.496094 160.085938 C 276.753906 160.085938 276.972656 160.085938 277.277344 159.996094 C 278.101562 159.734375 278.710938 159.085938 278.929688 158.300781 L 283.578125 149.785156 C 284.230469 148.566406 283.796875 147.046875 282.578125 146.394531 Z M 281.273438 210.976562 C 279.929688 210.542969 278.539062 211.324219 278.144531 212.628906 C 269.800781 240.007812 249.417969 261.695312 222.992188 271.910156 L 224.472656 269.34375 C 225.167969 268.128906 224.777344 266.605469 223.558594 265.910156 C 222.34375 265.214844 220.820312 265.609375 220.125 266.824219 L 215.257812 275.257812 C 215.214844 275.34375 215.171875 275.429688 215.128906 275.515625 C 214.910156 276.039062 214.867188 276.601562 214.996094 277.125 C 215.171875 277.777344 215.605469 278.339844 216.214844 278.644531 L 225.210938 283.558594 C 225.601562 283.773438 226.035156 283.859375 226.425781 283.859375 C 227.296875 283.859375 228.164062 283.382812 228.601562 282.558594 C 229.253906 281.339844 228.816406 279.820312 227.601562 279.167969 L 223.601562 276.996094 C 236.683594 272.125 248.636719 264.433594 258.589844 254.523438 C 269.886719 243.226562 278.277344 229.230469 282.925781 214.0625 C 283.363281 212.757812 282.578125 211.367188 281.273438 210.976562 Z M 212.347656 237.445312 C 207.128906 245.660156 197.917969 251.136719 187.53125 251.136719 C 177.097656 251.136719 167.929688 245.660156 162.714844 237.445312 L 132.855469 237.445312 C 127.769531 237.445312 123.640625 233.316406 123.640625 228.230469 L 123.640625 160.996094 C 123.597656 160.867188 123.597656 160.691406 123.597656 160.519531 C 123.597656 160.34375 123.597656 160.214844 123.640625 160.039062 L 123.640625 144.960938 C 123.640625 139.875 127.769531 135.746094 132.855469 135.746094 L 133.03125 135.746094 L 133.03125 132.53125 C 133.03125 128.835938 136.027344 125.792969 139.765625 125.792969 C 143.503906 125.792969 146.503906 128.792969 146.503906 132.53125 L 146.503906 135.746094 L 156.890625 135.746094 L 156.890625 132.53125 C 156.890625 128.835938 159.886719 125.792969 163.625 125.792969 C 167.363281 125.792969 170.363281 128.792969 170.363281 132.53125 L 170.363281 135.746094 L 180.792969 135.746094 L 180.792969 132.53125 C 180.792969 128.835938 183.792969 125.792969 187.53125 125.792969 C 191.222656 125.792969 194.265625 128.792969 194.265625 132.53125 L 194.265625 135.746094 L 204.652344 135.746094 L 204.652344 132.53125 C 204.652344 128.835938 207.652344 125.792969 211.390625 125.792969 C 215.128906 125.792969 218.125 128.792969 218.125 132.53125 L 218.125 135.746094 L 228.511719 135.746094 L 228.511719 132.53125 C 228.511719 128.835938 231.511719 125.792969 235.207031 125.792969 C 238.902344 125.792969 241.941406 128.792969 241.941406 132.53125 L 241.941406 135.746094 L 242.203125 135.746094 C 247.289062 135.746094 251.417969 139.875 251.417969 144.960938 L 251.417969 160.039062 C 251.460938 160.171875 251.460938 160.34375 251.460938 160.519531 C 251.460938 160.691406 251.460938 160.824219 251.417969 160.953125 L 251.417969 228.230469 C 251.417969 233.316406 247.289062 237.445312 242.203125 237.445312 Z M 233.554688 144.308594 C 233.554688 145.21875 234.335938 146.003906 235.25 146.003906 C 236.207031 146.003906 236.945312 145.21875 236.945312 144.308594 L 236.945312 132.574219 C 236.945312 131.660156 236.164062 130.878906 235.25 130.878906 C 234.335938 130.878906 233.554688 131.660156 233.554688 132.574219 Z M 209.695312 144.308594 C 209.695312 145.21875 210.476562 146.003906 211.390625 146.003906 C 212.300781 146.003906 213.085938 145.21875 213.085938 144.308594 L 213.085938 132.574219 C 213.085938 131.660156 212.300781 130.878906 211.390625 130.878906 C 210.476562 130.878906 209.695312 131.660156 209.695312 132.574219 Z M 185.835938 138.265625 L 185.835938 144.308594 C 185.835938 145.21875 186.617188 146.003906 187.53125 146.003906 C 188.441406 146.003906 189.226562 145.21875 189.226562 144.308594 L 189.226562 132.574219 C 189.226562 131.660156 188.441406 130.878906 187.53125 130.878906 C 186.617188 130.878906 185.835938 131.660156 185.835938 132.574219 Z M 161.929688 132.574219 L 161.929688 137.789062 C 161.972656 137.917969 161.972656 138.09375 161.972656 138.265625 L 161.972656 144.351562 C 161.972656 144.785156 162.148438 145.21875 162.453125 145.523438 C 162.757812 145.828125 163.191406 146.003906 163.625 146.003906 C 164.539062 146.003906 165.320312 145.21875 165.320312 144.308594 L 165.320312 132.574219 C 165.363281 131.660156 164.582031 130.878906 163.625 130.878906 C 162.714844 130.878906 161.929688 131.660156 161.929688 132.574219 Z M 138.070312 132.574219 L 138.070312 137.789062 C 138.113281 137.917969 138.113281 138.09375 138.113281 138.265625 L 138.113281 144.351562 C 138.113281 144.785156 138.289062 145.21875 138.59375 145.523438 C 138.898438 145.828125 139.332031 146.003906 139.765625 146.003906 C 140.679688 146.003906 141.460938 145.21875 141.460938 144.308594 L 141.460938 132.574219 C 141.503906 131.660156 140.722656 130.878906 139.765625 130.878906 C 138.851562 130.878906 138.070312 131.660156 138.070312 132.574219 Z M 128.421875 144.960938 L 128.421875 157.996094 L 246.375 157.996094 L 246.375 144.960938 C 246.375 142.613281 244.464844 140.742188 242.160156 140.742188 L 241.941406 140.742188 L 241.941406 144.308594 C 241.941406 148 238.945312 151.042969 235.207031 151.042969 C 231.46875 151.042969 228.46875 148.046875 228.46875 144.308594 L 228.46875 140.742188 L 218.125 140.742188 L 218.125 144.265625 C 218.082031 146.828125 216.648438 149.042969 214.5625 150.175781 C 213.605469 150.695312 212.476562 151.042969 211.304688 151.042969 C 207.566406 151.042969 204.566406 148.046875 204.566406 144.308594 L 204.566406 140.742188 L 194.265625 140.742188 L 194.265625 144.265625 C 194.222656 147.304688 192.222656 149.871094 189.527344 150.695312 C 188.875 150.914062 188.136719 151.042969 187.398438 151.042969 C 183.707031 151.042969 180.664062 148.046875 180.664062 144.308594 L 180.664062 140.742188 L 170.363281 140.742188 L 170.363281 144.265625 C 170.363281 147.304688 168.363281 149.871094 165.582031 150.695312 C 164.929688 150.914062 164.234375 151.042969 163.496094 151.042969 C 159.757812 151.042969 156.757812 148.046875 156.757812 144.308594 L 156.757812 140.742188 L 146.503906 140.742188 L 146.503906 144.265625 C 146.503906 147.523438 144.199219 150.261719 141.113281 150.871094 C 140.636719 151 140.113281 151.042969 139.59375 151.042969 C 135.855469 151.042969 132.855469 148.046875 132.855469 144.308594 L 132.855469 140.742188 L 132.636719 140.742188 C 130.292969 140.742188 128.421875 142.65625 128.421875 144.960938 Z M 159.933594 232.445312 C 158.628906 229.058594 157.933594 225.449219 157.933594 221.753906 C 157.933594 205.542969 171.101562 192.375 187.3125 192.375 C 189.355469 192.375 191.398438 192.59375 193.308594 192.984375 C 206.738281 195.679688 216.910156 207.542969 216.910156 221.796875 C 216.910156 225.535156 216.171875 229.144531 214.910156 232.445312 L 242.160156 232.445312 C 244.507812 232.445312 246.375 230.535156 246.375 228.230469 L 246.375 163.039062 L 128.421875 163.039062 L 128.421875 228.230469 C 128.421875 230.578125 130.335938 232.445312 132.636719 232.445312 Z M 208.738281 233.75 C 208.738281 233.75 208.738281 233.707031 208.78125 233.707031 C 210.519531 230.664062 211.5625 227.230469 211.824219 223.710938 C 211.824219 223.582031 211.867188 223.40625 211.867188 223.277344 C 211.867188 223.101562 211.867188 222.972656 211.910156 222.796875 C 211.910156 222.492188 211.953125 222.191406 211.953125 221.886719 C 211.953125 221.84375 211.953125 221.84375 211.953125 221.796875 C 211.953125 208.371094 201.003906 197.417969 187.574219 197.417969 C 174.144531 197.417969 163.191406 208.371094 163.191406 221.796875 C 163.191406 221.84375 163.191406 221.84375 163.191406 221.886719 C 163.191406 222.191406 163.191406 222.492188 163.234375 222.796875 C 163.234375 222.972656 163.234375 223.101562 163.277344 223.277344 C 163.277344 223.40625 163.277344 223.539062 163.320312 223.667969 C 163.582031 227.1875 164.625 230.621094 166.363281 233.707031 C 166.363281 233.707031 166.363281 233.75 166.40625 233.75 C 170.578125 241.140625 178.535156 246.179688 187.617188 246.179688 C 196.613281 246.179688 204.566406 241.183594 208.738281 233.75 Z M 151.414062 170.078125 L 151.414062 181.816406 C 151.371094 183.207031 150.285156 184.335938 148.894531 184.335938 L 137.160156 184.335938 C 135.765625 184.335938 134.636719 183.207031 134.636719 181.816406 L 134.636719 170.078125 C 134.636719 168.6875 135.765625 167.558594 137.160156 167.558594 L 148.894531 167.558594 C 150.285156 167.558594 151.414062 168.6875 151.414062 170.078125 Z M 146.371094 172.601562 L 139.636719 172.601562 L 139.636719 179.335938 L 146.371094 179.335938 Z M 164.277344 181.816406 L 164.277344 170.078125 C 164.277344 168.6875 165.40625 167.558594 166.796875 167.558594 L 178.535156 167.558594 C 179.925781 167.558594 181.054688 168.6875 181.054688 170.078125 L 181.054688 181.816406 C 181.054688 183.207031 179.925781 184.335938 178.535156 184.335938 L 166.796875 184.335938 C 165.40625 184.335938 164.277344 183.207031 164.277344 181.816406 Z M 169.320312 179.335938 L 176.054688 179.335938 L 176.054688 172.601562 L 169.320312 172.601562 Z M 193.960938 181.816406 L 193.960938 170.078125 C 193.960938 168.6875 195.09375 167.558594 196.484375 167.558594 L 208.21875 167.558594 C 209.609375 167.558594 210.738281 168.6875 210.738281 170.078125 L 210.738281 181.816406 C 210.695312 183.207031 209.609375 184.335938 208.21875 184.335938 L 196.484375 184.335938 C 195.09375 184.335938 193.960938 183.207031 193.960938 181.816406 Z M 198.960938 179.335938 L 205.695312 179.335938 L 205.695312 172.601562 L 198.960938 172.601562 Z M 223.601562 181.816406 L 223.601562 170.078125 C 223.601562 168.6875 224.730469 167.558594 226.125 167.558594 L 237.859375 167.558594 C 239.25 167.558594 240.378906 168.6875 240.378906 170.078125 L 240.378906 181.816406 C 240.378906 183.207031 239.25 184.335938 237.859375 184.335938 L 226.125 184.335938 C 224.730469 184.335938 223.601562 183.207031 223.601562 181.816406 Z M 228.644531 179.335938 L 235.378906 179.335938 L 235.378906 172.601562 L 228.644531 172.601562 Z M 151.414062 191.59375 L 151.414062 203.328125 C 151.371094 204.71875 150.285156 205.847656 148.894531 205.847656 L 137.160156 205.847656 C 135.765625 205.847656 134.636719 204.71875 134.636719 203.328125 L 134.636719 191.59375 C 134.636719 190.203125 135.765625 189.074219 137.160156 189.074219 L 148.894531 189.074219 C 150.285156 189.074219 151.414062 190.203125 151.414062 191.59375 Z M 146.371094 194.113281 L 139.636719 194.113281 L 139.636719 200.851562 L 146.371094 200.851562 Z M 223.601562 203.328125 L 223.601562 191.59375 C 223.601562 190.203125 224.730469 189.074219 226.125 189.074219 L 237.859375 189.074219 C 239.25 189.074219 240.378906 190.203125 240.378906 191.59375 L 240.378906 203.328125 C 240.378906 204.71875 239.25 205.847656 237.859375 205.847656 L 226.125 205.847656 C 224.730469 205.847656 223.601562 204.71875 223.601562 203.328125 Z M 228.644531 200.851562 L 235.378906 200.851562 L 235.378906 194.113281 L 228.644531 194.113281 Z M 151.414062 213.105469 L 151.414062 224.839844 C 151.371094 226.230469 150.285156 227.363281 148.894531 227.363281 L 137.160156 227.363281 C 135.765625 227.363281 134.636719 226.230469 134.636719 224.839844 L 134.636719 213.105469 C 134.636719 211.714844 135.765625 210.585938 137.160156 210.585938 L 148.894531 210.585938 C 150.285156 210.585938 151.414062 211.714844 151.414062 213.105469 Z M 146.371094 215.628906 L 139.636719 215.628906 L 139.636719 222.363281 L 146.371094 222.363281 Z M 223.601562 224.839844 L 223.601562 213.105469 C 223.601562 211.714844 224.730469 210.585938 226.125 210.585938 L 237.859375 210.585938 C 239.25 210.585938 240.378906 211.714844 240.378906 213.105469 L 240.378906 224.839844 C 240.378906 226.230469 239.25 227.363281 237.859375 227.363281 L 226.125 227.363281 C 224.730469 227.363281 223.601562 226.230469 223.601562 224.839844 Z M 228.644531 222.363281 L 235.378906 222.363281 L 235.378906 215.628906 L 228.644531 215.628906 Z M 187.183594 210.585938 C 187.3125 210.585938 187.398438 210.628906 187.53125 210.628906 C 187.660156 210.628906 187.746094 210.628906 187.878906 210.585938 C 190.09375 210.757812 191.875 212.628906 191.875 214.933594 C 191.875 216.324219 193.003906 217.453125 194.398438 217.453125 C 195.789062 217.453125 196.917969 216.324219 196.917969 214.933594 C 196.917969 210.628906 194.003906 207.023438 190.050781 205.933594 L 190.050781 203.152344 C 190.050781 201.761719 188.921875 200.632812 187.53125 200.632812 C 186.140625 200.632812 185.007812 201.761719 185.007812 203.152344 L 185.007812 205.933594 C 181.097656 207.066406 178.230469 210.628906 178.230469 214.933594 C 178.230469 220.105469 182.445312 224.277344 187.574219 224.277344 C 189.964844 224.277344 191.917969 226.230469 191.917969 228.621094 C 191.917969 230.925781 190.136719 232.792969 187.878906 232.96875 C 187.746094 232.96875 187.660156 232.925781 187.53125 232.925781 C 187.398438 232.925781 187.3125 232.925781 187.183594 232.96875 C 184.964844 232.792969 183.226562 230.925781 183.226562 228.621094 C 183.226562 227.230469 182.097656 226.101562 180.707031 226.101562 C 179.316406 226.101562 178.183594 227.230469 178.183594 228.621094 C 178.183594 232.925781 181.097656 236.53125 185.007812 237.617188 L 185.007812 240.398438 C 185.007812 241.789062 186.140625 242.921875 187.53125 242.921875 C 188.875 242.921875 190.007812 241.789062 190.050781 240.398438 L 190.050781 237.617188 C 193.960938 236.53125 196.875 232.925781 196.875 228.621094 C 196.875 223.449219 192.65625 219.277344 187.53125 219.277344 C 185.140625 219.277344 183.183594 217.320312 183.183594 214.933594 C 183.183594 212.671875 184.964844 210.757812 187.183594 210.585938 Z M 187.183594 210.585938 " clip-rule="nonzero"/></clipPath><linearGradient x1="246.25" gradientTransform="matrix(0.434611, 0, 0, 0.434611, 80.484973, 80.289428)" y1="24.949977" x2="246.25" gradientUnits="userSpaceOnUse" y2="468.400006" id="0d673dcd93"><stop stop-opacity="1" stop-color="rgb(7.058716%, 41.958618%, 100%)" offset="0"/><stop stop-opacity="1" stop-color="rgb(7.330322%, 41.838074%, 100%)" offset="0.00390625"/><stop stop-opacity="1" stop-color="rgb(7.601929%, 41.717529%, 100%)" offset="0.0078125"/><stop stop-opacity="1" stop-color="rgb(7.876587%, 41.595459%, 100%)" offset="0.0117188"/><stop stop-opacity="1" stop-color="rgb(8.152771%, 41.473389%, 100%)" offset="0.015625"/><stop stop-opacity="1" stop-color="rgb(8.428955%, 41.349792%, 100%)" offset="0.0195312"/><stop stop-opacity="1" stop-color="rgb(8.705139%, 41.227722%, 100%)" offset="0.0234375"/><stop stop-opacity="1" stop-color="rgb(8.979797%, 41.105652%, 100%)" offset="0.0273438"/><stop stop-opacity="1" stop-color="rgb(9.255981%, 40.983582%, 100%)" offset="0.03125"/><stop stop-opacity="1" stop-color="rgb(9.532166%, 40.859985%, 100%)" offset="0.0351562"/><stop stop-opacity="1" stop-color="rgb(9.80835%, 40.737915%, 100%)" offset="0.0390625"/><stop stop-opacity="1" stop-color="rgb(10.083008%, 40.614319%, 100%)" offset="0.0429688"/><stop stop-opacity="1" stop-color="rgb(10.359192%, 40.492249%, 100%)" offset="0.046875"/><stop stop-opacity="1" stop-color="rgb(10.63385%, 40.370178%, 100%)" offset="0.0507813"/><stop stop-opacity="1" stop-color="rgb(10.910034%, 40.248108%, 100%)" offset="0.0546875"/><stop stop-opacity="1" stop-color="rgb(11.186218%, 40.124512%, 100%)" offset="0.0585938"/><stop stop-opacity="1" stop-color="rgb(11.462402%, 40.002441%, 100%)" offset="0.0625"/><stop stop-opacity="1" stop-color="rgb(11.737061%, 39.880371%, 100%)" offset="0.0664062"/><stop stop-opacity="1" stop-color="rgb(12.013245%, 39.758301%, 100%)" offset="0.0703125"/><stop stop-opacity="1" stop-color="rgb(12.287903%, 39.634705%, 100%)" offset="0.0742188"/><stop stop-opacity="1" stop-color="rgb(12.564087%, 39.512634%, 100%)" offset="0.078125"/><stop stop-opacity="1" stop-color="rgb(12.840271%, 39.389038%, 100%)" offset="0.0820312"/><stop stop-opacity="1" stop-color="rgb(13.116455%, 39.266968%, 100%)" offset="0.0859375"/><stop stop-opacity="1" stop-color="rgb(13.391113%, 39.144897%, 100%)" offset="0.0898438"/><stop stop-opacity="1" stop-color="rgb(13.667297%, 39.022827%, 100%)" offset="0.09375"/><stop stop-opacity="1" stop-color="rgb(13.943481%, 38.899231%, 100%)" offset="0.0976562"/><stop stop-opacity="1" stop-color="rgb(14.219666%, 38.777161%, 100%)" offset="0.101563"/><stop stop-opacity="1" stop-color="rgb(14.494324%, 38.65509%, 100%)" offset="0.105469"/><stop stop-opacity="1" stop-color="rgb(14.770508%, 38.53302%, 100%)" offset="0.109375"/><stop stop-opacity="1" stop-color="rgb(15.045166%, 38.409424%, 100%)" offset="0.113281"/><stop stop-opacity="1" stop-color="rgb(15.32135%, 38.287354%, 100%)" offset="0.117188"/><stop stop-opacity="1" stop-color="rgb(15.597534%, 38.163757%, 100%)" offset="0.121094"/><stop stop-opacity="1" stop-color="rgb(15.873718%, 38.041687%, 100%)" offset="0.125"/><stop stop-opacity="1" stop-color="rgb(16.148376%, 37.919617%, 100%)" offset="0.128906"/><stop stop-opacity="1" stop-color="rgb(16.424561%, 37.797546%, 100%)" offset="0.132812"/><stop stop-opacity="1" stop-color="rgb(16.700745%, 37.67395%, 100%)" offset="0.136719"/><stop stop-opacity="1" stop-color="rgb(16.976929%, 37.55188%, 100%)" offset="0.140625"/><stop stop-opacity="1" stop-color="rgb(17.251587%, 37.42981%, 100%)" offset="0.144531"/><stop stop-opacity="1" stop-color="rgb(17.527771%, 37.307739%, 100%)" offset="0.148438"/><stop stop-opacity="1" stop-color="rgb(17.802429%, 37.184143%, 100%)" offset="0.152344"/><stop stop-opacity="1" stop-color="rgb(18.078613%, 37.062073%, 100%)" offset="0.15625"/><stop stop-opacity="1" stop-color="rgb(18.354797%, 36.938477%, 100%)" offset="0.160156"/><stop stop-opacity="1" stop-color="rgb(18.630981%, 36.816406%, 100%)" offset="0.164063"/><stop stop-opacity="1" stop-color="rgb(18.90564%, 36.694336%, 100%)" offset="0.167969"/><stop stop-opacity="1" stop-color="rgb(19.181824%, 36.572266%, 100%)" offset="0.171875"/><stop stop-opacity="1" stop-color="rgb(19.456482%, 36.448669%, 100%)" offset="0.175781"/><stop stop-opacity="1" stop-color="rgb(19.732666%, 36.326599%, 100%)" offset="0.179688"/><stop stop-opacity="1" stop-color="rgb(20.00885%, 36.204529%, 100%)" offset="0.183594"/><stop stop-opacity="1" stop-color="rgb(20.285034%, 36.082458%, 100%)" offset="0.1875"/><stop stop-opacity="1" stop-color="rgb(20.559692%, 35.958862%, 100%)" offset="0.191406"/><stop stop-opacity="1" stop-color="rgb(20.835876%, 35.836792%, 100%)" offset="0.195312"/><stop stop-opacity="1" stop-color="rgb(21.112061%, 35.713196%, 100%)" offset="0.199219"/><stop stop-opacity="1" stop-color="rgb(21.388245%, 35.591125%, 100%)" offset="0.203125"/><stop stop-opacity="1" stop-color="rgb(21.662903%, 35.469055%, 100%)" offset="0.207031"/><stop stop-opacity="1" stop-color="rgb(21.939087%, 35.346985%, 100%)" offset="0.210938"/><stop stop-opacity="1" stop-color="rgb(22.213745%, 35.223389%, 100%)" offset="0.214844"/><stop stop-opacity="1" stop-color="rgb(22.489929%, 35.101318%, 100%)" offset="0.21875"/><stop stop-opacity="1" stop-color="rgb(22.766113%, 34.979248%, 100%)" offset="0.222656"/><stop stop-opacity="1" stop-color="rgb(23.042297%, 34.857178%, 100%)" offset="0.226562"/><stop stop-opacity="1" stop-color="rgb(23.316956%, 34.733582%, 100%)" offset="0.230469"/><stop stop-opacity="1" stop-color="rgb(23.59314%, 34.611511%, 100%)" offset="0.234375"/><stop stop-opacity="1" stop-color="rgb(23.869324%, 34.487915%, 100%)" offset="0.238281"/><stop stop-opacity="1" stop-color="rgb(24.145508%, 34.365845%, 100%)" offset="0.242188"/><stop stop-opacity="1" stop-color="rgb(24.420166%, 34.243774%, 100%)" offset="0.246094"/><stop stop-opacity="1" stop-color="rgb(24.69635%, 34.121704%, 100%)" offset="0.25"/><stop stop-opacity="1" stop-color="rgb(24.971008%, 33.998108%, 100%)" offset="0.253906"/><stop stop-opacity="1" stop-color="rgb(25.247192%, 33.876038%, 100%)" offset="0.257813"/><stop stop-opacity="1" stop-color="rgb(25.523376%, 33.753967%, 100%)" offset="0.261719"/><stop stop-opacity="1" stop-color="rgb(25.799561%, 33.631897%, 100%)" offset="0.265625"/><stop stop-opacity="1" stop-color="rgb(26.074219%, 33.508301%, 100%)" offset="0.269531"/><stop stop-opacity="1" stop-color="rgb(26.350403%, 33.38623%, 100%)" offset="0.273438"/><stop stop-opacity="1" stop-color="rgb(26.625061%, 33.262634%, 100%)" offset="0.277344"/><stop stop-opacity="1" stop-color="rgb(26.901245%, 33.140564%, 100%)" offset="0.28125"/><stop stop-opacity="1" stop-color="rgb(27.177429%, 33.018494%, 100%)" offset="0.285156"/><stop stop-opacity="1" stop-color="rgb(27.453613%, 32.896423%, 100%)" offset="0.289063"/><stop stop-opacity="1" stop-color="rgb(27.728271%, 32.772827%, 100%)" offset="0.292969"/><stop stop-opacity="1" stop-color="rgb(28.004456%, 32.650757%, 100%)" offset="0.296875"/><stop stop-opacity="1" stop-color="rgb(28.28064%, 32.528687%, 100%)" offset="0.300781"/><stop stop-opacity="1" stop-color="rgb(28.556824%, 32.406616%, 100%)" offset="0.304688"/><stop stop-opacity="1" stop-color="rgb(28.831482%, 32.28302%, 100%)" offset="0.308594"/><stop stop-opacity="1" stop-color="rgb(29.107666%, 32.16095%, 100%)" offset="0.3125"/><stop stop-opacity="1" stop-color="rgb(29.382324%, 32.037354%, 100%)" offset="0.316406"/><stop stop-opacity="1" stop-color="rgb(29.658508%, 31.915283%, 100%)" offset="0.320312"/><stop stop-opacity="1" stop-color="rgb(29.934692%, 31.793213%, 100%)" offset="0.324219"/><stop stop-opacity="1" stop-color="rgb(30.210876%, 31.671143%, 100%)" offset="0.328125"/><stop stop-opacity="1" stop-color="rgb(30.485535%, 31.547546%, 100%)" offset="0.332031"/><stop stop-opacity="1" stop-color="rgb(30.761719%, 31.425476%, 100%)" offset="0.335938"/><stop stop-opacity="1" stop-color="rgb(31.037903%, 31.303406%, 100%)" offset="0.339844"/><stop stop-opacity="1" stop-color="rgb(31.314087%, 31.181335%, 100%)" offset="0.34375"/><stop stop-opacity="1" stop-color="rgb(31.588745%, 31.057739%, 100%)" offset="0.347656"/><stop stop-opacity="1" stop-color="rgb(31.864929%, 30.935669%, 100%)" offset="0.351563"/><stop stop-opacity="1" stop-color="rgb(32.139587%, 30.812073%, 100%)" offset="0.355469"/><stop stop-opacity="1" stop-color="rgb(32.415771%, 30.690002%, 100%)" offset="0.359375"/><stop stop-opacity="1" stop-color="rgb(32.691956%, 30.567932%, 100%)" offset="0.363281"/><stop stop-opacity="1" stop-color="rgb(32.96814%, 30.445862%, 100%)" offset="0.367188"/><stop stop-opacity="1" stop-color="rgb(33.242798%, 30.322266%, 100%)" offset="0.371094"/><stop stop-opacity="1" stop-color="rgb(33.518982%, 30.200195%, 100%)" offset="0.375"/><stop stop-opacity="1" stop-color="rgb(33.79364%, 30.078125%, 100%)" offset="0.378906"/><stop stop-opacity="1" stop-color="rgb(34.069824%, 29.956055%, 100%)" offset="0.382813"/><stop stop-opacity="1" stop-color="rgb(34.346008%, 29.832458%, 100%)" offset="0.386719"/><stop stop-opacity="1" stop-color="rgb(34.622192%, 29.710388%, 100%)" offset="0.390625"/><stop stop-opacity="1" stop-color="rgb(34.896851%, 29.586792%, 100%)" offset="0.394531"/><stop stop-opacity="1" stop-color="rgb(35.173035%, 29.464722%, 100%)" offset="0.398438"/><stop stop-opacity="1" stop-color="rgb(35.449219%, 29.342651%, 100%)" offset="0.402344"/><stop stop-opacity="1" stop-color="rgb(35.725403%, 29.220581%, 100%)" offset="0.40625"/><stop stop-opacity="1" stop-color="rgb(36.000061%, 29.096985%, 100%)" offset="0.410156"/><stop stop-opacity="1" stop-color="rgb(36.276245%, 28.974915%, 100%)" offset="0.414063"/><stop stop-opacity="1" stop-color="rgb(36.550903%, 28.852844%, 100%)" offset="0.417969"/><stop stop-opacity="1" stop-color="rgb(36.827087%, 28.730774%, 100%)" offset="0.421875"/><stop stop-opacity="1" stop-color="rgb(37.103271%, 28.607178%, 100%)" offset="0.425781"/><stop stop-opacity="1" stop-color="rgb(37.379456%, 28.485107%, 100%)" offset="0.429688"/><stop stop-opacity="1" stop-color="rgb(37.654114%, 28.361511%, 100%)" offset="0.433594"/><stop stop-opacity="1" stop-color="rgb(37.930298%, 28.239441%, 100%)" offset="0.4375"/><stop stop-opacity="1" stop-color="rgb(38.204956%, 28.117371%, 100%)" offset="0.441406"/><stop stop-opacity="1" stop-color="rgb(38.48114%, 27.9953%, 100%)" offset="0.445313"/><stop stop-opacity="1" stop-color="rgb(38.757324%, 27.871704%, 100%)" offset="0.449219"/><stop stop-opacity="1" stop-color="rgb(39.033508%, 27.749634%, 100%)" offset="0.453125"/><stop stop-opacity="1" stop-color="rgb(39.308167%, 27.627563%, 100%)" offset="0.457031"/><stop stop-opacity="1" stop-color="rgb(39.584351%, 27.505493%, 100%)" offset="0.460938"/><stop stop-opacity="1" stop-color="rgb(39.860535%, 27.381897%, 100%)" offset="0.464844"/><stop stop-opacity="1" stop-color="rgb(40.136719%, 27.259827%, 100%)" offset="0.46875"/><stop stop-opacity="1" stop-color="rgb(40.411377%, 27.13623%, 100%)" offset="0.472656"/><stop stop-opacity="1" stop-color="rgb(40.687561%, 27.01416%, 100%)" offset="0.476563"/><stop stop-opacity="1" stop-color="rgb(40.962219%, 26.89209%, 100%)" offset="0.480469"/><stop stop-opacity="1" stop-color="rgb(41.238403%, 26.77002%, 100%)" offset="0.484375"/><stop stop-opacity="1" stop-color="rgb(41.514587%, 26.646423%, 100%)" offset="0.488281"/><stop stop-opacity="1" stop-color="rgb(41.790771%, 26.524353%, 100%)" offset="0.492188"/><stop stop-opacity="1" stop-color="rgb(42.06543%, 26.402283%, 100%)" offset="0.496094"/><stop stop-opacity="1" stop-color="rgb(42.341614%, 26.280212%, 100%)" offset="0.5"/><stop stop-opacity="1" stop-color="rgb(42.617798%, 26.156616%, 100%)" offset="0.503906"/><stop stop-opacity="1" stop-color="rgb(42.893982%, 26.034546%, 100%)" offset="0.507812"/><stop stop-opacity="1" stop-color="rgb(43.16864%, 25.91095%, 100%)" offset="0.511719"/><stop stop-opacity="1" stop-color="rgb(43.444824%, 25.788879%, 100%)" offset="0.515625"/><stop stop-opacity="1" stop-color="rgb(43.719482%, 25.666809%, 100%)" offset="0.519531"/><stop stop-opacity="1" stop-color="rgb(43.995667%, 25.544739%, 100%)" offset="0.523438"/><stop stop-opacity="1" stop-color="rgb(44.271851%, 25.421143%, 100%)" offset="0.527344"/><stop stop-opacity="1" stop-color="rgb(44.548035%, 25.299072%, 100%)" offset="0.53125"/><stop stop-opacity="1" stop-color="rgb(44.822693%, 25.177002%, 100%)" offset="0.535156"/><stop stop-opacity="1" stop-color="rgb(45.098877%, 25.054932%, 100%)" offset="0.539063"/><stop stop-opacity="1" stop-color="rgb(45.373535%, 24.931335%, 100%)" offset="0.542969"/><stop stop-opacity="1" stop-color="rgb(45.649719%, 24.809265%, 100%)" offset="0.546875"/><stop stop-opacity="1" stop-color="rgb(45.925903%, 24.685669%, 100%)" offset="0.550781"/><stop stop-opacity="1" stop-color="rgb(46.202087%, 24.563599%, 100%)" offset="0.554688"/><stop stop-opacity="1" stop-color="rgb(46.476746%, 24.441528%, 100%)" offset="0.558594"/><stop stop-opacity="1" stop-color="rgb(46.75293%, 24.319458%, 100%)" offset="0.5625"/><stop stop-opacity="1" stop-color="rgb(47.029114%, 24.195862%, 100%)" offset="0.566406"/><stop stop-opacity="1" stop-color="rgb(47.305298%, 24.073792%, 100%)" offset="0.570312"/><stop stop-opacity="1" stop-color="rgb(47.579956%, 23.951721%, 100%)" offset="0.574219"/><stop stop-opacity="1" stop-color="rgb(47.85614%, 23.829651%, 100%)" offset="0.578125"/><stop stop-opacity="1" stop-color="rgb(48.130798%, 23.706055%, 100%)" offset="0.582031"/><stop stop-opacity="1" stop-color="rgb(48.406982%, 23.583984%, 100%)" offset="0.585938"/><stop stop-opacity="1" stop-color="rgb(48.683167%, 23.460388%, 100%)" offset="0.589844"/><stop stop-opacity="1" stop-color="rgb(48.959351%, 23.338318%, 100%)" offset="0.59375"/><stop stop-opacity="1" stop-color="rgb(49.234009%, 23.216248%, 100%)" offset="0.597656"/><stop stop-opacity="1" stop-color="rgb(49.510193%, 23.094177%, 100%)" offset="0.601562"/><stop stop-opacity="1" stop-color="rgb(49.786377%, 22.970581%, 100%)" offset="0.605469"/><stop stop-opacity="1" stop-color="rgb(50.062561%, 22.848511%, 100%)" offset="0.609375"/><stop stop-opacity="1" stop-color="rgb(50.337219%, 22.72644%, 100%)" offset="0.613281"/><stop stop-opacity="1" stop-color="rgb(50.613403%, 22.60437%, 100%)" offset="0.617188"/><stop stop-opacity="1" stop-color="rgb(50.888062%, 22.480774%, 100%)" offset="0.621094"/><stop stop-opacity="1" stop-color="rgb(51.164246%, 22.358704%, 100%)" offset="0.625"/><stop stop-opacity="1" stop-color="rgb(51.44043%, 22.236633%, 100%)" offset="0.628906"/><stop stop-opacity="1" stop-color="rgb(51.716614%, 22.114563%, 100%)" offset="0.632812"/><stop stop-opacity="1" stop-color="rgb(51.991272%, 21.990967%, 100%)" offset="0.636719"/><stop stop-opacity="1" stop-color="rgb(52.267456%, 21.868896%, 100%)" offset="0.640625"/><stop stop-opacity="1" stop-color="rgb(52.542114%, 21.7453%, 100%)" offset="0.644531"/><stop stop-opacity="1" stop-color="rgb(52.818298%, 21.62323%, 100%)" offset="0.648438"/><stop stop-opacity="1" stop-color="rgb(53.094482%, 21.50116%, 100%)" offset="0.652344"/><stop stop-opacity="1" stop-color="rgb(53.370667%, 21.379089%, 100%)" offset="0.65625"/><stop stop-opacity="1" stop-color="rgb(53.645325%, 21.255493%, 100%)" offset="0.660156"/><stop stop-opacity="1" stop-color="rgb(53.921509%, 21.133423%, 100%)" offset="0.664062"/><stop stop-opacity="1" stop-color="rgb(54.197693%, 21.011353%, 100%)" offset="0.667969"/><stop stop-opacity="1" stop-color="rgb(54.473877%, 20.889282%, 100%)" offset="0.671875"/><stop stop-opacity="1" stop-color="rgb(54.748535%, 20.765686%, 100%)" offset="0.675781"/><stop stop-opacity="1" stop-color="rgb(55.024719%, 20.643616%, 100%)" offset="0.679687"/><stop stop-opacity="1" stop-color="rgb(55.299377%, 20.52002%, 100%)" offset="0.683594"/><stop stop-opacity="1" stop-color="rgb(55.575562%, 20.397949%, 100%)" offset="0.6875"/><stop stop-opacity="1" stop-color="rgb(55.851746%, 20.275879%, 100%)" offset="0.691406"/><stop stop-opacity="1" stop-color="rgb(56.12793%, 20.153809%, 100%)" offset="0.695312"/><stop stop-opacity="1" stop-color="rgb(56.402588%, 20.030212%, 100%)" offset="0.699219"/><stop stop-opacity="1" stop-color="rgb(56.678772%, 19.908142%, 100%)" offset="0.703125"/><stop stop-opacity="1" stop-color="rgb(56.954956%, 19.786072%, 100%)" offset="0.707031"/><stop stop-opacity="1" stop-color="rgb(57.23114%, 19.664001%, 100%)" offset="0.710938"/><stop stop-opacity="1" stop-color="rgb(57.505798%, 19.540405%, 100%)" offset="0.714844"/><stop stop-opacity="1" stop-color="rgb(57.781982%, 19.418335%, 100%)" offset="0.71875"/><stop stop-opacity="1" stop-color="rgb(58.056641%, 19.294739%, 100%)" offset="0.722656"/><stop stop-opacity="1" stop-color="rgb(58.332825%, 19.172668%, 100%)" offset="0.726563"/><stop stop-opacity="1" stop-color="rgb(58.609009%, 19.050598%, 100%)" offset="0.730469"/><stop stop-opacity="1" stop-color="rgb(58.885193%, 18.928528%, 100%)" offset="0.734375"/><stop stop-opacity="1" stop-color="rgb(59.159851%, 18.804932%, 100%)" offset="0.738281"/><stop stop-opacity="1" stop-color="rgb(59.436035%, 18.682861%, 100%)" offset="0.742188"/><stop stop-opacity="1" stop-color="rgb(59.710693%, 18.560791%, 100%)" offset="0.746094"/><stop stop-opacity="1" stop-color="rgb(59.986877%, 18.438721%, 100%)" offset="0.75"/><stop stop-opacity="1" stop-color="rgb(60.263062%, 18.315125%, 100%)" offset="0.753906"/><stop stop-opacity="1" stop-color="rgb(60.539246%, 18.193054%, 100%)" offset="0.757812"/><stop stop-opacity="1" stop-color="rgb(60.813904%, 18.069458%, 100%)" offset="0.761719"/><stop stop-opacity="1" stop-color="rgb(61.090088%, 17.947388%, 100%)" offset="0.765625"/><stop stop-opacity="1" stop-color="rgb(61.366272%, 17.825317%, 100%)" offset="0.769531"/><stop stop-opacity="1" stop-color="rgb(61.642456%, 17.703247%, 100%)" offset="0.773438"/><stop stop-opacity="1" stop-color="rgb(61.917114%, 17.579651%, 100%)" offset="0.777344"/><stop stop-opacity="1" stop-color="rgb(62.193298%, 17.457581%, 100%)" offset="0.78125"/><stop stop-opacity="1" stop-color="rgb(62.467957%, 17.33551%, 100%)" offset="0.785156"/><stop stop-opacity="1" stop-color="rgb(62.744141%, 17.21344%, 100%)" offset="0.789062"/><stop stop-opacity="1" stop-color="rgb(63.020325%, 17.089844%, 100%)" offset="0.792969"/><stop stop-opacity="1" stop-color="rgb(63.296509%, 16.967773%, 100%)" offset="0.796875"/><stop stop-opacity="1" stop-color="rgb(63.571167%, 16.844177%, 100%)" offset="0.800781"/><stop stop-opacity="1" stop-color="rgb(63.847351%, 16.722107%, 100%)" offset="0.804688"/><stop stop-opacity="1" stop-color="rgb(64.123535%, 16.600037%, 100%)" offset="0.808594"/><stop stop-opacity="1" stop-color="rgb(64.399719%, 16.477966%, 100%)" offset="0.8125"/><stop stop-opacity="1" stop-color="rgb(64.674377%, 16.35437%, 100%)" offset="0.816406"/><stop stop-opacity="1" stop-color="rgb(64.950562%, 16.2323%, 100%)" offset="0.820313"/><stop stop-opacity="1" stop-color="rgb(65.22522%, 16.110229%, 100%)" offset="0.824219"/><stop stop-opacity="1" stop-color="rgb(65.501404%, 15.988159%, 100%)" offset="0.828125"/><stop stop-opacity="1" stop-color="rgb(65.777588%, 15.864563%, 100%)" offset="0.832031"/><stop stop-opacity="1" stop-color="rgb(66.053772%, 15.742493%, 100%)" offset="0.835938"/><stop stop-opacity="1" stop-color="rgb(66.32843%, 15.618896%, 100%)" offset="0.839844"/><stop stop-opacity="1" stop-color="rgb(66.604614%, 15.496826%, 100%)" offset="0.84375"/><stop stop-opacity="1" stop-color="rgb(66.879272%, 15.374756%, 100%)" offset="0.847656"/><stop stop-opacity="1" stop-color="rgb(67.155457%, 15.252686%, 100%)" offset="0.851563"/><stop stop-opacity="1" stop-color="rgb(67.431641%, 15.129089%, 100%)" offset="0.855469"/><stop stop-opacity="1" stop-color="rgb(67.707825%, 15.007019%, 100%)" offset="0.859375"/><stop stop-opacity="1" stop-color="rgb(67.982483%, 14.884949%, 100%)" offset="0.863281"/><stop stop-opacity="1" stop-color="rgb(68.258667%, 14.762878%, 100%)" offset="0.867188"/><stop stop-opacity="1" stop-color="rgb(68.534851%, 14.639282%, 100%)" offset="0.871094"/><stop stop-opacity="1" stop-color="rgb(68.811035%, 14.517212%, 100%)" offset="0.875"/><stop stop-opacity="1" stop-color="rgb(69.085693%, 14.393616%, 100%)" offset="0.878906"/><stop stop-opacity="1" stop-color="rgb(69.361877%, 14.271545%, 100%)" offset="0.882813"/><stop stop-opacity="1" stop-color="rgb(69.636536%, 14.149475%, 100%)" offset="0.886719"/><stop stop-opacity="1" stop-color="rgb(69.91272%, 14.027405%, 100%)" offset="0.890625"/><stop stop-opacity="1" stop-color="rgb(70.188904%, 13.903809%, 100%)" offset="0.894531"/><stop stop-opacity="1" stop-color="rgb(70.465088%, 13.781738%, 100%)" offset="0.898438"/><stop stop-opacity="1" stop-color="rgb(70.739746%, 13.659668%, 100%)" offset="0.902344"/><stop stop-opacity="1" stop-color="rgb(71.01593%, 13.537598%, 100%)" offset="0.90625"/><stop stop-opacity="1" stop-color="rgb(71.292114%, 13.414001%, 100%)" offset="0.910156"/><stop stop-opacity="1" stop-color="rgb(71.568298%, 13.291931%, 100%)" offset="0.914063"/><stop stop-opacity="1" stop-color="rgb(71.842957%, 13.168335%, 100%)" offset="0.917969"/><stop stop-opacity="1" stop-color="rgb(72.119141%, 13.046265%, 100%)" offset="0.921875"/><stop stop-opacity="1" stop-color="rgb(72.393799%, 12.924194%, 100%)" offset="0.925781"/><stop stop-opacity="1" stop-color="rgb(72.669983%, 12.802124%, 100%)" offset="0.929688"/><stop stop-opacity="1" stop-color="rgb(72.946167%, 12.678528%, 100%)" offset="0.933594"/><stop stop-opacity="1" stop-color="rgb(73.222351%, 12.556458%, 100%)" offset="0.9375"/><stop stop-opacity="1" stop-color="rgb(73.497009%, 12.434387%, 100%)" offset="0.941406"/><stop stop-opacity="1" stop-color="rgb(73.773193%, 12.312317%, 100%)" offset="0.945313"/><stop stop-opacity="1" stop-color="rgb(74.047852%, 12.188721%, 100%)" offset="0.949219"/><stop stop-opacity="1" stop-color="rgb(74.324036%, 12.06665%, 100%)" offset="0.953125"/><stop stop-opacity="1" stop-color="rgb(74.60022%, 11.943054%, 100%)" offset="0.957031"/><stop stop-opacity="1" stop-color="rgb(74.876404%, 11.820984%, 100%)" offset="0.960938"/><stop stop-opacity="1" stop-color="rgb(75.151062%, 11.698914%, 100%)" offset="0.964844"/><stop stop-opacity="1" stop-color="rgb(75.427246%, 11.576843%, 100%)" offset="0.96875"/><stop stop-opacity="1" stop-color="rgb(75.70343%, 11.453247%, 100%)" offset="0.972656"/><stop stop-opacity="1" stop-color="rgb(75.979614%, 11.331177%, 100%)" offset="0.976562"/><stop stop-opacity="1" stop-color="rgb(76.254272%, 11.209106%, 100%)" offset="0.980469"/><stop stop-opacity="1" stop-color="rgb(76.530457%, 11.087036%, 100%)" offset="0.984375"/><stop stop-opacity="1" stop-color="rgb(76.805115%, 10.96344%, 100%)" offset="0.988281"/><stop stop-opacity="1" stop-color="rgb(77.081299%, 10.84137%, 100%)" offset="0.992188"/><stop stop-opacity="1" stop-color="rgb(77.357483%, 10.717773%, 100%)" offset="0.996094"/><stop stop-opacity="1" stop-color="rgb(77.633667%, 10.595703%, 100%)" offset="1"/></linearGradient></defs><g clip-path="url(#0926777c8b)"><g clip-path="url(#b63c1fbab1)"><path fill="url(#0d673dcd93)" d="M 91.132812 91.132812 L 91.132812 283.859375 L 283.882812 283.859375 L 283.882812 91.132812 Z M 91.132812 91.132812 " fill-rule="nonzero"/></g></g></svg>