<svg xmlns="http://www.w3.org/2000/svg" xmlns:xlink="http://www.w3.org/1999/xlink" width="500" zoomAndPan="magnify" viewBox="0 0 375 374.999991" height="500" preserveAspectRatio="xMidYMid meet" version="1.0"><defs><clipPath id="0cf8062d93"><path d="M 113 244 L 262 244 L 262 280.75 L 113 280.75 Z M 113 244 " clip-rule="nonzero"/></clipPath><clipPath id="f987d2be8e"><path d="M 261 147 L 277.808594 147 L 277.808594 164 L 261 164 Z M 261 147 " clip-rule="nonzero"/></clipPath><clipPath id="211f84dc78"><path d="M 97.058594 147 L 114 147 L 114 164 L 97.058594 164 Z M 97.058594 147 " clip-rule="nonzero"/></clipPath></defs><path fill="#2b5098" d="M 242.234375 252.847656 C 242.070312 252.847656 241.898438 252.824219 241.726562 252.777344 C 240.78125 252.496094 240.238281 251.503906 240.515625 250.550781 L 269.035156 153.679688 C 269.3125 152.734375 270.308594 152.191406 271.253906 152.46875 C 272.207031 152.75 272.742188 153.742188 272.464844 154.695312 L 243.949219 251.566406 C 243.722656 252.339844 243.007812 252.847656 242.234375 252.847656 " fill-opacity="1" fill-rule="nonzero"/><path fill="#2b5098" d="M 132.632812 252.847656 C 131.863281 252.847656 131.144531 252.339844 130.917969 251.566406 L 102.402344 154.695312 C 102.125 153.742188 102.667969 152.75 103.613281 152.46875 C 104.5625 152.191406 105.558594 152.734375 105.835938 153.679688 L 134.351562 250.550781 C 134.632812 251.503906 134.085938 252.496094 133.144531 252.777344 C 132.972656 252.824219 132.804688 252.847656 132.632812 252.847656 " fill-opacity="1" fill-rule="nonzero"/><path fill="#2b5098" d="M 217.808594 252.847656 C 217.640625 252.847656 217.472656 252.824219 217.304688 252.777344 C 216.355469 252.496094 215.808594 251.503906 216.089844 250.550781 L 231.898438 196.859375 C 232.179688 195.90625 233.171875 195.363281 234.117188 195.648438 C 235.070312 195.929688 235.605469 196.914062 235.335938 197.867188 L 219.523438 251.566406 C 219.296875 252.339844 218.582031 252.847656 217.808594 252.847656 " fill-opacity="1" fill-rule="nonzero"/><path fill="#2b5098" d="M 157.0625 252.847656 C 156.289062 252.847656 155.570312 252.339844 155.34375 251.566406 L 139.539062 197.867188 C 139.261719 196.914062 139.796875 195.929688 140.75 195.648438 C 141.695312 195.363281 142.691406 195.90625 142.96875 196.859375 L 158.777344 250.550781 C 159.058594 251.503906 158.511719 252.496094 157.5625 252.777344 C 157.398438 252.824219 157.226562 252.847656 157.0625 252.847656 " fill-opacity="1" fill-rule="nonzero"/><g clip-path="url(#0cf8062d93)"><path fill="#2b5098" d="M 113.160156 280.800781 L 261.707031 280.800781 L 261.707031 244.65625 L 113.160156 244.65625 Z M 113.160156 280.800781 " fill-opacity="1" fill-rule="nonzero"/><path fill="#1e396e" d="M 261.707031 280.800781 L 113.160156 280.800781 L 113.160156 244.65625 L 130.59375 244.65625 L 130.59375 272.316406 L 244.273438 272.316406 L 244.273438 244.65625 L 261.707031 244.65625 L 261.707031 280.800781 " fill-opacity="1" fill-rule="nonzero"/></g><path fill="#e1b92f" d="M 163.300781 259.921875 L 139.453125 259.921875 L 139.453125 253.246094 L 163.300781 253.246094 L 163.300781 259.921875 " fill-opacity="1" fill-rule="nonzero"/><path fill="#ffffff" d="M 199.355469 259.921875 L 175.511719 259.921875 L 175.511719 253.246094 L 199.355469 253.246094 L 199.355469 259.921875 " fill-opacity="1" fill-rule="nonzero"/><path fill="#e1b92f" d="M 235.414062 259.921875 L 211.566406 259.921875 L 211.566406 253.246094 L 235.414062 253.246094 L 235.414062 259.921875 " fill-opacity="1" fill-rule="nonzero"/><g clip-path="url(#f987d2be8e)"><path fill="#64cbd6" d="M 277.453125 155.667969 C 277.453125 160.015625 273.929688 163.535156 269.578125 163.535156 C 265.226562 163.535156 261.707031 160.015625 261.707031 155.667969 C 261.707031 151.320312 265.226562 147.800781 269.578125 147.800781 C 273.929688 147.800781 277.453125 151.320312 277.453125 155.667969 " fill-opacity="1" fill-rule="nonzero"/></g><g clip-path="url(#211f84dc78)"><path fill="#64cbd6" d="M 113.160156 155.667969 C 113.160156 160.015625 109.632812 163.535156 105.289062 163.535156 C 100.9375 163.535156 97.417969 160.015625 97.417969 155.667969 C 97.417969 151.320312 100.9375 147.800781 105.289062 147.800781 C 109.632812 147.800781 113.160156 151.320312 113.160156 155.667969 " fill-opacity="1" fill-rule="nonzero"/></g><path fill="#64cbd6" d="M 241.988281 195.648438 C 241.988281 199.992188 238.46875 203.515625 234.117188 203.515625 C 229.773438 203.515625 226.246094 199.992188 226.246094 195.648438 C 226.246094 191.300781 229.773438 187.78125 234.117188 187.78125 C 238.46875 187.78125 241.988281 191.300781 241.988281 195.648438 " fill-opacity="1" fill-rule="nonzero"/><path fill="#64cbd6" d="M 150.167969 195.648438 C 150.167969 199.992188 146.648438 203.515625 142.296875 203.515625 C 137.953125 203.515625 134.421875 199.992188 134.421875 195.648438 C 134.421875 191.300781 137.953125 187.78125 142.296875 187.78125 C 146.648438 187.78125 150.167969 191.300781 150.167969 195.648438 " fill-opacity="1" fill-rule="nonzero"/><path fill="#64cbd6" d="M 247.394531 159.449219 C 245.875 159.449219 244.636719 158.21875 244.636719 156.695312 C 244.636719 125.175781 218.980469 99.527344 187.433594 99.527344 C 172.152344 99.527344 157.789062 105.472656 146.984375 116.273438 C 136.175781 127.066406 130.230469 141.425781 130.230469 156.695312 C 130.230469 158.21875 129 159.449219 127.472656 159.449219 C 125.949219 159.449219 124.710938 158.21875 124.710938 156.695312 C 124.710938 139.953125 131.238281 124.21875 143.082031 112.375 C 154.929688 100.539062 170.679688 94.019531 187.433594 94.019531 C 222.015625 94.019531 250.148438 122.136719 250.148438 156.695312 C 250.148438 158.21875 248.917969 159.449219 247.394531 159.449219 " fill-opacity="1" fill-rule="nonzero"/><path fill="#64cbd6" d="M 226.925781 159.457031 C 225.40625 159.457031 224.167969 158.21875 224.167969 156.695312 C 224.167969 146.890625 220.355469 137.671875 213.414062 130.734375 C 206.472656 123.796875 197.246094 119.976562 187.433594 119.976562 C 167.171875 119.976562 150.691406 136.457031 150.691406 156.695312 C 150.691406 158.21875 149.460938 159.449219 147.9375 159.449219 C 146.410156 159.449219 145.179688 158.21875 145.179688 156.695312 C 145.179688 133.414062 164.132812 114.46875 187.433594 114.46875 C 198.71875 114.46875 209.332031 118.867188 217.3125 126.835938 C 225.292969 134.816406 229.6875 145.417969 229.6875 156.695312 C 229.6875 158.21875 228.449219 159.457031 226.925781 159.457031 " fill-opacity="1" fill-rule="nonzero"/><path fill="#64cbd6" d="M 210.027344 159.449219 C 208.503906 159.449219 207.273438 158.21875 207.273438 156.695312 C 207.273438 151.402344 205.210938 146.425781 201.460938 142.679688 C 197.710938 138.929688 192.730469 136.871094 187.433594 136.871094 C 182.136719 136.871094 177.148438 138.929688 173.40625 142.679688 C 169.65625 146.425781 167.59375 151.402344 167.59375 156.695312 C 167.59375 158.21875 166.355469 159.449219 164.832031 159.449219 C 163.316406 159.449219 162.078125 158.21875 162.078125 156.695312 C 162.078125 149.929688 164.71875 143.566406 169.507812 138.78125 C 174.292969 133.996094 180.664062 131.363281 187.433594 131.363281 C 194.203125 131.363281 200.574219 133.996094 205.363281 138.78125 C 210.148438 143.566406 212.78125 149.929688 212.78125 156.695312 C 212.78125 158.21875 211.550781 159.449219 210.027344 159.449219 " fill-opacity="1" fill-rule="nonzero"/><path fill="#2b5098" d="M 197.382812 160.96875 C 197.382812 166.460938 192.921875 170.910156 187.433594 170.910156 C 181.9375 170.910156 177.484375 166.460938 177.484375 160.972656 C 177.484375 155.480469 181.9375 151.023438 187.433594 151.023438 C 192.921875 151.023438 197.382812 155.472656 197.382812 160.96875 " fill-opacity="1" fill-rule="nonzero"/></svg>