<svg xmlns="http://www.w3.org/2000/svg" xmlns:xlink="http://www.w3.org/1999/xlink" width="500" zoomAndPan="magnify" viewBox="0 0 375 374.999991" height="500" preserveAspectRatio="xMidYMid meet" version="1.0"><defs><clipPath id="53d299531a"><path d="M 94.128906 209 L 280.878906 209 L 280.878906 275.628906 L 94.128906 275.628906 Z M 94.128906 209 " clip-rule="nonzero"/></clipPath><clipPath id="64ef05832f"><path d="M 123 99.378906 L 280.878906 99.378906 L 280.878906 207 L 123 207 Z M 123 99.378906 " clip-rule="nonzero"/></clipPath></defs><g clip-path="url(#53d299531a)"><path fill="#000000" d="M 224.902344 231.292969 L 266.378906 216.605469 L 266.65625 216.527344 C 269.175781 215.855469 271.757812 216.117188 273.996094 217.128906 C 276.277344 218.160156 278.207031 219.96875 279.363281 222.363281 C 280.519531 224.753906 280.734375 227.390625 280.128906 229.8125 C 279.515625 232.238281 278.078125 234.460938 275.929688 236.023438 C 275.808594 236.109375 275.6875 236.183594 275.558594 236.242188 L 218.679688 268.96875 C 218.269531 269.203125 217.820312 269.300781 217.382812 269.277344 L 131.367188 264.515625 L 131.367188 267.988281 C 131.367188 270.09375 130.511719 272.003906 129.125 273.386719 C 127.742188 274.773438 125.832031 275.628906 123.730469 275.628906 L 101.871094 275.628906 C 99.769531 275.628906 97.859375 274.773438 96.476562 273.386719 C 95.089844 272.003906 94.234375 270.09375 94.234375 267.988281 L 94.234375 216.761719 C 94.234375 214.660156 95.089844 212.75 96.476562 211.363281 C 97.859375 209.980469 99.769531 209.121094 101.871094 209.121094 L 123.730469 209.121094 C 125.832031 209.121094 127.742188 209.980469 129.125 211.363281 C 130.460938 212.699219 131.304688 214.519531 131.367188 216.535156 C 137.820312 213.199219 144.902344 211.566406 151.972656 211.625 C 160.152344 211.699219 168.316406 214.046875 175.464844 218.652344 L 214.652344 218.652344 C 214.765625 218.652344 214.871094 218.660156 214.976562 218.675781 C 217.78125 218.890625 220.273438 220.15625 222.074219 222.070312 C 223.917969 224.027344 225.042969 226.664062 225.042969 229.539062 C 225.042969 230.136719 224.996094 230.722656 224.902344 231.292969 Z M 224.902344 231.292969 " fill-opacity="1" fill-rule="evenodd"/></g><g clip-path="url(#64ef05832f)"><path fill="#000000" d="M 237.027344 187.035156 L 226.183594 187.035156 L 226.183594 198.636719 C 226.183594 200.914062 225.253906 202.980469 223.757812 204.480469 L 223.757812 204.488281 C 222.257812 205.984375 220.191406 206.914062 217.910156 206.914062 L 148.234375 206.914062 C 145.957031 206.914062 143.890625 205.984375 142.394531 204.488281 L 142.382812 204.480469 C 140.886719 202.980469 139.957031 200.914062 139.957031 198.636719 L 139.957031 150.632812 L 125.40625 150.632812 C 124.71875 150.625 124.035156 150.324219 123.574219 149.746094 C 122.761719 148.734375 122.921875 147.253906 123.933594 146.441406 L 181.566406 100.109375 C 182.40625 99.40625 183.65625 99.367188 184.542969 100.082031 L 242.078125 146.335938 C 242.691406 146.761719 243.09375 147.46875 243.09375 148.273438 C 243.09375 149.574219 242.039062 150.632812 240.734375 150.632812 L 226.183594 150.632812 L 226.183594 165.984375 L 236.96875 166.007812 C 238.789062 162.429688 241.511719 159.386719 244.839844 157.183594 C 248.496094 154.761719 252.875 153.351562 257.574219 153.351562 C 263.957031 153.351562 269.734375 155.941406 273.914062 160.121094 C 278.097656 164.304688 280.683594 170.082031 280.683594 176.460938 C 280.683594 182.84375 278.097656 188.621094 273.914062 192.804688 C 269.734375 196.984375 263.957031 199.574219 257.574219 199.574219 C 252.90625 199.574219 248.546875 198.175781 244.898438 195.777344 C 241.578125 193.589844 238.855469 190.578125 237.027344 187.035156 Z M 253.125 180.921875 C 254.257812 182.058594 255.832031 182.757812 257.574219 182.757812 C 259.316406 182.757812 260.890625 182.054688 262.027344 180.914062 C 263.167969 179.777344 263.871094 178.203125 263.871094 176.460938 C 263.871094 174.71875 263.167969 173.144531 262.035156 172.011719 L 262.027344 172 C 260.894531 170.867188 259.320312 170.167969 257.574219 170.167969 C 255.835938 170.167969 254.261719 170.871094 253.125 172.011719 C 251.984375 173.148438 251.28125 174.722656 251.28125 176.460938 C 251.28125 178.207031 251.980469 179.78125 253.113281 180.914062 Z M 253.125 180.921875 " fill-opacity="1" fill-rule="evenodd"/></g><path fill="#d3d3d3" d="M 183.070312 118.703125 L 144.671875 149.394531 L 144.671875 198.636719 C 144.671875 199.621094 145.070312 200.511719 145.714844 201.15625 C 146.359375 201.800781 147.25 202.199219 148.234375 202.199219 L 217.910156 202.199219 C 218.890625 202.199219 219.78125 201.800781 220.425781 201.152344 C 221.070312 200.511719 221.46875 199.621094 221.46875 198.636719 L 221.46875 187.035156 C 220.9375 187.023438 220.445312 186.832031 220.058594 186.519531 L 214.84375 182.835938 L 208.980469 186.558594 C 208.117188 187.105469 207.03125 187.019531 206.265625 186.421875 L 202.125 183.632812 L 197.777344 186.527344 C 196.925781 187.09375 195.839844 187.027344 195.066406 186.449219 L 190.75 183.285156 L 187.128906 186.085938 C 186.207031 186.796875 184.921875 186.71875 184.097656 185.949219 L 174.71875 178.15625 C 173.722656 177.324219 173.585938 175.84375 174.414062 174.847656 L 174.59375 174.65625 L 183.035156 166.550781 C 183.523438 166.082031 184.160156 165.867188 184.785156 165.898438 L 221.46875 165.976562 L 221.46875 149.390625 Z M 183.070312 118.703125 " fill-opacity="1" fill-rule="evenodd"/><path fill="#fb5f5c" d="M 141.507812 145.917969 L 181.605469 113.867188 C 182.492188 113.160156 183.730469 113.199219 184.566406 113.890625 L 224.632812 145.917969 L 234.050781 145.917969 L 183.070312 104.929688 L 132.089844 145.917969 Z M 141.507812 145.917969 " fill-opacity="1" fill-rule="evenodd"/><path fill="#d3d3d3" d="M 223.605469 170.675781 L 185.613281 170.597656 L 179.742188 176.226562 L 185.746094 181.214844 L 189.203125 178.542969 C 190.015625 177.859375 191.214844 177.792969 192.105469 178.445312 L 196.542969 181.699219 L 200.832031 178.839844 C 201.597656 178.335938 202.625 178.304688 203.4375 178.847656 L 207.753906 181.757812 L 213.648438 178.011719 C 214.429688 177.519531 215.464844 177.511719 216.265625 178.078125 L 222.273438 182.320312 L 238.515625 182.320312 C 239.507812 182.320312 240.359375 182.9375 240.707031 183.808594 C 242.144531 187.109375 244.515625 189.902344 247.476562 191.851562 C 250.363281 193.75 253.835938 194.855469 257.574219 194.855469 C 262.65625 194.855469 267.253906 192.796875 270.582031 189.46875 C 273.910156 186.140625 275.96875 181.542969 275.96875 176.460938 C 275.96875 171.382812 273.910156 166.78125 270.582031 163.457031 C 267.253906 160.128906 262.65625 158.066406 257.574219 158.066406 C 253.824219 158.066406 250.335938 159.1875 247.4375 161.105469 C 244.4375 163.089844 242.050781 165.933594 240.628906 169.28125 L 240.625 169.28125 C 240.269531 170.121094 239.4375 170.707031 238.464844 170.707031 L 224.039062 170.675781 C 223.96875 170.683594 223.898438 170.6875 223.828125 170.6875 C 223.753906 170.6875 223.679688 170.683594 223.605469 170.675781 Z M 257.574219 187.472656 C 254.546875 187.472656 251.796875 186.242188 249.796875 184.25 L 249.789062 184.238281 C 247.796875 182.242188 246.566406 179.492188 246.566406 176.460938 C 246.566406 173.421875 247.796875 170.667969 249.789062 168.675781 C 251.78125 166.683594 254.535156 165.449219 257.574219 165.449219 C 260.605469 165.449219 263.355469 166.683594 265.351562 168.675781 L 265.359375 168.6875 C 267.351562 170.683594 268.585938 173.433594 268.585938 176.460938 C 268.585938 179.503906 267.351562 182.253906 265.359375 184.25 C 263.367188 186.242188 260.617188 187.472656 257.574219 187.472656 Z M 257.574219 187.472656 " fill-opacity="1" fill-rule="evenodd"/><path fill="#eeae86" d="M 173.464844 222.964844 C 166.949219 218.605469 159.449219 216.390625 151.933594 216.324219 C 144.828125 216.261719 137.703125 218.125 131.367188 221.917969 L 131.367188 259.804688 L 216.953125 264.546875 L 273.210938 232.179688 C 274.410156 231.289062 275.214844 230.035156 275.558594 228.667969 C 275.90625 227.28125 275.785156 225.773438 275.125 224.40625 C 274.46875 223.042969 273.363281 222.011719 272.0625 221.421875 C 270.789062 220.84375 269.320312 220.691406 267.894531 221.0625 L 221.648438 237.4375 C 219.847656 239.152344 217.453125 240.257812 214.792969 240.417969 L 175.9375 240.425781 C 174.632812 240.425781 173.578125 239.371094 173.578125 238.070312 C 173.578125 236.765625 174.632812 235.710938 175.9375 235.710938 L 214.648438 235.710938 C 216.203125 235.585938 217.589844 234.886719 218.601562 233.835938 L 218.617188 233.820312 L 218.695312 233.738281 L 218.703125 233.730469 C 219.714844 232.628906 220.328125 231.152344 220.328125 229.539062 C 220.328125 227.898438 219.691406 226.402344 218.648438 225.292969 C 217.632812 224.214844 216.226562 223.496094 214.648438 223.371094 L 174.773438 223.371094 L 174.773438 223.359375 C 174.324219 223.359375 173.867188 223.234375 173.464844 222.964844 Z M 173.464844 222.964844 " fill-opacity="1" fill-rule="evenodd"/><path fill="#5899cf" d="M 126.652344 267.988281 L 126.652344 216.761719 C 126.652344 215.960938 126.324219 215.226562 125.792969 214.699219 C 125.261719 214.167969 124.53125 213.835938 123.730469 213.835938 L 101.871094 213.835938 C 101.070312 213.835938 100.339844 214.167969 99.808594 214.699219 C 99.277344 215.226562 98.949219 215.960938 98.949219 216.761719 L 98.949219 267.988281 C 98.949219 268.792969 99.277344 269.523438 99.808594 270.054688 C 100.339844 270.585938 101.070312 270.914062 101.871094 270.914062 L 123.730469 270.914062 C 124.53125 270.914062 125.261719 270.585938 125.792969 270.054688 C 126.324219 269.523438 126.652344 268.792969 126.652344 267.988281 Z M 126.652344 267.988281 " fill-opacity="1" fill-rule="evenodd"/><path stroke-linecap="butt" transform="matrix(0.75, 0, 0, 0.75, 127.499996, 185.999988)" fill="none" stroke-linejoin="miter" d="M 0.00000516333 2.000016 L 160.000016 2.000016 " stroke="#000000" stroke-width="4" stroke-opacity="1" stroke-miterlimit="4"/></svg>