<svg xmlns="http://www.w3.org/2000/svg" xmlns:xlink="http://www.w3.org/1999/xlink" width="500" zoomAndPan="magnify" viewBox="0 0 375 374.999991" height="500" preserveAspectRatio="xMidYMid meet" version="1.0"><defs><clipPath id="9d18edb7c6"><path d="M 102 197 L 274 197 L 274 306.132812 L 102 306.132812 Z M 102 197 " clip-rule="nonzero"/></clipPath><clipPath id="cf26f7dbed"><path d="M 90.4375 188 L 284.6875 188 L 284.6875 206 L 90.4375 206 Z M 90.4375 188 " clip-rule="nonzero"/></clipPath><clipPath id="7c7b90fe3d"><path d="M 207 69.132812 L 270 69.132812 L 270 128 L 207 128 Z M 207 69.132812 " clip-rule="nonzero"/></clipPath></defs><g clip-path="url(#9d18edb7c6)"><path fill="#ffca6c" d="M 102.507812 197.417969 L 273.347656 197.417969 L 273.347656 288.507812 C 273.347656 289.082031 273.320312 289.652344 273.261719 290.226562 C 273.207031 290.796875 273.121094 291.363281 273.011719 291.925781 C 272.898438 292.488281 272.757812 293.046875 272.59375 293.59375 C 272.425781 294.144531 272.234375 294.683594 272.011719 295.214844 C 271.792969 295.746094 271.546875 296.265625 271.277344 296.769531 C 271.007812 297.277344 270.714844 297.769531 270.394531 298.246094 C 270.074219 298.722656 269.734375 299.183594 269.371094 299.628906 C 269.003906 300.070312 268.621094 300.496094 268.214844 300.902344 C 267.808594 301.308594 267.382812 301.695312 266.941406 302.058594 C 266.496094 302.421875 266.035156 302.761719 265.558594 303.082031 C 265.082031 303.402344 264.589844 303.695312 264.085938 303.96875 C 263.578125 304.238281 263.0625 304.484375 262.53125 304.703125 C 262 304.921875 261.460938 305.117188 260.910156 305.28125 C 260.363281 305.449219 259.804688 305.589844 259.242188 305.699219 C 258.679688 305.8125 258.113281 305.894531 257.542969 305.953125 C 256.972656 306.007812 256.398438 306.035156 255.824219 306.035156 L 120.027344 306.035156 C 119.457031 306.035156 118.882812 306.007812 118.3125 305.953125 C 117.742188 305.894531 117.171875 305.8125 116.609375 305.699219 C 116.046875 305.589844 115.492188 305.449219 114.941406 305.28125 C 114.394531 305.117188 113.855469 304.921875 113.324219 304.703125 C 112.792969 304.484375 112.273438 304.238281 111.769531 303.96875 C 111.261719 303.695312 110.769531 303.402344 110.292969 303.082031 C 109.816406 302.761719 109.355469 302.421875 108.914062 302.058594 C 108.46875 301.695312 108.042969 301.308594 107.640625 300.902344 C 107.234375 300.496094 106.847656 300.070312 106.484375 299.628906 C 106.121094 299.183594 105.777344 298.722656 105.460938 298.246094 C 105.140625 297.769531 104.847656 297.277344 104.574219 296.769531 C 104.304688 296.265625 104.058594 295.746094 103.839844 295.214844 C 103.621094 294.683594 103.429688 294.144531 103.261719 293.59375 C 103.09375 293.046875 102.957031 292.488281 102.84375 291.925781 C 102.730469 291.363281 102.648438 290.796875 102.589844 290.226562 C 102.535156 289.652344 102.507812 289.082031 102.507812 288.507812 Z M 102.507812 197.417969 " fill-opacity="1" fill-rule="nonzero"/></g><path fill="#726400" d="M 205.089844 153.710938 L 223.617188 160.152344 L 214.351562 198.394531 L 200.605469 190.980469 Z M 205.089844 153.710938 " fill-opacity="1" fill-rule="nonzero"/><path fill="#ffd3bb" d="M 212.5 106.363281 C 204.699219 110.226562 197.113281 114.476562 189.746094 119.113281 C 176.226562 127.613281 169.40625 132.003906 166.34375 138.753906 C 160.949219 150.644531 165.550781 163.277344 167.019531 167.304688 C 168.820312 172.25 169.828125 175.015625 172.585938 176.34375 C 180.445312 180.132812 195.886719 169.023438 201.578125 155.273438 C 203.234375 151.230469 204.101562 147.023438 204.179688 142.65625 C 208.5 141.777344 212.441406 140.042969 216.011719 137.453125 C 218.710938 135.441406 221.03125 133.058594 222.964844 130.296875 C 224.898438 127.539062 226.351562 124.550781 227.320312 121.324219 Z M 212.5 106.363281 " fill-opacity="1" fill-rule="nonzero"/><path fill="#f9b28f" d="M 178.941406 142.421875 L 192.429688 136.691406 L 189.695312 145.019531 Z M 178.941406 142.421875 " fill-opacity="1" fill-rule="nonzero"/><path fill="#938403" d="M 170.765625 140.445312 L 211.132812 150.199219 L 208.402344 195.269531 L 168.621094 195.269531 Z M 170.765625 140.445312 " fill-opacity="1" fill-rule="nonzero"/><path fill="#ffca6c" d="M 202.152344 189.484375 C 202.152344 190.171875 202.132812 190.859375 202.089844 191.542969 C 202.046875 192.226562 201.984375 192.90625 201.902344 193.582031 C 201.816406 194.253906 201.710938 194.921875 201.585938 195.578125 C 201.460938 196.238281 201.316406 196.882812 201.152344 197.519531 C 200.988281 198.152344 200.804688 198.773438 200.601562 199.378906 C 200.398438 199.988281 200.175781 200.574219 199.9375 201.148438 C 199.699219 201.71875 199.441406 202.269531 199.167969 202.800781 C 198.894531 203.332031 198.605469 203.84375 198.300781 204.328125 C 197.996094 204.8125 197.679688 205.277344 197.34375 205.710938 C 197.011719 206.148438 196.667969 206.558594 196.308594 206.9375 C 195.949219 207.320312 195.582031 207.671875 195.203125 207.996094 C 194.820312 208.320312 194.433594 208.617188 194.035156 208.878906 C 193.636719 209.140625 193.230469 209.371094 192.820312 209.574219 C 192.40625 209.773438 191.992188 209.9375 191.566406 210.074219 C 191.144531 210.207031 190.71875 210.308594 190.292969 210.375 C 189.863281 210.441406 189.433594 210.476562 189.003906 210.476562 C 188.570312 210.476562 188.140625 210.441406 187.714844 210.375 C 187.285156 210.308594 186.859375 210.207031 186.4375 210.074219 C 186.015625 209.9375 185.597656 209.773438 185.183594 209.574219 C 184.773438 209.371094 184.367188 209.140625 183.96875 208.878906 C 183.570312 208.617188 183.183594 208.320312 182.804688 207.996094 C 182.421875 207.671875 182.054688 207.320312 181.695312 206.9375 C 181.335938 206.558594 180.992188 206.148438 180.660156 205.710938 C 180.324219 205.273438 180.007812 204.8125 179.703125 204.328125 C 179.398438 203.84375 179.109375 203.332031 178.835938 202.800781 C 178.5625 202.269531 178.304688 201.71875 178.066406 201.148438 C 177.828125 200.574219 177.605469 199.988281 177.402344 199.378906 C 177.199219 198.773438 177.015625 198.152344 176.851562 197.519531 C 176.6875 196.882812 176.542969 196.238281 176.417969 195.578125 C 176.292969 194.921875 176.1875 194.253906 176.105469 193.582031 C 176.019531 192.90625 175.957031 192.226562 175.914062 191.542969 C 175.871094 190.859375 175.851562 190.171875 175.851562 189.484375 C 175.851562 188.796875 175.871094 188.113281 175.914062 187.429688 C 175.957031 186.742188 176.019531 186.066406 176.105469 185.390625 C 176.1875 184.714844 176.292969 184.050781 176.417969 183.390625 C 176.542969 182.734375 176.6875 182.085938 176.851562 181.453125 C 177.015625 180.816406 177.199219 180.195312 177.402344 179.589844 C 177.605469 178.984375 177.828125 178.394531 178.066406 177.824219 C 178.304688 177.25 178.5625 176.699219 178.835938 176.167969 C 179.109375 175.636719 179.398438 175.128906 179.703125 174.644531 C 180.007812 174.15625 180.324219 173.695312 180.660156 173.257812 C 180.992188 172.824219 181.335938 172.414062 181.695312 172.03125 C 182.054688 171.648438 182.421875 171.296875 182.804688 170.972656 C 183.183594 170.648438 183.570312 170.355469 183.96875 170.09375 C 184.367188 169.828125 184.773438 169.597656 185.183594 169.398438 C 185.597656 169.199219 186.015625 169.03125 186.4375 168.898438 C 186.859375 168.765625 187.285156 168.664062 187.714844 168.59375 C 188.140625 168.527344 188.570312 168.496094 189.003906 168.496094 C 189.433594 168.496094 189.863281 168.527344 190.292969 168.59375 C 190.71875 168.664062 191.144531 168.765625 191.566406 168.898438 C 191.992188 169.03125 192.40625 169.199219 192.820312 169.398438 C 193.230469 169.597656 193.636719 169.828125 194.035156 170.09375 C 194.433594 170.355469 194.820312 170.648438 195.203125 170.972656 C 195.582031 171.296875 195.949219 171.648438 196.308594 172.03125 C 196.667969 172.414062 197.011719 172.824219 197.34375 173.257812 C 197.679688 173.695312 197.996094 174.15625 198.300781 174.644531 C 198.605469 175.128906 198.894531 175.636719 199.167969 176.167969 C 199.441406 176.699219 199.699219 177.25 199.9375 177.824219 C 200.175781 178.394531 200.398438 178.984375 200.601562 179.589844 C 200.804688 180.195312 200.988281 180.816406 201.152344 181.453125 C 201.316406 182.085938 201.460938 182.734375 201.585938 183.390625 C 201.710938 184.050781 201.816406 184.714844 201.902344 185.390625 C 201.984375 186.066406 202.046875 186.742188 202.089844 187.429688 C 202.132812 188.113281 202.152344 188.796875 202.152344 189.484375 Z M 202.152344 189.484375 " fill-opacity="1" fill-rule="nonzero"/><g clip-path="url(#cf26f7dbed)"><path fill="#cf9c40" d="M 99.082031 188.054688 L 275.992188 188.054688 C 276.5625 188.054688 277.125 188.109375 277.683594 188.21875 C 278.242188 188.332031 278.785156 188.496094 279.308594 188.710938 C 279.835938 188.929688 280.335938 189.199219 280.808594 189.515625 C 281.28125 189.832031 281.71875 190.191406 282.121094 190.59375 C 282.523438 190.996094 282.882812 191.433594 283.199219 191.90625 C 283.515625 192.378906 283.78125 192.878906 284 193.40625 C 284.21875 193.929688 284.382812 194.472656 284.492188 195.03125 C 284.601562 195.589844 284.660156 196.152344 284.660156 196.722656 C 284.660156 197.292969 284.601562 197.855469 284.492188 198.414062 C 284.382812 198.972656 284.21875 199.515625 284 200.039062 C 283.78125 200.566406 283.515625 201.066406 283.199219 201.539062 C 282.882812 202.011719 282.523438 202.449219 282.121094 202.851562 C 281.71875 203.253906 281.28125 203.613281 280.808594 203.929688 C 280.335938 204.246094 279.835938 204.511719 279.308594 204.730469 C 278.785156 204.949219 278.242188 205.113281 277.683594 205.222656 C 277.125 205.335938 276.5625 205.390625 275.992188 205.390625 L 99.082031 205.390625 C 98.511719 205.390625 97.949219 205.335938 97.390625 205.222656 C 96.832031 205.113281 96.289062 204.949219 95.765625 204.730469 C 95.238281 204.511719 94.738281 204.246094 94.265625 203.929688 C 93.792969 203.613281 93.355469 203.253906 92.953125 202.851562 C 92.550781 202.449219 92.191406 202.011719 91.875 201.539062 C 91.558594 201.066406 91.292969 200.566406 91.074219 200.039062 C 90.859375 199.515625 90.691406 198.972656 90.582031 198.414062 C 90.472656 197.855469 90.414062 197.292969 90.414062 196.722656 C 90.414062 196.152344 90.472656 195.589844 90.582031 195.03125 C 90.691406 194.472656 90.859375 193.929688 91.074219 193.40625 C 91.292969 192.878906 91.558594 192.378906 91.875 191.90625 C 92.191406 191.433594 92.550781 190.996094 92.953125 190.59375 C 93.355469 190.191406 93.792969 189.832031 94.265625 189.515625 C 94.738281 189.199219 95.238281 188.929688 95.765625 188.710938 C 96.289062 188.496094 96.832031 188.332031 97.390625 188.21875 C 97.949219 188.109375 98.511719 188.054688 99.082031 188.054688 Z M 99.082031 188.054688 " fill-opacity="1" fill-rule="nonzero"/></g><path fill="#938403" d="M 227.320312 232.148438 C 222.894531 224.734375 215.421875 222.300781 214.449219 222.003906 C 205.582031 219.261719 195.417969 222.289062 187.925781 229.808594 C 180.4375 222.289062 170.273438 219.261719 161.402344 222.003906 C 160.433594 222.300781 152.960938 224.734375 148.53125 232.148438 C 139.617188 247.070312 152.144531 266.914062 153.601562 269.21875 C 164.4375 286.382812 183.074219 290.847656 187.925781 291.855469 C 192.777344 290.847656 211.414062 286.382812 222.25 269.21875 C 223.707031 266.914062 236.238281 247.070312 227.320312 232.148438 Z M 227.320312 232.148438 " fill-opacity="1" fill-rule="nonzero"/><path fill="#ffca6c" d="M 186.613281 272.917969 C 184.09375 272.894531 181.671875 272.394531 179.351562 271.414062 C 179.117188 271.320312 178.910156 271.179688 178.730469 271.003906 C 178.546875 270.824219 178.410156 270.617188 178.3125 270.382812 C 178.214844 270.148438 178.167969 269.90625 178.164062 269.652344 C 178.164062 269.398438 178.214844 269.152344 178.308594 268.917969 C 178.40625 268.683594 178.546875 268.476562 178.722656 268.296875 C 178.902344 268.117188 179.109375 267.980469 179.34375 267.882812 C 179.578125 267.785156 179.824219 267.738281 180.074219 267.738281 C 180.328125 267.738281 180.574219 267.785156 180.808594 267.882812 C 183.0625 268.816406 186.535156 269.691406 190.230469 268.5625 C 193.28125 267.632812 196.625 265.523438 196.550781 263.980469 C 196.503906 262.964844 194.980469 261.714844 193.539062 261.089844 C 192.238281 260.523438 191.296875 260.65625 189.996094 260.835938 C 188.085938 261.199219 186.199219 261.089844 184.34375 260.5 C 182.25 259.816406 178.609375 258.144531 177.789062 254.628906 C 176.898438 250.816406 179.96875 246.863281 183.34375 245.144531 C 187.730469 242.910156 193.285156 244.675781 197.214844 247.4375 C 197.421875 247.582031 197.59375 247.761719 197.730469 247.976562 C 197.863281 248.191406 197.953125 248.421875 197.996094 248.671875 C 198.042969 248.921875 198.035156 249.167969 197.980469 249.414062 C 197.925781 249.664062 197.824219 249.890625 197.679688 250.097656 C 197.535156 250.304688 197.355469 250.476562 197.140625 250.613281 C 196.925781 250.746094 196.695312 250.835938 196.445312 250.882812 C 196.199219 250.925781 195.949219 250.917969 195.703125 250.863281 C 195.457031 250.808594 195.230469 250.710938 195.019531 250.5625 C 192.261719 248.625 187.925781 246.910156 185.109375 248.535156 C 183.121094 249.675781 181.097656 252.003906 181.507812 253.761719 C 181.792969 254.976562 183.296875 256.140625 185.527344 256.867188 C 186.828125 257.273438 188.144531 257.332031 189.476562 257.050781 C 191.023438 256.835938 192.777344 256.59375 195.058594 257.582031 C 197.417969 258.605469 200.222656 260.847656 200.363281 263.796875 C 200.578125 268.210938 194.792969 271.167969 191.34375 272.21875 C 189.800781 272.6875 188.222656 272.921875 186.613281 272.917969 Z M 186.613281 272.917969 " fill-opacity="1" fill-rule="nonzero"/><path fill="#ffca6c" d="M 189 278.285156 C 188.75 278.285156 188.503906 278.238281 188.269531 278.140625 C 188.035156 278.042969 187.832031 277.90625 187.652344 277.726562 C 187.472656 277.546875 187.335938 277.339844 187.238281 277.105469 C 187.140625 276.871094 187.09375 276.628906 187.09375 276.375 L 187.09375 239.5625 C 187.09375 239.308594 187.140625 239.066406 187.238281 238.832031 C 187.335938 238.597656 187.472656 238.390625 187.652344 238.210938 C 187.832031 238.03125 188.039062 237.894531 188.269531 237.796875 C 188.503906 237.699219 188.75 237.652344 189 237.652344 C 189.253906 237.652344 189.5 237.699219 189.734375 237.796875 C 189.964844 237.894531 190.171875 238.03125 190.351562 238.210938 C 190.53125 238.390625 190.667969 238.597656 190.765625 238.832031 C 190.863281 239.066406 190.910156 239.308594 190.910156 239.5625 L 190.910156 276.375 C 190.910156 276.628906 190.863281 276.871094 190.765625 277.105469 C 190.667969 277.339844 190.53125 277.546875 190.351562 277.726562 C 190.171875 277.90625 189.964844 278.042969 189.734375 278.140625 C 189.5 278.238281 189.253906 278.285156 189 278.285156 Z M 189 278.285156 " fill-opacity="1" fill-rule="nonzero"/><g clip-path="url(#7c7b90fe3d)"><path fill="#c7c394" d="M 243.117188 69.226562 C 251.773438 81.765625 260.433594 92.65625 269.203125 105.703125 C 260.101562 112.273438 248.515625 121.386719 239.414062 127.957031 L 207.820312 93.226562 Z M 243.117188 69.226562 " fill-opacity="1" fill-rule="nonzero"/></g><path fill="#938403" d="M 207.820312 93.226562 C 206.492188 94.140625 205.390625 95.273438 204.511719 96.625 C 203.632812 97.976562 203.046875 99.445312 202.75 101.03125 C 205.160156 105.503906 207.855469 109.796875 210.84375 113.910156 C 215.800781 120.734375 221.445312 126.933594 227.777344 132.507812 C 229.902344 132.359375 231.957031 131.894531 233.941406 131.117188 C 235.925781 130.34375 237.75 129.289062 239.414062 127.957031 Z M 207.820312 93.226562 " fill-opacity="1" fill-rule="nonzero"/><path fill="#ffd3bb" d="M 204.179688 142.65625 L 191.957031 138.625 C 190.683594 142 189.710938 144.914062 189 147.175781 C 186.691406 154.511719 186.734375 156.242188 187.535156 157.746094 C 188.949219 160.390625 192.0625 161.09375 192.21875 161.125 C 193.957031 161.460938 195.605469 161.199219 197.15625 160.347656 C 198.898438 159.355469 199.898438 157.75 201.1875 154.296875 C 202.59375 150.523438 203.589844 146.640625 204.179688 142.65625 Z M 204.179688 142.65625 " fill-opacity="1" fill-rule="nonzero"/></svg>