<svg xmlns="http://www.w3.org/2000/svg" xmlns:xlink="http://www.w3.org/1999/xlink" width="500" zoomAndPan="magnify" viewBox="0 0 375 374.999991" height="500" preserveAspectRatio="xMidYMid meet" version="1.0"><defs><clipPath id="2a3d8a06e6"><path d="M 128 89.808594 L 250 89.808594 L 250 285.558594 L 128 285.558594 Z M 128 89.808594 " clip-rule="nonzero"/></clipPath></defs><path fill="#265e87" d="M 239.859375 284.800781 L 138.191406 284.800781 C 133.449219 284.800781 129.464844 281.003906 129.464844 276.074219 L 129.464844 99.292969 C 129.464844 94.550781 133.449219 90.566406 138.191406 90.566406 L 239.859375 90.566406 C 244.601562 90.566406 248.582031 94.550781 248.582031 99.292969 L 248.582031 276.074219 C 248.582031 281.003906 244.601562 284.800781 239.859375 284.800781 Z M 239.859375 284.800781 " fill-opacity="1" fill-rule="evenodd"/><g clip-path="url(#2a3d8a06e6)"><path fill="#000000" d="M 239.859375 285.558594 L 138.191406 285.558594 C 135.535156 285.558594 133.257812 284.609375 131.550781 282.902344 C 129.84375 281.195312 128.707031 278.730469 128.707031 276.074219 L 128.707031 99.292969 C 128.707031 96.824219 129.84375 94.359375 131.550781 92.652344 C 133.257812 90.945312 135.535156 89.808594 138.191406 89.808594 L 239.859375 89.808594 C 242.324219 89.808594 244.789062 90.945312 246.496094 92.652344 C 248.203125 94.359375 249.34375 96.824219 249.34375 99.292969 L 249.34375 276.074219 C 249.34375 278.730469 248.203125 281.195312 246.496094 282.902344 C 244.789062 284.609375 242.324219 285.558594 239.859375 285.558594 Z M 138.191406 284.039062 L 239.859375 284.039062 C 241.945312 284.039062 244.03125 283.28125 245.359375 281.765625 C 246.875 280.246094 247.824219 278.351562 247.824219 276.074219 L 247.824219 99.292969 C 247.824219 97.207031 246.875 95.117188 245.359375 93.792969 C 244.03125 92.273438 241.945312 91.324219 239.859375 91.324219 L 138.191406 91.324219 C 135.914062 91.324219 134.015625 92.273438 132.5 93.792969 C 131.171875 95.117188 130.222656 97.207031 130.222656 99.292969 L 130.222656 276.074219 C 130.222656 278.351562 131.171875 280.246094 132.5 281.765625 C 134.015625 283.28125 135.914062 284.039062 138.191406 284.039062 Z M 138.191406 284.039062 " fill-opacity="1" fill-rule="nonzero"/></g><path fill="#ffffff" d="M 234.738281 273.796875 L 138.191406 273.796875 C 137.242188 273.796875 136.292969 272.847656 136.292969 271.902344 L 136.292969 250.65625 L 236.632812 250.65625 L 236.632812 271.902344 C 236.632812 272.847656 235.683594 273.796875 234.738281 273.796875 Z M 136.292969 121.292969 L 136.292969 100.050781 C 136.292969 99.101562 137.242188 98.152344 138.191406 98.152344 L 177.265625 98.152344 C 177.644531 98.152344 178.023438 98.34375 178.402344 98.53125 L 186.746094 104.792969 L 194.523438 98.722656 C 194.714844 98.34375 195.285156 98.152344 195.664062 98.152344 L 234.738281 98.152344 C 235.683594 98.152344 236.632812 99.101562 236.632812 100.050781 L 236.632812 121.292969 Z M 136.292969 121.292969 " fill-opacity="1" fill-rule="evenodd"/><path fill="#000000" d="M 234.738281 274.554688 L 138.191406 274.554688 C 137.429688 274.554688 136.863281 274.175781 136.292969 273.609375 C 135.914062 273.230469 135.535156 272.46875 135.535156 271.902344 L 135.535156 249.898438 L 237.390625 249.898438 L 237.390625 271.902344 C 237.390625 272.46875 237.011719 273.230469 236.632812 273.609375 C 236.066406 274.175781 235.496094 274.554688 234.738281 274.554688 Z M 138.191406 273.039062 L 234.738281 273.039062 C 234.925781 273.039062 235.304688 272.847656 235.496094 272.660156 C 235.683594 272.46875 235.875 272.089844 235.875 271.902344 L 235.875 251.414062 L 137.050781 251.414062 L 137.050781 271.902344 C 137.050781 272.089844 137.242188 272.46875 137.429688 272.660156 C 137.621094 272.847656 137.808594 273.039062 138.191406 273.039062 Z M 135.535156 121.292969 L 135.535156 100.050781 C 135.535156 99.480469 135.914062 98.722656 136.292969 98.34375 C 136.863281 97.773438 137.429688 97.394531 138.191406 97.394531 L 177.265625 97.394531 C 177.644531 97.394531 177.832031 97.585938 178.210938 97.585938 C 178.402344 97.773438 178.589844 97.773438 178.78125 97.964844 L 186.746094 103.84375 L 193.957031 97.964844 C 194.144531 97.773438 194.523438 97.773438 194.714844 97.585938 C 195.09375 97.585938 195.285156 97.394531 195.664062 97.394531 L 234.738281 97.394531 C 235.496094 97.394531 236.066406 97.773438 236.632812 98.34375 C 237.011719 98.722656 237.390625 99.480469 237.390625 100.050781 L 237.390625 122.054688 L 135.535156 122.054688 Z M 137.050781 100.050781 L 137.050781 120.535156 L 235.875 120.535156 L 235.875 100.050781 C 235.875 99.859375 235.683594 99.480469 235.496094 99.292969 C 235.304688 99.101562 234.925781 98.914062 234.738281 98.914062 L 195.664062 98.914062 C 195.472656 98.914062 195.472656 99.101562 195.285156 99.101562 C 195.09375 99.101562 195.09375 99.101562 194.902344 99.292969 L 187.128906 105.363281 L 186.746094 105.742188 L 186.179688 105.363281 L 178.023438 99.292969 C 177.832031 99.101562 177.832031 99.101562 177.644531 99.101562 C 177.453125 99.101562 177.453125 98.914062 177.265625 98.914062 L 138.191406 98.914062 C 137.808594 98.914062 137.621094 99.101562 137.429688 99.292969 C 137.242188 99.480469 137.050781 99.859375 137.050781 100.050781 Z M 137.050781 100.050781 " fill-opacity="1" fill-rule="nonzero"/><path fill="#1c4563" d="M 136.292969 121.292969 L 236.632812 121.292969 L 236.632812 250.65625 L 136.292969 250.65625 Z M 136.292969 121.292969 " fill-opacity="1" fill-rule="evenodd"/><path fill="#000000" d="M 135.535156 250.65625 L 135.535156 120.535156 L 237.390625 120.535156 L 237.390625 251.414062 L 135.535156 251.414062 Z M 137.050781 141.023438 L 137.050781 249.898438 L 235.875 249.898438 L 235.875 122.054688 L 137.050781 122.054688 Z M 137.050781 141.023438 " fill-opacity="1" fill-rule="nonzero"/><path fill="#1c4563" d="M 222.027344 116.933594 C 218.992188 116.933594 216.71875 114.65625 216.71875 111.621094 C 216.71875 108.777344 218.992188 106.308594 222.027344 106.308594 C 225.0625 106.308594 227.339844 108.777344 227.339844 111.621094 C 227.339844 114.65625 225.0625 116.933594 222.027344 116.933594 Z M 222.027344 116.933594 " fill-opacity="1" fill-rule="evenodd"/><path fill="#000000" d="M 222.027344 117.691406 C 220.320312 117.691406 218.804688 117.121094 217.664062 115.984375 C 216.527344 114.84375 215.957031 113.328125 215.957031 111.621094 C 215.957031 109.914062 216.527344 108.398438 217.664062 107.257812 C 218.804688 106.121094 220.320312 105.550781 222.027344 105.550781 C 223.734375 105.550781 225.253906 106.121094 226.390625 107.257812 C 227.527344 108.398438 228.097656 109.914062 228.097656 111.621094 C 228.097656 113.328125 227.527344 114.84375 226.390625 115.984375 C 225.253906 117.121094 223.734375 117.691406 222.027344 117.691406 Z M 218.804688 114.84375 C 219.5625 115.792969 220.699219 116.171875 222.027344 116.171875 C 223.355469 116.171875 224.496094 115.792969 225.253906 114.84375 C 226.203125 114.085938 226.582031 112.949219 226.582031 111.621094 C 226.582031 110.292969 226.203125 109.15625 225.253906 108.398438 C 224.496094 107.636719 223.355469 107.070312 222.027344 107.070312 C 220.699219 107.070312 219.5625 107.636719 218.804688 108.398438 C 217.855469 109.15625 217.476562 110.292969 217.476562 111.621094 C 217.476562 112.949219 217.855469 114.085938 218.804688 114.84375 Z M 218.804688 114.84375 " fill-opacity="1" fill-rule="nonzero"/><path fill="#1c4563" d="M 197.371094 114.84375 L 175.558594 114.84375 C 174.609375 114.84375 173.660156 114.085938 173.660156 112.949219 C 173.660156 112 174.609375 111.050781 175.558594 111.050781 L 197.371094 111.050781 C 198.316406 111.050781 199.265625 112 199.265625 112.949219 C 199.265625 114.085938 198.316406 114.84375 197.371094 114.84375 Z M 197.371094 114.84375 " fill-opacity="1" fill-rule="evenodd"/><path fill="#000000" d="M 197.371094 115.605469 L 175.558594 115.605469 C 174.796875 115.605469 174.230469 115.414062 173.660156 114.84375 C 173.28125 114.464844 172.902344 113.707031 172.902344 112.949219 C 172.902344 112.378906 173.28125 111.621094 173.660156 111.050781 C 174.230469 110.671875 174.796875 110.292969 175.558594 110.292969 L 197.371094 110.292969 C 198.128906 110.292969 198.699219 110.671875 199.265625 111.050781 C 199.644531 111.621094 200.027344 112.378906 200.027344 112.949219 C 200.027344 113.707031 199.644531 114.464844 199.265625 114.84375 C 198.699219 115.414062 198.128906 115.605469 197.371094 115.605469 Z M 175.558594 114.085938 L 197.371094 114.085938 C 197.558594 114.085938 197.9375 114.085938 198.128906 113.898438 C 198.316406 113.707031 198.507812 113.328125 198.507812 112.949219 C 198.507812 112.757812 198.316406 112.378906 198.128906 112.191406 C 197.9375 112 197.558594 111.8125 197.371094 111.8125 L 175.558594 111.8125 C 175.367188 111.8125 174.988281 112 174.796875 112.191406 C 174.609375 112.378906 174.417969 112.757812 174.417969 112.949219 C 174.417969 113.328125 174.609375 113.707031 174.796875 113.898438 C 174.988281 114.085938 175.367188 114.085938 175.558594 114.085938 Z M 175.558594 114.085938 " fill-opacity="1" fill-rule="nonzero"/><path fill="#1c4563" d="M 204.957031 264.125 L 167.96875 264.125 C 166.832031 264.125 166.074219 263.175781 166.074219 262.226562 C 166.074219 261.089844 166.832031 260.332031 167.96875 260.332031 L 204.957031 260.332031 C 206.09375 260.332031 206.855469 261.089844 206.855469 262.226562 C 206.855469 263.175781 206.09375 264.125 204.957031 264.125 Z M 204.957031 264.125 " fill-opacity="1" fill-rule="evenodd"/><path fill="#000000" d="M 204.957031 264.882812 L 167.96875 264.882812 C 167.210938 264.882812 166.453125 264.503906 166.074219 264.125 C 165.503906 263.554688 165.3125 262.984375 165.3125 262.226562 C 165.3125 261.46875 165.503906 260.710938 166.074219 260.332031 C 166.453125 259.761719 167.210938 259.570312 167.96875 259.570312 L 204.957031 259.570312 C 205.714844 259.570312 206.472656 259.761719 206.855469 260.332031 C 207.421875 260.710938 207.613281 261.46875 207.613281 262.226562 C 207.613281 262.984375 207.421875 263.554688 206.855469 264.125 C 206.472656 264.503906 205.714844 264.882812 204.957031 264.882812 Z M 167.96875 263.367188 L 204.957031 263.367188 C 205.335938 263.367188 205.527344 263.175781 205.90625 262.984375 C 206.09375 262.796875 206.09375 262.605469 206.09375 262.226562 C 206.09375 261.847656 206.09375 261.65625 205.90625 261.46875 C 205.527344 261.277344 205.335938 261.089844 204.957031 261.089844 L 167.96875 261.089844 C 167.589844 261.089844 167.210938 261.277344 167.019531 261.46875 C 166.832031 261.65625 166.832031 261.847656 166.832031 262.226562 C 166.832031 262.605469 166.832031 262.796875 167.019531 262.984375 C 167.402344 263.175781 167.589844 263.367188 167.96875 263.367188 Z M 167.96875 263.367188 " fill-opacity="1" fill-rule="nonzero"/><path fill="#39b250" d="M 252.566406 220.308594 C 252.378906 220.308594 251.996094 220.117188 251.808594 220.117188 C 251.050781 219.738281 250.671875 219.167969 250.671875 218.410156 L 250.671875 215.753906 L 210.457031 215.753906 C 209.699219 215.753906 209.128906 215.375 208.75 214.617188 C 208.5625 213.859375 208.75 213.101562 209.320312 212.53125 C 213.683594 208.738281 217.097656 203.996094 219.183594 198.496094 C 219.371094 197.925781 220.132812 197.355469 220.890625 197.355469 L 250.671875 197.355469 L 250.671875 194.890625 C 250.671875 194.132812 251.050781 193.375 251.808594 193.183594 C 252.566406 192.804688 253.324219 192.992188 253.894531 193.5625 L 265.65625 205.324219 C 266.414062 206.082031 266.414062 207.21875 265.65625 207.980469 L 253.894531 219.738281 C 253.515625 220.117188 252.945312 220.308594 252.566406 220.308594 Z M 252.566406 220.308594 " fill-opacity="1" fill-rule="evenodd"/><path fill="#000000" d="M 252.566406 221.066406 C 252.378906 221.066406 252.1875 221.066406 251.996094 220.875 C 251.808594 220.875 251.617188 220.875 251.617188 220.875 C 251.050781 220.496094 250.671875 220.308594 250.289062 219.738281 C 250.101562 219.359375 249.910156 218.789062 249.910156 218.410156 L 249.910156 216.515625 L 210.457031 216.515625 C 210.078125 216.515625 209.507812 216.515625 208.941406 216.136719 C 208.5625 215.753906 208.183594 215.375 207.992188 214.808594 C 207.800781 214.429688 207.800781 213.859375 207.992188 213.289062 C 208.183594 212.71875 208.371094 212.339844 208.75 211.960938 C 211.027344 210.066406 212.921875 207.980469 214.441406 205.703125 C 216.148438 203.425781 217.476562 200.960938 218.425781 198.304688 C 218.613281 197.734375 218.992188 197.355469 219.371094 196.976562 C 219.941406 196.789062 220.320312 196.597656 220.890625 196.597656 L 249.910156 196.597656 L 249.910156 194.890625 C 249.910156 194.320312 250.101562 193.753906 250.289062 193.375 C 250.671875 192.992188 251.050781 192.613281 251.617188 192.425781 C 251.996094 192.234375 252.566406 192.234375 253.136719 192.234375 C 253.515625 192.425781 254.085938 192.613281 254.464844 192.992188 L 266.222656 204.753906 C 266.601562 205.324219 266.984375 205.890625 266.984375 206.652344 C 266.984375 207.21875 266.601562 207.980469 266.222656 208.546875 L 254.464844 220.308594 C 254.085938 220.496094 253.894531 220.6875 253.515625 220.875 C 253.136719 220.875 252.945312 221.066406 252.566406 221.066406 Z M 252.378906 219.550781 C 252.378906 219.550781 252.378906 219.550781 252.566406 219.550781 C 252.757812 219.550781 252.757812 219.359375 252.945312 219.359375 C 253.136719 219.359375 253.324219 219.167969 253.324219 219.167969 L 265.085938 207.410156 C 265.277344 207.21875 265.464844 206.839844 265.464844 206.652344 C 265.464844 206.273438 265.277344 206.082031 265.085938 205.703125 L 265.085938 205.890625 L 253.324219 194.132812 C 253.136719 193.941406 252.945312 193.753906 252.757812 193.753906 C 252.566406 193.753906 252.378906 193.753906 252.1875 193.753906 C 251.808594 193.941406 251.808594 194.132812 251.617188 194.320312 C 251.429688 194.320312 251.429688 194.699219 251.429688 194.890625 L 251.429688 198.117188 L 220.890625 198.117188 C 220.699219 198.117188 220.511719 198.117188 220.320312 198.304688 C 220.132812 198.496094 219.941406 198.683594 219.941406 198.875 C 218.804688 201.53125 217.476562 204.183594 215.769531 206.652344 C 214.0625 208.925781 211.976562 211.203125 209.890625 213.101562 C 209.699219 213.289062 209.507812 213.480469 209.507812 213.667969 C 209.320312 213.859375 209.320312 214.046875 209.507812 214.429688 C 209.507812 214.617188 209.699219 214.808594 209.890625 214.808594 C 210.078125 214.996094 210.269531 214.996094 210.457031 214.996094 L 251.429688 214.996094 L 251.429688 218.410156 C 251.429688 218.601562 251.429688 218.789062 251.617188 218.980469 C 251.808594 219.167969 251.808594 219.359375 252.1875 219.359375 C 252.1875 219.359375 252.1875 219.359375 252.378906 219.550781 Z M 252.378906 219.550781 " fill-opacity="1" fill-rule="nonzero"/><path fill="#39b250" d="M 109.546875 178.957031 C 109.167969 178.957031 108.597656 178.769531 108.21875 178.386719 L 96.460938 166.628906 C 95.703125 165.871094 95.703125 164.730469 96.460938 163.972656 L 108.21875 152.210938 C 108.789062 151.644531 109.546875 151.644531 110.308594 151.832031 C 111.066406 152.210938 111.445312 152.78125 111.445312 153.539062 L 111.445312 156.007812 L 162.46875 156.007812 C 163.226562 156.007812 163.796875 156.574219 164.175781 157.335938 C 164.367188 158.09375 164.175781 158.851562 163.605469 159.421875 C 159.246094 163.214844 155.828125 167.957031 153.742188 173.457031 C 153.554688 174.027344 152.796875 174.59375 152.035156 174.59375 L 111.445312 174.59375 L 111.445312 177.0625 C 111.445312 177.820312 111.066406 178.578125 110.308594 178.769531 C 110.117188 178.957031 109.738281 178.957031 109.546875 178.957031 Z M 109.546875 178.957031 " fill-opacity="1" fill-rule="evenodd"/><path fill="#000000" d="M 109.546875 179.714844 C 109.167969 179.714844 108.789062 179.714844 108.597656 179.527344 C 108.21875 179.335938 108.03125 179.148438 107.652344 178.957031 L 95.890625 167.199219 C 95.511719 166.628906 95.132812 166.058594 95.132812 165.300781 C 95.132812 164.730469 95.511719 163.972656 95.890625 163.402344 L 107.652344 151.644531 C 108.03125 151.265625 108.597656 151.074219 108.980469 151.074219 C 109.546875 150.886719 110.117188 150.886719 110.496094 151.074219 C 111.066406 151.453125 111.445312 151.644531 111.824219 152.210938 C 112.015625 152.59375 112.203125 153.160156 112.203125 153.539062 L 112.203125 155.246094 L 162.46875 155.246094 C 162.847656 155.246094 163.417969 155.4375 163.796875 155.816406 C 164.367188 156.195312 164.746094 156.574219 164.933594 157.144531 C 165.125 157.523438 165.125 158.09375 164.933594 158.660156 C 164.746094 159.230469 164.554688 159.609375 164.175781 159.988281 C 161.898438 161.886719 160.003906 163.972656 158.484375 166.25 C 156.777344 168.523438 155.449219 170.992188 154.503906 173.648438 C 154.3125 174.214844 153.933594 174.59375 153.554688 174.972656 C 152.984375 175.164062 152.605469 175.355469 152.035156 175.355469 L 112.203125 175.355469 L 112.203125 177.0625 C 112.203125 177.628906 112.015625 178.199219 111.824219 178.578125 C 111.445312 178.957031 111.066406 179.335938 110.6875 179.527344 C 110.496094 179.527344 110.308594 179.714844 110.117188 179.714844 C 109.925781 179.714844 109.738281 179.714844 109.546875 179.714844 Z M 109.167969 178.199219 C 109.359375 178.199219 109.359375 178.199219 109.546875 178.199219 C 109.738281 178.199219 109.738281 178.199219 109.738281 178.199219 C 109.925781 178.199219 109.925781 178.199219 109.925781 178.199219 C 110.308594 178.007812 110.308594 177.820312 110.496094 177.628906 C 110.6875 177.628906 110.6875 177.25 110.6875 177.0625 L 110.6875 173.835938 L 152.035156 173.835938 C 152.226562 173.835938 152.414062 173.835938 152.605469 173.648438 C 152.796875 173.457031 152.984375 173.265625 152.984375 173.078125 C 154.121094 170.421875 155.449219 167.765625 157.15625 165.300781 C 158.863281 163.023438 160.953125 160.75 163.039062 158.851562 C 163.226562 158.660156 163.417969 158.472656 163.417969 158.28125 C 163.605469 158.09375 163.605469 157.902344 163.417969 157.523438 C 163.417969 157.335938 163.226562 157.144531 163.039062 157.144531 C 162.847656 156.953125 162.660156 156.765625 162.46875 156.765625 L 110.6875 156.765625 L 110.6875 153.539062 C 110.6875 153.351562 110.6875 153.160156 110.496094 152.972656 C 110.308594 152.78125 110.308594 152.59375 109.925781 152.59375 C 109.738281 152.402344 109.546875 152.402344 109.359375 152.402344 C 109.167969 152.59375 108.980469 152.59375 108.789062 152.78125 L 97.027344 164.542969 C 96.839844 164.730469 96.648438 165.109375 96.648438 165.300781 C 96.648438 165.679688 96.839844 165.871094 97.027344 166.058594 L 108.789062 177.820312 C 108.789062 178.007812 108.980469 178.007812 109.167969 178.199219 Z M 109.167969 178.199219 " fill-opacity="1" fill-rule="nonzero"/><path fill="#ffc108" d="M 186.367188 224.859375 C 165.125 224.859375 147.671875 207.410156 147.671875 185.976562 C 147.671875 164.542969 165.125 147.089844 186.367188 147.089844 C 207.800781 147.089844 225.253906 164.542969 225.253906 185.976562 C 225.253906 207.410156 207.800781 224.859375 186.367188 224.859375 Z M 186.367188 224.859375 " fill-opacity="1" fill-rule="evenodd"/><path fill="#000000" d="M 186.367188 225.617188 C 175.558594 225.617188 165.691406 221.066406 158.484375 213.859375 C 151.277344 206.839844 146.914062 196.976562 146.914062 185.976562 C 146.914062 174.972656 151.277344 165.109375 158.484375 158.09375 C 165.691406 150.886719 175.558594 146.332031 186.367188 146.332031 C 197.371094 146.332031 207.234375 150.886719 214.441406 158.09375 C 221.648438 165.109375 226.011719 174.972656 226.011719 185.976562 C 226.011719 196.976562 221.648438 206.839844 214.441406 213.859375 C 207.234375 221.066406 197.371094 225.617188 186.367188 225.617188 Z M 159.625 212.910156 C 166.453125 219.738281 175.9375 224.101562 186.367188 224.101562 C 196.992188 224.101562 206.472656 219.738281 213.304688 212.910156 C 220.320312 205.890625 224.496094 196.40625 224.496094 185.976562 C 224.496094 175.542969 220.320312 166.058594 213.304688 159.042969 C 206.472656 152.210938 196.992188 147.851562 186.367188 147.851562 C 175.9375 147.851562 166.453125 152.210938 159.625 159.042969 C 152.605469 166.058594 148.433594 175.542969 148.433594 185.976562 C 148.433594 196.40625 152.605469 205.890625 159.625 212.910156 Z M 159.625 212.910156 " fill-opacity="1" fill-rule="nonzero"/><path fill="#ffae07" d="M 186.367188 215.753906 C 170.054688 215.753906 156.589844 202.476562 156.589844 185.976562 C 156.589844 169.472656 170.054688 156.195312 186.367188 156.195312 C 202.871094 156.195312 216.339844 169.472656 216.339844 185.976562 C 216.339844 202.476562 202.871094 215.753906 186.367188 215.753906 Z M 186.367188 215.753906 " fill-opacity="1" fill-rule="evenodd"/><path fill="#000000" d="M 186.367188 216.515625 C 178.023438 216.515625 170.433594 213.101562 164.933594 207.597656 C 159.246094 202.097656 155.828125 194.320312 155.828125 185.976562 C 155.828125 177.628906 159.246094 169.851562 164.933594 164.351562 C 170.433594 158.851562 178.023438 155.4375 186.367188 155.4375 C 194.902344 155.4375 202.492188 158.851562 207.992188 164.351562 C 213.683594 169.851562 217.097656 177.628906 217.097656 185.976562 C 217.097656 194.320312 213.683594 202.097656 207.992188 207.597656 C 202.492188 213.101562 194.902344 216.515625 186.367188 216.515625 Z M 165.882812 206.460938 C 171.195312 211.773438 178.402344 214.996094 186.367188 214.996094 C 194.523438 214.996094 201.734375 211.773438 207.042969 206.460938 C 212.355469 201.339844 215.578125 193.941406 215.578125 185.976562 C 215.578125 178.007812 212.355469 170.613281 207.042969 165.492188 C 201.734375 160.179688 194.523438 156.953125 186.367188 156.953125 C 178.402344 156.953125 171.195312 160.179688 165.882812 165.492188 C 160.570312 170.613281 157.347656 178.007812 157.347656 185.976562 C 157.347656 193.941406 160.570312 201.339844 165.882812 206.460938 Z M 165.882812 206.460938 " fill-opacity="1" fill-rule="nonzero"/><path fill="#ffffff" d="M 186.367188 206.273438 C 185.421875 206.273438 184.472656 205.511719 184.472656 204.375 L 184.472656 202.855469 C 180.296875 201.910156 177.074219 198.117188 177.074219 193.5625 C 177.074219 192.425781 177.832031 191.667969 178.972656 191.667969 C 179.917969 191.667969 180.867188 192.425781 180.867188 193.5625 C 180.867188 196.597656 183.332031 199.253906 186.558594 199.253906 C 189.59375 199.253906 192.058594 196.597656 192.058594 193.5625 C 192.058594 190.339844 189.59375 187.871094 186.558594 187.871094 C 181.246094 187.871094 177.074219 183.699219 177.074219 178.386719 C 177.074219 173.835938 180.296875 170.042969 184.660156 169.09375 L 184.660156 167.578125 C 184.660156 166.4375 185.421875 165.679688 186.558594 165.679688 C 187.507812 165.679688 188.453125 166.4375 188.453125 167.578125 L 188.453125 169.09375 C 192.628906 170.042969 195.851562 173.835938 195.851562 178.386719 C 195.851562 179.527344 195.09375 180.285156 193.957031 180.285156 C 193.007812 180.285156 192.058594 179.527344 192.058594 178.386719 C 192.058594 175.355469 189.59375 172.699219 186.558594 172.699219 C 183.332031 172.699219 180.867188 175.355469 180.867188 178.386719 C 180.867188 181.613281 183.332031 184.078125 186.558594 184.078125 C 191.679688 184.078125 195.851562 188.25 195.851562 193.5625 C 195.851562 198.117188 192.628906 201.910156 188.453125 202.855469 L 188.453125 204.375 C 188.265625 205.511719 187.507812 206.273438 186.367188 206.273438 Z M 186.367188 206.273438 " fill-opacity="1" fill-rule="evenodd"/><path fill="#000000" d="M 186.367188 207.03125 C 185.800781 207.03125 185.039062 206.839844 184.660156 206.273438 C 184.09375 205.890625 183.714844 205.132812 183.714844 204.375 L 183.714844 203.425781 C 181.625 202.855469 179.917969 201.53125 178.589844 200.011719 C 177.074219 198.304688 176.316406 196.027344 176.316406 193.5625 C 176.316406 192.804688 176.503906 192.046875 177.074219 191.667969 C 177.453125 191.097656 178.210938 190.90625 178.972656 190.90625 C 179.730469 190.90625 180.296875 191.097656 180.867188 191.667969 C 181.246094 192.046875 181.625 192.804688 181.625 193.5625 C 181.625 194.890625 182.195312 196.027344 182.953125 196.976562 C 183.902344 197.925781 185.039062 198.496094 186.558594 198.496094 C 187.886719 198.496094 189.023438 197.925781 189.972656 196.976562 C 190.730469 196.027344 191.300781 194.890625 191.300781 193.5625 C 191.300781 192.234375 190.730469 190.90625 189.972656 190.148438 C 189.023438 189.199219 187.886719 188.632812 186.558594 188.632812 C 183.714844 188.632812 181.058594 187.492188 179.160156 185.597656 C 177.453125 183.699219 176.316406 181.234375 176.316406 178.386719 C 176.316406 175.921875 177.074219 173.648438 178.589844 171.9375 C 179.917969 170.421875 181.625 169.09375 183.902344 168.523438 L 183.902344 167.578125 C 183.902344 166.816406 184.09375 166.058594 184.660156 165.679688 C 185.039062 165.109375 185.800781 164.921875 186.558594 164.921875 C 187.128906 164.921875 187.886719 165.109375 188.265625 165.679688 C 188.835938 166.058594 189.214844 166.816406 189.214844 167.578125 L 189.214844 168.523438 C 191.300781 169.09375 193.007812 170.421875 194.335938 171.9375 C 195.851562 173.648438 196.609375 175.921875 196.609375 178.386719 C 196.609375 179.148438 196.421875 179.90625 195.851562 180.285156 C 195.472656 180.855469 194.714844 181.042969 193.957031 181.042969 C 193.195312 181.042969 192.628906 180.855469 192.058594 180.285156 C 191.679688 179.90625 191.300781 179.148438 191.300781 178.386719 C 191.300781 177.0625 190.730469 175.921875 189.972656 174.972656 C 189.023438 174.027344 187.886719 173.457031 186.558594 173.457031 C 185.039062 173.457031 183.902344 174.027344 182.953125 174.972656 C 182.195312 175.921875 181.625 177.0625 181.625 178.386719 C 181.625 179.714844 182.195312 181.042969 182.953125 181.804688 C 183.902344 182.75 185.039062 183.320312 186.558594 183.320312 C 189.214844 183.320312 191.871094 184.457031 193.765625 186.355469 C 195.472656 188.25 196.609375 190.71875 196.609375 193.5625 C 196.609375 196.027344 195.851562 198.304688 194.335938 200.011719 C 193.007812 201.53125 191.300781 202.855469 189.214844 203.425781 L 189.214844 204.375 L 189.023438 204.375 C 189.023438 205.132812 188.835938 205.890625 188.265625 206.273438 C 187.886719 206.839844 187.128906 207.03125 186.367188 207.03125 Z M 185.609375 205.324219 C 185.800781 205.511719 186.179688 205.511719 186.367188 205.511719 C 186.746094 205.511719 187.128906 205.511719 187.316406 205.324219 C 187.507812 205.132812 187.695312 204.753906 187.695312 204.375 L 187.695312 202.097656 L 188.265625 202.097656 C 190.160156 201.71875 191.871094 200.582031 193.195312 199.0625 C 194.335938 197.546875 195.09375 195.648438 195.09375 193.5625 C 195.09375 191.097656 194.144531 189.011719 192.628906 187.304688 C 191.109375 185.785156 188.835938 184.835938 186.558594 184.835938 C 184.660156 184.835938 183.144531 184.078125 182.003906 182.941406 C 180.679688 181.804688 180.109375 180.09375 180.109375 178.386719 C 180.109375 176.679688 180.679688 174.972656 182.003906 173.835938 C 183.144531 172.699219 184.660156 171.9375 186.558594 171.9375 C 188.265625 171.9375 189.78125 172.699219 190.921875 173.835938 C 192.25 174.972656 192.816406 176.679688 192.816406 178.386719 C 192.816406 178.769531 193.007812 178.957031 193.195312 179.148438 C 193.386719 179.527344 193.765625 179.527344 193.957031 179.527344 C 194.335938 179.527344 194.523438 179.527344 194.902344 179.148438 C 195.09375 178.957031 195.09375 178.769531 195.09375 178.386719 C 195.09375 176.300781 194.335938 174.40625 193.195312 172.886719 C 191.871094 171.371094 190.160156 170.230469 188.265625 169.851562 L 187.695312 169.851562 L 187.695312 167.578125 C 187.695312 167.199219 187.507812 166.816406 187.316406 166.628906 C 187.128906 166.4375 186.746094 166.4375 186.558594 166.4375 C 186.179688 166.4375 185.800781 166.4375 185.609375 166.628906 C 185.421875 166.816406 185.421875 167.199219 185.421875 167.578125 L 185.421875 169.851562 L 184.660156 169.851562 C 182.765625 170.230469 181.058594 171.371094 179.730469 172.886719 C 178.589844 174.40625 177.832031 176.300781 177.832031 178.386719 C 177.832031 180.855469 178.78125 182.941406 180.296875 184.648438 C 181.816406 186.164062 184.09375 187.113281 186.558594 187.113281 C 188.265625 187.113281 189.78125 187.871094 190.921875 189.011719 C 192.25 190.148438 192.816406 191.855469 192.816406 193.5625 C 192.816406 195.269531 192.25 196.976562 190.921875 198.117188 C 189.78125 199.253906 188.265625 200.011719 186.558594 200.011719 C 184.660156 200.011719 183.144531 199.253906 182.003906 198.117188 C 180.679688 196.976562 180.109375 195.269531 180.109375 193.5625 C 180.109375 193.183594 179.917969 192.992188 179.730469 192.804688 C 179.539062 192.425781 179.160156 192.425781 178.972656 192.425781 C 178.589844 192.425781 178.402344 192.425781 178.023438 192.804688 C 177.832031 192.992188 177.832031 193.183594 177.832031 193.5625 C 177.832031 195.648438 178.589844 197.546875 179.730469 199.0625 C 181.058594 200.582031 182.765625 201.71875 184.660156 202.097656 L 185.230469 202.097656 L 185.230469 204.375 C 185.230469 204.753906 185.421875 205.132812 185.609375 205.324219 Z M 185.609375 205.324219 " fill-opacity="1" fill-rule="nonzero"/></svg>