<svg xmlns="http://www.w3.org/2000/svg" xmlns:xlink="http://www.w3.org/1999/xlink" width="500" zoomAndPan="magnify" viewBox="0 0 375 374.999991" height="500" preserveAspectRatio="xMidYMid meet" version="1.0"><defs><clipPath id="b874e993b8"><path d="M 89 89.519531 L 286.152344 89.519531 L 286.152344 285 L 89 285 Z M 89 89.519531 " clip-rule="nonzero"/></clipPath></defs><path fill="#d6eae8" d="M 202 133.726562 L 192.269531 116.753906 L 192.265625 116.753906 C 182.265625 118.492188 173.074219 122.109375 164.597656 127.617188 L 164.59375 127.617188 C 154.453125 149.457031 155.636719 172.320312 164.59375 195.882812 C 168.410156 201.648438 174.222656 200.402344 180.972656 195.882812 L 180.972656 195.875 L 207.757812 168.6875 Z M 202 133.726562 " fill-opacity="1" fill-rule="nonzero"/><path fill="#d6eae8" d="M 208.792969 153.898438 L 203.746094 137.597656 L 202 124.152344 L 230.664062 121.054688 L 230.664062 190.765625 C 228.101562 191.675781 225.710938 192.070312 224.84375 187.433594 Z M 208.792969 153.898438 " fill-opacity="1" fill-rule="nonzero"/><path fill="#e7f2f1" d="M 98.527344 118.410156 L 98.527344 229.660156 L 158.832031 195.882812 C 160.839844 200.226562 162.757812 200.011719 164.59375 195.882812 L 164.59375 127.617188 C 146.164062 115.644531 124.144531 112.578125 98.527344 118.410156 Z M 98.527344 118.410156 " fill-opacity="1" fill-rule="nonzero"/><path fill="#6fceae" d="M 252.808594 91.242188 L 191.003906 112.523438 L 192.265625 116.753906 L 192.269531 116.753906 L 197.582031 134.570312 L 207.757812 168.6875 C 205.710938 168.292969 203.5625 168.078125 201.34375 168.078125 C 187.773438 168.078125 176.777344 176.058594 176.777344 185.902344 C 176.777344 189.597656 178.320312 193.027344 180.972656 195.875 L 180.972656 195.882812 C 183.492188 202.023438 188.210938 201.703125 194.804688 195.882812 L 224.84375 187.433594 L 214.03125 151.175781 L 209.050781 134.476562 L 207.4375 129.050781 L 230.664062 121.054688 L 248.378906 114.953125 L 266.875 176.980469 C 264.828125 176.578125 262.675781 176.363281 260.460938 176.363281 C 246.890625 176.363281 235.890625 184.34375 235.890625 194.195312 C 235.890625 194.59375 235.910156 194.996094 235.945312 195.390625 C 233.390625 203.363281 237.074219 207.695312 245.847656 208.527344 C 249.929688 210.722656 254.984375 212.019531 260.460938 212.019531 C 272.375 212.019531 282.308594 205.867188 284.554688 197.699219 Z M 252.808594 91.242188 " fill-opacity="1" fill-rule="nonzero"/><path fill="#ffc05a" d="M 230.664062 190.765625 C 232.480469 192.09375 234.25 193.652344 235.945312 195.390625 C 239.609375 199.128906 242.957031 203.6875 245.847656 208.527344 C 249.421875 214.515625 252.300781 220.925781 254.203125 226.75 C 257.507812 236.835938 260.488281 252.589844 262.445312 264.273438 C 262.589844 265.160156 262.660156 266.039062 262.660156 266.910156 C 262.660156 274.386719 257.367188 281.023438 249.773438 282.480469 C 244.429688 283.503906 238.941406 281.714844 235.203125 277.765625 C 225.796875 267.8125 213.539062 258.539062 201.890625 258.539062 L 151.742188 258.539062 C 140.09375 258.539062 127.839844 267.8125 118.433594 277.765625 C 115.386719 280.980469 111.1875 282.765625 106.847656 282.765625 C 105.851562 282.765625 104.855469 282.671875 103.859375 282.480469 C 95.386719 280.851562 89.769531 272.769531 91.191406 264.273438 C 92.964844 253.660156 95.589844 239.695312 98.527344 229.664062 L 98.527344 229.660156 C 98.824219 228.648438 99.125 227.671875 99.429688 226.75 C 105.21875 209.050781 119.980469 185.902344 136.066406 185.902344 C 152.144531 185.902344 158.832031 195.882812 158.832031 195.882812 L 194.804688 195.882812 C 194.804688 195.882812 201.484375 185.902344 217.570312 185.902344 C 220.035156 185.902344 222.464844 186.445312 224.84375 187.433594 C 226.828125 188.253906 228.773438 189.382812 230.664062 190.765625 Z M 230.664062 190.765625 " fill-opacity="1" fill-rule="nonzero"/><path fill="#e15c63" d="M 194.804688 236.90625 C 198.777344 236.90625 202 240.125 202 244.09375 C 202 248.0625 198.777344 251.277344 194.804688 251.277344 C 190.828125 251.277344 187.609375 248.0625 187.609375 244.09375 C 187.609375 240.125 190.828125 236.90625 194.804688 236.90625 Z M 194.804688 236.90625 " fill-opacity="1" fill-rule="nonzero"/><path fill="#e15c63" d="M 158.832031 236.90625 C 162.804688 236.90625 166.023438 240.125 166.023438 244.09375 C 166.023438 248.0625 162.804688 251.277344 158.832031 251.277344 C 154.859375 251.277344 151.632812 248.0625 151.632812 244.09375 C 151.632812 240.125 154.859375 236.90625 158.832031 236.90625 Z M 158.832031 236.90625 " fill-opacity="1" fill-rule="nonzero"/><path fill="#655f68" d="M 219.324219 202.632812 C 229.402344 202.632812 237.574219 210.792969 237.574219 220.855469 C 237.574219 230.921875 229.402344 239.082031 219.324219 239.082031 C 209.246094 239.082031 201.074219 230.921875 201.074219 220.855469 C 201.074219 210.792969 209.246094 202.632812 219.324219 202.632812 Z M 219.324219 202.632812 " fill-opacity="1" fill-rule="nonzero"/><path fill="#655f68" d="M 180.34375 212.019531 C 182.53125 212.019531 184.308594 213.792969 184.308594 215.984375 C 184.308594 217.074219 183.863281 218.066406 183.144531 218.785156 C 182.429688 219.5 181.441406 219.945312 180.34375 219.945312 L 173.289062 219.945312 C 171.101562 219.945312 169.324219 218.171875 169.324219 215.984375 C 169.324219 214.890625 169.769531 213.898438 170.488281 213.183594 C 171.207031 212.464844 172.199219 212.019531 173.289062 212.019531 Z M 180.34375 212.019531 " fill-opacity="1" fill-rule="nonzero"/><path fill="#655f68" d="M 180.34375 228.148438 C 182.53125 228.148438 184.308594 229.921875 184.308594 232.109375 C 184.308594 233.203125 183.863281 234.195312 183.144531 234.90625 C 182.429688 235.625 181.441406 236.070312 180.34375 236.070312 L 173.289062 236.070312 C 171.101562 236.070312 169.324219 234.296875 169.324219 232.109375 C 169.324219 231.011719 169.769531 230.023438 170.488281 229.308594 C 171.207031 228.59375 172.199219 228.148438 173.289062 228.148438 Z M 180.34375 228.148438 " fill-opacity="1" fill-rule="nonzero"/><path fill="#655f68" d="M 152.625 216.898438 C 154.820312 216.898438 156.59375 218.671875 156.59375 220.855469 C 156.59375 221.949219 156.148438 222.9375 155.429688 223.65625 C 154.714844 224.371094 153.722656 224.816406 152.625 224.816406 L 145.578125 224.816406 C 143.386719 224.816406 141.609375 223.042969 141.609375 220.855469 C 141.609375 219.765625 142.054688 218.777344 142.773438 218.058594 C 143.488281 217.339844 144.480469 216.898438 145.578125 216.898438 Z M 152.625 216.898438 " fill-opacity="1" fill-rule="nonzero"/><path fill="#655f68" d="M 138.273438 232.109375 L 138.273438 239.148438 C 138.273438 241.339844 136.5 243.113281 134.308594 243.113281 C 133.214844 243.113281 132.226562 242.667969 131.507812 241.949219 C 130.789062 241.234375 130.34375 240.242188 130.34375 239.148438 L 130.34375 232.109375 C 130.34375 229.921875 132.121094 228.148438 134.308594 228.148438 C 135.402344 228.148438 136.394531 228.59375 137.109375 229.308594 C 137.828125 230.023438 138.273438 231.011719 138.273438 232.109375 Z M 138.273438 232.109375 " fill-opacity="1" fill-rule="nonzero"/><path fill="#655f68" d="M 123.042969 216.898438 C 125.230469 216.898438 127.007812 218.671875 127.007812 220.855469 C 127.007812 221.949219 126.5625 222.9375 125.84375 223.65625 C 125.128906 224.371094 124.136719 224.816406 123.042969 224.816406 L 115.992188 224.816406 C 113.804688 224.816406 112.027344 223.042969 112.027344 220.855469 C 112.027344 219.765625 112.472656 218.777344 113.191406 218.058594 C 113.90625 217.339844 114.894531 216.898438 115.992188 216.898438 Z M 123.042969 216.898438 " fill-opacity="1" fill-rule="nonzero"/><path fill="#655f68" d="M 138.273438 202.566406 L 138.273438 209.605469 C 138.273438 211.792969 136.5 213.566406 134.308594 213.566406 C 133.214844 213.566406 132.226562 213.121094 131.507812 212.402344 C 130.789062 211.691406 130.34375 210.699219 130.34375 209.605469 L 130.34375 202.566406 C 130.34375 200.378906 132.121094 198.605469 134.308594 198.605469 C 135.402344 198.605469 136.394531 199.050781 137.109375 199.765625 C 137.828125 200.480469 138.273438 201.46875 138.273438 202.566406 Z M 138.273438 202.566406 " fill-opacity="1" fill-rule="nonzero"/><path fill="#e15c63" d="M 219.324219 210.34375 C 225.140625 210.34375 229.851562 215.050781 229.851562 220.855469 C 229.851562 226.664062 225.140625 231.371094 219.324219 231.371094 C 213.507812 231.371094 208.792969 226.664062 208.792969 220.855469 C 208.792969 215.050781 213.507812 210.34375 219.324219 210.34375 Z M 219.324219 210.34375 " fill-opacity="1" fill-rule="nonzero"/><path fill="#f9b132" d="M 262.445312 264.273438 C 262.589844 265.160156 262.660156 266.039062 262.660156 266.910156 C 262.660156 274.386719 257.367188 281.023438 249.773438 282.480469 C 244.429688 283.503906 238.941406 281.714844 235.203125 277.765625 C 233.144531 275.589844 230.953125 273.445312 228.660156 271.421875 C 259.878906 254.175781 242.910156 204.367188 242.628906 203.546875 C 243.757812 205.15625 244.828125 206.824219 245.847656 208.527344 C 249.421875 214.515625 252.300781 220.925781 254.203125 226.75 C 257.507812 236.835938 260.488281 252.589844 262.445312 264.273438 Z M 262.445312 264.273438 " fill-opacity="1" fill-rule="nonzero"/><path fill="#53b79a" d="M 253.554688 211.308594 C 250.746094 210.710938 248.144531 209.765625 245.847656 208.527344 C 244.828125 206.824219 243.757812 205.15625 242.628906 203.546875 C 242.625 203.539062 242.625 203.535156 242.625 203.535156 C 240.554688 200.574219 238.316406 197.8125 235.945312 195.390625 C 235.910156 194.996094 235.890625 194.59375 235.890625 194.195312 C 235.890625 191.199219 236.90625 188.382812 238.707031 185.902344 C 238.707031 185.902344 248.882812 191.921875 253.554688 211.308594 Z M 253.554688 211.308594 " fill-opacity="1" fill-rule="nonzero"/><path fill="#53b79a" d="M 221.648438 176.714844 L 224.84375 187.433594 C 222.464844 186.445312 220.035156 185.902344 217.570312 185.902344 C 201.484375 185.902344 194.804688 195.882812 194.804688 195.882812 L 188.792969 195.882812 C 188.792969 195.882812 189.550781 176.757812 221.648438 176.714844 Z M 221.648438 176.714844 " fill-opacity="1" fill-rule="nonzero"/><path fill="#3a322b" d="M 180.339844 226.589844 L 173.292969 226.589844 C 170.242188 226.589844 167.765625 229.066406 167.765625 232.109375 C 167.765625 235.152344 170.242188 237.628906 173.292969 237.628906 L 180.339844 237.628906 C 183.390625 237.628906 185.867188 235.152344 185.867188 232.109375 C 185.867188 229.066406 183.390625 226.589844 180.339844 226.589844 Z M 180.339844 234.511719 L 173.292969 234.511719 C 171.964844 234.511719 170.886719 233.433594 170.886719 232.109375 C 170.886719 230.785156 171.964844 229.707031 173.292969 229.707031 L 180.339844 229.707031 C 181.667969 229.707031 182.746094 230.785156 182.746094 232.109375 C 182.746094 233.433594 181.667969 234.511719 180.339844 234.511719 Z M 180.339844 234.511719 " fill-opacity="1" fill-rule="nonzero"/><path fill="#3a322b" d="M 180.339844 210.464844 L 173.292969 210.464844 C 170.242188 210.464844 167.765625 212.941406 167.765625 215.984375 C 167.765625 219.027344 170.242188 221.503906 173.292969 221.503906 L 180.339844 221.503906 C 183.390625 221.503906 185.867188 219.027344 185.867188 215.984375 C 185.867188 212.941406 183.390625 210.464844 180.339844 210.464844 Z M 180.339844 218.386719 L 173.292969 218.386719 C 171.964844 218.386719 170.886719 217.308594 170.886719 215.984375 C 170.886719 214.660156 171.964844 213.582031 173.292969 213.582031 L 180.339844 213.582031 C 181.667969 213.582031 182.746094 214.660156 182.746094 215.984375 C 182.746094 217.308594 181.667969 218.386719 180.339844 218.386719 Z M 180.339844 218.386719 " fill-opacity="1" fill-rule="nonzero"/><path fill="#3a322b" d="M 134.308594 226.589844 C 131.261719 226.589844 128.78125 229.066406 128.78125 232.109375 L 128.78125 239.148438 C 128.78125 242.191406 131.261719 244.667969 134.308594 244.667969 C 137.355469 244.667969 139.835938 242.191406 139.835938 239.148438 L 139.835938 232.109375 C 139.835938 229.066406 137.355469 226.589844 134.308594 226.589844 Z M 136.714844 239.148438 C 136.714844 240.472656 135.636719 241.550781 134.308594 241.550781 C 132.984375 241.550781 131.902344 240.472656 131.902344 239.148438 L 131.902344 232.109375 C 131.902344 230.785156 132.984375 229.707031 134.308594 229.707031 C 135.636719 229.707031 136.714844 230.785156 136.714844 232.109375 Z M 136.714844 239.148438 " fill-opacity="1" fill-rule="nonzero"/><path fill="#3a322b" d="M 158.152344 220.855469 C 158.152344 217.8125 155.671875 215.335938 152.625 215.335938 L 145.574219 215.335938 C 142.527344 215.335938 140.046875 217.8125 140.046875 220.855469 C 140.046875 223.902344 142.527344 226.375 145.574219 226.375 L 152.625 226.375 C 155.671875 226.375 158.152344 223.902344 158.152344 220.855469 Z M 143.171875 220.855469 C 143.171875 219.53125 144.25 218.453125 145.578125 218.453125 L 152.625 218.453125 C 153.953125 218.453125 155.03125 219.53125 155.03125 220.855469 C 155.03125 222.179688 153.953125 223.257812 152.625 223.257812 L 145.578125 223.257812 C 144.25 223.257812 143.171875 222.179688 143.171875 220.855469 Z M 143.171875 220.855469 " fill-opacity="1" fill-rule="nonzero"/><path fill="#3a322b" d="M 134.308594 197.046875 C 131.261719 197.046875 128.78125 199.523438 128.78125 202.566406 L 128.78125 209.605469 C 128.78125 212.648438 131.261719 215.125 134.308594 215.125 C 137.355469 215.125 139.835938 212.648438 139.835938 209.605469 L 139.835938 202.566406 C 139.835938 199.519531 137.355469 197.046875 134.308594 197.046875 Z M 136.714844 209.605469 C 136.714844 210.929688 135.636719 212.007812 134.308594 212.007812 C 132.984375 212.007812 131.902344 210.929688 131.902344 209.605469 L 131.902344 202.566406 C 131.902344 201.242188 132.984375 200.164062 134.308594 200.164062 C 135.636719 200.164062 136.714844 201.242188 136.714844 202.566406 Z M 136.714844 209.605469 " fill-opacity="1" fill-rule="nonzero"/><path fill="#3a322b" d="M 123.042969 215.335938 L 115.992188 215.335938 C 112.945312 215.335938 110.464844 217.8125 110.464844 220.855469 C 110.464844 223.902344 112.945312 226.375 115.992188 226.375 L 123.042969 226.375 C 126.089844 226.375 128.570312 223.898438 128.570312 220.855469 C 128.570312 217.8125 126.089844 215.335938 123.042969 215.335938 Z M 123.042969 223.257812 L 115.992188 223.257812 C 114.664062 223.257812 113.585938 222.179688 113.585938 220.855469 C 113.585938 219.53125 114.664062 218.453125 115.992188 218.453125 L 123.042969 218.453125 C 124.367188 218.453125 125.445312 219.53125 125.445312 220.855469 C 125.445312 222.179688 124.367188 223.257812 123.042969 223.257812 Z M 123.042969 223.257812 " fill-opacity="1" fill-rule="nonzero"/><path fill="#3a322b" d="M 194.804688 235.347656 C 189.976562 235.347656 186.046875 239.269531 186.046875 244.09375 C 186.046875 248.914062 189.976562 252.835938 194.804688 252.835938 C 199.632812 252.835938 203.558594 248.914062 203.558594 244.09375 C 203.558594 239.269531 199.632812 235.347656 194.804688 235.347656 Z M 194.804688 249.71875 C 191.699219 249.71875 189.171875 247.195312 189.171875 244.09375 C 189.171875 240.992188 191.699219 238.464844 194.804688 238.464844 C 197.910156 238.464844 200.4375 240.992188 200.4375 244.09375 C 200.4375 247.195312 197.910156 249.71875 194.804688 249.71875 Z M 194.804688 249.71875 " fill-opacity="1" fill-rule="nonzero"/><path fill="#3a322b" d="M 158.828125 235.347656 C 154 235.347656 150.074219 239.269531 150.074219 244.09375 C 150.074219 248.914062 154 252.835938 158.828125 252.835938 C 163.65625 252.835938 167.585938 248.914062 167.585938 244.09375 C 167.585938 239.269531 163.65625 235.347656 158.828125 235.347656 Z M 158.828125 249.71875 C 155.722656 249.71875 153.195312 247.195312 153.195312 244.09375 C 153.195312 240.992188 155.722656 238.464844 158.828125 238.464844 C 161.9375 238.464844 164.464844 240.992188 164.464844 244.09375 C 164.464844 247.195312 161.9375 249.71875 158.828125 249.71875 Z M 158.828125 249.71875 " fill-opacity="1" fill-rule="nonzero"/><path fill="#3a322b" d="M 219.324219 208.785156 C 212.660156 208.785156 207.234375 214.199219 207.234375 220.855469 C 207.234375 227.515625 212.660156 232.929688 219.324219 232.929688 C 225.992188 232.929688 231.414062 227.515625 231.414062 220.855469 C 231.414062 214.199219 225.992188 208.785156 219.324219 208.785156 Z M 219.324219 229.8125 C 214.378906 229.8125 210.355469 225.792969 210.355469 220.855469 C 210.355469 215.917969 214.378906 211.902344 219.324219 211.902344 C 224.269531 211.902344 228.292969 215.917969 228.292969 220.855469 C 228.292969 225.792969 224.269531 229.8125 219.324219 229.8125 Z M 219.324219 229.8125 " fill-opacity="1" fill-rule="nonzero"/><path fill="#3a322b" d="M 219.324219 201.074219 C 208.402344 201.074219 199.515625 209.949219 199.515625 220.855469 C 199.515625 231.765625 208.402344 240.640625 219.324219 240.640625 C 230.246094 240.640625 239.132812 231.765625 239.132812 220.855469 C 239.132812 209.949219 230.246094 201.074219 219.324219 201.074219 Z M 219.324219 237.523438 C 210.121094 237.523438 202.636719 230.046875 202.636719 220.855469 C 202.636719 211.667969 210.121094 204.191406 219.324219 204.191406 C 228.527344 204.191406 236.011719 211.667969 236.011719 220.855469 C 236.011719 230.046875 228.527344 237.523438 219.324219 237.523438 Z M 219.324219 237.523438 " fill-opacity="1" fill-rule="nonzero"/><g clip-path="url(#b874e993b8)"><path fill="#3a322b" d="M 286.050781 197.253906 L 254.304688 90.796875 C 254.183594 90.390625 253.898438 90.050781 253.519531 89.855469 C 253.144531 89.660156 252.699219 89.628906 252.300781 89.769531 L 190.5 111.050781 C 189.707031 111.320312 189.273438 112.167969 189.511719 112.96875 L 190.277344 115.539062 C 181.117188 117.347656 172.492188 120.78125 164.597656 125.765625 C 146.050781 114.058594 123.714844 111.074219 98.179688 116.890625 C 97.472656 117.054688 96.96875 117.683594 96.96875 118.410156 L 96.96875 229.445312 C 94.019531 239.589844 91.398438 253.578125 89.652344 264.019531 C 88.898438 268.53125 89.917969 273.085938 92.53125 276.84375 C 95.148438 280.601562 99.0625 283.144531 103.5625 284.007812 C 109.449219 285.140625 115.433594 283.207031 119.566406 278.832031 C 126.183594 271.835938 139.160156 260.097656 151.742188 260.097656 L 201.890625 260.097656 C 214.472656 260.097656 227.449219 271.835938 234.066406 278.832031 C 237.421875 282.382812 241.996094 284.328125 246.75 284.328125 C 247.851562 284.328125 248.960938 284.222656 250.070312 284.011719 C 254.570312 283.144531 258.488281 280.601562 261.101562 276.84375 C 263.714844 273.085938 264.738281 268.53125 263.980469 264.019531 C 262.042969 252.4375 259.03125 236.488281 255.6875 226.265625 C 254.113281 221.445312 251.964844 216.488281 249.46875 211.800781 C 252.886719 212.972656 256.609375 213.582031 260.460938 213.582031 C 272.828125 213.582031 283.59375 207.078125 286.058594 198.113281 C 286.136719 197.828125 286.132812 197.535156 286.050781 197.253906 Z M 166.15625 128.476562 C 173.835938 123.609375 182.242188 120.269531 191.171875 118.542969 L 195.5625 133.261719 C 188.042969 134.359375 180.949219 137.042969 174.460938 141.253906 C 173.738281 141.722656 173.535156 142.6875 174.003906 143.410156 C 174.300781 143.867188 174.804688 144.117188 175.3125 144.117188 C 175.605469 144.117188 175.902344 144.039062 176.164062 143.867188 C 182.398438 139.824219 189.226562 137.277344 196.464844 136.285156 L 200.210938 148.855469 C 190.921875 149.417969 182.265625 152.257812 174.460938 157.320312 C 173.738281 157.789062 173.535156 158.757812 174.003906 159.476562 C 174.300781 159.9375 174.804688 160.1875 175.3125 160.1875 C 175.605469 160.1875 175.898438 160.105469 176.164062 159.9375 C 183.710938 155.039062 192.109375 152.351562 201.128906 151.929688 L 205.550781 166.765625 C 204.164062 166.597656 202.757812 166.515625 201.34375 166.515625 C 186.933594 166.515625 175.214844 175.214844 175.214844 185.902344 C 175.214844 188.855469 176.09375 191.714844 177.78125 194.320312 L 166.15625 194.320312 Z M 100.089844 119.660156 C 124.324219 114.390625 145.488281 117.359375 163.035156 128.472656 L 163.035156 194.320312 L 159.605469 194.320312 C 157.699219 191.945312 150.480469 184.347656 136.0625 184.347656 C 128.308594 184.347656 120.21875 189.316406 112.667969 198.714844 C 107.824219 204.746094 103.324219 212.570312 100.089844 220.460938 Z M 252.722656 227.234375 C 256.003906 237.273438 258.980469 253.058594 260.902344 264.53125 C 262.195312 272.257812 257.175781 279.46875 249.480469 280.949219 C 244.644531 281.875 239.730469 280.285156 236.335938 276.691406 C 227.832031 267.699219 214.957031 256.980469 201.890625 256.980469 L 151.742188 256.980469 C 138.675781 256.980469 125.800781 267.699219 117.296875 276.691406 C 113.902344 280.285156 108.984375 281.875 104.152344 280.949219 C 96.457031 279.46875 91.4375 272.257812 92.730469 264.53125 C 94.652344 253.058594 97.628906 237.273438 100.910156 227.234375 C 103.988281 217.832031 109.292969 207.902344 115.101562 200.667969 C 119.941406 194.644531 127.503906 187.464844 136.0625 187.464844 C 146.234375 187.464844 152.367188 191.566406 155.339844 194.324219 L 152.558594 194.324219 C 151.695312 194.324219 150.996094 195.019531 150.996094 195.882812 C 150.996094 196.742188 151.695312 197.441406 152.558594 197.441406 L 201.074219 197.441406 C 201.9375 197.441406 202.636719 196.742188 202.636719 195.882812 C 202.636719 195.019531 201.9375 194.324219 201.074219 194.324219 L 198.292969 194.324219 C 201.265625 191.566406 207.398438 187.464844 217.570312 187.464844 C 226.128906 187.464844 233.691406 194.644531 238.53125 200.667969 C 244.339844 207.902344 249.648438 217.832031 252.722656 227.234375 Z M 222.050781 151.324219 C 219.761719 150.707031 217.480469 150.203125 215.253906 149.808594 L 211.21875 136.28125 C 214.46875 136.6875 217.828125 137.347656 221.238281 138.265625 C 221.375 138.300781 221.511719 138.320312 221.644531 138.320312 C 222.335938 138.320312 222.964844 137.859375 223.152344 137.164062 C 223.375 136.332031 222.882812 135.476562 222.050781 135.253906 C 218.027344 134.171875 214.0625 133.429688 210.25 133.03125 L 209.359375 130.039062 L 229.101562 123.238281 L 229.101562 187.863281 C 228.113281 187.269531 227.125 186.75 226.136719 186.300781 L 216.257812 153.171875 C 217.898438 153.5 219.566406 153.886719 221.238281 154.335938 C 221.375 154.371094 221.511719 154.390625 221.644531 154.390625 C 222.335938 154.390625 222.964844 153.929688 223.152344 153.234375 C 223.375 152.402344 222.882812 151.546875 222.050781 151.324219 Z M 232.226562 189.988281 L 232.226562 122.164062 L 247.347656 116.957031 L 264.671875 175.054688 C 263.285156 174.886719 261.875 174.804688 260.460938 174.804688 C 247.109375 174.804688 236.070312 182.277344 234.523438 191.882812 C 233.761719 191.207031 232.992188 190.578125 232.226562 189.988281 Z M 260.460938 210.464844 C 255.554688 210.464844 250.886719 209.378906 246.933594 207.332031 C 245.054688 204.222656 243.042969 201.300781 240.964844 198.714844 C 239.808594 197.277344 238.644531 195.945312 237.464844 194.714844 C 237.457031 194.542969 237.453125 194.367188 237.453125 194.191406 C 237.453125 185.222656 247.773438 177.921875 260.460938 177.921875 C 262.535156 177.921875 264.589844 178.121094 266.570312 178.507812 C 267.109375 178.609375 267.660156 178.429688 268.027344 178.023438 C 268.394531 177.621094 268.523438 177.054688 268.367188 176.53125 L 249.875 114.507812 C 249.753906 114.101562 249.46875 113.761719 249.089844 113.566406 C 248.710938 113.371094 248.269531 113.339844 247.867188 113.476562 L 206.925781 127.578125 C 206.136719 127.847656 205.699219 128.695312 205.941406 129.496094 L 222.492188 185 C 220.839844 184.570312 219.199219 184.347656 217.570312 184.347656 C 203.152344 184.347656 195.933594 191.945312 194.027344 194.320312 L 181.675781 194.320312 C 179.488281 191.78125 178.335938 188.882812 178.335938 185.90625 C 178.335938 176.933594 188.65625 169.636719 201.34375 169.636719 C 203.417969 169.636719 205.472656 169.832031 207.457031 170.21875 C 207.992188 170.324219 208.542969 170.140625 208.910156 169.738281 C 209.277344 169.335938 209.40625 168.769531 209.253906 168.246094 L 192.929688 113.511719 L 251.777344 93.246094 L 282.925781 197.703125 C 280.601562 205.121094 271.25 210.464844 260.460938 210.464844 Z M 260.460938 210.464844 " fill-opacity="1" fill-rule="nonzero"/></g><path fill="#3a322b" d="M 107.949219 138.265625 C 125.046875 133.671875 140.210938 135.554688 153.027344 143.867188 C 153.289062 144.039062 153.582031 144.117188 153.875 144.117188 C 154.386719 144.117188 154.886719 143.867188 155.183594 143.410156 C 155.65625 142.6875 155.449219 141.722656 154.726562 141.253906 C 141.136719 132.4375 125.125 130.421875 107.136719 135.253906 C 106.304688 135.476562 105.8125 136.332031 106.035156 137.164062 C 106.261719 137.996094 107.117188 138.488281 107.949219 138.265625 Z M 107.949219 138.265625 " fill-opacity="1" fill-rule="nonzero"/><path fill="#3a322b" d="M 107.949219 154.335938 C 125.046875 149.742188 140.210938 151.625 153.027344 159.9375 C 153.289062 160.109375 153.582031 160.1875 153.875 160.1875 C 154.386719 160.1875 154.886719 159.9375 155.1875 159.480469 C 155.65625 158.757812 155.449219 157.792969 154.726562 157.324219 C 141.136719 148.507812 125.125 146.492188 107.140625 151.324219 C 106.304688 151.546875 105.8125 152.402344 106.035156 153.234375 C 106.261719 154.066406 107.117188 154.558594 107.949219 154.335938 Z M 107.949219 154.335938 " fill-opacity="1" fill-rule="nonzero"/><path fill="#3a322b" d="M 153.027344 176.007812 C 153.289062 176.179688 153.582031 176.257812 153.875 176.257812 C 154.386719 176.257812 154.886719 176.007812 155.183594 175.550781 C 155.65625 174.828125 155.449219 173.863281 154.726562 173.394531 C 141.136719 164.578125 125.125 162.558594 107.136719 167.394531 C 106.304688 167.617188 105.8125 168.472656 106.035156 169.304688 C 106.261719 170.136719 107.117188 170.628906 107.949219 170.40625 C 125.046875 165.8125 140.210938 167.695312 153.027344 176.007812 Z M 153.027344 176.007812 " fill-opacity="1" fill-rule="nonzero"/></svg>