<svg xmlns="http://www.w3.org/2000/svg" xmlns:xlink="http://www.w3.org/1999/xlink" width="500" zoomAndPan="magnify" viewBox="0 0 375 374.999991" height="500" preserveAspectRatio="xMidYMid meet" version="1.0"><defs><clipPath id="4ef9a637ad"><path d="M 82.292969 80.824219 L 288 80.824219 L 288 293.824219 L 82.292969 293.824219 Z M 82.292969 80.824219 " clip-rule="nonzero"/></clipPath><clipPath id="c6071b1d49"><path d="M 124 99 L 293.042969 99 L 293.042969 275 L 124 275 Z M 124 99 " clip-rule="nonzero"/></clipPath></defs><g clip-path="url(#4ef9a637ad)"><path fill="#0372d8" d="M 287.082031 229.839844 C 286.382812 231.4375 285.648438 233.015625 284.871094 234.574219 C 284.09375 236.136719 283.277344 237.675781 282.425781 239.195312 C 281.574219 240.71875 280.683594 242.214844 279.757812 243.695312 C 278.832031 245.171875 277.871094 246.625 276.875 248.054688 C 275.875 249.484375 274.84375 250.890625 273.777344 252.269531 C 272.710938 253.648438 271.609375 255 270.476562 256.328125 C 269.34375 257.652344 268.179688 258.949219 266.984375 260.21875 C 265.785156 261.488281 264.558594 262.726562 263.300781 263.9375 C 262.042969 265.144531 260.757812 266.324219 259.441406 267.46875 C 258.125 268.613281 256.78125 269.726562 255.410156 270.808594 C 254.039062 271.890625 252.644531 272.933594 251.222656 273.949219 C 249.800781 274.960938 248.355469 275.9375 246.882812 276.878906 C 245.414062 277.820312 243.921875 278.726562 242.40625 279.59375 C 240.894531 280.460938 239.359375 281.292969 237.800781 282.085938 C 236.246094 282.878906 234.671875 283.636719 233.082031 284.351562 C 231.488281 285.070312 229.878906 285.746094 228.253906 286.386719 C 226.628906 287.023438 224.988281 287.621094 223.332031 288.179688 C 221.675781 288.738281 220.007812 289.253906 218.328125 289.730469 C 216.648438 290.207031 214.957031 290.640625 213.253906 291.035156 C 211.550781 291.429688 209.839844 291.78125 208.121094 292.09375 C 206.402344 292.402344 204.675781 292.671875 202.941406 292.894531 C 201.210938 293.121094 199.472656 293.304688 197.730469 293.445312 C 195.988281 293.585938 194.246094 293.6875 192.5 293.742188 C 190.753906 293.796875 189.007812 293.808594 187.257812 293.78125 C 185.511719 293.75 183.765625 293.679688 182.023438 293.5625 C 180.28125 293.449219 178.539062 293.292969 176.804688 293.089844 C 175.066406 292.890625 173.339844 292.648438 171.613281 292.367188 C 169.890625 292.082031 168.175781 291.753906 166.464844 291.386719 C 164.757812 291.019531 163.0625 290.609375 161.375 290.15625 C 159.6875 289.707031 158.011719 289.214844 156.347656 288.679688 C 154.683594 288.148438 153.035156 287.574219 151.398438 286.960938 C 149.761719 286.347656 148.144531 285.691406 146.539062 285 C 108.722656 268.601562 82.289062 231.035156 82.289062 187.3125 C 82.289062 128.503906 130.117188 80.828125 189.117188 80.828125 C 232.96875 80.828125 270.644531 107.164062 287.101562 144.832031 C 271.453125 113.644531 239.109375 92.234375 201.75 92.234375 C 149.074219 92.234375 106.371094 134.804688 106.371094 187.3125 C 106.371094 226.351562 129.972656 259.898438 163.738281 274.539062 C 165.121094 275.136719 166.515625 275.703125 167.925781 276.234375 C 169.335938 276.769531 170.757812 277.269531 172.191406 277.734375 C 173.625 278.199219 175.070312 278.632812 176.523438 279.027344 C 177.976562 279.425781 179.441406 279.789062 180.910156 280.117188 C 182.382812 280.445312 183.863281 280.738281 185.347656 281 C 186.832031 281.257812 188.324219 281.480469 189.820312 281.667969 C 191.316406 281.855469 192.816406 282.007812 194.320312 282.125 C 195.820312 282.242188 197.328125 282.324219 198.835938 282.371094 C 200.34375 282.417969 201.847656 282.425781 203.355469 282.402344 C 204.863281 282.375 206.371094 282.316406 207.875 282.21875 C 209.378906 282.125 210.882812 281.992188 212.382812 281.824219 C 213.878906 281.65625 215.375 281.453125 216.863281 281.214844 C 218.351562 280.976562 219.832031 280.703125 221.308594 280.394531 C 222.785156 280.089844 224.253906 279.746094 225.710938 279.367188 C 227.171875 278.992188 228.621094 278.578125 230.0625 278.132812 C 231.503906 277.6875 232.929688 277.207031 234.347656 276.695312 C 235.765625 276.179688 237.167969 275.632812 238.5625 275.054688 C 239.953125 274.472656 241.328125 273.859375 242.691406 273.214844 C 244.050781 272.570312 245.398438 271.894531 246.726562 271.1875 C 248.058594 270.476562 249.371094 269.738281 250.664062 268.96875 C 251.960938 268.195312 253.234375 267.394531 254.492188 266.566406 C 255.75 265.734375 256.984375 264.875 258.199219 263.984375 C 259.417969 263.09375 260.609375 262.175781 261.78125 261.230469 C 262.953125 260.285156 264.101562 259.3125 265.230469 258.3125 C 266.355469 257.3125 267.457031 256.285156 268.53125 255.234375 C 269.609375 254.183594 270.660156 253.105469 271.6875 252.003906 C 272.710938 250.902344 273.710938 249.777344 274.683594 248.628906 C 275.65625 247.476562 276.597656 246.304688 277.515625 245.113281 C 278.433594 243.917969 279.320312 242.703125 280.179688 241.46875 C 281.035156 240.234375 281.867188 238.976562 282.664062 237.703125 C 283.464844 236.429688 284.230469 235.136719 284.96875 233.824219 C 285.707031 232.511719 286.414062 231.183594 287.085938 229.839844 Z M 287.082031 229.839844 " fill-opacity="1" fill-rule="nonzero"/></g><path fill="#013461" d="M 167.472656 187.144531 L 167.472656 184.230469 L 172.613281 184.230469 L 172.613281 174.414062 L 147.398438 174.414062 L 147.398438 184.230469 L 152.59375 184.230469 L 152.59375 187.144531 Z M 167.472656 187.144531 " fill-opacity="1" fill-rule="nonzero"/><path fill="#013461" d="M 141.230469 149.460938 L 134.414062 153.132812 C 134.414062 153.132812 148.480469 162.515625 149.046875 172.386719 L 170.71875 172.386719 L 179.8125 151.621094 L 173.535156 148.710938 C 173.535156 148.710938 172.34375 154.964844 168.449219 158.742188 C 168.449219 158.742188 169.53125 152.703125 168.015625 148.0625 C 168.015625 148.0625 151.351562 145.796875 146.15625 148.0625 C 146.15625 148.0625 147.617188 153.511719 147.398438 156.050781 C 147.398438 156.039062 143.71875 150.214844 141.230469 149.460938 Z M 141.230469 149.460938 " fill-opacity="1" fill-rule="nonzero"/><path fill="#013461" d="M 170.621094 139.949219 L 186.246094 145.324219 L 186.246094 148.378906 L 195.328125 148.378906 L 195.328125 145.324219 L 210.957031 139.949219 L 210.957031 134.289062 L 170.621094 134.289062 Z M 170.621094 139.949219 " fill-opacity="1" fill-rule="nonzero"/><path fill="#013461" d="M 170.621094 128.320312 L 210.957031 128.320312 L 210.957031 132.1875 L 170.621094 132.1875 Z M 170.621094 128.320312 " fill-opacity="1" fill-rule="nonzero"/><path fill="#013461" d="M 236.316406 159.148438 L 236.316406 155.230469 C 236.316406 154.980469 236.265625 154.742188 236.171875 154.511719 C 236.074219 154.28125 235.941406 154.078125 235.761719 153.902344 C 235.585938 153.722656 235.382812 153.589844 235.152344 153.492188 C 234.917969 153.398438 234.679688 153.351562 234.429688 153.351562 L 231.960938 153.351562 L 231.960938 161.027344 L 234.429688 161.027344 C 234.679688 161.027344 234.917969 160.980469 235.152344 160.882812 C 235.382812 160.789062 235.585938 160.652344 235.761719 160.476562 C 235.941406 160.300781 236.074219 160.097656 236.171875 159.867188 C 236.265625 159.636719 236.316406 159.394531 236.316406 159.148438 Z M 236.316406 159.148438 " fill-opacity="1" fill-rule="nonzero"/><path fill="#013461" d="M 229.855469 153.351562 L 213.175781 153.351562 C 212.523438 153.351562 211.890625 153.476562 211.285156 153.726562 C 210.679688 153.976562 210.144531 154.332031 209.679688 154.792969 L 203.460938 160.996094 C 203.226562 161.226562 203.078125 161.503906 203.011719 161.824219 C 202.949219 162.148438 202.980469 162.460938 203.105469 162.761719 C 203.230469 163.066406 203.429688 163.308594 203.703125 163.492188 C 203.976562 163.671875 204.28125 163.765625 204.609375 163.765625 L 205.097656 163.765625 C 205.480469 163.765625 205.859375 163.800781 206.238281 163.875 C 206.613281 163.949219 206.976562 164.0625 207.332031 164.207031 C 207.6875 164.351562 208.023438 164.53125 208.34375 164.746094 C 208.660156 164.957031 208.957031 165.199219 209.226562 165.46875 C 209.5 165.738281 209.742188 166.035156 209.953125 166.351562 C 210.167969 166.667969 210.347656 167.003906 210.492188 167.359375 C 210.640625 167.710938 210.75 168.074219 210.824219 168.449219 C 210.898438 168.824219 210.9375 169.203125 210.9375 169.585938 L 210.9375 171.898438 L 224.289062 171.898438 L 224.289062 167.484375 L 225.464844 163.023438 C 225.546875 163.175781 225.625 163.324219 225.710938 163.472656 C 226.28125 164.433594 226.941406 165.335938 227.683594 166.175781 C 228.398438 166.984375 229.171875 167.734375 230.003906 168.429688 C 230.75 169.058594 231.226562 168.652344 230.691406 167.820312 C 230.136719 166.972656 229.644531 166.089844 229.222656 165.171875 C 228.816406 164.28125 228.496094 163.363281 228.261719 162.417969 C 228.15625 161.976562 228.078125 161.527344 228.027344 161.078125 L 229.855469 161.078125 Z M 229.855469 153.351562 " fill-opacity="1" fill-rule="nonzero"/><g clip-path="url(#c6071b1d49)"><path fill="#013461" d="M 240.28125 107.09375 C 238.964844 106.523438 237.636719 105.984375 236.292969 105.480469 C 234.949219 104.976562 233.597656 104.503906 232.230469 104.066406 C 230.863281 103.625 229.488281 103.21875 228.101562 102.847656 C 226.714844 102.476562 225.320312 102.140625 223.917969 101.835938 C 222.515625 101.535156 221.105469 101.265625 219.691406 101.03125 C 218.277344 100.796875 216.855469 100.597656 215.429688 100.433594 C 214.003906 100.265625 212.574219 100.136719 211.144531 100.042969 C 209.710938 99.945312 208.277344 99.886719 206.84375 99.863281 C 205.40625 99.835938 203.972656 99.847656 202.539062 99.894531 C 201.101562 99.9375 199.671875 100.019531 198.242188 100.132812 C 196.808594 100.25 195.382812 100.398438 193.960938 100.585938 C 192.535156 100.769531 191.117188 100.988281 189.707031 101.246094 C 188.292969 101.5 186.890625 101.789062 185.492188 102.109375 C 184.09375 102.433594 182.703125 102.792969 181.324219 103.183594 C 179.941406 103.574219 178.574219 104 177.210938 104.457031 C 175.851562 104.914062 174.503906 105.40625 173.171875 105.929688 C 171.835938 106.453125 170.511719 107.011719 169.203125 107.597656 C 167.898438 108.1875 166.605469 108.808594 165.328125 109.460938 C 164.050781 110.113281 162.789062 110.792969 161.542969 111.507812 C 160.300781 112.222656 159.074219 112.964844 157.867188 113.738281 C 156.660156 114.511719 155.472656 115.316406 154.304688 116.148438 C 153.136719 116.980469 151.992188 117.839844 150.863281 118.726562 C 149.738281 119.613281 148.636719 120.527344 147.554688 121.46875 C 146.476562 122.410156 145.417969 123.378906 144.386719 124.371094 C 143.351562 125.367188 142.34375 126.382812 141.363281 127.425781 C 140.378906 128.46875 139.421875 129.535156 138.492188 130.625 C 137.5625 131.714844 136.660156 132.824219 135.785156 133.960938 C 134.910156 135.09375 134.0625 136.246094 133.242188 137.421875 C 132.425781 138.597656 131.636719 139.792969 130.875 141.003906 C 130.113281 142.21875 129.386719 143.449219 128.6875 144.699219 C 127.988281 145.949219 127.320312 147.214844 126.683594 148.496094 C 126.042969 149.777344 125.441406 151.074219 124.867188 152.386719 C 125.421875 151.28125 126 150.191406 126.605469 149.117188 C 127.214844 148.042969 127.84375 146.980469 128.5 145.933594 C 129.15625 144.886719 129.839844 143.855469 130.542969 142.84375 C 131.25 141.828125 131.980469 140.832031 132.734375 139.851562 C 133.484375 138.871094 134.261719 137.910156 135.058594 136.96875 C 135.859375 136.027344 136.679688 135.101562 137.523438 134.199219 C 138.363281 133.292969 139.226562 132.410156 140.113281 131.546875 C 140.996094 130.683594 141.902344 129.839844 142.824219 129.019531 C 143.75 128.199219 144.695312 127.402344 145.65625 126.625 C 146.621094 125.847656 147.597656 125.09375 148.597656 124.363281 C 149.597656 123.636719 150.609375 122.929688 151.644531 122.246094 C 152.675781 121.566406 153.722656 120.90625 154.785156 120.277344 C 155.847656 119.644531 156.925781 119.035156 158.019531 118.453125 C 159.109375 117.871094 160.214844 117.316406 161.332031 116.789062 C 162.453125 116.257812 163.582031 115.753906 164.722656 115.28125 C 165.867188 114.804688 167.019531 114.355469 168.183594 113.933594 C 169.347656 113.511719 170.519531 113.117188 171.703125 112.75 C 172.882812 112.386719 174.074219 112.046875 175.273438 111.738281 C 176.472656 111.425781 177.675781 111.144531 178.886719 110.890625 C 180.101562 110.640625 181.316406 110.414062 182.539062 110.21875 C 183.761719 110.023438 184.988281 109.855469 186.21875 109.71875 C 187.449219 109.582031 188.683594 109.472656 189.917969 109.394531 C 191.152344 109.3125 192.390625 109.261719 193.628906 109.242188 C 194.867188 109.222656 196.101562 109.230469 197.339844 109.265625 C 198.578125 109.304688 199.8125 109.371094 201.046875 109.464844 C 202.28125 109.5625 203.515625 109.6875 204.742188 109.839844 C 205.972656 109.996094 207.195312 110.175781 208.414062 110.390625 C 209.632812 110.601562 210.847656 110.839844 212.058594 111.109375 C 213.265625 111.378906 214.464844 111.675781 215.660156 112.003906 C 216.855469 112.328125 218.039062 112.679688 219.21875 113.0625 C 220.394531 113.445312 221.5625 113.855469 222.722656 114.292969 C 223.878906 114.726562 225.027344 115.191406 226.160156 115.683594 C 253.890625 127.707031 273.273438 155.25 273.273438 187.3125 C 273.273438 217.253906 256.359375 243.261719 231.535156 256.359375 L 231.535156 222.890625 L 241.175781 222.890625 L 234.769531 218.28125 L 234.769531 200.96875 C 234.769531 198.628906 234.320312 196.382812 233.425781 194.222656 C 232.527344 192.066406 231.25 190.160156 229.59375 188.507812 C 227.933594 186.855469 226.65625 184.953125 225.761719 182.792969 C 224.863281 180.632812 224.414062 178.386719 224.414062 176.050781 L 224.414062 174.539062 L 210.652344 174.539062 L 206.496094 187.070312 C 205.902344 188.867188 205.601562 190.710938 205.601562 192.601562 L 205.601562 197.300781 L 195.328125 189.910156 L 195.328125 150.480469 L 186.25 150.480469 L 186.25 191.253906 L 164.445312 206.9375 L 164.445312 188.902344 L 155.625 188.902344 L 155.625 213.039062 C 155.625 213.117188 155.625 213.199219 155.628906 213.273438 L 142.265625 222.890625 L 151.902344 222.890625 L 151.902344 252.554688 C 146.136719 248.769531 140.957031 244.300781 136.371094 239.152344 C 131.785156 234.007812 127.945312 228.355469 124.851562 222.199219 C 125.386719 223.421875 125.949219 224.632812 126.539062 225.828125 C 127.128906 227.027344 127.746094 228.210938 128.390625 229.378906 C 129.035156 230.546875 129.707031 231.699219 130.402344 232.839844 C 131.101562 233.976562 131.824219 235.097656 132.574219 236.203125 C 133.320312 237.308594 134.09375 238.398438 134.894531 239.46875 C 135.691406 240.535156 136.515625 241.589844 137.363281 242.621094 C 138.210938 243.652344 139.078125 244.667969 139.972656 245.660156 C 140.867188 246.652344 141.78125 247.625 142.71875 248.574219 C 143.65625 249.527344 144.617188 250.457031 145.597656 251.363281 C 146.578125 252.269531 147.578125 253.15625 148.597656 254.019531 C 149.621094 254.878906 150.660156 255.71875 151.71875 256.53125 C 152.777344 257.347656 153.855469 258.136719 154.953125 258.902344 C 156.046875 259.667969 157.160156 260.410156 158.289062 261.125 C 159.417969 261.839844 160.566406 262.527344 161.726562 263.1875 C 162.886719 263.851562 164.0625 264.488281 165.253906 265.097656 C 166.445312 265.707031 167.648438 266.289062 168.863281 266.84375 C 170.082031 267.394531 171.3125 267.921875 172.550781 268.421875 C 173.792969 268.917969 175.042969 269.390625 176.308594 269.828125 C 177.570312 270.269531 178.84375 270.683594 180.125 271.066406 C 181.40625 271.449219 182.695312 271.804688 183.992188 272.128906 C 185.289062 272.453125 186.59375 272.75 187.90625 273.011719 C 189.21875 273.277344 190.535156 273.511719 191.855469 273.71875 C 193.179688 273.925781 194.503906 274.097656 195.835938 274.242188 C 197.164062 274.386719 198.496094 274.503906 199.832031 274.585938 C 201.167969 274.671875 202.503906 274.722656 203.84375 274.746094 C 205.179688 274.769531 206.515625 274.761719 207.855469 274.726562 C 209.191406 274.6875 210.527344 274.621094 211.863281 274.519531 C 213.195312 274.421875 214.527344 274.292969 215.855469 274.132812 C 217.183594 273.976562 218.507812 273.785156 219.828125 273.566406 C 221.148438 273.347656 222.460938 273.097656 223.769531 272.816406 C 225.078125 272.539062 226.378906 272.230469 227.675781 271.890625 C 228.96875 271.550781 230.253906 271.183594 231.53125 270.785156 C 267.175781 259.679688 293.039062 226.507812 293.039062 187.316406 C 293.042969 151.40625 271.332031 120.554688 240.28125 107.09375 Z M 192.648438 231.972656 L 201.660156 231.972656 L 201.660156 240.949219 L 192.652344 240.949219 Z M 201.65625 230.472656 L 192.648438 230.472656 L 192.648438 221.496094 L 201.660156 221.496094 Z M 181.785156 221.5 L 190.789062 221.5 L 190.789062 230.472656 L 181.785156 230.472656 Z M 181.785156 231.972656 L 190.789062 231.972656 L 190.789062 240.949219 L 181.785156 240.949219 Z M 181.785156 231.972656 " fill-opacity="1" fill-rule="nonzero"/></g><path fill="#0372d8" d="M 125.613281 187.304688 C 125.613281 187.726562 125.570312 188.140625 125.488281 188.554688 C 125.40625 188.96875 125.285156 189.367188 125.125 189.757812 C 124.960938 190.144531 124.765625 190.515625 124.53125 190.863281 C 124.296875 191.214844 124.03125 191.535156 123.730469 191.835938 C 123.433594 192.132812 123.109375 192.398438 122.757812 192.628906 C 122.40625 192.863281 122.035156 193.0625 121.644531 193.222656 C 121.257812 193.382812 120.855469 193.503906 120.441406 193.585938 C 120.027344 193.667969 119.609375 193.710938 119.1875 193.710938 C 118.765625 193.710938 118.347656 193.667969 117.933594 193.585938 C 117.519531 193.503906 117.117188 193.382812 116.726562 193.222656 C 116.339844 193.0625 115.96875 192.863281 115.617188 192.628906 C 115.265625 192.398438 114.941406 192.132812 114.644531 191.835938 C 114.34375 191.535156 114.078125 191.214844 113.84375 190.863281 C 113.609375 190.515625 113.414062 190.144531 113.25 189.757812 C 113.089844 189.367188 112.96875 188.96875 112.886719 188.554688 C 112.804688 188.140625 112.761719 187.726562 112.761719 187.304688 C 112.761719 186.882812 112.804688 186.46875 112.886719 186.054688 C 112.96875 185.644531 113.089844 185.242188 113.25 184.855469 C 113.414062 184.464844 113.609375 184.097656 113.84375 183.746094 C 114.078125 183.398438 114.34375 183.074219 114.644531 182.777344 C 114.941406 182.480469 115.265625 182.214844 115.617188 181.980469 C 115.96875 181.746094 116.339844 181.546875 116.726562 181.386719 C 117.117188 181.226562 117.519531 181.105469 117.933594 181.023438 C 118.347656 180.941406 118.765625 180.898438 119.1875 180.898438 C 119.609375 180.898438 120.027344 180.941406 120.441406 181.023438 C 120.855469 181.105469 121.257812 181.226562 121.644531 181.386719 C 122.035156 181.546875 122.40625 181.746094 122.757812 181.980469 C 123.109375 182.214844 123.433594 182.480469 123.730469 182.777344 C 124.03125 183.074219 124.296875 183.398438 124.53125 183.746094 C 124.765625 184.097656 124.960938 184.464844 125.125 184.855469 C 125.285156 185.242188 125.40625 185.644531 125.488281 186.054688 C 125.570312 186.46875 125.613281 186.882812 125.613281 187.304688 Z M 125.613281 187.304688 " fill-opacity="1" fill-rule="nonzero"/><path fill="#0372d8" d="M 133.152344 196.914062 C 133.152344 197.183594 133.125 197.453125 133.070312 197.71875 C 133.019531 197.984375 132.941406 198.242188 132.835938 198.492188 C 132.730469 198.742188 132.605469 198.980469 132.453125 199.207031 C 132.300781 199.429688 132.128906 199.640625 131.9375 199.832031 C 131.746094 200.023438 131.535156 200.195312 131.3125 200.34375 C 131.085938 200.496094 130.847656 200.621094 130.59375 200.726562 C 130.34375 200.828125 130.085938 200.90625 129.820312 200.960938 C 129.550781 201.011719 129.28125 201.039062 129.011719 201.039062 C 128.738281 201.039062 128.46875 201.011719 128.203125 200.960938 C 127.9375 200.90625 127.679688 200.828125 127.425781 200.726562 C 127.175781 200.621094 126.9375 200.496094 126.710938 200.34375 C 126.484375 200.195312 126.277344 200.023438 126.085938 199.832031 C 125.890625 199.640625 125.71875 199.429688 125.570312 199.207031 C 125.417969 198.980469 125.289062 198.742188 125.1875 198.492188 C 125.082031 198.242188 125.003906 197.984375 124.953125 197.71875 C 124.898438 197.453125 124.871094 197.183594 124.871094 196.914062 C 124.871094 196.640625 124.898438 196.375 124.953125 196.109375 C 125.003906 195.84375 125.082031 195.585938 125.1875 195.335938 C 125.289062 195.085938 125.417969 194.847656 125.570312 194.621094 C 125.71875 194.394531 125.890625 194.1875 126.085938 193.996094 C 126.277344 193.804688 126.484375 193.632812 126.710938 193.484375 C 126.9375 193.332031 127.175781 193.203125 127.425781 193.101562 C 127.679688 192.996094 127.9375 192.917969 128.203125 192.867188 C 128.46875 192.8125 128.738281 192.785156 129.011719 192.785156 C 129.28125 192.785156 129.550781 192.8125 129.820312 192.867188 C 130.085938 192.917969 130.34375 192.996094 130.59375 193.101562 C 130.847656 193.203125 131.085938 193.332031 131.3125 193.484375 C 131.535156 193.632812 131.746094 193.804688 131.9375 193.996094 C 132.128906 194.1875 132.300781 194.394531 132.453125 194.621094 C 132.605469 194.847656 132.730469 195.085938 132.835938 195.335938 C 132.941406 195.585938 133.019531 195.84375 133.070312 196.109375 C 133.125 196.375 133.152344 196.640625 133.152344 196.914062 Z M 133.152344 196.914062 " fill-opacity="1" fill-rule="nonzero"/><path fill="#0372d8" d="M 144.644531 180.898438 C 144.644531 181.382812 144.597656 181.859375 144.503906 182.328125 C 144.410156 182.800781 144.269531 183.261719 144.085938 183.703125 C 143.898438 184.148438 143.671875 184.570312 143.40625 184.972656 C 143.136719 185.371094 142.832031 185.742188 142.492188 186.082031 C 142.148438 186.421875 141.777344 186.726562 141.375 186.996094 C 140.976562 187.261719 140.550781 187.488281 140.105469 187.671875 C 139.660156 187.855469 139.199219 187.996094 138.726562 188.089844 C 138.253906 188.183594 137.773438 188.230469 137.292969 188.230469 C 136.808594 188.230469 136.332031 188.183594 135.855469 188.089844 C 135.382812 187.996094 134.921875 187.855469 134.476562 187.671875 C 134.03125 187.488281 133.609375 187.261719 133.207031 186.996094 C 132.804688 186.726562 132.433594 186.421875 132.09375 186.082031 C 131.75 185.742188 131.445312 185.371094 131.175781 184.972656 C 130.910156 184.570312 130.683594 184.148438 130.5 183.703125 C 130.3125 183.261719 130.175781 182.800781 130.078125 182.328125 C 129.984375 181.859375 129.9375 181.382812 129.9375 180.898438 C 129.9375 180.417969 129.984375 179.941406 130.078125 179.46875 C 130.175781 179 130.3125 178.539062 130.5 178.09375 C 130.683594 177.652344 130.910156 177.226562 131.175781 176.828125 C 131.445312 176.429688 131.75 176.058594 132.09375 175.71875 C 132.433594 175.378906 132.804688 175.074219 133.207031 174.804688 C 133.609375 174.539062 134.03125 174.3125 134.476562 174.128906 C 134.921875 173.945312 135.382812 173.804688 135.855469 173.710938 C 136.332031 173.617188 136.808594 173.570312 137.292969 173.570312 C 137.773438 173.570312 138.253906 173.617188 138.726562 173.710938 C 139.199219 173.804688 139.660156 173.945312 140.105469 174.128906 C 140.550781 174.3125 140.976562 174.539062 141.375 174.804688 C 141.777344 175.074219 142.148438 175.378906 142.492188 175.71875 C 142.832031 176.058594 143.136719 176.429688 143.40625 176.828125 C 143.671875 177.226562 143.898438 177.652344 144.085938 178.09375 C 144.269531 178.539062 144.410156 179 144.503906 179.46875 C 144.597656 179.941406 144.644531 180.417969 144.644531 180.898438 Z M 144.644531 180.898438 " fill-opacity="1" fill-rule="nonzero"/><path fill="#0372d8" d="M 129.9375 172.359375 C 129.9375 172.644531 129.910156 172.921875 129.855469 173.199219 C 129.800781 173.480469 129.71875 173.75 129.609375 174.011719 C 129.5 174.269531 129.367188 174.519531 129.210938 174.753906 C 129.050781 174.992188 128.871094 175.207031 128.671875 175.410156 C 128.472656 175.609375 128.253906 175.789062 128.015625 175.945312 C 127.78125 176.101562 127.53125 176.234375 127.269531 176.34375 C 127.007812 176.453125 126.734375 176.535156 126.457031 176.589844 C 126.179688 176.644531 125.898438 176.671875 125.613281 176.671875 C 125.328125 176.671875 125.046875 176.644531 124.769531 176.589844 C 124.492188 176.535156 124.21875 176.453125 123.957031 176.34375 C 123.695312 176.234375 123.445312 176.101562 123.210938 175.945312 C 122.972656 175.789062 122.753906 175.609375 122.554688 175.410156 C 122.355469 175.207031 122.175781 174.992188 122.015625 174.753906 C 121.859375 174.519531 121.726562 174.269531 121.617188 174.011719 C 121.507812 173.75 121.425781 173.480469 121.371094 173.199219 C 121.316406 172.921875 121.289062 172.644531 121.289062 172.359375 C 121.289062 172.078125 121.316406 171.796875 121.371094 171.519531 C 121.425781 171.242188 121.507812 170.972656 121.617188 170.710938 C 121.726562 170.449219 121.859375 170.199219 122.015625 169.964844 C 122.175781 169.730469 122.355469 169.511719 122.554688 169.3125 C 122.753906 169.109375 122.972656 168.933594 123.210938 168.773438 C 123.445312 168.617188 123.695312 168.484375 123.957031 168.375 C 124.21875 168.269531 124.492188 168.1875 124.769531 168.132812 C 125.046875 168.074219 125.328125 168.046875 125.613281 168.046875 C 125.898438 168.046875 126.179688 168.074219 126.457031 168.132812 C 126.734375 168.1875 127.007812 168.269531 127.269531 168.375 C 127.53125 168.484375 127.78125 168.617188 128.015625 168.773438 C 128.253906 168.933594 128.472656 169.109375 128.671875 169.3125 C 128.871094 169.511719 129.050781 169.730469 129.210938 169.964844 C 129.367188 170.199219 129.5 170.449219 129.609375 170.710938 C 129.71875 170.972656 129.800781 171.242188 129.855469 171.519531 C 129.910156 171.796875 129.9375 172.078125 129.9375 172.359375 Z M 129.9375 172.359375 " fill-opacity="1" fill-rule="nonzero"/></svg>