<svg xmlns="http://www.w3.org/2000/svg" xmlns:xlink="http://www.w3.org/1999/xlink" width="500" zoomAndPan="magnify" viewBox="0 0 375 374.999991" height="500" preserveAspectRatio="xMidYMid meet" version="1.0"><defs><clipPath id="b3343046a3"><path d="M 87.984375 87.984375 L 286.734375 87.984375 L 286.734375 286.734375 L 87.984375 286.734375 Z M 87.984375 87.984375 " clip-rule="nonzero"/></clipPath></defs><g clip-path="url(#b3343046a3)"><path fill="#2496ca" d="M 187.394531 87.984375 C 242.257812 87.984375 286.734375 132.464844 286.734375 187.394531 C 286.734375 242.257812 242.257812 286.734375 187.394531 286.734375 C 132.464844 286.734375 87.984375 242.257812 87.984375 187.394531 C 87.984375 132.464844 132.464844 87.984375 187.394531 87.984375 Z M 187.394531 92.6875 C 239.660156 92.6875 282.035156 135.128906 282.035156 187.394531 C 282.035156 239.660156 239.660156 282.035156 187.394531 282.035156 C 135.128906 282.035156 92.6875 239.660156 92.6875 187.394531 C 92.6875 135.128906 135.128906 92.6875 187.394531 92.6875 Z M 187.394531 92.6875 " fill-opacity="1" fill-rule="evenodd"/></g><path fill="#2496ca" d="M 238.820312 184.167969 L 180.03125 184.167969 C 176.800781 184.167969 174.207031 181.574219 174.207031 178.347656 L 174.207031 137.585938 C 174.207031 134.359375 176.800781 131.761719 180.03125 131.761719 L 238.820312 131.761719 C 241.976562 131.761719 244.644531 134.359375 244.644531 137.585938 L 244.644531 178.347656 C 244.644531 181.574219 241.976562 184.167969 238.820312 184.167969 Z M 180.03125 134.570312 C 178.347656 134.570312 177.011719 135.902344 177.011719 137.585938 L 177.011719 178.347656 C 177.011719 180.03125 178.347656 181.363281 180.03125 181.363281 L 238.820312 181.363281 C 240.433594 181.363281 241.835938 180.03125 241.835938 178.347656 L 241.835938 137.585938 C 241.835938 135.902344 240.433594 134.570312 238.820312 134.570312 Z M 180.03125 134.570312 " fill-opacity="1" fill-rule="evenodd"/><path fill="#2496ca" d="M 154.914062 229.980469 L 151.335938 229.980469 C 148.742188 229.980469 146.566406 227.875 146.566406 225.28125 L 146.566406 221.914062 C 146.566406 221.140625 147.195312 220.507812 147.96875 220.507812 C 148.742188 220.507812 149.371094 221.140625 149.371094 221.914062 L 149.371094 225.28125 C 149.371094 226.332031 150.285156 227.175781 151.335938 227.175781 L 154.914062 227.175781 C 155.964844 227.175781 156.878906 226.332031 156.878906 225.28125 L 156.878906 185.851562 C 156.878906 185.082031 157.511719 184.449219 158.28125 184.449219 C 159.054688 184.449219 159.683594 185.082031 159.683594 185.851562 L 159.683594 221.84375 C 159.683594 221.84375 159.683594 221.914062 159.683594 221.914062 L 159.683594 225.28125 C 159.683594 227.875 157.511719 229.980469 154.914062 229.980469 Z M 137.726562 223.316406 C 136.953125 223.316406 136.324219 222.683594 136.324219 221.914062 L 136.324219 209.074219 C 136.324219 208.300781 136.953125 207.671875 137.726562 207.671875 C 138.496094 207.671875 139.128906 208.300781 139.128906 209.074219 L 139.128906 221.914062 C 139.128906 222.683594 138.496094 223.316406 137.726562 223.316406 Z M 137.726562 223.316406 " fill-opacity="1" fill-rule="evenodd"/><path fill="#2496ca" d="M 147.96875 223.316406 C 147.195312 223.316406 146.566406 222.683594 146.566406 221.914062 L 146.566406 209.074219 C 146.566406 208.300781 147.195312 207.671875 147.96875 207.671875 C 148.742188 207.671875 149.371094 208.300781 149.371094 209.074219 L 149.371094 221.914062 C 149.371094 222.683594 148.742188 223.316406 147.96875 223.316406 Z M 147.96875 223.316406 " fill-opacity="1" fill-rule="evenodd"/><path fill="#2496ca" d="M 144.671875 229.980469 L 141.09375 229.980469 C 138.496094 229.980469 136.324219 227.875 136.324219 225.28125 L 136.324219 221.914062 C 136.324219 221.140625 136.953125 220.507812 137.726562 220.507812 C 138.496094 220.507812 139.128906 221.140625 139.128906 221.914062 L 139.128906 225.28125 C 139.128906 226.332031 140.042969 227.175781 141.09375 227.175781 L 144.671875 227.175781 C 145.722656 227.175781 146.566406 226.332031 146.566406 225.28125 L 146.566406 221.914062 C 146.566406 221.140625 147.195312 220.507812 147.96875 220.507812 C 148.742188 220.507812 149.371094 221.140625 149.371094 221.914062 L 149.371094 225.28125 C 149.371094 227.875 147.265625 229.980469 144.671875 229.980469 Z M 137.726562 211.179688 L 133.304688 211.179688 C 130.148438 211.179688 127.484375 208.582031 127.484375 205.355469 L 127.484375 192.9375 C 127.484375 192.167969 128.113281 191.535156 128.886719 191.535156 C 129.65625 191.535156 130.289062 192.167969 130.289062 192.9375 L 130.289062 205.355469 C 130.289062 207.039062 131.691406 208.371094 133.304688 208.371094 L 136.324219 208.371094 L 136.324219 187.605469 C 136.324219 186.835938 136.953125 186.203125 137.726562 186.203125 C 138.496094 186.203125 139.128906 186.835938 139.128906 187.605469 L 139.128906 209.777344 C 139.128906 210.546875 138.496094 211.179688 137.726562 211.179688 Z M 137.726562 211.179688 " fill-opacity="1" fill-rule="evenodd"/><path fill="#2496ca" d="M 128.886719 194.339844 C 128.113281 194.339844 127.484375 193.710938 127.484375 192.9375 L 127.484375 182.34375 C 127.484375 175.75 132.886719 170.347656 139.550781 170.347656 L 156.035156 170.347656 C 162.703125 170.347656 168.101562 175.75 168.101562 182.34375 L 168.101562 188.238281 C 168.101562 189.007812 167.472656 189.640625 166.699219 189.640625 C 165.859375 189.640625 165.296875 189.007812 165.296875 188.238281 L 165.296875 182.34375 C 165.296875 177.292969 161.15625 173.15625 156.035156 173.15625 L 139.550781 173.15625 C 134.429688 173.15625 130.289062 177.292969 130.289062 182.34375 L 130.289062 192.9375 C 130.289062 193.710938 129.65625 194.339844 128.886719 194.339844 Z M 128.886719 194.339844 " fill-opacity="1" fill-rule="evenodd"/><path fill="#2496ca" d="M 173.714844 200.9375 L 158.28125 200.9375 C 157.511719 200.9375 156.878906 200.304688 156.878906 199.53125 C 156.878906 198.761719 157.511719 198.128906 158.28125 198.128906 L 173.714844 198.128906 C 176.101562 198.128906 177.996094 196.234375 177.996094 193.921875 C 177.996094 191.535156 176.101562 189.640625 173.714844 189.640625 L 166.699219 189.640625 C 165.859375 189.640625 165.296875 189.007812 165.296875 188.238281 C 165.296875 187.464844 165.859375 186.835938 166.699219 186.835938 L 173.714844 186.835938 C 177.644531 186.835938 180.800781 189.992188 180.800781 193.851562 C 180.800781 197.777344 177.644531 200.9375 173.714844 200.9375 Z M 173.714844 200.9375 " fill-opacity="1" fill-rule="evenodd"/><path fill="#2496ca" d="M 179.398438 195.253906 C 179.046875 195.253906 178.695312 195.183594 178.417969 194.902344 C 177.855469 194.339844 177.855469 193.429688 178.417969 192.867188 L 196.09375 175.1875 C 196.585938 174.699219 197.5 174.699219 198.058594 175.1875 C 198.621094 175.75 198.621094 176.664062 198.058594 177.222656 L 180.378906 194.902344 C 180.101562 195.183594 179.75 195.253906 179.398438 195.253906 Z M 179.398438 195.253906 " fill-opacity="1" fill-rule="evenodd"/><path fill="#2496ca" d="M 147.757812 164.457031 C 141.933594 164.457031 137.164062 159.683594 137.164062 153.792969 C 137.164062 147.96875 141.933594 143.199219 147.757812 143.199219 C 153.652344 143.199219 158.421875 147.96875 158.421875 153.792969 C 158.421875 159.683594 153.652344 164.457031 147.757812 164.457031 Z M 147.757812 146.003906 C 143.480469 146.003906 139.972656 149.511719 139.972656 153.792969 C 139.972656 158.140625 143.480469 161.648438 147.757812 161.648438 C 152.109375 161.648438 155.617188 158.140625 155.617188 153.792969 C 155.617188 149.511719 152.109375 146.003906 147.757812 146.003906 Z M 147.757812 146.003906 " fill-opacity="1" fill-rule="evenodd"/><path fill="#2496ca" d="M 205.847656 242.957031 L 175.398438 242.957031 C 174.628906 242.957031 173.996094 242.328125 173.996094 241.554688 L 173.996094 234.191406 C 173.996094 229.347656 177.925781 225.421875 182.765625 225.421875 L 198.480469 225.421875 C 203.320312 225.421875 207.25 229.347656 207.25 234.191406 L 207.25 241.554688 C 207.25 242.328125 206.617188 242.957031 205.847656 242.957031 Z M 176.800781 240.152344 L 204.445312 240.152344 L 204.445312 234.191406 C 204.445312 230.890625 201.777344 228.226562 198.480469 228.226562 L 182.765625 228.226562 C 179.46875 228.226562 176.800781 230.890625 176.800781 234.191406 Z M 176.800781 240.152344 " fill-opacity="1" fill-rule="evenodd"/><path fill="#2496ca" d="M 190.625 220.789062 C 185.851562 220.789062 181.992188 216.859375 181.992188 212.089844 C 181.992188 207.320312 185.851562 203.460938 190.625 203.460938 C 195.394531 203.460938 199.253906 207.320312 199.253906 212.089844 C 199.253906 216.859375 195.394531 220.789062 190.625 220.789062 Z M 190.625 206.269531 C 187.394531 206.269531 184.800781 208.863281 184.800781 212.089844 C 184.800781 215.316406 187.394531 217.984375 190.625 217.984375 C 193.851562 217.984375 196.445312 215.316406 196.445312 212.089844 C 196.445312 208.863281 193.851562 206.269531 190.625 206.269531 Z M 190.625 206.269531 " fill-opacity="1" fill-rule="evenodd"/><path fill="#2496ca" d="M 245.835938 242.957031 L 215.386719 242.957031 C 214.617188 242.957031 213.984375 242.328125 213.984375 241.554688 L 213.984375 234.191406 C 213.984375 229.347656 217.914062 225.421875 222.753906 225.421875 L 238.46875 225.421875 C 243.308594 225.421875 247.238281 229.347656 247.238281 234.191406 L 247.238281 241.554688 C 247.238281 242.328125 246.605469 242.957031 245.835938 242.957031 Z M 216.789062 240.152344 L 244.433594 240.152344 L 244.433594 234.191406 C 244.433594 230.890625 241.765625 228.226562 238.46875 228.226562 L 222.753906 228.226562 C 219.457031 228.226562 216.789062 230.890625 216.789062 234.191406 Z M 216.789062 240.152344 " fill-opacity="1" fill-rule="evenodd"/><path fill="#2496ca" d="M 230.613281 220.789062 C 225.839844 220.789062 221.984375 216.859375 221.984375 212.089844 C 221.984375 207.320312 225.839844 203.460938 230.613281 203.460938 C 235.382812 203.460938 239.242188 207.320312 239.242188 212.089844 C 239.242188 216.859375 235.382812 220.789062 230.613281 220.789062 Z M 230.613281 206.269531 C 227.382812 206.269531 224.789062 208.863281 224.789062 212.089844 C 224.789062 215.316406 227.382812 217.984375 230.613281 217.984375 C 233.839844 217.984375 236.433594 215.316406 236.433594 212.089844 C 236.433594 208.863281 233.839844 206.269531 230.613281 206.269531 Z M 230.613281 206.269531 " fill-opacity="1" fill-rule="evenodd"/><path fill="#2496ca" d="M 218.476562 146.003906 L 190.34375 146.003906 C 189.570312 146.003906 188.9375 145.371094 188.9375 144.601562 C 188.9375 143.828125 189.570312 143.199219 190.34375 143.199219 L 218.476562 143.199219 C 219.246094 143.199219 219.878906 143.828125 219.878906 144.601562 C 219.878906 145.371094 219.246094 146.003906 218.476562 146.003906 Z M 218.476562 146.003906 " fill-opacity="1" fill-rule="evenodd"/><path fill="#2496ca" d="M 228.4375 156.105469 L 190.34375 156.105469 C 189.570312 156.105469 188.9375 155.476562 188.9375 154.703125 C 188.9375 153.933594 189.570312 153.300781 190.34375 153.300781 L 228.4375 153.300781 C 229.207031 153.300781 229.839844 153.933594 229.839844 154.703125 C 229.839844 155.476562 229.207031 156.105469 228.4375 156.105469 Z M 228.4375 156.105469 " fill-opacity="1" fill-rule="evenodd"/><path fill="#2496ca" d="M 219.949219 166.210938 L 190.34375 166.210938 C 189.570312 166.210938 188.9375 165.578125 188.9375 164.804688 C 188.9375 164.035156 189.570312 163.402344 190.34375 163.402344 L 219.949219 163.402344 C 220.71875 163.402344 221.351562 164.035156 221.351562 164.804688 C 221.351562 165.578125 220.71875 166.210938 219.949219 166.210938 Z M 219.949219 166.210938 " fill-opacity="1" fill-rule="evenodd"/></svg>