<svg xmlns="http://www.w3.org/2000/svg" xmlns:xlink="http://www.w3.org/1999/xlink" width="500" zoomAndPan="magnify" viewBox="0 0 375 374.999991" height="500" preserveAspectRatio="xMidYMid meet" version="1.0"><defs><clipPath id="84591d433b"><path d="M 75 211 L 299.960938 211 L 299.960938 257 L 75 257 Z M 75 211 " clip-rule="nonzero"/></clipPath></defs><path fill="#f5a784" d="M 246.527344 228.394531 L 238.425781 222.148438 L 230.601562 234.277344 Z M 246.527344 228.394531 " fill-opacity="1" fill-rule="nonzero"/><path fill="#f5a784" d="M 180.9375 189.703125 L 175.34375 181.308594 L 110.777344 213.003906 L 111.144531 213.40625 L 111.851562 213.640625 L 111.71875 214.039062 L 130.671875 222.304688 L 185.695312 204.75 Z M 180.9375 189.703125 " fill-opacity="1" fill-rule="nonzero"/><path fill="#f5a784" d="M 160.019531 190.417969 C 160.90625 199.085938 168.65625 205.398438 177.335938 204.515625 C 186.015625 203.632812 192.335938 195.890625 191.453125 187.21875 C 190.566406 178.550781 182.816406 172.238281 174.132812 173.121094 C 165.453125 174.003906 159.136719 181.746094 160.019531 190.417969 Z M 160.019531 190.417969 " fill-opacity="1" fill-rule="nonzero"/><path fill="#fac38a" d="M 170.328125 171.140625 C 170.328125 171.140625 159.027344 182.351562 148.960938 177.644531 C 148.960938 177.644531 137.066406 167.535156 137.523438 150.265625 C 137.980469 132.992188 162.96875 127.558594 171.910156 140.992188 C 179.757812 152.792969 176.195312 166.070312 170.328125 171.140625 Z M 170.328125 171.140625 " fill-opacity="1" fill-rule="nonzero"/><path fill="#009fe3" d="M 159.664062 152.074219 C 165.375 151.914062 171.128906 152.632812 176.417969 154.851562 C 176.285156 150.386719 174.960938 145.578125 171.914062 140.992188 C 162.96875 127.558594 137.980469 132.992188 137.523438 150.265625 C 137.441406 153.320312 137.753906 156.148438 138.3125 158.738281 C 144.609375 154.4375 153.253906 152.25 159.664062 152.074219 Z M 159.664062 152.074219 " fill-opacity="1" fill-rule="nonzero"/><path fill="#29235c" d="M 223.832031 236.777344 L 266.441406 221.042969 C 262.296875 214.875 254.847656 209.226562 248.191406 204.671875 L 205.691406 166.742188 C 193.332031 158.277344 179.644531 159.585938 171.167969 171.933594 C 162.695312 184.277344 165.847656 201.144531 178.207031 209.605469 Z M 223.832031 236.777344 " fill-opacity="1" fill-rule="nonzero"/><path fill="#29235c" d="M 275.898438 217.546875 C 269.367188 207.480469 256.515625 202.898438 244.78125 207.234375 C 233.042969 211.566406 226.269531 223.398438 227.863281 235.289062 Z M 275.898438 217.546875 " fill-opacity="1" fill-rule="nonzero"/><path fill="#fac38a" d="M 184.691406 184.125 L 175.667969 179.609375 L 195.6875 119.558594 L 210.933594 130.304688 L 200.226562 187.003906 Z M 184.691406 184.125 " fill-opacity="1" fill-rule="nonzero"/><path fill="#fac38a" d="M 169.027344 187.847656 C 171 196.335938 179.484375 201.621094 187.984375 199.652344 C 196.484375 197.683594 201.777344 189.207031 199.804688 180.71875 C 197.835938 172.234375 189.347656 166.945312 180.847656 168.914062 C 172.347656 170.882812 167.054688 179.359375 169.027344 187.847656 Z M 169.027344 187.847656 " fill-opacity="1" fill-rule="nonzero"/><path fill="#fac38a" d="M 157.574219 123.894531 L 156.222656 113.066406 C 156.222656 113.066406 207.015625 119.117188 210.363281 124.683594 C 213.128906 129.28125 206.960938 142.15625 206.960938 142.15625 Z M 157.574219 123.894531 " fill-opacity="1" fill-rule="nonzero"/><path fill="#fac38a" d="M 146.410156 111.5 C 148.75 111.15625 160.695312 110.132812 161.78125 115.667969 C 162.867188 121.207031 159.886719 125.1875 154.339844 126.277344 C 148.796875 127.363281 133.214844 129.679688 132.96875 124.042969 C 132.636719 116.742188 140.820312 112.320312 146.410156 111.5 Z M 146.410156 111.5 " fill-opacity="1" fill-rule="nonzero"/><path fill="#fac38a" d="M 155.421875 121.839844 C 158.25 121.441406 158.542969 120.925781 158.941406 123.757812 C 159.335938 126.582031 148.351562 131.851562 145.03125 131.640625 C 142.179688 131.457031 148.933594 127.425781 150.207031 124.964844 C 151.523438 122.429688 152.589844 122.234375 155.421875 121.839844 Z M 155.421875 121.839844 " fill-opacity="1" fill-rule="nonzero"/><path fill="#29235c" d="M 150.371094 161.34375 C 150.371094 161.722656 150.332031 162.097656 150.253906 162.46875 C 150.175781 162.84375 150.054688 163.203125 149.902344 163.554688 C 149.746094 163.90625 149.554688 164.238281 149.328125 164.554688 C 149.101562 164.871094 148.84375 165.164062 148.558594 165.429688 C 148.269531 165.699219 147.957031 165.941406 147.617188 166.152344 C 147.277344 166.363281 146.921875 166.539062 146.546875 166.683594 C 146.167969 166.832031 145.78125 166.941406 145.382812 167.015625 C 144.984375 167.089844 144.578125 167.125 144.171875 167.125 C 143.765625 167.125 143.363281 167.089844 142.964844 167.015625 C 142.5625 166.941406 142.175781 166.832031 141.800781 166.683594 C 141.425781 166.539062 141.066406 166.363281 140.726562 166.152344 C 140.390625 165.941406 140.078125 165.699219 139.789062 165.429688 C 139.5 165.164062 139.242188 164.871094 139.015625 164.554688 C 138.792969 164.238281 138.601562 163.90625 138.445312 163.554688 C 138.289062 163.203125 138.171875 162.84375 138.089844 162.46875 C 138.011719 162.097656 137.972656 161.722656 137.972656 161.34375 C 137.972656 160.960938 138.011719 160.585938 138.089844 160.214844 C 138.171875 159.839844 138.289062 159.480469 138.445312 159.128906 C 138.601562 158.777344 138.792969 158.445312 139.015625 158.128906 C 139.242188 157.8125 139.5 157.519531 139.789062 157.253906 C 140.078125 156.984375 140.390625 156.746094 140.726562 156.535156 C 141.066406 156.324219 141.425781 156.144531 141.800781 156 C 142.175781 155.855469 142.5625 155.742188 142.964844 155.671875 C 143.363281 155.597656 143.765625 155.558594 144.171875 155.558594 C 144.578125 155.558594 144.984375 155.597656 145.382812 155.671875 C 145.78125 155.742188 146.167969 155.855469 146.546875 156 C 146.921875 156.144531 147.277344 156.324219 147.617188 156.535156 C 147.957031 156.746094 148.269531 156.984375 148.558594 157.253906 C 148.84375 157.519531 149.101562 157.8125 149.328125 158.128906 C 149.554688 158.445312 149.746094 158.777344 149.902344 159.128906 C 150.054688 159.480469 150.175781 159.839844 150.253906 160.214844 C 150.332031 160.585938 150.371094 160.960938 150.371094 161.34375 Z M 150.371094 161.34375 " fill-opacity="1" fill-rule="nonzero"/><path fill="#29235c" d="M 141.492188 156.132812 L 176.320312 153.28125 L 176.4375 156.132812 L 148.238281 164.671875 Z M 141.492188 156.132812 " fill-opacity="1" fill-rule="nonzero"/><g clip-path="url(#84591d433b)"><path fill="#a1daf8" d="M 75.378906 229.980469 C 75.378906 229.980469 92.925781 209.398438 126.421875 212.152344 C 159.917969 214.910156 176.566406 239.070312 207.394531 227.65625 C 238.226562 216.242188 250.347656 208.214844 273.203125 213.195312 C 296.058594 218.171875 299.605469 236.441406 299.605469 236.441406 C 299.605469 236.441406 275.171875 226.4375 253.5 239.425781 C 231.824219 252.414062 193.328125 264.617188 162.316406 250.839844 C 132.691406 237.683594 97.054688 225.257812 75.378906 229.980469 Z M 75.378906 229.980469 " fill-opacity="1" fill-rule="nonzero"/></g></svg>