<svg xmlns="http://www.w3.org/2000/svg" xmlns:xlink="http://www.w3.org/1999/xlink" width="500" zoomAndPan="magnify" viewBox="0 0 375 374.999991" height="500" preserveAspectRatio="xMidYMid meet" version="1.0"><defs><clipPath id="4527a4c768"><path d="M 85.085938 88.542969 L 287 88.542969 L 287 286.542969 L 85.085938 286.542969 Z M 85.085938 88.542969 " clip-rule="nonzero"/></clipPath></defs><path fill="#b6332f" d="M 153.332031 116.085938 C 161.492188 99.761719 169.644531 91.609375 185.941406 91.609375 C 203.933594 91.609375 218.546875 106.230469 218.546875 124.242188 C 218.546875 156.875 185.941406 189.515625 153.328125 222.136719 C 120.722656 189.515625 88.121094 156.875 88.121094 124.242188 C 88.121094 106.230469 102.726562 91.609375 120.71875 91.609375 C 137.035156 91.609375 145.179688 99.765625 153.332031 116.085938 Z M 153.332031 116.085938 " fill-opacity="1" fill-rule="evenodd"/><path fill="#f94640" d="M 153.332031 116.085938 C 161.492188 99.761719 169.644531 91.609375 185.941406 91.609375 C 203.933594 91.609375 218.546875 106.230469 218.546875 124.242188 C 218.546875 150.492188 197.445312 176.753906 172.207031 203.003906 C 142.050781 172.671875 113.878906 142.335938 113.878906 112.003906 C 113.878906 104.292969 116.558594 97.207031 121.035156 91.609375 C 137.132812 91.71875 145.234375 99.875 153.332031 116.085938 Z M 153.332031 116.085938 " fill-opacity="1" fill-rule="evenodd"/><path fill="#ffa203" d="M 227.410156 259.066406 C 164.957031 232.210938 171.214844 215.335938 172.210938 151.699219 C 193.769531 148.84375 213.339844 140.058594 227.410156 126.9375 C 241.484375 140.0625 261.050781 148.847656 282.609375 151.699219 C 283.59375 215.335938 289.863281 232.210938 227.410156 259.066406 Z M 227.410156 259.066406 " fill-opacity="1" fill-rule="evenodd"/><path fill="#ffcc00" d="M 198.246094 145.007812 C 209.347656 140.628906 219.289062 134.5 227.414062 126.9375 C 241.488281 140.0625 261.054688 148.847656 282.613281 151.699219 C 283.398438 202.625 287.566406 223.601562 257.195312 243.710938 C 222.730469 230.355469 198.039062 194.261719 198.039062 151.808594 C 198.035156 149.523438 198.105469 147.257812 198.246094 145.007812 Z M 198.246094 145.007812 " fill-opacity="1" fill-rule="evenodd"/><path fill="#cccccc" d="M 227.410156 240.652344 C 184.367188 222.152344 188.679688 206.269531 189.371094 162.417969 C 204.21875 160.445312 217.714844 154.398438 227.410156 145.339844 C 237.109375 154.394531 250.589844 160.445312 265.449219 162.417969 C 266.140625 206.269531 270.453125 222.148438 227.410156 240.652344 Z M 227.410156 240.652344 " fill-opacity="1" fill-rule="evenodd"/><path fill="#ffffff" d="M 198.402344 160.679688 C 209.648438 157.816406 219.714844 152.527344 227.410156 145.339844 C 237.109375 154.394531 250.589844 160.445312 265.449219 162.417969 C 266.066406 201.460938 269.542969 218.324219 239.945312 234.617188 C 216.9375 218.890625 200.960938 191.914062 198.402344 160.679688 Z M 198.402344 160.679688 " fill-opacity="1" fill-rule="evenodd"/><path fill="#ffb7b2" d="M 171.609375 207.328125 L 201.414062 224.105469 C 215.390625 231.964844 218.144531 243.222656 204.4375 248.585938 L 259.613281 234.203125 C 279.316406 229.0625 286.078125 246.46875 265.832031 254.292969 L 197.324219 280.777344 C 194.3125 281.945312 191.339844 281.996094 188.265625 280.949219 L 142.417969 265.300781 L 104.011719 276.867188 L 110.441406 224.203125 L 159.9375 206.675781 C 163.925781 205.257812 167.910156 205.25 171.609375 207.328125 Z M 171.609375 207.328125 " fill-opacity="1" fill-rule="evenodd"/><path fill="#ff9aa2" d="M 273.824219 234.992188 C 280.917969 238.96875 279.785156 248.90625 265.832031 254.296875 L 197.324219 280.78125 C 194.3125 281.949219 191.339844 282 188.265625 280.953125 L 142.417969 265.304688 L 104.011719 276.871094 L 105.878906 261.515625 L 141.300781 250.851562 L 187.132812 266.5 C 190.207031 267.558594 193.179688 267.496094 196.203125 266.324219 L 264.699219 239.855469 C 268.792969 238.277344 271.792969 236.628906 273.824219 234.992188 Z M 273.824219 234.992188 " fill-opacity="1" fill-rule="evenodd"/><path fill="#0593fc" d="M 122.433594 216.789062 L 122.433594 274.53125 C 122.433594 279.453125 118.414062 283.476562 113.496094 283.476562 C 108.359375 283.460938 103.222656 283.460938 98.070312 283.476562 C 93.152344 283.476562 89.144531 279.453125 89.144531 274.53125 L 89.144531 216.789062 C 89.144531 211.867188 93.152344 207.859375 98.070312 207.859375 L 113.507812 207.859375 C 118.421875 207.859375 122.433594 211.867188 122.433594 216.789062 Z M 122.433594 216.789062 " fill-opacity="1" fill-rule="evenodd"/><path fill="#0593fc" d="M 219.445312 172.992188 L 235.363281 172.992188 L 235.363281 186.933594 L 249.304688 186.933594 L 249.304688 202.863281 L 235.363281 202.863281 L 235.363281 216.796875 L 219.445312 216.796875 L 219.445312 202.863281 L 205.523438 202.863281 L 205.523438 186.933594 L 219.445312 186.933594 Z M 219.445312 172.992188 " fill-opacity="1" fill-rule="evenodd"/><g clip-path="url(#4527a4c768)"><path fill="#000000" d="M 219.445312 169.941406 L 235.363281 169.941406 C 237.046875 169.941406 238.398438 171.308594 238.398438 172.980469 L 238.398438 183.875 L 249.300781 183.875 C 250.972656 183.875 252.320312 185.242188 252.320312 186.914062 L 252.320312 202.84375 C 252.320312 204.527344 250.96875 205.882812 249.300781 205.882812 L 238.398438 205.882812 L 238.398438 216.78125 C 238.398438 218.464844 237.046875 219.816406 235.363281 219.816406 L 219.445312 219.816406 C 217.777344 219.816406 216.410156 218.464844 216.410156 216.78125 L 216.410156 205.882812 L 205.523438 205.882812 C 203.847656 205.882812 202.488281 204.527344 202.488281 202.84375 L 202.488281 186.914062 C 202.488281 185.242188 203.851562 183.875 205.523438 183.875 L 216.410156 183.875 L 216.410156 172.980469 C 216.410156 171.308594 217.777344 169.941406 219.445312 169.941406 Z M 232.328125 176.023438 L 222.480469 176.023438 L 222.480469 186.917969 C 222.480469 188.601562 221.128906 189.957031 219.445312 189.957031 L 208.558594 189.957031 L 208.558594 199.8125 L 219.445312 199.8125 C 221.128906 199.8125 222.480469 201.179688 222.480469 202.847656 L 222.480469 213.757812 L 232.328125 213.757812 L 232.328125 202.847656 C 232.328125 201.175781 233.695312 199.8125 235.363281 199.8125 L 246.265625 199.8125 L 246.265625 189.957031 L 235.363281 189.957031 C 233.6875 189.957031 232.328125 188.601562 232.328125 186.917969 Z M 125.457031 222.085938 L 125.457031 267.246094 L 141.554688 262.386719 L 141.554688 262.398438 C 142.132812 262.210938 142.773438 262.210938 143.386719 262.425781 L 189.230469 278.074219 C 191.640625 278.898438 193.867188 278.859375 196.238281 277.949219 L 264.738281 251.480469 C 270.789062 249.132812 273.984375 246.027344 274.84375 243.164062 C 275.433594 241.207031 274.816406 239.449219 273.195312 238.195312 C 269.925781 235.660156 264.492188 236.070312 260.378906 237.136719 L 206.222656 251.246094 C 205.105469 251.578125 204.171875 251.847656 203.042969 251.285156 L 165.785156 233.261719 C 164.273438 232.535156 163.648438 230.726562 164.371094 229.210938 C 165.097656 227.710938 166.917969 227.074219 168.417969 227.796875 L 204.515625 245.265625 C 216.191406 239.941406 208.191406 231.390625 199.933594 226.738281 L 170.125 209.972656 C 167.191406 208.308594 164.105469 208.410156 160.945312 209.527344 Z M 125.457031 273.582031 L 125.457031 274.527344 L 125.46875 274.527344 L 125.457031 274.527344 C 125.457031 281.085938 120.257812 286.386719 113.496094 286.496094 L 98.070312 286.496094 C 91.308594 286.382812 86.125 281.085938 86.125 274.527344 L 86.109375 274.527344 L 86.125 274.527344 L 86.125 216.789062 L 86.109375 216.789062 C 86.109375 210.183594 91.484375 204.820312 98.070312 204.820312 L 113.507812 204.820312 C 119.703125 204.820312 124.847656 209.566406 125.417969 215.683594 L 138.164062 211.167969 C 124.753906 197.503906 112.109375 183.824219 102.507812 170.066406 C 91.925781 154.886719 85.089844 139.632812 85.089844 124.246094 C 85.089844 104.550781 101.058594 88.574219 120.726562 88.574219 C 136.914062 88.574219 145.75 96.238281 153.332031 109.632812 C 160.917969 96.238281 169.765625 88.574219 185.941406 88.574219 C 205.617188 88.574219 221.585938 104.550781 221.585938 124.246094 C 221.585938 125.511719 221.539062 126.804688 221.441406 128.132812 C 222.78125 127.027344 224.09375 125.882812 225.347656 124.714844 C 226.511719 123.621094 228.320312 123.644531 229.472656 124.714844 C 243.785156 138.0625 263.214844 146.097656 283.003906 148.703125 C 284.539062 148.898438 285.65625 150.230469 285.636719 151.753906 C 285.722656 157.019531 285.84375 162.101562 285.957031 166.875 C 286.707031 198.007812 287.148438 216.53125 274.84375 232.105469 C 279.734375 234.601562 282.253906 239.5625 280.632812 244.925781 C 279.265625 249.417969 274.902344 254.039062 266.925781 257.128906 L 198.414062 283.601562 C 194.75 285.015625 191.003906 285.089844 187.292969 283.824219 L 142.367188 268.492188 Z M 119.40625 274.527344 L 119.40625 216.789062 L 119.394531 216.789062 C 119.394531 213.542969 116.742188 210.882812 113.507812 210.882812 L 98.070312 210.882812 C 94.824219 210.882812 92.167969 213.539062 92.167969 216.789062 L 92.167969 274.53125 L 92.179688 274.53125 L 92.167969 274.53125 C 92.167969 277.777344 94.808594 280.425781 98.070312 280.425781 L 98.070312 280.4375 L 105.789062 280.4375 C 101.535156 280.4375 103.035156 280.4375 105.789062 280.4375 C 100.785156 280.425781 91.664062 280.425781 105.789062 280.425781 C 119.910156 280.425781 110.792969 280.425781 105.789062 280.4375 C 108.527344 280.4375 110.042969 280.4375 105.789062 280.4375 L 113.492188 280.4375 L 113.492188 280.425781 C 116.753906 280.421875 119.40625 277.777344 119.40625 274.527344 L 119.394531 274.527344 Z M 113.496094 286.496094 L 113.496094 286.484375 C 99.375 286.488281 108.492188 286.488281 113.496094 286.496094 Z M 98.070312 286.496094 C 103.074219 286.484375 112.191406 286.484375 98.070312 286.484375 Z M 144.46875 208.925781 L 158.925781 203.808594 C 161.949219 202.738281 165.050781 202.347656 168.117188 202.882812 L 169.152344 201.8125 C 168.03125 189.609375 168.796875 171.761719 169.101562 156.507812 L 167.824219 156.507812 L 167.824219 156.492188 C 166.679688 156.492188 165.585938 155.84375 165.070312 154.734375 L 158.800781 140.945312 L 151.792969 154.414062 C 150.773438 156.371094 147.996094 156.640625 146.65625 154.808594 L 142.96875 149.753906 L 136.183594 164.785156 C 135.039062 167.308594 131.351562 167.101562 130.53125 164.429688 L 120.386719 131.390625 L 113.433594 151.5625 C 113.113281 152.890625 111.910156 153.890625 110.484375 153.890625 L 99.597656 153.890625 C 109.734375 172.882812 127.929688 192.160156 144.46875 208.925781 Z M 175.789062 206.195312 L 189.9375 214.152344 C 185.402344 203.5 185.699219 190.671875 186.125 172.710938 C 186.199219 169.398438 186.289062 165.917969 186.347656 162.378906 C 186.359375 160.855469 187.5 159.597656 188.980469 159.414062 C 202.453125 157.628906 215.601562 152.207031 225.351562 143.128906 C 226.515625 142.035156 228.324219 142.046875 229.480469 143.128906 C 239.1875 152.191406 252.402344 157.644531 265.851562 159.414062 C 267.386719 159.609375 268.503906 160.9375 268.480469 162.464844 C 268.542969 165.972656 268.617188 169.425781 268.703125 172.710938 C 269.441406 204.03125 269.808594 219.914062 246.023438 234.609375 L 258.855469 231.265625 C 262.40625 230.339844 265.617188 230.085938 268.417969 230.339844 C 281.089844 215.984375 280.65625 198.097656 279.90625 167 C 279.808594 163.023438 279.710938 158.832031 279.625 154.328125 C 260.414062 151.351562 241.78125 143.554688 227.410156 131.007812 C 213.027344 143.554688 194.410156 151.355469 175.1875 154.328125 C 174.878906 171.859375 173.773438 192.824219 175.789062 206.195312 Z M 200.925781 220.34375 L 202.902344 221.449219 C 207.539062 224.058594 211.078125 227.058594 213.347656 230.171875 C 213.703125 230.652344 218.890625 233.332031 220.007812 233.886719 C 222.207031 234.992188 224.664062 236.140625 227.40625 237.34375 C 263.789062 221.386719 263.457031 207.171875 262.644531 172.851562 C 262.585938 170.375 262.523438 167.792969 262.472656 165.039062 C 249.601562 162.910156 237.164062 157.683594 227.40625 149.402344 C 217.644531 157.683594 205.210938 162.90625 192.339844 165.039062 C 192.292969 167.792969 192.230469 170.375 192.167969 172.851562 C 191.640625 195.421875 191.3125 209.367188 200.925781 220.34375 Z M 216.4375 238.855469 C 216.410156 240.109375 216.1875 241.328125 215.746094 242.507812 L 221.058594 241.121094 Z M 169.632812 150.128906 C 170.101562 149.363281 170.886719 148.824219 171.820312 148.699219 C 187.171875 146.667969 202.109375 141.453125 214.707031 133.089844 C 215.246094 130.140625 215.515625 127.269531 215.515625 124.246094 C 215.515625 107.910156 202.265625 94.648438 185.945312 94.648438 C 178.519531 94.648438 173 96.460938 168.464844 100.085938 C 163.769531 103.847656 159.9375 109.648438 156.039062 117.433594 C 154.945312 119.644531 151.75 119.671875 150.632812 117.433594 C 146.746094 109.648438 142.914062 103.855469 138.203125 100.085938 C 133.683594 96.460938 128.160156 94.648438 120.726562 94.648438 C 104.40625 94.648438 91.167969 107.910156 91.167969 124.246094 C 91.167969 132.058594 93.15625 139.917969 96.632812 147.8125 L 108.335938 147.8125 L 117.714844 120.652344 C 118.675781 117.882812 122.605469 117.972656 123.457031 120.753906 L 123.46875 120.753906 L 133.96875 154.988281 L 139.597656 142.527344 C 140.59375 140.300781 143.527344 140.179688 144.867188 142.074219 L 148.667969 147.289062 L 156.285156 132.640625 C 157.417969 130.472656 160.734375 130.339844 161.828125 132.996094 Z M 169.632812 150.128906 " fill-opacity="1" fill-rule="nonzero"/></g></svg>