<svg xmlns="http://www.w3.org/2000/svg" xmlns:xlink="http://www.w3.org/1999/xlink" width="500" zoomAndPan="magnify" viewBox="0 0 375 374.999991" height="500" preserveAspectRatio="xMidYMid meet" version="1.0"><defs><clipPath id="b51a0b0f16"><path d="M 131 290 L 159 290 L 159 294.867188 L 131 294.867188 Z M 131 290 " clip-rule="nonzero"/></clipPath><clipPath id="5e1dd5facd"><path d="M 80.367188 236 L 118 236 L 118 294.867188 L 80.367188 294.867188 Z M 80.367188 236 " clip-rule="nonzero"/></clipPath><clipPath id="9fe92c234c"><path d="M 112 290 L 123 290 L 123 294.867188 L 112 294.867188 Z M 112 290 " clip-rule="nonzero"/></clipPath><clipPath id="1a72c1b7a3"><path d="M 80.367188 185 L 115 185 L 115 241 L 80.367188 241 Z M 80.367188 185 " clip-rule="nonzero"/></clipPath><clipPath id="c998a5afc2"><path d="M 80.367188 104 L 109 104 L 109 190 L 80.367188 190 Z M 80.367188 104 " clip-rule="nonzero"/></clipPath><clipPath id="0c33056ff7"><path d="M 99 80.367188 L 148 80.367188 L 148 108 L 99 108 Z M 99 80.367188 " clip-rule="nonzero"/></clipPath><clipPath id="7b4254ec78"><path d="M 108 206 L 294.867188 206 L 294.867188 289 L 108 289 Z M 108 206 " clip-rule="nonzero"/></clipPath><clipPath id="e1c07c8df2"><path d="M 162 225 L 214 225 L 214 294.867188 L 162 294.867188 Z M 162 225 " clip-rule="nonzero"/></clipPath><clipPath id="415d8b7953"><path d="M 168 225 L 294.867188 225 L 294.867188 294.867188 L 168 294.867188 Z M 168 225 " clip-rule="nonzero"/></clipPath><clipPath id="dcfd9b8f37"><path d="M 242 149 L 294.867188 149 L 294.867188 211 L 242 211 Z M 242 149 " clip-rule="nonzero"/></clipPath></defs><path fill="#ffffff" d="M 90.082031 238.289062 L 157.8125 238.289062 C 162.085938 238.289062 165.582031 241.785156 165.582031 246.058594 L 165.582031 280.878906 C 165.582031 287.328125 160.375 292.535156 153.925781 292.535156 L 93.96875 292.535156 C 87.515625 292.535156 82.308594 287.328125 82.308594 280.878906 L 82.308594 246.058594 C 82.308594 241.785156 85.808594 238.289062 90.082031 238.289062 Z M 90.082031 238.289062 " fill-opacity="1" fill-rule="nonzero"/><path fill="#ffffff" d="M 90.082031 187.617188 L 157.8125 187.617188 C 158.324219 187.617188 158.828125 187.667969 159.328125 187.765625 C 159.828125 187.867188 160.316406 188.011719 160.785156 188.207031 C 161.257812 188.402344 161.707031 188.644531 162.128906 188.925781 C 162.554688 189.210938 162.945312 189.53125 163.308594 189.894531 C 163.667969 190.253906 163.992188 190.644531 164.273438 191.070312 C 164.558594 191.496094 164.796875 191.941406 164.992188 192.414062 C 165.1875 192.886719 165.335938 193.371094 165.433594 193.871094 C 165.535156 194.371094 165.582031 194.878906 165.582031 195.386719 L 165.582031 230.515625 C 165.582031 231.027344 165.535156 231.53125 165.433594 232.03125 C 165.335938 232.535156 165.1875 233.019531 164.992188 233.492188 C 164.796875 233.960938 164.558594 234.410156 164.273438 234.835938 C 163.992188 235.257812 163.667969 235.652344 163.308594 236.011719 C 162.945312 236.371094 162.554688 236.695312 162.128906 236.980469 C 161.707031 237.261719 161.257812 237.5 160.785156 237.695312 C 160.316406 237.890625 159.828125 238.039062 159.328125 238.140625 C 158.828125 238.238281 158.324219 238.289062 157.8125 238.289062 L 90.082031 238.289062 C 89.570312 238.289062 89.066406 238.238281 88.566406 238.140625 C 88.066406 238.039062 87.578125 237.890625 87.105469 237.695312 C 86.636719 237.5 86.1875 237.261719 85.761719 236.980469 C 85.339844 236.695312 84.945312 236.371094 84.585938 236.011719 C 84.226562 235.652344 83.902344 235.257812 83.621094 234.835938 C 83.335938 234.410156 83.097656 233.960938 82.902344 233.492188 C 82.707031 233.019531 82.558594 232.535156 82.457031 232.03125 C 82.359375 231.53125 82.308594 231.027344 82.308594 230.515625 L 82.308594 195.386719 C 82.308594 194.878906 82.359375 194.371094 82.457031 193.871094 C 82.558594 193.371094 82.707031 192.886719 82.902344 192.414062 C 83.097656 191.941406 83.335938 191.496094 83.621094 191.070312 C 83.902344 190.644531 84.226562 190.253906 84.585938 189.894531 C 84.945312 189.53125 85.339844 189.210938 85.761719 188.925781 C 86.1875 188.644531 86.636719 188.402344 87.105469 188.207031 C 87.578125 188.011719 88.066406 187.867188 88.566406 187.765625 C 89.066406 187.667969 89.570312 187.617188 90.082031 187.617188 Z M 90.082031 187.617188 " fill-opacity="1" fill-rule="nonzero"/><path fill="#007d80" d="M 165.582031 199.273438 L 165.582031 230.515625 C 165.582031 234.792969 162.085938 238.289062 157.8125 238.289062 L 93.96875 238.289062 L 93.96875 207.046875 C 93.96875 202.773438 97.464844 199.273438 101.738281 199.273438 Z M 165.582031 199.273438 " fill-opacity="1" fill-rule="nonzero"/><path fill="#ffffff" d="M 165.582031 150.351562 L 165.582031 179.84375 C 165.582031 184.121094 162.085938 187.617188 157.8125 187.617188 L 90.082031 187.617188 C 85.808594 187.617188 82.308594 184.121094 82.308594 179.84375 L 82.308594 150.351562 C 82.308594 147.941406 83.046875 145.570312 84.445312 143.628906 L 105.160156 114.40625 C 106.089844 113.085938 106.597656 111.492188 106.597656 109.898438 L 106.597656 106.011719 L 141.296875 106.011719 L 141.296875 109.898438 C 141.296875 111.53125 141.800781 113.085938 142.734375 114.40625 L 163.445312 143.628906 C 164.84375 145.609375 165.582031 147.941406 165.582031 150.351562 Z M 165.582031 150.351562 " fill-opacity="1" fill-rule="nonzero"/><path fill="#ffffff" d="M 146 90.46875 L 146 106.011719 L 101.894531 106.011719 L 101.894531 90.46875 C 101.894531 86.195312 105.351562 82.699219 109.667969 82.699219 L 138.226562 82.699219 C 142.539062 82.699219 146 86.195312 146 90.46875 Z M 146 90.46875 " fill-opacity="1" fill-rule="nonzero"/><path fill="#ff775b" d="M 146 90.46875 L 146 106.011719 L 109.667969 106.011719 L 109.667969 98.242188 C 109.667969 93.96875 113.125 90.46875 117.4375 90.46875 Z M 146 90.46875 " fill-opacity="1" fill-rule="nonzero"/><path fill="#ff775b" d="M 287.753906 157.5 C 287.753906 173.433594 274.816406 186.375 258.84375 186.375 C 242.875 186.375 230.867188 174.289062 230.050781 159.09375 C 229.972656 158.589844 229.972656 158.046875 229.972656 157.5 C 229.972656 141.53125 242.914062 128.589844 258.84375 128.589844 C 259.386719 128.589844 259.933594 128.589844 260.476562 128.667969 C 275.710938 129.484375 287.753906 142.074219 287.753906 157.5 Z M 287.753906 157.5 " fill-opacity="1" fill-rule="nonzero"/><path fill="#ffffff" d="M 260.554688 130.300781 C 260.554688 146.230469 247.613281 159.171875 231.644531 159.171875 C 231.097656 159.171875 230.554688 159.171875 230.050781 159.09375 C 229.972656 158.589844 229.972656 158.046875 229.972656 157.5 C 229.972656 141.53125 242.914062 128.589844 258.84375 128.589844 C 259.386719 128.589844 259.933594 128.589844 260.476562 128.667969 C 260.554688 129.210938 260.554688 129.757812 260.554688 130.300781 Z M 260.554688 130.300781 " fill-opacity="1" fill-rule="nonzero"/><path fill="#ffffff" d="M 289.117188 192.863281 C 287.210938 195.855469 284.609375 198.03125 281.65625 199.546875 C 282.585938 205.179688 281.578125 211.164062 278.273438 216.332031 C 274.699219 221.890625 269.21875 225.503906 263.273438 226.824219 C 263.390625 230.59375 262.457031 234.480469 260.28125 237.898438 C 254.570312 246.835938 242.71875 249.402344 233.820312 243.730469 C 230.984375 241.902344 228.808594 239.453125 227.332031 236.695312 C 226.398438 234.945312 225.738281 233.082031 225.347656 231.136719 C 223.636719 231.023438 221.929688 230.710938 220.257812 230.128906 C 218.9375 229.660156 217.617188 229.078125 216.371094 228.261719 C 213.496094 226.4375 211.320312 223.988281 209.804688 221.191406 C 206.65625 215.246094 206.695312 207.863281 210.582031 201.800781 C 210.777344 201.449219 211.046875 201.21875 211.242188 200.90625 C 206.269531 194.6875 205.492188 185.789062 210.039062 178.679688 C 213.730469 172.929688 220.023438 169.859375 226.398438 169.898438 C 226.515625 166.554688 227.40625 163.175781 229.351562 160.105469 C 235.0625 151.207031 246.914062 148.601562 255.8125 154.316406 C 260.089844 157.035156 262.847656 161.191406 264.011719 165.699219 C 269.53125 162.746094 276.292969 162.554688 282.121094 165.699219 C 282.507812 165.894531 282.9375 166.167969 283.324219 166.398438 C 292.222656 172.113281 294.828125 183.964844 289.117188 192.863281 Z M 289.117188 192.863281 " fill-opacity="1" fill-rule="nonzero"/><path fill="#95cf6a" d="M 281.34375 185.089844 C 279.441406 188.082031 276.835938 190.257812 273.882812 191.773438 C 274.816406 197.410156 273.804688 203.394531 270.503906 208.5625 C 266.925781 214.117188 261.449219 217.730469 255.503906 219.054688 C 255.621094 222.824219 254.6875 226.707031 252.511719 230.128906 C 247.070312 238.636719 236.074219 241.359375 227.332031 236.695312 C 226.902344 236.460938 226.476562 236.230469 226.046875 235.957031 C 223.636719 234.402344 221.695312 232.382812 220.257812 230.128906 C 218.9375 228.03125 218.042969 225.777344 217.578125 223.367188 C 214.894531 223.210938 212.292969 222.511719 209.804688 221.191406 C 206.65625 215.246094 206.695312 207.863281 210.582031 201.800781 C 210.777344 201.449219 211.046875 201.21875 211.242188 200.90625 C 206.269531 194.6875 205.492188 185.789062 210.039062 178.679688 C 213.730469 172.929688 220.023438 169.859375 226.398438 169.898438 C 226.515625 166.554688 227.40625 163.175781 229.351562 160.105469 C 235.0625 151.207031 246.914062 148.601562 255.8125 154.316406 C 260.089844 157.035156 262.847656 161.191406 264.011719 165.699219 C 269.53125 162.746094 276.292969 162.550781 282.121094 165.699219 C 285.269531 171.644531 285.230469 179.027344 281.34375 185.089844 Z M 281.34375 185.089844 " fill-opacity="1" fill-rule="nonzero"/><path fill="#ffffff" d="M 202.5 195.15625 C 202.5 205.726562 193.910156 214.3125 183.34375 214.3125 C 179.261719 214.3125 175.492188 213.03125 172.382812 210.855469 C 168.070312 215.167969 162.085938 217.808594 155.480469 217.808594 C 149.300781 217.808594 143.746094 215.4375 139.507812 211.632812 C 136.671875 213.300781 133.410156 214.3125 129.871094 214.3125 C 126.570312 214.3125 123.460938 213.496094 120.742188 211.980469 C 114.757812 208.753906 110.714844 202.421875 110.714844 195.15625 C 110.714844 187.886719 114.679688 181.789062 120.546875 178.523438 C 117.320312 175.066406 115.339844 170.519531 115.339844 165.46875 C 115.339844 154.898438 123.925781 146.308594 134.496094 146.308594 C 138.109375 146.308594 141.453125 147.359375 144.367188 149.109375 C 147.746094 143.707031 153.691406 140.054688 160.570312 140.054688 C 167.835938 140.054688 174.132812 144.132812 177.320312 150.117188 C 177.863281 151.050781 178.289062 152.0625 178.640625 153.070312 C 178.988281 153.070312 179.339844 152.953125 179.726562 152.953125 C 180.3125 152.953125 180.855469 152.992188 181.398438 153.070312 C 183.652344 155.167969 185.402344 157.851562 186.410156 160.84375 C 186.761719 160.84375 187.113281 160.726562 187.5 160.726562 C 190.804688 160.726562 193.871094 161.542969 196.59375 162.980469 L 196.632812 162.980469 C 198.070312 165.738281 198.886719 168.808594 198.886719 172.113281 C 198.886719 175.414062 197.953125 178.523438 196.476562 181.242188 C 200.167969 184.742188 202.5 189.675781 202.5 195.15625 Z M 202.5 195.15625 " fill-opacity="1" fill-rule="nonzero"/><path fill="#95cf6a" d="M 202.5 195.15625 C 202.5 205.726562 193.910156 214.3125 183.34375 214.3125 C 179.261719 214.3125 175.492188 213.03125 172.382812 210.855469 C 168.070312 215.167969 162.085938 217.808594 155.480469 217.808594 C 149.300781 217.808594 143.746094 215.4375 139.507812 211.632812 C 136.671875 213.300781 133.410156 214.3125 129.871094 214.3125 C 126.570312 214.3125 123.460938 213.496094 120.742188 211.980469 C 119.304688 209.261719 118.488281 206.191406 118.488281 202.925781 C 118.488281 195.738281 122.449219 189.558594 128.316406 186.296875 C 125.09375 182.835938 123.109375 178.289062 123.109375 173.238281 C 123.109375 162.667969 131.699219 154.082031 142.269531 154.082031 C 145.882812 154.082031 149.222656 155.128906 152.136719 156.878906 C 155.519531 151.476562 161.464844 147.824219 168.34375 147.824219 C 171.566406 147.824219 174.636719 148.640625 177.320312 150.117188 C 178.835938 150.894531 180.195312 151.90625 181.398438 153.070312 C 183.652344 155.167969 185.402344 157.851562 186.410156 160.84375 C 186.761719 160.84375 187.113281 160.726562 187.5 160.726562 C 190.804688 160.726562 193.871094 161.542969 196.59375 162.980469 L 196.632812 162.980469 C 198.070312 165.738281 198.886719 168.808594 198.886719 172.113281 C 198.886719 175.414062 197.953125 178.523438 196.476562 181.242188 C 200.167969 184.742188 202.5 189.675781 202.5 195.15625 Z M 202.5 195.15625 " fill-opacity="1" fill-rule="nonzero"/><path fill="#ffffff" d="M 263.234375 180.972656 C 263.195312 187.851562 259.464844 194.417969 252.976562 197.835938 C 249.867188 199.46875 246.488281 200.089844 243.222656 199.933594 C 241.242188 205.296875 237.394531 210 231.953125 212.835938 C 226.085938 215.90625 219.558594 216.332031 213.730469 214.546875 C 211.980469 217.886719 209.261719 220.800781 205.648438 222.667969 C 197.253906 227.058594 187.148438 224.6875 181.59375 217.421875 C 181.554688 217.382812 181.515625 217.34375 181.476562 217.304688 C 180.816406 216.449219 180.273438 215.59375 179.765625 214.625 C 178.40625 212.058594 177.707031 209.261719 177.628906 206.539062 C 177.589844 206.035156 177.589844 205.53125 177.628906 205.0625 C 177.628906 203.160156 178.058594 201.292969 178.640625 199.546875 C 176.929688 198.339844 175.296875 196.941406 174.015625 195.195312 C 174.015625 195.195312 173.988281 195.167969 173.9375 195.117188 C 173.316406 194.339844 172.773438 193.484375 172.265625 192.550781 C 167.332031 183.1875 170.945312 171.605469 180.3125 166.710938 C 180.660156 166.515625 181.011719 166.4375 181.359375 166.28125 C 180.117188 158.394531 183.847656 150.273438 191.269531 146.347656 C 197.371094 143.164062 204.324219 143.628906 209.84375 146.855469 C 211.59375 143.9375 214.078125 141.453125 217.265625 139.78125 C 226.628906 134.847656 238.210938 138.460938 243.144531 147.824219 C 244.351562 150.195312 245.050781 152.683594 245.207031 155.207031 C 245.28125 155.714844 245.28125 156.257812 245.28125 156.761719 C 245.28125 158.472656 245.050781 160.144531 244.621094 161.777344 C 245.828125 161.8125 247.03125 161.96875 248.199219 162.242188 C 253.519531 163.367188 258.339844 166.75 261.058594 171.957031 C 262.574219 174.832031 263.273438 177.941406 263.234375 180.972656 Z M 263.234375 180.972656 " fill-opacity="1" fill-rule="nonzero"/><path fill="#95cf6a" d="M 263.234375 180.972656 C 263.195312 187.851562 259.464844 194.417969 252.976562 197.835938 C 249.867188 199.46875 246.488281 200.089844 243.222656 199.933594 C 241.242188 205.296875 237.394531 210 231.953125 212.835938 C 226.085938 215.90625 219.558594 216.332031 213.730469 214.546875 C 211.980469 217.886719 209.261719 220.800781 205.648438 222.667969 C 197.253906 227.058594 187.148438 224.6875 181.59375 217.421875 C 181.515625 217.1875 181.515625 216.992188 181.515625 216.761719 C 181.398438 214.351562 181.75 211.980469 182.527344 209.765625 C 180.777344 208.5625 179.144531 207.125 177.824219 205.335938 C 177.746094 205.257812 177.707031 205.179688 177.628906 205.0625 C 177.085938 204.363281 176.621094 203.585938 176.152344 202.773438 C 174.871094 200.363281 174.171875 197.757812 174.015625 195.195312 C 173.472656 187.851562 177.242188 180.542969 184.195312 176.929688 C 184.546875 176.734375 184.898438 176.660156 185.246094 176.503906 C 184.003906 168.613281 187.734375 160.492188 195.15625 156.570312 C 201.257812 153.382812 208.210938 153.847656 213.730469 157.074219 C 215.476562 154.160156 217.964844 151.671875 221.152344 150 C 229.507812 145.609375 239.609375 147.980469 245.207031 155.207031 C 245.28125 155.714844 245.28125 156.257812 245.28125 156.761719 C 245.28125 158.472656 245.050781 160.144531 244.621094 161.777344 C 245.828125 161.8125 247.03125 161.96875 248.199219 162.242188 C 253.519531 163.367188 258.339844 166.75 261.058594 171.957031 C 262.574219 174.832031 263.273438 177.941406 263.234375 180.972656 Z M 263.234375 180.972656 " fill-opacity="1" fill-rule="nonzero"/><path fill="#ff775b" d="M 239.144531 205.878906 C 239.144531 221.851562 226.242188 234.792969 210.269531 234.792969 C 194.300781 234.792969 182.253906 222.746094 181.4375 207.511719 C 181.359375 206.96875 181.359375 206.425781 181.359375 205.878906 C 181.359375 189.949219 194.300781 177.007812 210.269531 177.007812 C 210.816406 177.007812 211.359375 177.007812 211.863281 177.085938 C 227.097656 177.902344 239.144531 190.492188 239.144531 205.878906 Z M 239.144531 205.878906 " fill-opacity="1" fill-rule="nonzero"/><path fill="#ffffff" d="M 211.941406 178.679688 C 211.941406 194.648438 199.042969 207.589844 183.070312 207.589844 C 182.527344 207.589844 181.980469 207.589844 181.4375 207.511719 C 181.359375 206.96875 181.359375 206.425781 181.359375 205.878906 C 181.359375 189.949219 194.300781 177.007812 210.269531 177.007812 C 210.816406 177.007812 211.359375 177.007812 211.863281 177.085938 C 211.941406 177.589844 211.941406 178.136719 211.941406 178.679688 Z M 211.941406 178.679688 " fill-opacity="1" fill-rule="nonzero"/><path fill="#ffffff" d="M 177.203125 206.8125 C 169.898438 216.488281 156.140625 218.394531 146.464844 211.085938 C 136.789062 203.78125 134.886719 190.027344 142.191406 180.351562 C 149.496094 170.675781 171.957031 157.230469 181.632812 164.535156 C 191.308594 171.839844 184.507812 197.136719 177.203125 206.773438 Z M 177.203125 206.8125 " fill-opacity="1" fill-rule="nonzero"/><path fill="#fece6f" d="M 169.507812 201.023438 C 165.429688 206.425781 157.695312 207.511719 152.292969 203.433594 C 150.195312 201.800781 148.71875 199.664062 147.980469 197.292969 C 146.816406 193.640625 147.398438 189.480469 149.886719 186.179688 C 152.722656 182.410156 157.382812 180.738281 161.777344 181.476562 C 163.679688 181.789062 165.507812 182.527344 167.136719 183.769531 C 172.539062 187.886719 173.589844 195.621094 169.507812 201.023438 Z M 169.507812 201.023438 " fill-opacity="1" fill-rule="nonzero"/><path fill="#ffffff" d="M 159.871094 192.589844 C 156.996094 196.398438 152.371094 198.070312 147.980469 197.292969 C 146.816406 193.640625 147.398438 189.480469 149.886719 186.179688 C 152.722656 182.410156 157.382812 180.738281 161.777344 181.476562 C 162.941406 185.128906 162.359375 189.289062 159.871094 192.589844 Z M 159.871094 192.589844 " fill-opacity="1" fill-rule="nonzero"/><path fill="#ffffff" d="M 292.148438 208.210938 C 292.148438 214.777344 291.40625 221.230469 290.085938 227.445312 C 287.523438 239.453125 282.546875 250.566406 275.710938 260.28125 C 272.40625 264.945312 268.675781 269.296875 264.558594 273.261719 C 256.125 281.5 246.019531 288.105469 234.828125 292.535156 L 168.03125 292.535156 C 165.855469 291.679688 163.679688 290.707031 161.582031 289.660156 C 159.367188 288.609375 157.191406 287.40625 155.054688 286.125 C 148.953125 282.507812 143.316406 278.15625 138.265625 273.261719 C 128.28125 263.625 120.507812 251.695312 115.84375 238.289062 C 114.601562 234.792969 113.550781 231.136719 112.773438 227.445312 C 111.414062 221.230469 110.714844 214.777344 110.714844 208.210938 Z M 292.148438 208.210938 " fill-opacity="1" fill-rule="nonzero"/><path fill="#ffffff" d="M 292.148438 208.210938 C 292.148438 214.816406 291.40625 221.269531 290.085938 227.484375 L 112.773438 227.484375 C 111.414062 221.269531 110.714844 214.816406 110.714844 208.210938 Z M 292.148438 208.210938 " fill-opacity="1" fill-rule="nonzero"/><path fill="#9cc6ec" d="M 275.710938 260.28125 C 272.40625 264.945312 268.675781 269.296875 264.558594 273.261719 C 256.125 281.5 246.019531 288.105469 234.828125 292.535156 L 155.054688 292.535156 L 155.054688 268.910156 C 155.054688 258.84375 158.667969 249.597656 164.691406 242.484375 C 172.230469 233.546875 183.496094 227.875 196.085938 227.875 L 235.566406 227.875 C 255.269531 227.875 271.746094 241.785156 275.710938 260.28125 Z M 275.710938 260.28125 " fill-opacity="1" fill-rule="nonzero"/><path fill="#f9ae1f" d="M 205.335938 227.875 C 182.679688 227.875 164.300781 246.253906 164.300781 268.910156 L 164.300781 292.535156 L 170.597656 292.535156 L 211.632812 227.875 Z M 205.335938 227.875 " fill-opacity="1" fill-rule="nonzero"/><path fill="#fece6f" d="M 251.113281 227.875 L 211.671875 227.875 C 189.015625 227.875 170.636719 246.253906 170.636719 268.910156 L 170.636719 292.535156 L 292.148438 292.535156 L 292.148438 268.910156 C 292.148438 246.253906 273.765625 227.875 251.113281 227.875 Z M 251.113281 227.875 " fill-opacity="1" fill-rule="nonzero"/><path fill="#f9ae1f" d="M 225.503906 227.875 L 225.503906 246.796875 C 225.503906 250.0625 228.144531 252.667969 231.371094 252.667969 C 234.597656 252.667969 237.238281 250.023438 237.238281 246.796875 L 237.238281 227.875 L 225.464844 227.875 Z M 225.503906 227.875 " fill-opacity="1" fill-rule="nonzero"/><path fill="#f9ae1f" d="M 253.015625 227.914062 L 253.015625 246.796875 C 253.015625 250.0625 255.65625 252.667969 258.921875 252.667969 C 262.1875 252.667969 264.789062 250.0625 264.789062 246.796875 L 264.789062 230.207031 C 261.097656 228.921875 257.136719 228.105469 253.015625 227.953125 Z M 253.015625 227.914062 " fill-opacity="1" fill-rule="nonzero"/><path fill="#f9ae1f" d="M 197.953125 230.207031 L 197.953125 246.796875 C 197.953125 250.0625 200.554688 252.667969 203.820312 252.667969 C 207.085938 252.667969 209.726562 250.0625 209.726562 246.796875 L 209.726562 227.914062 C 205.609375 228.070312 201.644531 228.882812 197.953125 230.167969 Z M 197.953125 230.207031 " fill-opacity="1" fill-rule="nonzero"/><g clip-path="url(#b51a0b0f16)"><path fill="#3a287a" d="M 153.925781 294.476562 L 133.5625 294.476562 C 132.476562 294.476562 131.621094 293.625 131.621094 292.535156 C 131.621094 291.445312 132.476562 290.59375 133.5625 290.59375 L 153.925781 290.59375 C 154.625 290.59375 155.285156 290.515625 156.101562 290.320312 C 157.152344 290.085938 158.199219 290.746094 158.433594 291.796875 C 158.667969 292.847656 158.007812 293.894531 156.957031 294.128906 C 155.90625 294.363281 154.898438 294.476562 153.925781 294.476562 Z M 153.925781 294.476562 " fill-opacity="1" fill-rule="nonzero"/></g><g clip-path="url(#5e1dd5facd)"><path fill="#3a287a" d="M 101 294.476562 L 93.96875 294.476562 C 86.46875 294.476562 80.367188 288.378906 80.367188 280.878906 L 80.367188 246.058594 C 80.367188 240.699219 84.71875 236.34375 90.082031 236.34375 L 115.84375 236.34375 C 116.933594 236.34375 117.789062 237.199219 117.789062 238.289062 C 117.789062 239.375 116.933594 240.230469 115.84375 240.230469 L 90.082031 240.230469 C 86.855469 240.230469 84.253906 242.835938 84.253906 246.058594 L 84.253906 280.878906 C 84.253906 286.238281 88.605469 290.59375 93.96875 290.59375 L 101 290.59375 C 102.089844 290.59375 102.945312 291.445312 102.945312 292.535156 C 102.945312 293.625 102.089844 294.476562 101 294.476562 Z M 101 294.476562 " fill-opacity="1" fill-rule="nonzero"/></g><g clip-path="url(#9fe92c234c)"><path fill="#3a287a" d="M 120.15625 294.476562 L 114.367188 294.476562 C 113.28125 294.476562 112.425781 293.625 112.425781 292.535156 C 112.425781 291.445312 113.28125 290.59375 114.367188 290.59375 L 120.15625 290.59375 C 121.246094 290.59375 122.101562 291.445312 122.101562 292.535156 C 122.101562 293.625 121.246094 294.476562 120.15625 294.476562 Z M 120.15625 294.476562 " fill-opacity="1" fill-rule="nonzero"/></g><g clip-path="url(#1a72c1b7a3)"><path fill="#3a287a" d="M 90.082031 240.230469 C 84.71875 240.230469 80.367188 235.878906 80.367188 230.515625 L 80.367188 195.386719 C 80.367188 190.027344 84.71875 185.671875 90.082031 185.671875 L 112.269531 185.671875 C 113.359375 185.671875 114.210938 186.527344 114.210938 187.617188 C 114.210938 188.703125 113.359375 189.558594 112.269531 189.558594 L 90.082031 189.558594 C 86.855469 189.558594 84.253906 192.164062 84.253906 195.386719 L 84.253906 230.515625 C 84.253906 233.742188 86.855469 236.34375 90.082031 236.34375 C 91.167969 236.34375 92.023438 237.199219 92.023438 238.289062 C 92.023438 239.375 91.167969 240.230469 90.082031 240.230469 Z M 90.082031 240.230469 " fill-opacity="1" fill-rule="nonzero"/></g><path fill="#3a287a" d="M 160.921875 141.996094 C 160.300781 141.996094 159.714844 141.722656 159.328125 141.179688 L 141.140625 115.535156 C 139.976562 113.902344 139.355469 111.882812 139.355469 109.898438 L 139.355469 106.011719 C 139.355469 104.925781 140.210938 104.070312 141.296875 104.070312 C 142.386719 104.070312 143.238281 104.925781 143.238281 106.011719 L 143.238281 109.898438 C 143.238281 111.105469 143.628906 112.308594 144.328125 113.28125 L 162.515625 138.925781 C 163.136719 139.820312 162.941406 141.023438 162.046875 141.648438 C 161.699219 141.878906 161.308594 141.996094 160.921875 141.996094 Z M 160.921875 141.996094 " fill-opacity="1" fill-rule="nonzero"/><g clip-path="url(#c998a5afc2)"><path fill="#3a287a" d="M 90.082031 189.558594 C 84.71875 189.558594 80.367188 185.207031 80.367188 179.84375 L 80.367188 150.390625 C 80.367188 147.554688 81.222656 144.832031 82.855469 142.539062 L 103.566406 113.320312 C 104.265625 112.308594 104.652344 111.144531 104.652344 109.9375 L 104.652344 106.050781 C 104.652344 104.964844 105.507812 104.109375 106.597656 104.109375 C 107.683594 104.109375 108.539062 104.964844 108.539062 106.050781 L 108.539062 109.9375 C 108.539062 111.957031 107.917969 113.902344 106.75 115.574219 L 86.039062 144.792969 C 84.875 146.425781 84.253906 148.371094 84.253906 150.429688 L 84.253906 179.882812 C 84.253906 183.109375 86.855469 185.710938 90.082031 185.710938 C 91.167969 185.710938 92.023438 186.566406 92.023438 187.65625 C 92.023438 188.742188 91.167969 189.597656 90.082031 189.597656 Z M 90.082031 189.558594 " fill-opacity="1" fill-rule="nonzero"/></g><g clip-path="url(#0c33056ff7)"><path fill="#3a287a" d="M 146 107.957031 L 101.855469 107.957031 C 100.765625 107.957031 99.914062 107.101562 99.914062 106.011719 L 99.914062 90.46875 C 99.914062 85.105469 104.265625 80.753906 109.628906 80.753906 L 138.226562 80.753906 C 143.589844 80.753906 147.941406 85.105469 147.941406 90.46875 L 147.941406 106.011719 C 147.941406 107.101562 147.085938 107.957031 146 107.957031 Z M 103.835938 104.070312 L 144.09375 104.070312 L 144.09375 90.46875 C 144.09375 87.246094 141.492188 84.640625 138.265625 84.640625 L 109.667969 84.640625 C 106.441406 84.640625 103.835938 87.246094 103.835938 90.46875 Z M 103.835938 104.070312 " fill-opacity="1" fill-rule="nonzero"/></g><g clip-path="url(#7b4254ec78)"><path fill="#3a287a" d="M 156.53125 288.921875 C 156.21875 288.921875 155.867188 288.84375 155.558594 288.6875 C 148.757812 284.839844 142.460938 280.140625 136.90625 274.660156 C 126.609375 264.710938 118.679688 252.355469 114.019531 238.949219 C 112.695312 235.296875 111.648438 231.527344 110.871094 227.875 C 109.472656 221.5 108.773438 214.894531 108.773438 208.25 C 108.773438 207.164062 109.628906 206.308594 110.714844 206.308594 L 292.148438 206.308594 C 293.234375 206.308594 294.089844 207.164062 294.089844 208.25 C 294.089844 214.699219 293.390625 221.308594 291.992188 227.875 C 291.371094 230.867188 290.515625 234.015625 289.464844 237.238281 C 289.117188 238.25 288.027344 238.832031 287.015625 238.484375 C 286.007812 238.132812 285.425781 237.042969 285.773438 236.035156 C 286.785156 232.925781 287.601562 229.894531 288.222656 227.058594 C 289.425781 221.421875 290.085938 215.75 290.203125 210.15625 L 112.695312 210.15625 C 112.8125 215.867188 113.472656 221.539062 114.679688 227.019531 C 115.417969 230.554688 116.425781 234.089844 117.671875 237.628906 C 122.140625 250.488281 129.71875 262.304688 139.625 271.863281 C 144.988281 277.109375 150.972656 281.617188 157.5 285.269531 C 158.433594 285.8125 158.785156 286.976562 158.238281 287.910156 C 157.890625 288.53125 157.230469 288.882812 156.53125 288.882812 Z M 156.53125 288.921875 " fill-opacity="1" fill-rule="nonzero"/></g><path fill="#3a287a" d="M 179.613281 229.390625 L 112.773438 229.390625 C 111.6875 229.390625 110.832031 228.535156 110.832031 227.445312 C 110.832031 226.359375 111.6875 225.503906 112.773438 225.503906 L 179.613281 225.503906 C 180.699219 225.503906 181.554688 226.359375 181.554688 227.445312 C 181.554688 228.535156 180.699219 229.390625 179.613281 229.390625 Z M 179.613281 229.390625 " fill-opacity="1" fill-rule="nonzero"/><path fill="#3a287a" d="M 290.085938 229.390625 L 276.71875 229.390625 C 275.632812 229.390625 274.777344 228.535156 274.777344 227.445312 C 274.777344 226.359375 275.632812 225.503906 276.71875 225.503906 L 290.085938 225.503906 C 291.175781 225.503906 292.03125 226.359375 292.03125 227.445312 C 292.03125 228.535156 291.175781 229.390625 290.085938 229.390625 Z M 290.085938 229.390625 " fill-opacity="1" fill-rule="nonzero"/><g clip-path="url(#e1c07c8df2)"><path fill="#3a287a" d="M 170.597656 294.476562 L 164.300781 294.476562 C 163.214844 294.476562 162.359375 293.625 162.359375 292.535156 L 162.359375 268.910156 C 162.359375 245.207031 181.632812 225.929688 205.335938 225.929688 L 211.632812 225.929688 C 212.71875 225.929688 213.574219 226.785156 213.574219 227.875 C 213.574219 228.960938 212.71875 229.816406 211.632812 229.816406 L 205.335938 229.816406 C 183.769531 229.816406 166.246094 247.34375 166.246094 268.910156 L 166.246094 290.59375 L 170.597656 290.59375 C 171.683594 290.59375 172.539062 291.445312 172.539062 292.535156 C 172.539062 293.625 171.683594 294.476562 170.597656 294.476562 Z M 170.597656 294.476562 " fill-opacity="1" fill-rule="nonzero"/></g><g clip-path="url(#415d8b7953)"><path fill="#3a287a" d="M 292.148438 294.476562 L 170.636719 294.476562 C 169.546875 294.476562 168.691406 293.625 168.691406 292.535156 L 168.691406 268.910156 C 168.691406 245.207031 187.964844 225.929688 211.671875 225.929688 L 251.113281 225.929688 C 274.816406 225.929688 294.089844 245.207031 294.089844 268.910156 L 294.089844 292.535156 C 294.089844 293.625 293.234375 294.476562 292.148438 294.476562 Z M 172.539062 290.59375 L 290.164062 290.59375 L 290.164062 268.910156 C 290.164062 247.34375 272.640625 229.816406 251.074219 229.816406 L 211.632812 229.816406 C 190.066406 229.816406 172.539062 247.34375 172.539062 268.910156 Z M 172.539062 290.59375 " fill-opacity="1" fill-rule="nonzero"/></g><path fill="#3a287a" d="M 231.371094 254.648438 C 227.058594 254.648438 223.5625 251.152344 223.5625 246.835938 L 223.5625 227.914062 C 223.5625 226.824219 224.414062 225.96875 225.503906 225.96875 C 226.59375 225.96875 227.445312 226.824219 227.445312 227.914062 L 227.445312 246.835938 C 227.445312 249.011719 229.195312 250.761719 231.371094 250.761719 C 233.546875 250.761719 235.296875 249.011719 235.296875 246.835938 L 235.296875 227.914062 C 235.296875 226.824219 236.152344 225.96875 237.238281 225.96875 C 238.328125 225.96875 239.183594 226.824219 239.183594 227.914062 L 239.183594 246.835938 C 239.183594 251.152344 235.683594 254.648438 231.371094 254.648438 Z M 231.371094 254.648438 " fill-opacity="1" fill-rule="nonzero"/><path fill="#3a287a" d="M 258.921875 254.609375 C 254.609375 254.609375 251.074219 251.113281 251.074219 246.796875 L 251.074219 227.914062 C 251.074219 226.824219 251.929688 225.96875 253.015625 225.96875 C 254.105469 225.96875 254.957031 226.824219 254.957031 227.914062 L 254.957031 246.796875 C 254.957031 248.972656 256.746094 250.722656 258.921875 250.722656 C 261.097656 250.722656 262.847656 248.972656 262.847656 246.796875 L 262.847656 230.207031 C 262.847656 229.117188 263.703125 228.261719 264.789062 228.261719 C 265.878906 228.261719 266.734375 229.117188 266.734375 230.207031 L 266.734375 246.796875 C 266.734375 251.113281 263.234375 254.609375 258.921875 254.609375 Z M 258.921875 254.609375 " fill-opacity="1" fill-rule="nonzero"/><path fill="#3a287a" d="M 203.820312 254.609375 C 199.507812 254.609375 196.011719 251.113281 196.011719 246.796875 L 196.011719 230.207031 C 196.011719 229.117188 196.863281 228.261719 197.953125 228.261719 C 199.042969 228.261719 199.894531 229.117188 199.894531 230.207031 L 199.894531 246.796875 C 199.894531 248.972656 201.644531 250.722656 203.820312 250.722656 C 205.996094 250.722656 207.785156 248.972656 207.785156 246.796875 L 207.785156 227.914062 C 207.785156 226.824219 208.640625 225.96875 209.726562 225.96875 C 210.816406 225.96875 211.671875 226.824219 211.671875 227.914062 L 211.671875 246.796875 C 211.671875 251.113281 208.132812 254.609375 203.820312 254.609375 Z M 203.820312 254.609375 " fill-opacity="1" fill-rule="nonzero"/><path fill="#3a287a" d="M 285.695312 170.167969 C 285.460938 170.167969 285.230469 170.128906 284.957031 170.011719 C 283.949219 169.625 283.480469 168.5 283.871094 167.488281 C 285.152344 164.300781 285.773438 160.921875 285.773438 157.5 C 285.773438 142.617188 273.6875 130.53125 258.804688 130.53125 C 250.375 130.53125 242.328125 134.574219 237.316406 141.335938 C 236.695312 142.191406 235.453125 142.386719 234.597656 141.722656 C 233.742188 141.101562 233.546875 139.859375 234.207031 139.003906 C 239.960938 131.273438 249.128906 126.648438 258.804688 126.648438 C 275.824219 126.648438 289.660156 140.480469 289.660156 157.5 C 289.660156 161.464844 288.921875 165.3125 287.445312 168.964844 C 287.132812 169.742188 286.394531 170.167969 285.65625 170.167969 Z M 285.695312 170.167969 " fill-opacity="1" fill-rule="nonzero"/><g clip-path="url(#dcfd9b8f37)"><path fill="#3a287a" d="M 281.539062 210.15625 C 281.539062 210.15625 281.304688 210.15625 281.1875 210.15625 C 280.140625 209.960938 279.441406 208.949219 279.632812 207.902344 C 280.140625 205.257812 280.179688 202.5 279.75 199.894531 C 279.59375 199.078125 280.023438 198.226562 280.800781 197.835938 C 283.636719 196.359375 285.890625 194.339844 287.523438 191.851562 C 290.007812 187.964844 290.824219 183.382812 289.855469 178.875 C 288.882812 174.367188 286.199219 170.519531 282.316406 168.070312 C 277.109375 164.769531 270.464844 164.535156 264.984375 167.449219 C 264.441406 167.722656 263.855469 167.761719 263.273438 167.527344 C 262.730469 167.292969 262.34375 166.828125 262.1875 166.246094 C 261.058594 161.96875 258.457031 158.316406 254.84375 156.023438 C 251.8125 154.082031 248.3125 153.148438 244.738281 153.382812 C 243.691406 153.421875 242.757812 152.644531 242.679688 151.554688 C 242.601562 150.46875 243.417969 149.574219 244.503906 149.496094 C 248.9375 149.222656 253.210938 150.351562 256.941406 152.761719 C 260.75 155.207031 263.664062 158.824219 265.257812 163.097656 C 271.511719 160.570312 278.703125 161.191406 284.414062 164.84375 C 289.15625 167.875 292.417969 172.617188 293.660156 178.097656 C 294.867188 183.613281 293.855469 189.25 290.824219 193.988281 C 289.078125 196.710938 286.746094 198.964844 283.832031 200.671875 C 284.140625 203.316406 284.023438 205.996094 283.519531 208.640625 C 283.324219 209.570312 282.507812 210.230469 281.617188 210.230469 Z M 281.539062 210.15625 " fill-opacity="1" fill-rule="nonzero"/></g><path fill="#3a287a" d="M 238.054688 210.15625 C 237.550781 210.15625 237.082031 209.960938 236.695312 209.609375 C 235.917969 208.871094 235.917969 207.628906 236.65625 206.851562 C 238.714844 204.714844 240.308594 202.148438 241.398438 199.234375 C 241.707031 198.457031 242.40625 197.914062 243.300781 197.953125 C 246.410156 198.109375 249.441406 197.449219 252.042969 196.085938 C 260.4375 191.65625 263.703125 181.242188 259.3125 172.8125 C 256.433594 167.371094 250.800781 163.875 244.542969 163.679688 C 243.960938 163.679688 243.417969 163.367188 243.027344 162.902344 C 242.640625 162.4375 242.5625 161.8125 242.71875 161.230469 C 243.84375 156.957031 243.378906 152.488281 241.398438 148.679688 C 236.96875 140.285156 226.554688 137.023438 218.160156 141.453125 C 215.441406 142.890625 213.148438 145.066406 211.515625 147.785156 C 210.972656 148.679688 209.804688 148.992188 208.871094 148.445312 C 203.664062 145.417969 197.449219 145.222656 192.164062 147.980469 C 186.296875 151.050781 182.757812 157.382812 183.109375 164.066406 C 183.148438 165.15625 182.332031 166.050781 181.28125 166.128906 C 180.234375 166.128906 179.300781 165.351562 179.222656 164.300781 C 178.796875 156.101562 183.148438 148.371094 190.375 144.5625 C 196.28125 141.453125 203.199219 141.375 209.183594 144.25 C 211.085938 141.609375 213.535156 139.46875 216.371094 137.992188 C 226.667969 132.59375 239.453125 136.554688 244.855469 146.855469 C 246.953125 150.855469 247.691406 155.441406 246.953125 159.949219 C 253.675781 160.882812 259.582031 164.960938 262.769531 170.984375 C 268.132812 181.28125 264.167969 194.066406 253.871094 199.46875 C 251.035156 200.945312 247.808594 201.761719 244.503906 201.800781 C 243.261719 204.675781 241.550781 207.277344 239.414062 209.457031 C 239.027344 209.84375 238.523438 210.039062 238.015625 210.039062 Z M 238.054688 210.15625 " fill-opacity="1" fill-rule="nonzero"/><path fill="#3a287a" d="M 115.882812 210.15625 C 115.378906 210.15625 114.835938 209.960938 114.484375 209.53125 C 110.792969 205.648438 108.773438 200.519531 108.773438 195.15625 C 108.773438 188.355469 112.113281 181.980469 117.632812 178.058594 C 114.875 174.40625 113.398438 170.011719 113.398438 165.46875 C 113.398438 153.847656 122.878906 144.367188 134.496094 144.367188 C 137.722656 144.367188 140.832031 145.105469 143.746094 146.542969 C 147.746094 141.21875 153.886719 138.109375 160.570312 138.109375 C 169.042969 138.109375 176.660156 143.238281 179.921875 151.011719 C 181.4375 151.011719 182.875 151.207031 184.273438 151.515625 C 185.324219 151.75 185.984375 152.800781 185.710938 153.847656 C 185.480469 154.898438 184.390625 155.519531 183.382812 155.285156 C 182.214844 155.015625 181.011719 154.859375 179.6875 154.859375 C 179.144531 154.9375 178.875 154.976562 178.601562 154.976562 C 177.785156 154.976562 177.046875 154.429688 176.773438 153.652344 C 174.40625 146.660156 167.875 141.957031 160.53125 141.957031 C 154.625 141.957031 149.183594 144.988281 145.960938 150.117188 C 145.417969 151.011719 144.210938 151.285156 143.316406 150.738281 C 140.519531 149.070312 137.527344 148.214844 134.457031 148.214844 C 124.976562 148.214844 117.242188 155.945312 117.242188 165.429688 C 117.242188 169.742188 118.914062 173.9375 121.945312 177.164062 C 122.335938 177.589844 122.527344 178.210938 122.449219 178.796875 C 122.371094 179.378906 121.984375 179.882812 121.480469 180.195312 C 116.039062 183.226562 112.65625 188.9375 112.65625 195.117188 C 112.65625 199.507812 114.289062 203.664062 117.28125 206.851562 C 118.019531 207.628906 117.980469 208.871094 117.203125 209.609375 C 116.816406 209.960938 116.351562 210.15625 115.882812 210.15625 Z M 115.882812 210.15625 " fill-opacity="1" fill-rule="nonzero"/><path fill="#3a287a" d="M 239.027344 210.15625 C 239.027344 210.15625 238.910156 210.15625 238.832031 210.15625 C 237.78125 210.039062 236.96875 209.105469 237.082031 208.015625 C 237.160156 207.316406 237.199219 206.578125 237.199219 205.878906 C 237.199219 191.035156 225.117188 178.949219 210.269531 178.949219 C 195.425781 178.949219 183.304688 191.035156 183.304688 205.878906 C 183.304688 206.578125 183.304688 207.316406 183.417969 208.015625 C 183.535156 209.066406 182.757812 210.039062 181.671875 210.15625 C 180.582031 210.269531 179.652344 209.492188 179.535156 208.40625 C 179.457031 207.550781 179.417969 206.734375 179.417969 205.878906 C 179.417969 188.898438 193.25 175.066406 210.269531 175.066406 C 227.292969 175.066406 241.085938 188.898438 241.085938 205.878906 C 241.085938 206.734375 241.046875 207.550781 240.96875 208.40625 C 240.851562 209.417969 240.035156 210.15625 239.027344 210.15625 Z M 239.027344 210.15625 " fill-opacity="1" fill-rule="nonzero"/><path fill="#3a287a" d="M 143.355469 210.15625 C 142.8125 210.15625 142.308594 209.921875 141.917969 209.492188 C 134.300781 201.023438 133.757812 188.277344 140.636719 179.183594 C 148.332031 169.003906 171.957031 154.820312 182.796875 162.980469 C 185.636719 165.117188 187.421875 168.613281 188.082031 173.316406 C 189.636719 184.429688 184.390625 200.480469 178.757812 207.941406 C 178.40625 208.484375 177.941406 209.027344 177.4375 209.53125 C 176.660156 210.308594 175.453125 210.308594 174.675781 209.53125 C 173.898438 208.753906 173.898438 207.550781 174.675781 206.773438 C 175.027344 206.425781 175.335938 206.035156 175.609375 205.648438 C 180.855469 198.730469 185.597656 183.730469 184.234375 173.859375 C 183.730469 170.207031 182.449219 167.605469 180.464844 166.089844 C 171.878906 159.636719 150.585938 172.460938 143.746094 181.515625 C 137.992188 189.132812 138.421875 199.78125 144.792969 206.851562 C 145.492188 207.667969 145.453125 208.871094 144.640625 209.609375 C 144.25 209.960938 143.824219 210.117188 143.355469 210.117188 Z M 143.355469 210.15625 " fill-opacity="1" fill-rule="nonzero"/><path fill="#3a287a" d="M 159.675781 207.824219 C 156.683594 207.824219 153.652344 206.890625 151.089844 204.949219 C 144.832031 200.207031 143.589844 191.269531 148.332031 185.011719 C 153.070312 178.757812 162.007812 177.472656 168.265625 182.214844 C 174.519531 186.957031 175.765625 195.894531 171.0625 202.148438 C 168.265625 205.839844 163.992188 207.785156 159.675781 207.785156 Z M 153.460938 201.878906 C 158.007812 205.335938 164.535156 204.402344 167.953125 199.855469 C 171.414062 195.3125 170.480469 188.78125 165.933594 185.363281 C 161.386719 181.90625 154.859375 182.835938 151.4375 187.382812 C 148.019531 191.929688 148.914062 198.457031 153.460938 201.878906 Z M 153.460938 201.878906 " fill-opacity="1" fill-rule="nonzero"/><path fill="#3a287a" d="M 252.589844 146.425781 C 251.851562 146.425781 251.1875 146.039062 250.839844 145.339844 L 248.742188 140.984375 C 248.273438 140.015625 248.664062 138.847656 249.636719 138.382812 C 250.605469 137.917969 251.773438 138.304688 252.238281 139.277344 L 254.335938 143.628906 C 254.804688 144.601562 254.414062 145.765625 253.441406 146.230469 C 253.171875 146.347656 252.898438 146.425781 252.589844 146.425781 Z M 252.589844 146.425781 " fill-opacity="1" fill-rule="nonzero"/><path fill="#3a287a" d="M 265.140625 146.425781 C 264.867188 146.425781 264.558594 146.347656 264.285156 146.230469 C 263.3125 145.765625 262.925781 144.601562 263.390625 143.628906 L 265.488281 139.277344 C 265.957031 138.304688 267.121094 137.917969 268.09375 138.382812 C 269.0625 138.847656 269.453125 140.015625 268.988281 140.984375 L 266.886719 145.339844 C 266.539062 146.039062 265.839844 146.425781 265.140625 146.425781 Z M 265.140625 146.425781 " fill-opacity="1" fill-rule="nonzero"/><path fill="#3a287a" d="M 272.949219 156.21875 C 272.054688 156.21875 271.28125 155.597656 271.046875 154.703125 C 270.8125 153.652344 271.472656 152.605469 272.523438 152.371094 L 277.226562 151.285156 C 278.273438 151.050781 279.324219 151.710938 279.554688 152.761719 C 279.789062 153.808594 279.128906 154.859375 278.078125 155.09375 L 273.378906 156.179688 C 273.378906 156.179688 273.105469 156.21875 272.949219 156.21875 Z M 272.949219 156.21875 " fill-opacity="1" fill-rule="nonzero"/><path fill="#3a287a" d="M 210.269531 193.40625 C 209.183594 193.40625 208.328125 192.550781 208.328125 191.464844 L 208.328125 186.644531 C 208.328125 185.558594 209.183594 184.703125 210.269531 184.703125 C 211.359375 184.703125 212.214844 185.558594 212.214844 186.644531 L 212.214844 191.464844 C 212.214844 192.550781 211.359375 193.40625 210.269531 193.40625 Z M 210.269531 193.40625 " fill-opacity="1" fill-rule="nonzero"/><path fill="#3a287a" d="M 221.578125 198.847656 C 220.996094 198.847656 220.453125 198.613281 220.0625 198.109375 C 219.402344 197.253906 219.519531 196.050781 220.375 195.386719 L 224.144531 192.394531 C 225 191.734375 226.203125 191.851562 226.863281 192.707031 C 227.523438 193.5625 227.40625 194.765625 226.554688 195.425781 L 222.785156 198.417969 C 222.433594 198.691406 222.007812 198.847656 221.578125 198.847656 Z M 221.578125 198.847656 " fill-opacity="1" fill-rule="nonzero"/><path fill="#3a287a" d="M 198.964844 198.847656 C 198.535156 198.847656 198.109375 198.691406 197.757812 198.417969 L 193.988281 195.425781 C 193.132812 194.765625 193.019531 193.523438 193.679688 192.707031 C 194.339844 191.851562 195.582031 191.734375 196.398438 192.394531 L 200.167969 195.386719 C 201.023438 196.050781 201.140625 197.292969 200.480469 198.109375 C 200.089844 198.574219 199.546875 198.847656 198.964844 198.847656 Z M 198.964844 198.847656 " fill-opacity="1" fill-rule="nonzero"/></svg>