<svg xmlns="http://www.w3.org/2000/svg" xmlns:xlink="http://www.w3.org/1999/xlink" width="500" zoomAndPan="magnify" viewBox="0 0 375 374.999991" height="500" preserveAspectRatio="xMidYMid meet" version="1.0"><defs><clipPath id="27ad1892d9"><path d="M 101.675781 217 L 273.425781 217 L 273.425781 264 L 101.675781 264 Z M 101.675781 217 " clip-rule="nonzero"/></clipPath><clipPath id="21e5e2085f"><path d="M 257 217 L 273.425781 217 L 273.425781 264 L 257 264 Z M 257 217 " clip-rule="nonzero"/></clipPath><clipPath id="686ddaefc3"><path d="M 113 263 L 131 263 L 131 274.898438 L 113 274.898438 Z M 113 263 " clip-rule="nonzero"/></clipPath><clipPath id="f5e772a000"><path d="M 130 263 L 149 263 L 149 274.898438 L 130 274.898438 Z M 130 263 " clip-rule="nonzero"/></clipPath><clipPath id="c2b05ea33a"><path d="M 229 263 L 247 263 L 247 274.898438 L 229 274.898438 Z M 229 263 " clip-rule="nonzero"/></clipPath><clipPath id="282a86b8e8"><path d="M 246 263 L 265 263 L 265 274.898438 L 246 274.898438 Z M 246 263 " clip-rule="nonzero"/></clipPath><clipPath id="4b87b1d93d"><path d="M 136 100.148438 L 161 100.148438 L 161 140 L 136 140 Z M 136 100.148438 " clip-rule="nonzero"/></clipPath></defs><path fill="#333333" d="M 162.183594 204.9375 L 210.308594 204.9375 L 210.308594 214.285156 L 162.183594 214.285156 Z M 162.183594 204.9375 " fill-opacity="1" fill-rule="nonzero"/><path fill="#333333" d="M 160.789062 216.648438 L 148.519531 216.648438 L 127.808594 193.222656 L 155.042969 193.222656 L 155.042969 197.644531 L 137.621094 197.644531 L 150.511719 212.230469 L 160.789062 212.230469 Z M 160.789062 216.648438 " fill-opacity="1" fill-rule="nonzero"/><path fill="#333333" d="M 213.691406 216.648438 L 225.960938 216.648438 L 246.675781 193.222656 L 219.441406 193.222656 L 219.441406 197.644531 L 236.859375 197.644531 L 223.972656 212.230469 L 213.691406 212.230469 Z M 213.691406 216.648438 " fill-opacity="1" fill-rule="nonzero"/><path fill="#757478" d="M 127.695312 212.230469 L 246.675781 212.230469 L 246.675781 219.300781 L 127.695312 219.300781 Z M 127.695312 212.230469 " fill-opacity="1" fill-rule="nonzero"/><g clip-path="url(#27ad1892d9)"><path fill="#dadfeb" d="M 265.734375 263.832031 L 109.347656 263.832031 C 105.101562 263.832031 101.675781 260.382812 101.675781 256.164062 L 101.675781 225.445312 C 101.675781 221.203125 105.125 217.777344 109.347656 217.777344 L 265.753906 217.777344 C 270 217.777344 273.425781 221.222656 273.425781 225.445312 L 273.425781 256.164062 C 273.425781 260.382812 269.976562 263.832031 265.734375 263.832031 Z M 265.734375 263.832031 " fill-opacity="1" fill-rule="nonzero"/></g><g clip-path="url(#21e5e2085f)"><path fill="#cccccc" d="M 265.734375 217.753906 L 257.175781 217.753906 C 261.421875 217.753906 264.847656 221.203125 264.847656 225.421875 L 264.847656 256.140625 C 264.847656 260.382812 261.398438 263.808594 257.175781 263.808594 L 265.753906 263.808594 C 270 263.808594 273.425781 260.363281 273.425781 256.140625 L 273.425781 225.421875 C 273.425781 221.179688 269.976562 217.753906 265.734375 217.753906 Z M 265.734375 217.753906 " fill-opacity="1" fill-rule="nonzero"/></g><g clip-path="url(#686ddaefc3)"><path fill="#626263" d="M 113.347656 263.832031 L 119.316406 274.882812 L 130.8125 274.882812 L 130.8125 263.832031 Z M 113.347656 263.832031 " fill-opacity="1" fill-rule="nonzero"/></g><g clip-path="url(#f5e772a000)"><path fill="#757478" d="M 148.277344 263.832031 L 142.308594 274.882812 L 130.8125 274.882812 L 130.8125 263.832031 Z M 148.277344 263.832031 " fill-opacity="1" fill-rule="nonzero"/></g><g clip-path="url(#c2b05ea33a)"><path fill="#626263" d="M 229.210938 263.832031 L 235.179688 274.882812 L 246.675781 274.882812 L 246.675781 263.832031 Z M 229.210938 263.832031 " fill-opacity="1" fill-rule="nonzero"/></g><g clip-path="url(#282a86b8e8)"><path fill="#757478" d="M 264.140625 263.832031 L 258.171875 274.882812 L 246.675781 274.882812 L 246.675781 263.832031 Z M 264.140625 263.832031 " fill-opacity="1" fill-rule="nonzero"/></g><path fill="#d1e2a1" d="M 261.15625 256.871094 L 113.921875 256.871094 C 111.734375 256.871094 109.945312 255.082031 109.945312 252.894531 L 109.945312 228.582031 C 109.945312 226.394531 111.734375 224.605469 113.921875 224.605469 L 261.15625 224.605469 C 263.34375 224.605469 265.136719 226.394531 265.136719 228.582031 L 265.136719 252.894531 C 265.136719 255.082031 263.34375 256.871094 261.15625 256.871094 Z M 261.15625 256.871094 " fill-opacity="1" fill-rule="nonzero"/><path fill="#c8d692" d="M 126.835938 252.894531 L 126.835938 228.582031 C 126.835938 226.394531 128.625 224.605469 130.8125 224.605469 L 113.921875 224.605469 C 111.734375 224.605469 109.945312 226.394531 109.945312 228.582031 L 109.945312 252.894531 C 109.945312 255.082031 111.734375 256.871094 113.921875 256.871094 L 130.8125 256.871094 C 128.625 256.871094 126.835938 255.082031 126.835938 252.894531 Z M 126.835938 252.894531 " fill-opacity="1" fill-rule="nonzero"/><path fill="#333333" d="M 196.160156 241.3125 C 196.160156 242.03125 196.089844 242.746094 195.953125 243.449219 C 195.8125 244.15625 195.601562 244.84375 195.328125 245.507812 C 195.050781 246.171875 194.714844 246.804688 194.3125 247.402344 C 193.914062 248 193.460938 248.554688 192.949219 249.0625 C 192.441406 249.570312 191.886719 250.027344 191.289062 250.425781 C 190.691406 250.828125 190.058594 251.164062 189.394531 251.4375 C 188.726562 251.714844 188.042969 251.921875 187.335938 252.0625 C 186.628906 252.203125 185.917969 252.273438 185.195312 252.273438 C 184.476562 252.273438 183.765625 252.203125 183.058594 252.0625 C 182.351562 251.921875 181.664062 251.714844 181 251.441406 C 180.335938 251.164062 179.703125 250.828125 179.105469 250.425781 C 178.507812 250.027344 177.953125 249.574219 177.441406 249.0625 C 176.933594 248.554688 176.480469 248 176.078125 247.402344 C 175.679688 246.804688 175.34375 246.171875 175.066406 245.507812 C 174.789062 244.84375 174.582031 244.15625 174.441406 243.449219 C 174.300781 242.746094 174.230469 242.03125 174.230469 241.3125 C 174.230469 240.59375 174.300781 239.878906 174.441406 239.175781 C 174.582031 238.46875 174.789062 237.78125 175.066406 237.117188 C 175.34375 236.453125 175.679688 235.820312 176.078125 235.222656 C 176.480469 234.625 176.933594 234.070312 177.441406 233.5625 C 177.953125 233.054688 178.507812 232.597656 179.105469 232.199219 C 179.703125 231.796875 180.335938 231.460938 181 231.1875 C 181.664062 230.910156 182.351562 230.703125 183.058594 230.5625 C 183.765625 230.421875 184.476562 230.351562 185.195312 230.351562 C 185.917969 230.351562 186.628906 230.421875 187.335938 230.5625 C 188.042969 230.703125 188.726562 230.910156 189.394531 231.1875 C 190.058594 231.460938 190.691406 231.796875 191.289062 232.199219 C 191.886719 232.597656 192.441406 233.054688 192.949219 233.5625 C 193.460938 234.070312 193.914062 234.625 194.3125 235.222656 C 194.714844 235.820312 195.050781 236.453125 195.328125 237.117188 C 195.601562 237.78125 195.8125 238.46875 195.953125 239.175781 C 196.089844 239.878906 196.160156 240.59375 196.160156 241.3125 Z M 196.160156 241.3125 " fill-opacity="1" fill-rule="nonzero"/><path fill="#282828" d="M 196.160156 241.3125 C 196.160156 240.714844 196.117188 240.121094 196.027344 239.542969 C 195.1875 244.761719 190.65625 248.738281 185.195312 248.738281 C 179.734375 248.738281 175.226562 244.761719 174.363281 239.542969 C 174.277344 240.121094 174.230469 240.714844 174.230469 241.3125 C 174.230469 247.367188 179.140625 252.273438 185.195312 252.273438 C 191.253906 252.273438 196.160156 247.367188 196.160156 241.3125 Z M 196.160156 241.3125 " fill-opacity="1" fill-rule="nonzero"/><path fill="#626263" d="M 171.800781 241.136719 C 171.800781 239.390625 173.214844 237.976562 174.960938 237.976562 L 195.386719 237.976562 C 197.132812 237.976562 198.550781 239.390625 198.550781 241.136719 C 198.550781 242.882812 197.132812 244.296875 195.386719 244.296875 L 174.960938 244.296875 C 173.214844 244.316406 171.800781 242.882812 171.800781 241.136719 Z M 171.800781 241.136719 " fill-opacity="1" fill-rule="nonzero"/><path fill="#757478" d="M 198.570312 241.136719 C 198.570312 242.882812 197.15625 244.296875 195.410156 244.296875 L 174.984375 244.296875 C 173.238281 244.296875 171.820312 242.882812 171.820312 241.136719 Z M 198.570312 241.136719 " fill-opacity="1" fill-rule="nonzero"/><path fill="#ffb332" d="M 205.777344 182.019531 C 205.777344 182.792969 205.746094 183.5625 205.683594 184.332031 C 205.625 185.101562 205.53125 185.867188 205.40625 186.625 C 205.285156 187.382812 205.128906 188.132812 204.945312 188.871094 C 204.761719 189.609375 204.550781 190.335938 204.308594 191.050781 C 204.066406 191.765625 203.796875 192.464844 203.496094 193.144531 C 203.199219 193.828125 202.875 194.488281 202.523438 195.132812 C 202.171875 195.773438 201.792969 196.394531 201.394531 196.992188 C 200.992188 197.589844 200.566406 198.164062 200.121094 198.710938 C 199.671875 199.253906 199.203125 199.773438 198.714844 200.265625 C 198.226562 200.753906 197.71875 201.214844 197.191406 201.644531 C 196.664062 202.074219 196.125 202.46875 195.566406 202.835938 C 195.007812 203.199219 194.433594 203.53125 193.851562 203.824219 C 193.265625 204.121094 192.671875 204.382812 192.066406 204.605469 C 191.460938 204.828125 190.847656 205.019531 190.226562 205.167969 C 189.605469 205.320312 188.980469 205.433594 188.351562 205.507812 C 187.722656 205.585938 187.089844 205.621094 186.457031 205.621094 C 185.824219 205.621094 185.191406 205.585938 184.5625 205.507812 C 183.933594 205.433594 183.308594 205.320312 182.6875 205.167969 C 182.066406 205.019531 181.453125 204.828125 180.847656 204.605469 C 180.242188 204.382812 179.648438 204.121094 179.0625 203.824219 C 178.476562 203.53125 177.90625 203.199219 177.347656 202.835938 C 176.789062 202.46875 176.25 202.074219 175.722656 201.644531 C 175.195312 201.214844 174.6875 200.753906 174.199219 200.265625 C 173.710938 199.773438 173.242188 199.253906 172.792969 198.710938 C 172.347656 198.164062 171.921875 197.589844 171.519531 196.992188 C 171.121094 196.394531 170.742188 195.773438 170.390625 195.132812 C 170.039062 194.488281 169.714844 193.828125 169.417969 193.144531 C 169.117188 192.464844 168.847656 191.765625 168.605469 191.050781 C 168.363281 190.335938 168.152344 189.609375 167.96875 188.871094 C 167.785156 188.132812 167.628906 187.382812 167.507812 186.625 C 167.382812 185.867188 167.289062 185.101562 167.226562 184.332031 C 167.167969 183.5625 167.136719 182.792969 167.136719 182.019531 C 167.136719 181.246094 167.167969 180.476562 167.226562 179.707031 C 167.289062 178.9375 167.382812 178.171875 167.507812 177.414062 C 167.628906 176.65625 167.785156 175.90625 167.96875 175.167969 C 168.152344 174.429688 168.363281 173.703125 168.605469 172.988281 C 168.847656 172.273438 169.117188 171.574219 169.417969 170.894531 C 169.714844 170.210938 170.039062 169.550781 170.390625 168.90625 C 170.742188 168.265625 171.121094 167.644531 171.519531 167.046875 C 171.921875 166.449219 172.347656 165.878906 172.792969 165.332031 C 173.242188 164.785156 173.710938 164.265625 174.199219 163.773438 C 174.6875 163.285156 175.195312 162.824219 175.722656 162.394531 C 176.25 161.964844 176.789062 161.570312 177.347656 161.203125 C 177.90625 160.839844 178.476562 160.511719 179.0625 160.214844 C 179.648438 159.917969 180.242188 159.660156 180.847656 159.433594 C 181.453125 159.210938 182.066406 159.023438 182.6875 158.871094 C 183.308594 158.71875 183.933594 158.605469 184.5625 158.53125 C 185.191406 158.457031 185.824219 158.417969 186.457031 158.417969 C 187.089844 158.417969 187.722656 158.457031 188.351562 158.53125 C 188.980469 158.605469 189.605469 158.71875 190.226562 158.871094 C 190.847656 159.023438 191.460938 159.210938 192.066406 159.433594 C 192.671875 159.660156 193.265625 159.917969 193.851562 160.214844 C 194.433594 160.511719 195.007812 160.839844 195.566406 161.203125 C 196.125 161.570312 196.664062 161.964844 197.191406 162.394531 C 197.71875 162.824219 198.226562 163.285156 198.714844 163.773438 C 199.203125 164.265625 199.671875 164.785156 200.121094 165.332031 C 200.566406 165.878906 200.992188 166.449219 201.394531 167.046875 C 201.792969 167.644531 202.171875 168.265625 202.523438 168.90625 C 202.875 169.550781 203.199219 170.210938 203.496094 170.894531 C 203.796875 171.574219 204.066406 172.273438 204.308594 172.988281 C 204.550781 173.703125 204.761719 174.429688 204.945312 175.167969 C 205.128906 175.90625 205.285156 176.65625 205.40625 177.414062 C 205.53125 178.171875 205.625 178.9375 205.683594 179.707031 C 205.746094 180.476562 205.777344 181.246094 205.777344 182.019531 Z M 205.777344 182.019531 " fill-opacity="1" fill-rule="nonzero"/><path fill="#ffdd40" d="M 177.414062 203.035156 C 174.476562 202.195312 168.328125 200.03125 162.933594 194.351562 C 155.332031 186.351562 154.421875 176.871094 154.246094 174.109375 C 158.117188 175.082031 161.960938 176.03125 165.832031 177.003906 C 158.667969 166.835938 158.625 160.605469 160.039062 156.761719 C 162.382812 150.417969 168.992188 149.710938 174.519531 142.285156 C 179.472656 135.609375 180.378906 127.808594 180.3125 122.042969 C 183.957031 124.894531 190.125 130.441406 194.792969 139.390625 C 199.058594 147.609375 200.230469 155.148438 200.582031 159.632812 C 203.480469 156.738281 206.375 153.84375 209.269531 150.949219 C 210.863281 152.761719 213.890625 156.695312 215.0625 162.527344 C 216.789062 171.191406 213.25 177.996094 212.167969 179.875 C 215.0625 179.875 217.960938 179.875 220.855469 179.875 C 218.910156 183.542969 215.351562 189.136719 209.269531 194.351562 C 203.855469 199.015625 198.484375 201.601562 194.792969 203.035156 C 201.378906 184.804688 200.25 178.859375 197.6875 177.003906 C 195.433594 175.367188 191.960938 176.761719 189 174.109375 C 186.414062 171.789062 186.058594 168.007812 186.101562 165.421875 C 185.085938 165.621094 180.3125 166.726562 177.414062 171.214844 C 174.695312 175.433594 174.71875 181.046875 177.414062 185.6875 C 176.132812 185.246094 175.183594 185.246094 174.519531 185.6875 C 172.464844 187.082031 173.4375 192.847656 177.414062 203.035156 Z M 177.414062 203.035156 " fill-opacity="1" fill-rule="nonzero"/><path fill="#ffc543" d="M 171.621094 200.140625 C 164.019531 192.140625 163.113281 182.660156 162.933594 179.898438 C 166.804688 180.871094 170.648438 181.820312 174.519531 182.792969 C 167.355469 172.628906 167.3125 166.394531 168.726562 162.550781 C 171.070312 156.207031 177.679688 155.5 183.207031 148.074219 C 187.429688 142.394531 188.710938 135.875 188.933594 130.507812 C 185.726562 126.550781 182.542969 123.789062 180.3125 122.042969 C 180.378906 127.808594 179.492188 135.632812 174.519531 142.285156 C 169.015625 149.6875 162.40625 150.394531 160.039062 156.761719 C 158.625 160.628906 158.667969 166.835938 165.832031 177.003906 C 161.960938 176.03125 158.117188 175.082031 154.246094 174.109375 C 154.421875 176.894531 155.328125 186.375 162.933594 194.351562 C 166.296875 197.886719 169.964844 200.074219 172.949219 201.402344 C 172.507812 200.980469 172.066406 200.582031 171.621094 200.140625 Z M 171.621094 200.140625 " fill-opacity="1" fill-rule="nonzero"/><path fill="#ff0000" d="M 194.902344 193.378906 C 194.902344 194.183594 194.847656 194.980469 194.738281 195.773438 C 194.632812 196.5625 194.472656 197.328125 194.257812 198.074219 C 194.046875 198.816406 193.785156 199.523438 193.480469 200.191406 C 193.171875 200.863281 192.820312 201.480469 192.429688 202.050781 C 192.035156 202.621094 191.609375 203.128906 191.148438 203.578125 C 190.6875 204.023438 190.199219 204.402344 189.6875 204.710938 C 189.175781 205.019531 188.648438 205.25 188.105469 205.410156 C 187.558594 205.566406 187.011719 205.644531 186.457031 205.644531 C 185.902344 205.644531 185.351562 205.566406 184.808594 205.410156 C 184.265625 205.25 183.738281 205.019531 183.226562 204.710938 C 182.710938 204.402344 182.226562 204.023438 181.765625 203.578125 C 181.304688 203.128906 180.878906 202.621094 180.484375 202.050781 C 180.09375 201.480469 179.742188 200.863281 179.433594 200.191406 C 179.128906 199.523438 178.867188 198.816406 178.65625 198.074219 C 178.441406 197.328125 178.28125 196.5625 178.175781 195.773438 C 178.066406 194.980469 178.011719 194.183594 178.011719 193.378906 C 178.011719 192.574219 178.066406 191.777344 178.175781 190.984375 C 178.28125 190.195312 178.441406 189.429688 178.65625 188.683594 C 178.867188 187.941406 179.128906 187.234375 179.433594 186.566406 C 179.742188 185.894531 180.09375 185.277344 180.484375 184.707031 C 180.878906 184.136719 181.304688 183.628906 181.765625 183.179688 C 182.226562 182.734375 182.710938 182.355469 183.226562 182.046875 C 183.738281 181.738281 184.265625 181.507812 184.808594 181.347656 C 185.351562 181.191406 185.902344 181.113281 186.457031 181.113281 C 187.011719 181.113281 187.558594 181.191406 188.105469 181.347656 C 188.648438 181.507812 189.175781 181.738281 189.6875 182.046875 C 190.199219 182.355469 190.6875 182.734375 191.148438 183.179688 C 191.609375 183.628906 192.035156 184.136719 192.429688 184.707031 C 192.820312 185.277344 193.171875 185.894531 193.480469 186.566406 C 193.785156 187.234375 194.046875 187.941406 194.257812 188.683594 C 194.472656 189.429688 194.632812 190.195312 194.738281 190.984375 C 194.847656 191.777344 194.902344 192.574219 194.902344 193.378906 Z M 194.902344 193.378906 " fill-opacity="1" fill-rule="nonzero"/><path fill="#ffdd40" d="M 205.558594 151.410156 C 205.558594 151.410156 194.902344 138.882812 201.84375 129.886719 C 208.785156 120.894531 207.589844 112.5625 207.589844 112.5625 C 207.589844 112.5625 231.222656 128.296875 220.964844 134.441406 C 210.707031 140.582031 205.558594 151.410156 205.558594 151.410156 Z M 205.558594 151.410156 " fill-opacity="1" fill-rule="nonzero"/><path fill="#ffc543" d="M 216.5 119.589844 C 219.21875 123.300781 220.191406 126.992188 216.300781 129.335938 C 208.1875 134.195312 203.257812 141.976562 201.554688 145.023438 C 203.324219 148.761719 205.558594 151.410156 205.558594 151.410156 C 205.558594 151.410156 210.707031 140.582031 220.988281 134.441406 C 226.714844 131.015625 221.871094 124.605469 216.5 119.589844 Z M 216.5 119.589844 " fill-opacity="1" fill-rule="nonzero"/><g clip-path="url(#4b87b1d93d)"><path fill="#ffdd40" d="M 154.246094 139.015625 C 154.246094 139.015625 164.902344 126.484375 157.960938 117.488281 C 151.019531 108.496094 152.214844 100.164062 152.214844 100.164062 C 152.214844 100.164062 128.582031 115.898438 138.839844 122.042969 C 149.097656 128.183594 154.246094 139.015625 154.246094 139.015625 Z M 154.246094 139.015625 " fill-opacity="1" fill-rule="nonzero"/></g><path fill="#ffc543" d="M 143.324219 107.214844 C 140.605469 110.925781 139.632812 114.617188 143.523438 116.957031 C 151.636719 121.820312 156.566406 129.601562 158.269531 132.648438 C 156.5 136.382812 154.269531 139.035156 154.269531 139.035156 C 154.269531 139.035156 149.117188 128.207031 138.839844 122.0625 C 133.113281 118.617188 137.933594 112.207031 143.324219 107.214844 Z M 143.324219 107.214844 " fill-opacity="1" fill-rule="nonzero"/><path fill="#ef0606" d="M 181.21875 196.738281 C 181.21875 189.976562 184.996094 184.472656 189.664062 184.472656 C 190.789062 184.472656 191.875 184.804688 192.867188 185.378906 C 191.320312 182.769531 189.019531 181.113281 186.480469 181.113281 C 181.8125 181.113281 178.035156 186.59375 178.035156 193.378906 C 178.035156 198.507812 180.199219 202.882812 183.273438 204.714844 C 181.992188 202.570312 181.21875 199.789062 181.21875 196.738281 Z M 181.21875 196.738281 " fill-opacity="1" fill-rule="nonzero"/></svg>