<svg xmlns="http://www.w3.org/2000/svg" xmlns:xlink="http://www.w3.org/1999/xlink" width="500" zoomAndPan="magnify" viewBox="0 0 375 374.999991" height="500" preserveAspectRatio="xMidYMid meet" version="1.0"><defs><clipPath id="f41683930d"><path d="M 95.109375 95.109375 L 279.609375 95.109375 L 279.609375 279.609375 L 95.109375 279.609375 Z M 95.109375 95.109375 " clip-rule="nonzero"/></clipPath></defs><path fill="#f9eeb6" d="M 270.179688 104.539062 L 263.789062 96.71875 L 257.402344 104.4375 L 250.75 96.71875 L 243.832031 105.140625 L 237.53125 96.71875 L 230.617188 104.800781 L 223.894531 96.71875 L 218.175781 103.179688 L 210.601562 96.71875 L 210.601562 182.726562 L 160.824219 182.726562 L 160.824219 153.660156 C 160.824219 149.859375 157.738281 146.777344 153.9375 146.777344 L 103.601562 146.777344 C 99.800781 146.777344 96.714844 149.859375 96.714844 153.660156 L 96.714844 188.484375 C 96.714844 192.285156 99.800781 195.371094 103.601562 195.371094 L 104.902344 195.371094 L 104.902344 229.566406 C 102.140625 230.78125 100.515625 232.300781 100.515625 233.9375 L 100.515625 270.664062 C 100.515625 274.710938 110.53125 278 122.886719 278 C 135.222656 278 145.238281 274.710938 145.238281 270.664062 L 145.238281 242.285156 L 210.601562 242.285156 L 210.601562 278 L 219.242188 269.40625 L 226.1875 278 L 233.101562 268.585938 L 240.207031 278 L 247.167969 269.757812 L 254.097656 277.972656 L 259.84375 271.570312 L 265.835938 278 C 265.835938 278 270.953125 271.160156 271.15625 271.160156 C 271.273438 271.277344 278 278 278 278 L 278 96.71875 Z M 270.179688 104.539062 " fill-opacity="1" fill-rule="nonzero"/><path fill="#93b2b8" d="M 244.300781 113.136719 C 250.558594 113.136719 255.648438 118.207031 255.648438 124.464844 C 255.648438 130.738281 250.558594 135.8125 244.300781 135.8125 C 238.042969 135.8125 232.972656 130.738281 232.972656 124.464844 C 232.972656 118.207031 238.042969 113.136719 244.300781 113.136719 Z M 244.300781 113.136719 " fill-opacity="1" fill-rule="nonzero"/><path fill="#ffc05a" d="M 153.953125 182.726562 L 140.238281 182.726562 C 140.238281 178.925781 143.308594 175.855469 147.09375 175.855469 C 150.882812 175.855469 153.953125 178.925781 153.953125 182.726562 Z M 153.953125 182.726562 " fill-opacity="1" fill-rule="nonzero"/><path fill="#ffc05a" d="M 123.996094 151.730469 L 118.148438 159.480469 L 102.578125 159.480469 L 105.925781 155.183594 C 107.125 153.632812 109.203125 153.089844 111 153.851562 C 111.964844 154.246094 113.0625 154.554688 114.144531 154.554688 C 116.980469 154.554688 123.585938 151.890625 123.996094 151.730469 Z M 123.996094 151.730469 " fill-opacity="1" fill-rule="nonzero"/><path fill="#2f84b9" d="M 96.714844 159.480469 L 160.824219 159.480469 L 160.824219 170.445312 L 96.714844 170.445312 Z M 96.714844 159.480469 " fill-opacity="1" fill-rule="nonzero"/><path fill="#8ecaef" d="M 160.824219 170.445312 L 160.824219 182.726562 L 153.953125 182.726562 C 153.953125 178.925781 150.882812 175.855469 147.09375 175.855469 C 143.308594 175.855469 140.238281 178.925781 140.238281 182.726562 L 104.902344 182.726562 L 104.902344 195.371094 L 103.601562 195.371094 C 99.800781 195.371094 96.714844 192.285156 96.714844 188.484375 L 96.714844 170.445312 Z M 160.824219 170.445312 " fill-opacity="1" fill-rule="nonzero"/><path fill="#8ecaef" d="M 123.996094 151.730469 C 123.585938 151.890625 116.980469 154.554688 114.144531 154.554688 C 113.0625 154.554688 111.964844 154.246094 111 153.851562 C 109.203125 153.089844 107.125 153.632812 105.925781 155.183594 L 102.578125 159.480469 L 96.714844 159.480469 L 96.714844 153.660156 C 96.714844 149.859375 99.800781 146.777344 103.601562 146.777344 L 153.9375 146.777344 C 157.738281 146.777344 160.824219 149.859375 160.824219 153.660156 L 160.824219 159.480469 L 118.148438 159.480469 Z M 123.996094 151.730469 " fill-opacity="1" fill-rule="nonzero"/><path fill="#349370" d="M 160.75 194.113281 C 150.605469 194.113281 142.359375 202.34375 142.359375 212.503906 C 142.359375 222.667969 150.605469 230.898438 160.75 230.898438 C 170.910156 230.898438 179.15625 222.667969 179.15625 212.503906 C 179.15625 202.34375 170.910156 194.113281 160.75 194.113281 Z M 160.75 194.113281 " fill-opacity="1" fill-rule="nonzero"/><path fill="#53b79a" d="M 210.601562 195.371094 L 210.601562 229.640625 C 206.800781 229.640625 203.71875 232.722656 203.71875 236.527344 L 145.238281 236.527344 L 145.238281 233.9375 C 145.238281 229.875 135.222656 226.585938 122.886719 226.585938 C 118.484375 226.585938 114.363281 227.007812 110.898438 227.738281 L 110.898438 195.371094 C 114.714844 195.371094 117.796875 192.285156 117.796875 188.472656 L 203.71875 188.472656 C 203.71875 192.285156 206.800781 195.371094 210.601562 195.371094 Z M 179.15625 212.503906 C 179.15625 202.34375 170.910156 194.113281 160.75 194.113281 C 150.605469 194.113281 142.359375 202.34375 142.359375 212.503906 C 142.359375 222.667969 150.605469 230.898438 160.75 230.898438 C 170.910156 230.898438 179.15625 222.667969 179.15625 212.503906 Z M 179.15625 212.503906 " fill-opacity="1" fill-rule="nonzero"/><path fill="#f9b132" d="M 145.238281 263.308594 L 145.238281 270.664062 C 145.238281 274.710938 135.222656 278 122.886719 278 C 110.53125 278 100.515625 274.710938 100.515625 270.664062 L 100.515625 263.308594 C 100.515625 267.371094 110.53125 270.664062 122.886719 270.664062 C 135.222656 270.664062 145.238281 267.371094 145.238281 263.308594 Z M 145.238281 263.308594 " fill-opacity="1" fill-rule="nonzero"/><path fill="#f9b132" d="M 145.238281 248.617188 L 145.238281 255.96875 C 145.238281 260.019531 135.222656 263.308594 122.886719 263.308594 C 110.53125 263.308594 100.515625 260.019531 100.515625 255.96875 L 100.515625 248.617188 C 100.515625 252.679688 110.53125 255.96875 122.886719 255.96875 C 135.222656 255.96875 145.238281 252.679688 145.238281 248.617188 Z M 145.238281 248.617188 " fill-opacity="1" fill-rule="nonzero"/><path fill="#f9b132" d="M 145.238281 236.527344 L 145.238281 241.277344 C 145.238281 245.328125 135.222656 248.617188 122.886719 248.617188 C 110.53125 248.617188 100.515625 245.328125 100.515625 241.277344 L 100.515625 233.9375 C 100.515625 237.988281 110.53125 241.277344 122.886719 241.277344 C 135.222656 241.277344 145.238281 237.988281 145.238281 233.9375 Z M 145.238281 236.527344 " fill-opacity="1" fill-rule="nonzero"/><path fill="#ffc05a" d="M 145.238281 255.96875 L 145.238281 263.308594 C 145.238281 267.371094 135.222656 270.664062 122.886719 270.664062 C 110.53125 270.664062 100.515625 267.371094 100.515625 263.308594 L 100.515625 255.96875 C 100.515625 260.019531 110.53125 263.308594 122.886719 263.308594 C 135.222656 263.308594 145.238281 260.019531 145.238281 255.96875 Z M 145.238281 255.96875 " fill-opacity="1" fill-rule="nonzero"/><path fill="#ffc05a" d="M 122.886719 248.617188 C 135.222656 248.617188 145.238281 245.328125 145.238281 241.277344 L 145.238281 248.617188 C 145.238281 252.679688 135.222656 255.96875 122.886719 255.96875 C 110.53125 255.96875 100.515625 252.679688 100.515625 248.617188 L 100.515625 241.277344 C 100.515625 245.328125 110.53125 248.617188 122.886719 248.617188 Z M 122.886719 248.617188 " fill-opacity="1" fill-rule="nonzero"/><path fill="#ffc05a" d="M 145.238281 233.9375 C 145.238281 237.988281 135.222656 241.277344 122.886719 241.277344 C 110.53125 241.277344 100.515625 237.988281 100.515625 233.9375 C 100.515625 232.300781 102.140625 230.78125 104.902344 229.566406 C 106.539062 228.835938 108.574219 228.207031 110.898438 227.738281 C 114.363281 227.007812 118.484375 226.585938 122.886719 226.585938 C 135.222656 226.585938 145.238281 229.875 145.238281 233.9375 Z M 145.238281 233.9375 " fill-opacity="1" fill-rule="nonzero"/><path fill="#349370" d="M 216.597656 226.90625 L 216.597656 242.285156 L 145.238281 242.285156 L 145.238281 236.527344 L 203.71875 236.527344 C 203.71875 232.722656 206.800781 229.640625 210.601562 229.640625 L 210.601562 195.371094 C 206.800781 195.371094 203.71875 192.285156 203.71875 188.472656 L 117.796875 188.472656 C 117.796875 192.285156 114.714844 195.371094 110.898438 195.371094 L 110.898438 227.738281 C 108.574219 228.207031 106.539062 228.835938 104.902344 229.566406 L 104.902344 182.726562 L 216.597656 182.726562 Z M 216.597656 226.90625 " fill-opacity="1" fill-rule="nonzero"/><g clip-path="url(#f41683930d)"><path fill="#3a322b" d="M 278.558594 95.367188 C 278.011719 95.140625 277.382812 95.265625 276.964844 95.683594 L 270.292969 102.359375 L 264.929688 95.792969 C 264.652344 95.453125 264.238281 95.257812 263.800781 95.253906 C 263.800781 95.253906 263.796875 95.253906 263.796875 95.253906 C 263.363281 95.253906 262.949219 95.449219 262.671875 95.785156 L 257.378906 102.175781 L 251.859375 95.761719 C 251.578125 95.4375 251.195312 95.277344 250.734375 95.253906 C 250.300781 95.257812 249.894531 95.457031 249.621094 95.789062 L 243.894531 102.769531 L 238.699219 95.839844 C 238.433594 95.484375 238.019531 95.269531 237.578125 95.253906 C 237.140625 95.238281 236.707031 95.429688 236.421875 95.765625 L 230.636719 102.53125 L 225.007812 95.78125 C 224.734375 95.453125 224.335938 95.261719 223.90625 95.253906 C 223.484375 95.246094 223.074219 95.429688 222.789062 95.75 L 218.027344 101.132812 L 211.558594 95.605469 C 211.125 95.234375 210.515625 95.148438 210 95.390625 C 209.480469 95.628906 209.148438 96.144531 209.148438 96.714844 L 209.148438 181.257812 L 162.285156 181.257812 L 162.285156 153.65625 C 162.285156 149.054688 158.542969 145.3125 153.941406 145.3125 L 103.597656 145.3125 C 98.996094 145.3125 95.253906 149.054688 95.253906 153.65625 L 95.253906 188.488281 C 95.253906 193.039062 98.914062 196.742188 103.445312 196.824219 L 103.445312 228.621094 C 100.730469 229.996094 99.058594 231.773438 99.058594 233.933594 L 99.058594 270.65625 C 99.058594 276.4375 111.042969 279.464844 122.878906 279.464844 C 134.71875 279.464844 146.703125 276.4375 146.703125 270.65625 L 146.703125 243.746094 L 209.148438 243.746094 L 209.148438 278 C 209.148438 278.59375 209.503906 279.125 210.046875 279.351562 C 210.230469 279.425781 210.417969 279.464844 210.609375 279.464844 C 210.988281 279.464844 211.359375 279.316406 211.640625 279.039062 L 219.125 271.589844 L 225.054688 278.921875 C 225.339844 279.273438 225.789062 279.5 226.226562 279.464844 C 226.679688 279.453125 227.101562 279.234375 227.371094 278.867188 L 233.113281 271.035156 L 239.039062 278.882812 C 239.304688 279.238281 239.71875 279.453125 240.164062 279.464844 C 240.613281 279.496094 241.035156 279.285156 241.324219 278.949219 L 247.171875 272.023438 L 252.980469 278.921875 C 253.253906 279.246094 253.652344 279.4375 254.078125 279.441406 C 254.496094 279.441406 254.90625 279.273438 255.1875 278.957031 L 259.867188 273.738281 L 264.765625 279 C 265.0625 279.320312 265.484375 279.480469 265.914062 279.464844 C 266.347656 279.441406 266.75 279.226562 267.007812 278.878906 C 268.542969 276.824219 270.234375 274.605469 271.246094 273.3125 L 276.96875 279.039062 C 277.386719 279.457031 278.011719 279.578125 278.5625 279.355469 C 279.109375 279.128906 279.464844 278.59375 279.464844 278.003906 L 279.464844 96.722656 C 279.460938 96.125 279.105469 95.59375 278.558594 95.367188 Z M 98.179688 160.941406 L 159.359375 160.941406 L 159.359375 168.980469 L 98.179688 168.980469 Z M 117.417969 158.019531 L 105.570312 158.019531 L 107.082031 156.078125 C 107.871094 155.066406 109.253906 154.703125 110.449219 155.195312 C 111.765625 155.742188 113.011719 156.019531 114.148438 156.019531 C 115.613281 156.019531 117.835938 155.433594 119.859375 154.78125 Z M 103.597656 148.238281 L 153.941406 148.238281 C 156.929688 148.238281 159.359375 150.667969 159.359375 153.65625 L 159.359375 158.019531 L 121.078125 158.019531 L 125.171875 152.59375 C 125.566406 152.070312 125.566406 151.34375 125.164062 150.820312 C 124.761719 150.300781 124.066406 150.113281 123.453125 150.363281 C 121.597656 151.121094 116.308594 153.09375 114.148438 153.09375 C 113.394531 153.09375 112.527344 152.890625 111.566406 152.496094 C 109.160156 151.496094 106.367188 152.230469 104.773438 154.28125 L 101.867188 158.019531 L 98.179688 158.019531 L 98.179688 153.65625 C 98.179688 150.667969 100.609375 148.238281 103.597656 148.238281 Z M 98.179688 188.488281 L 98.179688 171.902344 L 159.359375 171.902344 L 159.359375 181.257812 L 155.28125 181.257812 C 154.589844 177.363281 151.1875 174.394531 147.097656 174.394531 C 143.007812 174.394531 139.609375 177.363281 138.914062 181.257812 L 104.90625 181.257812 C 104.101562 181.257812 103.445312 181.910156 103.445312 182.71875 L 103.445312 193.890625 C 100.527344 193.808594 98.179688 191.425781 98.179688 188.488281 Z M 152.269531 181.257812 L 141.925781 181.257812 C 142.570312 178.992188 144.632812 177.320312 147.097656 177.320312 C 149.566406 177.320312 151.625 178.992188 152.269531 181.257812 Z M 106.371094 184.179688 L 215.144531 184.179688 L 215.144531 240.820312 L 146.703125 240.820312 L 146.703125 237.992188 L 203.714844 237.992188 C 204.519531 237.992188 205.175781 237.335938 205.175781 236.527344 C 205.175781 233.53125 207.613281 231.09375 210.609375 231.09375 C 211.417969 231.09375 212.074219 230.4375 212.074219 229.632812 L 212.074219 195.371094 C 212.074219 194.5625 211.417969 193.90625 210.609375 193.90625 C 207.613281 193.90625 205.175781 191.46875 205.175781 188.472656 C 205.175781 187.664062 204.519531 187.011719 203.714844 187.011719 L 117.800781 187.011719 C 116.992188 187.011719 116.335938 187.664062 116.335938 188.472656 C 116.335938 191.46875 113.898438 193.90625 110.902344 193.90625 C 110.09375 193.90625 109.441406 194.5625 109.441406 195.371094 L 109.441406 226.554688 C 108.359375 226.8125 107.324219 227.097656 106.371094 227.417969 Z M 143.78125 263.3125 C 143.78125 265.710938 135.636719 269.195312 122.882812 269.195312 C 110.125 269.195312 101.980469 265.710938 101.980469 263.3125 L 101.980469 260.414062 C 106.25 263.285156 114.59375 264.773438 122.882812 264.773438 C 131.167969 264.773438 139.511719 263.285156 143.78125 260.414062 Z M 146.703125 233.933594 C 146.703125 228.148438 134.71875 225.125 122.882812 225.125 C 119.273438 225.125 115.65625 225.410156 112.367188 225.964844 L 112.367188 196.703125 C 115.804688 196.09375 118.523438 193.375 119.132812 189.933594 L 202.378906 189.933594 C 202.988281 193.375 205.707031 196.09375 209.148438 196.703125 L 209.148438 228.296875 C 205.707031 228.90625 202.988281 231.625 202.378906 235.066406 L 146.703125 235.066406 Z M 143.78125 241.277344 C 143.78125 243.675781 135.636719 247.160156 122.882812 247.160156 C 110.125 247.160156 101.980469 243.675781 101.980469 241.277344 L 101.980469 238.375 C 106.25 241.25 114.59375 242.738281 122.878906 242.738281 C 131.167969 242.738281 139.507812 241.25 143.777344 238.375 L 143.777344 241.277344 Z M 122.878906 250.082031 C 131.167969 250.082031 139.507812 248.59375 143.777344 245.722656 L 143.777344 248.621094 C 143.777344 251.019531 135.636719 254.503906 122.878906 254.503906 C 110.121094 254.503906 101.980469 251.019531 101.980469 248.621094 L 101.980469 245.722656 C 106.25 248.59375 114.59375 250.082031 122.878906 250.082031 Z M 143.78125 255.964844 C 143.78125 258.367188 135.636719 261.851562 122.882812 261.851562 C 110.125 261.851562 101.980469 258.367188 101.980469 255.964844 L 101.980469 253.066406 C 106.25 255.941406 114.59375 257.429688 122.882812 257.429688 C 131.167969 257.429688 139.511719 255.941406 143.78125 253.066406 Z M 122.878906 228.050781 C 135.636719 228.050781 143.777344 231.53125 143.777344 233.933594 C 143.777344 236.332031 135.636719 239.816406 122.878906 239.816406 C 110.121094 239.816406 101.980469 236.328125 101.980469 233.933594 C 101.980469 231.535156 110.121094 228.050781 122.878906 228.050781 Z M 122.878906 276.539062 C 110.121094 276.539062 101.980469 273.054688 101.980469 270.65625 L 101.980469 267.757812 C 106.25 270.628906 114.59375 272.117188 122.878906 272.117188 C 131.167969 272.117188 139.507812 270.628906 143.777344 267.757812 L 143.777344 270.65625 C 143.78125 273.054688 135.636719 276.539062 122.878906 276.539062 Z M 276.539062 274.472656 L 272.1875 270.121094 C 271.886719 269.820312 271.460938 269.671875 271.046875 269.695312 C 270.273438 269.75 270.179688 269.757812 265.710938 275.722656 L 260.914062 270.570312 C 260.636719 270.269531 260.289062 270.132812 259.832031 270.105469 C 259.421875 270.109375 259.03125 270.285156 258.757812 270.59375 L 254.132812 275.75 L 248.285156 268.808594 C 248.011719 268.480469 247.601562 268.289062 247.171875 268.289062 C 246.742188 268.289062 246.332031 268.480469 246.054688 268.808594 L 240.269531 275.660156 L 234.265625 267.703125 C 233.988281 267.335938 233.574219 267.140625 233.089844 267.125 C 232.625 267.128906 232.191406 267.347656 231.921875 267.722656 L 226.136719 275.609375 L 220.382812 268.496094 C 220.121094 268.171875 219.738281 267.976562 219.324219 267.953125 C 218.910156 267.921875 218.507812 268.082031 218.214844 268.378906 L 212.074219 274.488281 L 212.074219 243.746094 L 216.605469 243.746094 C 217.414062 243.746094 218.066406 243.09375 218.066406 242.285156 L 218.066406 228.371094 L 245.835938 228.371094 C 246.644531 228.371094 247.296875 227.714844 247.296875 226.910156 C 247.296875 226.101562 246.644531 225.445312 245.835938 225.445312 L 218.066406 225.445312 L 218.066406 218.5 L 245.835938 218.5 C 246.644531 218.5 247.296875 217.84375 247.296875 217.039062 C 247.296875 216.230469 246.644531 215.574219 245.835938 215.574219 L 218.066406 215.574219 L 218.066406 208.625 L 245.835938 208.625 C 246.644531 208.625 247.296875 207.972656 247.296875 207.164062 C 247.296875 206.359375 246.644531 205.703125 245.835938 205.703125 L 218.066406 205.703125 L 218.066406 198.753906 L 245.835938 198.753906 C 246.644531 198.753906 247.296875 198.101562 247.296875 197.292969 C 247.296875 196.488281 246.644531 195.832031 245.835938 195.832031 L 218.066406 195.832031 L 218.066406 188.882812 L 245.835938 188.882812 C 246.644531 188.882812 247.296875 188.230469 247.296875 187.421875 C 247.296875 186.617188 246.644531 185.960938 245.835938 185.960938 L 218.066406 185.960938 L 218.066406 182.722656 C 218.066406 181.914062 217.410156 181.261719 216.605469 181.261719 L 212.074219 181.261719 L 212.074219 99.890625 L 217.222656 104.289062 C 217.828125 104.808594 218.742188 104.746094 219.265625 104.144531 L 223.851562 98.960938 L 229.5 105.734375 C 229.773438 106.066406 230.183594 106.257812 230.613281 106.261719 C 230.617188 106.261719 230.621094 106.261719 230.621094 106.261719 C 231.050781 106.261719 231.457031 106.074219 231.734375 105.75 L 237.457031 99.054688 L 242.671875 106.015625 C 242.9375 106.375 243.359375 106.59375 243.808594 106.601562 C 244.265625 106.613281 244.683594 106.414062 244.96875 106.066406 L 250.773438 98.988281 L 256.292969 105.394531 C 256.570312 105.71875 256.953125 105.882812 257.414062 105.902344 C 257.84375 105.898438 258.25 105.707031 258.523438 105.375 L 263.789062 99.015625 L 269.050781 105.457031 C 269.3125 105.777344 269.699219 105.972656 270.109375 105.992188 C 270.53125 106.015625 270.925781 105.859375 271.214844 105.566406 L 276.539062 100.246094 Z M 276.539062 274.472656 " fill-opacity="1" fill-rule="nonzero"/></g><path fill="#3a322b" d="M 244.304688 137.269531 C 251.359375 137.269531 257.101562 131.527344 257.101562 124.472656 C 257.101562 117.417969 251.359375 111.675781 244.304688 111.675781 C 237.25 111.675781 231.507812 117.417969 231.507812 124.472656 C 231.507812 131.527344 237.25 137.269531 244.304688 137.269531 Z M 244.304688 114.601562 C 249.75 114.601562 254.175781 119.027344 254.175781 124.472656 C 254.175781 129.917969 249.75 134.347656 244.304688 134.347656 C 238.863281 134.347656 234.433594 129.917969 234.433594 124.472656 C 234.433594 119.027344 238.863281 114.601562 244.304688 114.601562 Z M 244.304688 114.601562 " fill-opacity="1" fill-rule="nonzero"/><path fill="#3a322b" d="M 269.214844 149.324219 L 240.816406 149.324219 C 240.011719 149.324219 239.355469 149.980469 239.355469 150.789062 C 239.355469 151.59375 240.011719 152.25 240.816406 152.25 L 269.214844 152.25 C 270.023438 152.25 270.679688 151.59375 270.679688 150.789062 C 270.679688 149.980469 270.023438 149.324219 269.214844 149.324219 Z M 269.214844 149.324219 " fill-opacity="1" fill-rule="nonzero"/><path fill="#3a322b" d="M 219.394531 152.25 L 233.367188 152.25 C 234.171875 152.25 234.828125 151.59375 234.828125 150.789062 C 234.828125 149.980469 234.171875 149.324219 233.367188 149.324219 L 219.394531 149.324219 C 218.585938 149.324219 217.933594 149.980469 217.933594 150.789062 C 217.933594 151.59375 218.585938 152.25 219.394531 152.25 Z M 219.394531 152.25 " fill-opacity="1" fill-rule="nonzero"/><path fill="#3a322b" d="M 269.214844 157.496094 L 219.394531 157.496094 C 218.585938 157.496094 217.933594 158.148438 217.933594 158.957031 C 217.933594 159.761719 218.585938 160.417969 219.394531 160.417969 L 269.214844 160.417969 C 270.023438 160.417969 270.679688 159.761719 270.679688 158.957031 C 270.679688 158.148438 270.023438 157.496094 269.214844 157.496094 Z M 269.214844 157.496094 " fill-opacity="1" fill-rule="nonzero"/><path fill="#3a322b" d="M 266.507812 176.085938 L 257.28125 176.085938 C 256.472656 176.085938 255.820312 176.738281 255.820312 177.546875 C 255.820312 178.355469 256.472656 179.007812 257.28125 179.007812 L 266.507812 179.007812 C 267.316406 179.007812 267.96875 178.355469 267.96875 177.546875 C 267.96875 176.738281 267.316406 176.085938 266.507812 176.085938 Z M 266.507812 176.085938 " fill-opacity="1" fill-rule="nonzero"/><path fill="#3a322b" d="M 245.835938 176.085938 L 216.605469 176.085938 C 215.796875 176.085938 215.144531 176.738281 215.144531 177.546875 C 215.144531 178.355469 215.796875 179.007812 216.605469 179.007812 L 245.835938 179.007812 C 246.644531 179.007812 247.296875 178.355469 247.296875 177.546875 C 247.296875 176.738281 246.644531 176.085938 245.835938 176.085938 Z M 245.835938 176.085938 " fill-opacity="1" fill-rule="nonzero"/><path fill="#3a322b" d="M 266.507812 185.957031 L 257.28125 185.957031 C 256.472656 185.957031 255.820312 186.613281 255.820312 187.417969 C 255.820312 188.226562 256.472656 188.882812 257.28125 188.882812 L 266.507812 188.882812 C 267.316406 188.882812 267.96875 188.226562 267.96875 187.417969 C 267.96875 186.613281 267.316406 185.957031 266.507812 185.957031 Z M 266.507812 185.957031 " fill-opacity="1" fill-rule="nonzero"/><path fill="#3a322b" d="M 266.507812 195.828125 L 257.28125 195.828125 C 256.472656 195.828125 255.820312 196.484375 255.820312 197.289062 C 255.820312 198.097656 256.472656 198.753906 257.28125 198.753906 L 266.507812 198.753906 C 267.316406 198.753906 267.96875 198.097656 267.96875 197.289062 C 267.96875 196.484375 267.316406 195.828125 266.507812 195.828125 Z M 266.507812 195.828125 " fill-opacity="1" fill-rule="nonzero"/><path fill="#3a322b" d="M 266.507812 205.699219 L 257.28125 205.699219 C 256.472656 205.699219 255.820312 206.355469 255.820312 207.160156 C 255.820312 207.96875 256.472656 208.625 257.28125 208.625 L 266.507812 208.625 C 267.316406 208.625 267.96875 207.96875 267.96875 207.160156 C 267.96875 206.355469 267.316406 205.699219 266.507812 205.699219 Z M 266.507812 205.699219 " fill-opacity="1" fill-rule="nonzero"/><path fill="#3a322b" d="M 266.507812 215.574219 L 257.28125 215.574219 C 256.472656 215.574219 255.820312 216.226562 255.820312 217.035156 C 255.820312 217.839844 256.472656 218.496094 257.28125 218.496094 L 266.507812 218.496094 C 267.316406 218.496094 267.96875 217.839844 267.96875 217.035156 C 267.96875 216.226562 267.316406 215.574219 266.507812 215.574219 Z M 266.507812 215.574219 " fill-opacity="1" fill-rule="nonzero"/><path fill="#3a322b" d="M 266.507812 225.445312 L 257.28125 225.445312 C 256.472656 225.445312 255.820312 226.101562 255.820312 226.90625 C 255.820312 227.714844 256.472656 228.371094 257.28125 228.371094 L 266.507812 228.371094 C 267.316406 228.371094 267.96875 227.714844 267.96875 226.90625 C 267.96875 226.101562 267.316406 225.445312 266.507812 225.445312 Z M 266.507812 225.445312 " fill-opacity="1" fill-rule="nonzero"/><path fill="#3a322b" d="M 261.894531 239.992188 L 224.71875 239.992188 C 223.910156 239.992188 223.257812 240.644531 223.257812 241.453125 C 223.257812 242.257812 223.910156 242.914062 224.71875 242.914062 L 261.894531 242.914062 C 262.703125 242.914062 263.355469 242.257812 263.355469 241.453125 C 263.355469 240.644531 262.703125 239.992188 261.894531 239.992188 Z M 261.894531 239.992188 " fill-opacity="1" fill-rule="nonzero"/><path fill="#3a322b" d="M 261.894531 247.648438 L 229.753906 247.648438 C 228.949219 247.648438 228.292969 248.300781 228.292969 249.109375 C 228.292969 249.914062 228.949219 250.570312 229.753906 250.570312 L 261.894531 250.570312 C 262.703125 250.570312 263.355469 249.914062 263.355469 249.109375 C 263.355469 248.300781 262.703125 247.648438 261.894531 247.648438 Z M 261.894531 247.648438 " fill-opacity="1" fill-rule="nonzero"/><path fill="#3a322b" d="M 252.136719 256.359375 L 234.476562 256.359375 C 233.667969 256.359375 233.015625 257.011719 233.015625 257.820312 C 233.015625 258.628906 233.667969 259.28125 234.476562 259.28125 L 252.136719 259.28125 C 252.945312 259.28125 253.601562 258.628906 253.601562 257.820312 C 253.601562 257.011719 252.945312 256.359375 252.136719 256.359375 Z M 252.136719 256.359375 " fill-opacity="1" fill-rule="nonzero"/><path fill="#3a322b" d="M 160.757812 192.644531 C 149.808594 192.644531 140.898438 201.550781 140.898438 212.5 C 140.898438 223.449219 149.808594 232.359375 160.757812 232.359375 C 171.703125 232.359375 180.613281 223.449219 180.613281 212.5 C 180.613281 201.550781 171.703125 192.644531 160.757812 192.644531 Z M 160.757812 229.433594 C 151.421875 229.433594 143.824219 221.835938 143.824219 212.5 C 143.824219 203.164062 151.421875 195.570312 160.757812 195.570312 C 170.09375 195.570312 177.6875 203.164062 177.6875 212.5 C 177.6875 221.835938 170.09375 229.433594 160.757812 229.433594 Z M 160.757812 229.433594 " fill-opacity="1" fill-rule="nonzero"/><path fill="#3a322b" d="M 164.636719 207.160156 C 164.636719 207.96875 165.289062 208.621094 166.097656 208.621094 C 166.902344 208.621094 167.558594 207.96875 167.558594 207.160156 C 167.558594 203.914062 165.269531 201.195312 162.21875 200.527344 L 162.21875 199.074219 C 162.21875 198.265625 161.566406 197.613281 160.757812 197.613281 C 159.949219 197.613281 159.296875 198.265625 159.296875 199.074219 L 159.296875 200.527344 C 156.246094 201.199219 153.957031 203.914062 153.957031 207.160156 C 153.957031 210.40625 156.246094 213.125 159.296875 213.792969 L 159.296875 221.429688 C 157.878906 220.847656 156.878906 219.460938 156.878906 217.839844 C 156.878906 217.03125 156.222656 216.378906 155.417969 216.378906 C 154.609375 216.378906 153.957031 217.03125 153.957031 217.839844 C 153.957031 221.085938 156.246094 223.804688 159.296875 224.472656 L 159.296875 225.925781 C 159.296875 226.734375 159.949219 227.386719 160.757812 227.386719 C 161.566406 227.386719 162.21875 226.734375 162.21875 225.925781 L 162.21875 224.472656 C 165.269531 223.800781 167.558594 221.085938 167.558594 217.839844 C 167.558594 214.59375 165.269531 211.875 162.21875 211.207031 L 162.21875 203.574219 C 163.632812 204.152344 164.636719 205.539062 164.636719 207.160156 Z M 156.878906 207.160156 C 156.878906 205.539062 157.878906 204.152344 159.292969 203.574219 L 159.292969 210.75 C 157.878906 210.167969 156.878906 208.78125 156.878906 207.160156 Z M 164.636719 217.839844 C 164.636719 219.464844 163.632812 220.851562 162.21875 221.429688 L 162.21875 214.253906 C 163.632812 214.832031 164.636719 216.21875 164.636719 217.839844 Z M 164.636719 217.839844 " fill-opacity="1" fill-rule="nonzero"/></svg>