<svg xmlns="http://www.w3.org/2000/svg" xmlns:xlink="http://www.w3.org/1999/xlink" width="500" zoomAndPan="magnify" viewBox="0 0 375 374.999991" height="500" preserveAspectRatio="xMidYMid meet" version="1.0"><defs><filter x="0%" y="0%" width="100%" height="100%" id="c3d18af2d4"><feColorMatrix values="0 0 0 0 1 0 0 0 0 1 0 0 0 0 1 0 0 0 1 0" color-interpolation-filters="sRGB"/></filter><mask id="2742c12051"><g filter="url(#c3d18af2d4)"><rect x="-37.5" width="450" fill="#000000" y="-37.499999" height="449.999989" fill-opacity="0.42"/></g></mask><clipPath id="7a719ecb16"><path d="M 1 1 L 24 1 L 24 11.921875 L 1 11.921875 Z M 1 1 " clip-rule="nonzero"/></clipPath><clipPath id="2d4b589df8"><path d="M 0.558594 0.878906 L 24.558594 0.878906 L 24.558594 11.921875 L 0.558594 11.921875 Z M 0.558594 0.878906 " clip-rule="nonzero"/></clipPath><clipPath id="e1769470f4"><rect x="0" width="25" y="0" height="12"/></clipPath><mask id="4760ecd979"><g filter="url(#c3d18af2d4)"><rect x="-37.5" width="450" fill="#000000" y="-37.499999" height="449.999989" fill-opacity="0.35"/></g></mask><clipPath id="c98267b726"><path d="M 0.078125 1 L 167.839844 1 L 167.839844 58 L 0.078125 58 Z M 0.078125 1 " clip-rule="nonzero"/></clipPath><clipPath id="063c68f19d"><path d="M 0.078125 0.839844 L 167.839844 0.839844 L 167.839844 58.679688 L 0.078125 58.679688 Z M 0.078125 0.839844 " clip-rule="nonzero"/></clipPath><clipPath id="8a110cd6a8"><rect x="0" width="168" y="0" height="59"/></clipPath><clipPath id="e0b31c7a02"><path d="M 92 217 L 287 217 L 287 281.816406 L 92 281.816406 Z M 92 217 " clip-rule="nonzero"/></clipPath><clipPath id="a85ea1eb08"><path d="M 90 215 L 288 215 L 288 281.816406 L 90 281.816406 Z M 90 215 " clip-rule="nonzero"/></clipPath><mask id="a7e2df4332"><g filter="url(#c3d18af2d4)"><rect x="-37.5" width="450" fill="#000000" y="-37.499999" height="449.999989" fill-opacity="0.19"/></g></mask><clipPath id="a4749254e1"><path d="M 0.761719 0.398438 L 135.398438 0.398438 L 135.398438 52.238281 L 0.761719 52.238281 Z M 0.761719 0.398438 " clip-rule="nonzero"/></clipPath><clipPath id="897c8fec06"><rect x="0" width="136" y="0" height="53"/></clipPath><mask id="7fd0a633da"><g filter="url(#c3d18af2d4)"><rect x="-37.5" width="450" fill="#000000" y="-37.499999" height="449.999989" fill-opacity="0.62"/></g></mask><clipPath id="578535c290"><path d="M 0.238281 1 L 171.839844 1 L 171.839844 57.960938 L 0.238281 57.960938 Z M 0.238281 1 " clip-rule="nonzero"/></clipPath><clipPath id="f85d9d2e79"><path d="M 0.238281 0.601562 L 171.839844 0.601562 L 171.839844 57.960938 L 0.238281 57.960938 Z M 0.238281 0.601562 " clip-rule="nonzero"/></clipPath><clipPath id="2dfc2e7174"><rect x="0" width="172" y="0" height="58"/></clipPath><clipPath id="5438295843"><path d="M 98 124 L 291.808594 124 L 291.808594 192 L 98 192 Z M 98 124 " clip-rule="nonzero"/></clipPath><mask id="4dd5b550fd"><g filter="url(#c3d18af2d4)"><rect x="-37.5" width="450" fill="#000000" y="-37.499999" height="449.999989" fill-opacity="0.35"/></g></mask><clipPath id="840a7b6654"><path d="M 1 0.359375 L 168 0.359375 L 168 57.960938 L 1 57.960938 Z M 1 0.359375 " clip-rule="nonzero"/></clipPath><clipPath id="fedebc2313"><path d="M 0.398438 0.359375 L 168.160156 0.359375 L 168.160156 57.960938 L 0.398438 57.960938 Z M 0.398438 0.359375 " clip-rule="nonzero"/></clipPath><clipPath id="58e83bb7fd"><rect x="0" width="169" y="0" height="58"/></clipPath><clipPath id="b1ef624f20"><path d="M 95 155 L 291.808594 155 L 291.808594 223 L 95 223 Z M 95 155 " clip-rule="nonzero"/></clipPath><mask id="d91c818cb9"><g filter="url(#c3d18af2d4)"><rect x="-37.5" width="450" fill="#000000" y="-37.499999" height="449.999989" fill-opacity="0.19"/></g></mask><clipPath id="f8b30b7251"><path d="M 0.078125 1 L 134.71875 1 L 134.71875 52 L 0.078125 52 Z M 0.078125 1 " clip-rule="nonzero"/></clipPath><clipPath id="e95c35af12"><path d="M 0.078125 0.921875 L 134.71875 0.921875 L 134.71875 52.761719 L 0.078125 52.761719 Z M 0.078125 0.921875 " clip-rule="nonzero"/></clipPath><clipPath id="354c304228"><rect x="0" width="135" y="0" height="53"/></clipPath><clipPath id="0b5202e25d"><path d="M 286 179 L 291.808594 179 L 291.808594 185 L 286 185 Z M 286 179 " clip-rule="nonzero"/></clipPath><clipPath id="0b34f007de"><path d="M 286 162 L 291.808594 162 L 291.808594 167 L 286 167 Z M 286 162 " clip-rule="nonzero"/></clipPath><clipPath id="dd568f34e4"><path d="M 96 92.816406 L 286 92.816406 L 286 158 L 96 158 Z M 96 92.816406 " clip-rule="nonzero"/></clipPath><clipPath id="76e8812052"><path d="M 94 92.816406 L 287 92.816406 L 287 160 L 94 160 Z M 94 92.816406 " clip-rule="nonzero"/></clipPath><mask id="da4bb71672"><g filter="url(#c3d18af2d4)"><rect x="-37.5" width="450" fill="#000000" y="-37.499999" height="449.999989" fill-opacity="0.52"/></g></mask><clipPath id="817ef7a658"><path d="M 1 0.238281 L 168 0.238281 L 168 58 L 1 58 Z M 1 0.238281 " clip-rule="nonzero"/></clipPath><clipPath id="cd6f0cd9c7"><path d="M 0.519531 0.238281 L 168.28125 0.238281 L 168.28125 58.320312 L 0.519531 58.320312 Z M 0.519531 0.238281 " clip-rule="nonzero"/></clipPath><clipPath id="00d5e0f53b"><rect x="0" width="169" y="0" height="59"/></clipPath><mask id="8a2121cceb"><g filter="url(#c3d18af2d4)"><rect x="-37.5" width="450" fill="#000000" y="-37.499999" height="449.999989" fill-opacity="0.19"/></g></mask><clipPath id="caaba4039d"><path d="M 1 0.320312 L 135 0.320312 L 135 53 L 1 53 Z M 1 0.320312 " clip-rule="nonzero"/></clipPath><clipPath id="ee7c957635"><path d="M 0.71875 0.320312 L 135.121094 0.320312 L 135.121094 53.121094 L 0.71875 53.121094 Z M 0.71875 0.320312 " clip-rule="nonzero"/></clipPath><clipPath id="74f3d7fed0"><rect x="0" width="136" y="0" height="54"/></clipPath><mask id="0527231c0d"><g filter="url(#c3d18af2d4)"><rect x="-37.5" width="450" fill="#000000" y="-37.499999" height="449.999989" fill-opacity="0.16"/></g></mask><clipPath id="06c0cafb69"><path d="M 0.0390625 1 L 18 1 L 18 10 L 0.0390625 10 Z M 0.0390625 1 " clip-rule="nonzero"/></clipPath><clipPath id="cb3d7b2c5e"><path d="M 0.0390625 0.558594 L 18.519531 0.558594 L 18.519531 10.160156 L 0.0390625 10.160156 Z M 0.0390625 0.558594 " clip-rule="nonzero"/></clipPath><clipPath id="bd18437387"><rect x="0" width="19" y="0" height="11"/></clipPath></defs><g mask="url(#2742c12051)"><g transform="matrix(1, 0, 0, 1, 88, 182)"><g clip-path="url(#e1769470f4)"><g clip-path="url(#7a719ecb16)"><path fill="#010101" d="M 9.742188 1.695312 L 1.332031 6.109375 L 23.816406 11.304688 Z M 9.742188 1.695312 " fill-opacity="1" fill-rule="nonzero"/></g><g clip-path="url(#2d4b589df8)"><path stroke-linecap="butt" transform="matrix(0.108734, 0, 0, 0.108459, -8.141356, -103.716126)" fill="none" stroke-linejoin="miter" d="M 164.470109 971.904611 L 87.124178 1012.602734 L 293.906892 1060.504065 Z M 164.470109 971.904611 " stroke="#000000" stroke-width="1" stroke-opacity="1" stroke-miterlimit="10"/></g></g></g></g><path stroke-linecap="butt" transform="matrix(0.108734, 0, 0, 0.108459, 79.858643, 78.283874)" fill-opacity="1" fill="#ffffff" fill-rule="nonzero" stroke-linejoin="miter" d="M 1874.9181 1522.08561 L 1871.361552 1353.674616 L 660.051692 1632.042575 L 197.808263 1359.797342 C 197.808263 1359.797342 187.74934 1351.297557 179.127406 1355.295337 C 170.505472 1359.329134 169.786977 1366.892502 169.786977 1366.892502 L 163.428301 1505.08604 C 163.428301 1505.08604 162.566108 1513.909969 168.996634 1517.979782 C 175.427159 1522.049594 648.879103 1818.497604 648.879103 1818.497604 Z M 1874.9181 1522.08561 " stroke="#000000" stroke-width="1" stroke-opacity="1" stroke-miterlimit="10"/><path stroke-linecap="butt" transform="matrix(0.108734, 0, 0, 0.108459, 79.858643, 78.283874)" fill-opacity="1" fill="#f26822" fill-rule="nonzero" stroke-linejoin="miter" d="M 1293.763832 998.016239 L 1888.60542 1299.686575 L 665.009304 1591.776644 L 148.375842 1281.426443 Z M 1293.763832 998.016239 " stroke="#000000" stroke-width="1" stroke-opacity="1" stroke-miterlimit="10"/><g mask="url(#4760ecd979)"><g transform="matrix(1, 0, 0, 1, 106, 189)"><g clip-path="url(#8a110cd6a8)"><g clip-path="url(#c98267b726)"><path fill="#f9a11b" d="M 46.894531 57.894531 C 46.773438 57.894531 46.65625 57.863281 46.554688 57.800781 L 1.0625 30.542969 C 0.832031 30.40625 0.710938 30.144531 0.75 29.878906 C 0.789062 29.617188 0.984375 29.402344 1.246094 29.335938 L 113.84375 1.546875 C 113.996094 1.511719 114.160156 1.527344 114.300781 1.601562 L 166.816406 28.164062 C 167.0625 28.289062 167.207031 28.554688 167.171875 28.828125 C 167.140625 29.101562 166.9375 29.328125 166.667969 29.394531 L 47.046875 57.875 C 46.996094 57.886719 46.945312 57.894531 46.894531 57.894531 Z M 3.117188 30.234375 L 47.003906 56.53125 L 164.613281 28.527344 L 113.921875 2.886719 Z M 3.117188 30.234375 " fill-opacity="1" fill-rule="nonzero"/></g><g clip-path="url(#063c68f19d)"><path stroke-linecap="butt" transform="matrix(0.108734, 0, 0, 0.108459, -26.141356, -110.716126)" fill="none" stroke-linejoin="miter" d="M 671.691294 1554.608093 C 670.577628 1554.608093 669.499886 1554.319964 668.565843 1553.743708 L 250.186502 1302.423793 C 248.066943 1301.163232 246.953277 1298.750158 247.312524 1296.301067 C 247.671771 1293.887992 249.468008 1291.90711 251.874964 1291.294838 L 1287.405147 1035.076742 C 1288.806211 1034.752598 1290.31505 1034.896662 1291.60834 1035.580967 L 1774.580335 1280.490026 C 1776.843593 1281.642539 1778.172808 1284.09163 1777.849485 1286.612753 C 1777.562088 1289.133875 1775.694002 1291.222806 1773.215196 1291.835078 L 673.092358 1554.428012 C 672.625337 1554.536061 672.158316 1554.608093 671.691294 1554.608093 Z M 269.082907 1299.578526 L 672.697187 1542.038495 L 1754.318791 1283.839518 L 1288.123641 1047.430243 Z M 269.082907 1299.578526 " stroke="#000000" stroke-width="1" stroke-opacity="1" stroke-miterlimit="10"/></g></g></g></g><g clip-path="url(#e0b31c7a02)"><path fill="#cd5928" d="M 286.339844 242.734375 L 286.339844 248.003906 L 151.023438 281.765625 L 93.59375 244.941406 C 93.59375 244.941406 89.441406 230.417969 95.992188 217.265625 L 152.167969 250.925781 L 285.214844 219.246094 L 285.214844 224.671875 L 151.628906 255.292969 L 100.738281 225.394531 C 99.691406 224.777344 98.359375 225.492188 98.304688 226.707031 L 97.625 241.652344 C 97.601562 242.1875 97.867188 242.699219 98.320312 242.984375 L 150.414062 275.515625 Z M 286.339844 242.734375 " fill-opacity="1" fill-rule="nonzero"/></g><g clip-path="url(#a85ea1eb08)"><path stroke-linecap="butt" transform="matrix(0.108734, 0, 0, 0.108459, 79.858643, 78.283874)" fill="none" stroke-linejoin="miter" d="M 1898.95174 1516.251012 L 1898.95174 1564.836647 L 654.48336 1876.123265 L 126.318061 1536.600074 C 126.318061 1536.600074 88.130079 1402.692444 148.375842 1281.426443 L 665.009304 1591.776644 L 1888.60542 1299.686575 L 1888.60542 1349.712852 L 660.051692 1632.042575 L 192.024382 1356.375819 C 182.396556 1350.685285 170.146225 1357.27622 169.643279 1368.477207 L 163.392377 1506.274569 C 163.176828 1511.208767 165.619709 1515.926868 169.786977 1518.556038 L 648.879103 1818.497604 Z M 1898.95174 1516.251012 " stroke="#000000" stroke-width="1" stroke-opacity="1" stroke-miterlimit="10"/></g><g mask="url(#a7e2df4332)"><g transform="matrix(1, 0, 0, 1, 149, 224)"><g clip-path="url(#897c8fec06)"><path fill="#f9a11b" d="M 1.414062 51.515625 L 2.628906 31.292969 L 134.339844 1.101562 L 134.726562 19.367188 Z M 1.414062 51.515625 " fill-opacity="1" fill-rule="nonzero"/><g clip-path="url(#a4749254e1)"><path stroke-linecap="butt" transform="matrix(0.108734, 0, 0, 0.108459, -69.141357, -145.716119)" fill="none" stroke-linejoin="miter" d="M 648.879103 1818.497538 L 660.051692 1632.042508 L 1871.361552 1353.674549 L 1874.9181 1522.085544 Z M 648.879103 1818.497538 " stroke="#000000" stroke-width="1" stroke-opacity="1" stroke-miterlimit="10"/></g></g></g></g><path stroke-linecap="butt" transform="matrix(0.108734, 0, 0, 0.108459, 79.858643, 78.283874)" fill-opacity="1" fill="#e98d24" fill-rule="nonzero" stroke-linejoin="miter" d="M 1898.95174 1516.251012 L 1874.522928 1503.033126 L 1874.9181 1522.08561 Z M 1898.95174 1516.251012 " stroke="#000000" stroke-width="1" stroke-opacity="1" stroke-miterlimit="10"/><path stroke-linecap="butt" transform="matrix(0.108734, 0, 0, 0.108459, 79.858643, 78.283874)" fill-opacity="1" fill="#e98d24" fill-rule="nonzero" stroke-linejoin="miter" d="M 1888.60542 1349.712852 L 1871.433401 1357.168171 L 1871.361552 1353.674616 Z M 1888.60542 1349.712852 " stroke="#000000" stroke-width="1" stroke-opacity="1" stroke-miterlimit="10"/><path stroke-linecap="butt" transform="matrix(0.108734, 0, 0, 0.108459, 79.858643, 78.283874)" fill-opacity="1" fill="#fce586" fill-rule="nonzero" stroke-linejoin="miter" d="M 1251.803754 1086.867805 L 1572.467844 1263.09428 L 1450.072308 1306.133445 L 1146.616161 1115.392507 Z M 1251.803754 1086.867805 " stroke="#000000" stroke-width="1" stroke-opacity="1" stroke-miterlimit="10"/><path stroke-linecap="butt" transform="matrix(0.108734, 0, 0, 0.108459, 79.858643, 78.283874)" fill-opacity="1" fill="#fce586" fill-rule="nonzero" stroke-linejoin="miter" d="M 1050.26605 1150.652209 L 1354.04552 1331.128576 L 1341.759264 1338.331784 L 1038.303116 1156.666887 Z M 1050.26605 1150.652209 " stroke="#000000" stroke-width="1" stroke-opacity="1" stroke-miterlimit="10"/><path stroke-linecap="butt" transform="matrix(0.108734, 0, 0, 0.108459, 79.858643, 78.283874)" fill-opacity="1" fill="#e5e1d3" fill-rule="nonzero" stroke-linejoin="miter" d="M 195.437231 1397.578166 C 231.505654 1417.99926 267.107056 1439.068642 302.564759 1460.426153 C 320.347498 1471.014868 337.950613 1481.855696 355.661502 1492.588475 L 408.506772 1525.146973 L 461.136493 1558.065632 C 478.595909 1569.194588 496.127175 1580.17948 513.514741 1591.416484 C 548.361724 1613.746427 583.029083 1636.328483 617.30127 1659.594844 C 581.268772 1639.209766 545.631445 1618.104368 510.173742 1596.782873 C 492.391003 1586.194158 474.787888 1575.317315 457.076999 1564.584535 L 404.231729 1532.026037 L 351.637933 1499.107378 C 334.178517 1487.978422 316.647251 1476.99353 299.259684 1465.756526 C 264.412702 1443.426583 229.709418 1420.844527 195.437231 1397.578166 Z M 195.437231 1397.578166 " stroke="#000000" stroke-width="1" stroke-opacity="1" stroke-miterlimit="10"/><path stroke-linecap="butt" transform="matrix(0.108734, 0, 0, 0.108459, 79.858643, 78.283874)" fill-opacity="1" fill="#e5e1d3" fill-rule="nonzero" stroke-linejoin="miter" d="M 193.60507 1443.210487 C 229.637568 1463.595564 265.23897 1484.700963 300.696673 1506.022457 C 318.479412 1516.647188 336.082527 1527.488016 353.793416 1538.220795 L 406.638686 1570.779294 L 459.268407 1603.697953 C 476.727823 1614.826908 494.259089 1625.775784 511.646656 1637.012788 C 546.493638 1659.378748 581.196922 1681.960803 615.433185 1705.227164 C 579.400686 1684.806071 543.763359 1663.736688 508.305656 1642.415194 C 490.522918 1631.790462 472.919803 1620.949635 455.208913 1610.216855 L 402.363644 1577.658357 L 349.769847 1544.703682 C 332.310431 1533.610742 314.779165 1522.625851 297.391599 1511.388847 C 262.544616 1489.022887 227.877257 1466.476847 193.60507 1443.210487 Z M 193.60507 1443.210487 " stroke="#000000" stroke-width="1" stroke-opacity="1" stroke-miterlimit="10"/><path stroke-linecap="butt" transform="matrix(0.108734, 0, 0, 0.108459, 79.858643, 78.283874)" fill-opacity="1" fill="#e5e1d3" fill-rule="nonzero" stroke-linejoin="miter" d="M 195.437231 1490.499545 C 231.505654 1510.920638 267.107056 1531.990021 302.564759 1553.347531 C 320.347498 1563.936246 337.950613 1574.777074 355.661502 1585.509853 L 408.506772 1618.068352 L 461.136493 1650.987011 C 478.595909 1662.115966 496.127175 1673.100858 513.514741 1684.337862 C 548.361724 1706.667806 583.029083 1729.249862 617.30127 1752.516222 C 581.268772 1732.131145 545.631445 1711.025746 510.173742 1689.704252 C 492.391003 1679.115536 474.787888 1668.238693 457.076999 1657.505914 L 404.231729 1624.947415 L 351.637933 1591.99274 C 334.178517 1580.8998 316.647251 1569.914909 299.259684 1558.677905 C 264.412702 1536.347961 229.709418 1513.765905 195.437231 1490.499545 Z M 195.437231 1490.499545 " stroke="#000000" stroke-width="1" stroke-opacity="1" stroke-miterlimit="10"/><path stroke-linecap="butt" transform="matrix(0.108734, 0, 0, 0.108459, 79.858643, 78.283874)" fill-opacity="1" fill="#e5e1d3" fill-rule="nonzero" stroke-linejoin="miter" d="M 721.375197 1663.016367 C 813.701739 1637.408964 906.387528 1613.350251 999.252941 1589.831778 C 1045.63176 1577.946485 1092.154278 1566.601433 1138.604947 1555.004269 L 1278.136577 1521.041145 L 1417.91968 1487.90639 L 1487.901043 1471.699173 L 1522.891725 1463.63158 L 1557.918331 1455.708052 C 1651.28669 1434.494605 1744.834672 1413.857416 1838.705977 1394.804931 C 1746.41536 1420.412334 1653.693646 1444.507064 1560.864158 1467.989521 L 1526.0531 1476.849466 L 1491.206118 1485.529331 L 1421.512152 1502.853046 L 1281.944598 1536.780154 L 1142.161495 1569.878893 C 1095.495278 1580.611672 1048.90091 1591.63258 1002.162843 1602.077231 C 908.794485 1623.290677 815.246502 1643.927867 721.375197 1663.016367 Z M 721.375197 1663.016367 " stroke="#000000" stroke-width="1" stroke-opacity="1" stroke-miterlimit="10"/><path stroke-linecap="butt" transform="matrix(0.108734, 0, 0, 0.108459, 79.858643, 78.283874)" fill-opacity="1" fill="#e5e1d3" fill-rule="nonzero" stroke-linejoin="miter" d="M 721.375197 1705.767405 C 813.701739 1680.160002 906.387528 1656.101288 999.252941 1632.582815 C 1045.63176 1620.697523 1092.154278 1609.352471 1138.604947 1597.755306 L 1278.136577 1563.792182 L 1417.91968 1530.657427 L 1487.901043 1514.45021 L 1522.891725 1506.382618 L 1557.918331 1498.459089 C 1651.28669 1477.245643 1744.834672 1456.608453 1838.705977 1437.555969 C 1746.41536 1463.163372 1653.693646 1487.222085 1560.864158 1510.740558 L 1526.0531 1519.600504 L 1491.206118 1528.280369 L 1421.512152 1545.604083 L 1281.944598 1579.531191 L 1142.161495 1612.62993 C 1095.495278 1623.362709 1048.90091 1634.383617 1002.162843 1644.828268 C 908.794485 1666.005699 815.246502 1686.678904 721.375197 1705.767405 Z M 721.375197 1705.767405 " stroke="#000000" stroke-width="1" stroke-opacity="1" stroke-miterlimit="10"/><path stroke-linecap="butt" transform="matrix(0.108734, 0, 0, 0.108459, 79.858643, 78.283874)" fill-opacity="1" fill="#e5e1d3" fill-rule="nonzero" stroke-linejoin="miter" d="M 721.375197 1753.164511 C 813.701739 1727.557108 906.387528 1703.462378 999.252941 1679.979921 C 1045.63176 1668.058613 1092.154278 1656.713561 1138.604947 1645.116396 L 1278.136577 1611.153272 L 1417.91968 1578.054533 L 1522.891725 1553.743708 L 1557.918331 1545.856195 C 1651.28669 1524.642749 1744.834672 1504.005559 1838.705977 1484.917059 C 1746.41536 1510.560478 1653.693646 1534.619191 1560.864158 1558.137664 L 1526.0531 1566.99761 L 1491.206118 1575.677475 L 1421.512152 1592.965173 L 1281.944598 1626.928297 L 1142.161495 1659.99102 C 1095.495278 1670.759816 1048.90091 1681.744707 1002.162843 1692.225374 C 908.794485 1713.402805 815.246502 1734.039995 721.375197 1753.164511 Z M 721.375197 1753.164511 " stroke="#000000" stroke-width="1" stroke-opacity="1" stroke-miterlimit="10"/><path stroke-linecap="butt" transform="matrix(0.108734, 0, 0, 0.108459, 79.858643, 78.283874)" fill-opacity="1" fill="#f04d6e" fill-rule="nonzero" stroke-linejoin="miter" d="M 1588.418422 1460.570217 L 1675.104782 1438.744498 C 1675.104782 1438.744498 1688.109532 1488.446631 1676.0029 1528.388417 L 1642.808455 1500.512003 L 1611.661719 1542.110527 C 1611.697644 1542.110527 1611.410246 1477.785883 1588.418422 1460.570217 Z M 1588.418422 1460.570217 " stroke="#000000" stroke-width="1" stroke-opacity="1" stroke-miterlimit="10"/><path stroke-linecap="butt" transform="matrix(0.108734, 0, 0, 0.108459, 79.858643, 78.283874)" fill-opacity="1" fill="#f04d6e" fill-rule="nonzero" stroke-linejoin="miter" d="M 1041.284868 1633.159072 L 1128.366401 1613.494315 C 1128.366401 1613.494315 1141.371151 1662.332063 1129.264519 1702.309865 L 1096.070073 1674.433452 L 1064.923337 1715.99596 C 1064.923337 1716.031976 1064.276692 1650.338722 1041.284868 1633.159072 Z M 1041.284868 1633.159072 " stroke="#000000" stroke-width="1" stroke-opacity="1" stroke-miterlimit="10"/><path stroke-linecap="butt" transform="matrix(0.108734, 0, 0, 0.108459, 79.858643, 78.283874)" fill-opacity="1" fill="#ffffff" fill-rule="nonzero" stroke-linejoin="miter" d="M 1887.707302 1002.91442 L 1896.43701 1220.055114 L 1390.329491 1522.625851 C 1390.329491 1522.625851 1319.45001 1466.90904 1366.403625 1320.107668 Z M 1887.707302 1002.91442 " stroke="#000000" stroke-width="1" stroke-opacity="1" stroke-miterlimit="10"/><path stroke-linecap="butt" transform="matrix(0.108734, 0, 0, 0.108459, 79.858643, 78.283874)" fill-opacity="1" fill="#55c1ae" fill-rule="nonzero" stroke-linejoin="miter" d="M 1892.916387 985.518674 L 1353.758122 1313.336653 L 87.124186 1012.602734 L 653.405618 714.570019 Z M 1892.916387 985.518674 " stroke="#000000" stroke-width="1" stroke-opacity="1" stroke-miterlimit="10"/><g mask="url(#7fd0a633da)"><g transform="matrix(1, 0, 0, 1, 102, 159)"><g clip-path="url(#2dfc2e7174)"><g clip-path="url(#578535c290)"><path fill="#07b28f" d="M 124.191406 57.214844 C 124.117188 57.214844 124.042969 57.207031 123.96875 57.1875 L 1.628906 28.214844 C 1.238281 28.125 0.949219 27.796875 0.898438 27.402344 C 0.847656 27.003906 1.050781 26.617188 1.40625 26.429688 L 49.191406 1.34375 C 49.394531 1.238281 49.625 1.207031 49.847656 1.253906 L 170.25 27.507812 C 170.636719 27.589844 170.929688 27.898438 170.996094 28.285156 C 171.058594 28.675781 170.882812 29.0625 170.542969 29.265625 L 124.691406 57.074219 C 124.539062 57.167969 124.367188 57.214844 124.191406 57.214844 Z M 4.574219 26.9375 L 124.027344 55.226562 L 167.484375 28.871094 L 49.777344 3.207031 Z M 4.574219 26.9375 " fill-opacity="1" fill-rule="nonzero"/></g><g clip-path="url(#f85d9d2e79)"><path stroke-linecap="butt" transform="matrix(0.108734, 0, 0, 0.108459, -22.141356, -80.716126)" fill="none" stroke-linejoin="miter" d="M 1345.782824 1271.738129 C 1345.100254 1271.738129 1344.417685 1271.666097 1343.735115 1271.486017 L 218.608669 1004.355062 C 215.016197 1003.526693 212.357767 1000.501346 211.890746 996.863726 C 211.423724 993.19009 213.29181 989.624502 216.56096 987.895732 L 656.028114 756.600735 C 657.8962 755.628302 660.015759 755.340174 662.063468 755.772366 L 1769.37125 997.836159 C 1772.927798 998.592496 1775.622152 1001.437763 1776.232873 1005.00335 C 1776.807668 1008.604954 1775.191056 1012.170542 1772.065605 1014.043376 L 1350.381189 1270.441552 C 1348.980125 1271.305937 1347.399437 1271.738129 1345.782824 1271.738129 Z M 245.695911 992.577817 L 1344.273986 1253.405966 L 1743.936545 1010.405756 L 661.416823 773.780386 Z M 245.695911 992.577817 " stroke="#000000" stroke-width="1" stroke-opacity="1" stroke-miterlimit="10"/></g></g></g></g><path stroke-linecap="butt" transform="matrix(0.108734, 0, 0, 0.108459, 79.858643, 78.283874)" fill-opacity="1" fill="#00b59c" fill-rule="nonzero" stroke-linejoin="miter" d="M 87.124186 1012.602734 C 87.124186 1012.602734 32.051584 1178.780735 97.075335 1234.785674 C 162.099086 1290.754597 1364.607389 1565.304856 1364.607389 1565.304856 L 1922.302811 1240.332144 L 1923.165005 1204.063993 L 1390.329491 1522.625851 C 1390.329491 1522.625851 1352.392982 1496.910399 1353.758122 1429.164232 C 1355.087337 1361.45408 1366.403625 1320.107668 1366.403625 1320.107668 L 1887.707302 1002.91442 L 1891.623097 985.230545 L 1353.722197 1313.336653 Z M 87.124186 1012.602734 " stroke="#000000" stroke-width="1" stroke-opacity="1" stroke-miterlimit="10"/><path stroke-linecap="butt" transform="matrix(0.108734, 0, 0, 0.108459, 79.858643, 78.283874)" fill-opacity="1" fill="#039e84" fill-rule="nonzero" stroke-linejoin="miter" d="M 1923.165005 1204.063993 L 1895.790365 1204.063993 L 1896.43701 1220.055114 Z M 1923.165005 1204.063993 " stroke="#000000" stroke-width="1" stroke-opacity="1" stroke-miterlimit="10"/><path stroke-linecap="butt" transform="matrix(0.108734, 0, 0, 0.108459, 79.858643, 78.283874)" fill-opacity="1" fill="#65c5b3" fill-rule="nonzero" stroke-linejoin="miter" d="M 288.913364 1060.504065 C 288.913364 1060.504065 200.466692 1221.423724 290.529976 1301.127216 L 337.69914 1314.201038 C 337.69914 1314.201038 259.167692 1220.163162 359.110275 1077.179491 Z M 288.913364 1060.504065 " stroke="#000000" stroke-width="1" stroke-opacity="1" stroke-miterlimit="10"/><path stroke-linecap="butt" transform="matrix(0.108734, 0, 0, 0.108459, 79.858643, 78.283874)" fill-opacity="1" fill="#65c5b3" fill-rule="nonzero" stroke-linejoin="miter" d="M 397.513806 1086.255533 C 397.513806 1086.255533 309.067134 1251.064923 399.130419 1330.768415 L 447.089926 1343.410045 C 447.089926 1343.410045 367.732209 1245.878614 467.710718 1102.930958 Z M 397.513806 1086.255533 " stroke="#000000" stroke-width="1" stroke-opacity="1" stroke-miterlimit="10"/><path stroke-linecap="butt" transform="matrix(0.108734, 0, 0, 0.108459, 79.858643, 78.283874)" fill-opacity="1" fill="#65c5b3" fill-rule="nonzero" stroke-linejoin="miter" d="M 923.882869 1210.690944 C 923.882869 1210.690944 836.513939 1382.847607 926.577223 1462.551099 L 973.674537 1473.824119 C 973.674537 1473.824119 894.137197 1370.314025 994.07978 1227.36637 Z M 923.882869 1210.690944 " stroke="#000000" stroke-width="1" stroke-opacity="1" stroke-miterlimit="10"/><path stroke-linecap="butt" transform="matrix(0.108734, 0, 0, 0.108459, 79.858643, 78.283874)" fill-opacity="1" fill="#65c5b3" fill-rule="nonzero" stroke-linejoin="miter" d="M 1032.483311 1236.442412 C 1032.483311 1236.442412 944.934757 1408.707122 1034.998042 1488.410614 L 1083.029398 1499.791683 C 1083.029398 1499.791683 1002.701714 1396.065493 1102.680223 1253.117837 Z M 1032.483311 1236.442412 " stroke="#000000" stroke-width="1" stroke-opacity="1" stroke-miterlimit="10"/><path stroke-linecap="butt" transform="matrix(0.108734, 0, 0, 0.108459, 79.858643, 78.283874)" fill-opacity="1" fill="#e5e1d3" fill-rule="nonzero" stroke-linejoin="miter" d="M 1874.487003 1060.251953 C 1836.801967 1087.696174 1798.182888 1113.663738 1759.276412 1139.09106 C 1739.87706 1151.948786 1720.154387 1164.266271 1700.611337 1176.835868 L 1641.443315 1213.752308 L 1581.772348 1249.840378 C 1561.726352 1261.581606 1541.824054 1273.610963 1521.598435 1285.064063 C 1481.290894 1308.294408 1440.66003 1330.948496 1399.131049 1352.125926 C 1436.816085 1324.681705 1475.435164 1298.714142 1514.34164 1273.286819 C 1533.740991 1260.393077 1553.463665 1248.111608 1573.006715 1235.542011 L 1632.174736 1198.661588 L 1691.845704 1162.573517 C 1711.927625 1150.832289 1731.829922 1138.802932 1752.055542 1127.349832 C 1792.363083 1104.155503 1832.958022 1081.465399 1874.487003 1060.251953 Z M 1874.487003 1060.251953 " stroke="#000000" stroke-width="1" stroke-opacity="1" stroke-miterlimit="10"/><path stroke-linecap="butt" transform="matrix(0.108734, 0, 0, 0.108459, 79.858643, 78.283874)" fill-opacity="1" fill="#e5e1d3" fill-rule="nonzero" stroke-linejoin="miter" d="M 1868.092402 1171.937687 C 1830.371441 1199.381908 1791.788287 1225.313456 1752.845886 1250.776795 C 1733.446535 1263.63452 1713.759786 1275.915989 1694.180811 1288.521603 L 1635.01279 1325.402026 L 1575.377747 1361.490096 C 1555.295826 1373.231324 1535.429453 1385.260681 1515.167909 1396.713781 C 1474.896293 1419.944126 1434.265429 1442.63423 1392.736448 1463.81166 C 1430.385559 1436.331423 1469.004638 1410.36386 1507.947039 1384.936537 C 1527.310466 1372.078811 1547.03314 1359.797342 1566.57619 1347.191729 L 1625.780136 1310.311306 L 1685.451103 1274.259252 C 1705.497099 1262.482007 1725.399396 1250.488666 1745.625016 1239.035566 C 1785.932557 1215.805222 1826.563421 1193.115118 1868.092402 1171.937687 Z M 1868.092402 1171.937687 " stroke="#000000" stroke-width="1" stroke-opacity="1" stroke-miterlimit="10"/><path stroke-linecap="butt" transform="matrix(0.108734, 0, 0, 0.108459, 79.858643, 78.283874)" fill-opacity="1" fill="#e5e1d3" fill-rule="nonzero" stroke-linejoin="miter" d="M 1869.888638 1116.833149 C 1831.449183 1143.088841 1792.650481 1168.73226 1753.456606 1193.72739 C 1714.334581 1218.866585 1674.853309 1243.393507 1635.300188 1267.812381 C 1595.603367 1292.051174 1555.870622 1316.145904 1515.778629 1339.664377 C 1475.758486 1363.36293 1435.343171 1386.377178 1394.532684 1408.707122 C 1432.936215 1382.45143 1471.734917 1356.808011 1510.964716 1331.812881 C 1550.086741 1306.709702 1589.532089 1282.146764 1629.121135 1257.72789 C 1668.782031 1233.525112 1708.514776 1209.394367 1748.642693 1185.875894 C 1788.662836 1162.213357 1829.078151 1139.199109 1869.888638 1116.833149 Z M 1869.888638 1116.833149 " stroke="#000000" stroke-width="1" stroke-opacity="1" stroke-miterlimit="10"/><path stroke-linecap="butt" transform="matrix(0.108734, 0, 0, 0.108459, 79.858643, 78.283874)" fill-opacity="1" fill="#ffffff" fill-rule="nonzero" stroke-linejoin="miter" d="M 1914.722694 963.837019 L 1911.130222 795.46204 L 699.820362 1073.829999 L 237.576933 801.548751 C 237.576933 801.548751 227.51801 793.048966 218.896076 797.082762 C 210.310067 801.116558 209.591572 808.64391 209.591572 808.64391 L 203.232896 946.837449 C 203.232896 946.837449 202.370703 955.697394 208.765304 959.767207 C 215.195829 963.837019 688.683698 1260.285029 688.683698 1260.285029 Z M 1914.722694 963.837019 " stroke="#000000" stroke-width="1" stroke-opacity="1" stroke-miterlimit="10"/><path fill="#fecf09" d="M 224.859375 125.984375 L 289.539062 158.703125 L 156.492188 190.382812 L 100.316406 156.722656 Z M 224.859375 125.984375 " fill-opacity="1" fill-rule="nonzero"/><g clip-path="url(#5438295843)"><path stroke-linecap="butt" transform="matrix(0.108734, 0, 0, 0.108459, 79.858643, 78.283874)" fill="none" stroke-linejoin="miter" d="M 1333.532502 439.803664 L 1928.37409 741.473999 L 704.777974 1033.564069 L 188.144512 723.213868 Z M 1333.532502 439.803664 " stroke="#000000" stroke-width="1" stroke-opacity="1" stroke-miterlimit="10"/></g><g mask="url(#4dd5b550fd)"><g transform="matrix(1, 0, 0, 1, 110, 129)"><g clip-path="url(#58e83bb7fd)"><g clip-path="url(#840a7b6654)"><path fill="#f9a11b" d="M 47.21875 57.351562 C 47.101562 57.351562 46.980469 57.320312 46.878906 57.253906 L 1.386719 30 C 1.160156 29.859375 1.035156 29.601562 1.074219 29.335938 C 1.117188 29.074219 1.308594 28.859375 1.570312 28.792969 L 114.167969 1.003906 C 114.320312 0.964844 114.484375 0.984375 114.625 1.054688 L 167.140625 27.621094 C 167.386719 27.746094 167.53125 28.011719 167.5 28.285156 C 167.464844 28.558594 167.265625 28.785156 166.996094 28.847656 L 47.371094 57.332031 C 47.320312 57.34375 47.269531 57.351562 47.21875 57.351562 Z M 3.441406 29.691406 L 47.328125 55.988281 L 164.9375 27.984375 L 114.246094 2.34375 Z M 3.441406 29.691406 " fill-opacity="1" fill-rule="nonzero"/></g><g clip-path="url(#fedebc2313)"><path stroke-linecap="butt" transform="matrix(0.108734, 0, 0, 0.108459, -30.141356, -50.716126)" fill="none" stroke-linejoin="miter" d="M 711.459964 996.395517 C 710.382222 996.395517 709.268556 996.107389 708.334513 995.495116 L 289.955172 744.211218 C 287.871538 742.914641 286.721947 740.537582 287.081194 738.088492 C 287.476366 735.675417 289.236678 733.694535 291.643634 733.082262 L 1327.173817 476.864167 C 1328.574881 476.504007 1330.08372 476.684087 1331.37701 477.332376 L 1814.349005 722.277451 C 1816.612263 723.429964 1817.941478 725.879055 1817.65408 728.400177 C 1817.330758 730.9213 1815.498597 733.01023 1813.019791 733.586487 L 712.861028 996.215437 C 712.394007 996.323485 711.926986 996.395517 711.459964 996.395517 Z M 308.851577 741.365951 L 712.465857 983.82592 L 1794.087461 725.626943 L 1327.892311 489.217668 Z M 308.851577 741.365951 " stroke="#000000" stroke-width="1" stroke-opacity="1" stroke-miterlimit="10"/></g></g></g></g><path fill="#f9a11b" d="M 290.667969 182.191406 L 290.667969 187.460938 L 155.347656 221.21875 L 97.921875 184.398438 C 97.921875 184.398438 93.765625 169.875 100.316406 156.722656 L 156.492188 190.382812 L 289.539062 158.703125 L 289.539062 164.128906 L 155.953125 194.75 L 105.066406 164.851562 C 104.015625 164.230469 102.683594 164.949219 102.628906 166.164062 L 101.949219 181.109375 C 101.925781 181.644531 102.191406 182.152344 102.648438 182.4375 L 154.742188 214.972656 Z M 290.667969 182.191406 " fill-opacity="1" fill-rule="nonzero"/><g clip-path="url(#b1ef624f20)"><path stroke-linecap="butt" transform="matrix(0.108734, 0, 0, 0.108459, 79.858643, 78.283874)" fill="none" stroke-linejoin="miter" d="M 1938.756335 958.038437 L 1938.756335 1006.624072 L 694.25203 1317.874674 L 166.122656 978.387498 C 166.122656 978.387498 127.898749 844.479868 188.144512 723.213868 L 704.777974 1033.564069 L 1928.37409 741.473999 L 1928.37409 791.500276 L 699.820362 1073.829999 L 231.828977 798.163243 C 222.165226 792.436693 209.914895 799.063644 209.411949 810.264632 L 203.161047 948.061994 C 202.945498 952.996191 205.388379 957.678276 209.591572 960.307447 L 688.683698 1260.285029 Z M 1938.756335 958.038437 " stroke="#000000" stroke-width="1" stroke-opacity="1" stroke-miterlimit="10"/></g><g mask="url(#d91c818cb9)"><g transform="matrix(1, 0, 0, 1, 154, 163)"><g clip-path="url(#354c304228)"><g clip-path="url(#f8b30b7251)"><path fill="#f9a11b" d="M 0.742188 51.972656 L 1.953125 31.75 L 133.664062 1.558594 L 134.054688 19.820312 Z M 0.742188 51.972656 " fill-opacity="1" fill-rule="nonzero"/></g><g clip-path="url(#e95c35af12)"><path stroke-linecap="butt" transform="matrix(0.108734, 0, 0, 0.108459, -74.141357, -84.716126)" fill="none" stroke-linejoin="miter" d="M 688.683698 1260.285029 L 699.820362 1073.829999 L 1911.130222 795.46204 L 1914.722694 963.837019 Z M 688.683698 1260.285029 " stroke="#000000" stroke-width="1" stroke-opacity="1" stroke-miterlimit="10"/></g></g></g></g><path fill="#e98d24" d="M 290.667969 182.191406 L 288.011719 180.757812 L 288.054688 182.820312 Z M 290.667969 182.191406 " fill-opacity="1" fill-rule="nonzero"/><g clip-path="url(#0b5202e25d)"><path stroke-linecap="butt" transform="matrix(0.108734, 0, 0, 0.108459, 79.858643, 78.283874)" fill="none" stroke-linejoin="miter" d="M 1938.756335 958.038437 L 1914.327522 944.820551 L 1914.722694 963.837019 Z M 1938.756335 958.038437 " stroke="#000000" stroke-width="1" stroke-opacity="1" stroke-miterlimit="10"/></g><path fill="#e98d24" d="M 289.539062 164.128906 L 287.671875 164.9375 L 287.664062 164.558594 Z M 289.539062 164.128906 " fill-opacity="1" fill-rule="nonzero"/><g clip-path="url(#0b34f007de)"><path stroke-linecap="butt" transform="matrix(0.108734, 0, 0, 0.108459, 79.858643, 78.283874)" fill="none" stroke-linejoin="miter" d="M 1928.37409 791.500276 L 1911.202071 798.955596 L 1911.130222 795.46204 Z M 1928.37409 791.500276 " stroke="#000000" stroke-width="1" stroke-opacity="1" stroke-miterlimit="10"/></g><path stroke-linecap="butt" transform="matrix(0.108734, 0, 0, 0.108459, 79.858643, 78.283874)" fill-opacity="1" fill="#fce586" fill-rule="nonzero" stroke-linejoin="miter" d="M 1291.572424 528.619214 L 1612.236514 704.881705 L 1489.876903 747.92087 L 1186.420755 557.179932 Z M 1291.572424 528.619214 " stroke="#000000" stroke-width="1" stroke-opacity="1" stroke-miterlimit="10"/><path stroke-linecap="butt" transform="matrix(0.108734, 0, 0, 0.108459, 79.858643, 78.283874)" fill-opacity="1" fill="#fce586" fill-rule="nonzero" stroke-linejoin="miter" d="M 1090.03472 592.439633 L 1393.850114 772.916001 L 1381.527934 780.119208 L 1078.071786 598.454312 Z M 1090.03472 592.439633 " stroke="#000000" stroke-width="1" stroke-opacity="1" stroke-miterlimit="10"/><path stroke-linecap="butt" transform="matrix(0.108734, 0, 0, 0.108459, 79.858643, 78.283874)" fill-opacity="1" fill="#e5e1d3" fill-rule="nonzero" stroke-linejoin="miter" d="M 235.241825 839.365591 C 271.274324 859.786685 306.875726 880.856067 342.333429 902.177562 C 360.116168 912.802293 377.755207 923.64312 395.430172 934.3759 L 448.275442 966.934398 L 500.905163 999.853057 C 518.364579 1010.982013 535.895845 1021.966904 553.283411 1033.203908 C 588.130394 1055.533852 622.833678 1078.115908 657.06994 1101.382269 C 621.037442 1080.997191 585.43604 1059.891793 549.942412 1038.570298 C 532.159673 1027.945567 514.556558 1017.104739 496.845669 1006.37196 L 444.036324 973.813461 L 391.406603 940.858786 C 373.947187 929.765847 356.415921 918.780955 339.028354 907.543951 C 304.181372 885.214008 269.514013 862.631952 235.241825 839.365591 Z M 235.241825 839.365591 " stroke="#000000" stroke-width="1" stroke-opacity="1" stroke-miterlimit="10"/><path stroke-linecap="butt" transform="matrix(0.108734, 0, 0, 0.108459, 79.858643, 78.283874)" fill-opacity="1" fill="#e5e1d3" fill-rule="nonzero" stroke-linejoin="miter" d="M 233.37374 884.997911 C 269.406238 905.382989 305.043565 926.488387 340.501268 947.809882 C 358.248082 958.398597 375.887122 969.275441 393.562086 979.972204 L 446.443281 1012.566718 L 499.037077 1045.485377 C 516.496493 1056.578317 534.063684 1067.563209 551.415326 1078.800213 C 586.262308 1101.166172 620.965592 1123.748228 655.237779 1147.014589 C 619.169356 1126.593495 583.567954 1105.524113 548.074326 1084.166602 C 530.327512 1073.577887 512.688473 1062.73706 495.013508 1052.00428 L 442.168238 1019.445782 L 389.538517 986.491107 C 372.079101 975.398167 354.547835 964.413275 337.196194 953.176272 C 302.313286 930.810312 267.645927 908.228256 233.37374 884.997911 Z M 233.37374 884.997911 " stroke="#000000" stroke-width="1" stroke-opacity="1" stroke-miterlimit="10"/><path stroke-linecap="butt" transform="matrix(0.108734, 0, 0, 0.108459, 79.858643, 78.283874)" fill-opacity="1" fill="#e5e1d3" fill-rule="nonzero" stroke-linejoin="miter" d="M 235.241825 932.286969 C 271.274324 952.672047 306.875726 973.777445 342.333429 995.09894 C 360.116168 1005.723671 377.755207 1016.564499 395.430172 1027.297278 L 448.275442 1059.855777 L 500.905163 1092.774435 C 518.364579 1103.903391 535.895845 1114.852267 553.283411 1126.125287 C 588.130394 1148.45523 622.833678 1171.037286 657.06994 1194.303647 C 621.037442 1173.882553 585.43604 1152.813171 549.942412 1131.491676 C 532.159673 1120.866945 514.556558 1110.026118 496.845669 1099.293338 L 444.036324 1066.73484 L 391.406603 1033.780165 C 373.947187 1022.687225 356.415921 1011.702334 339.028354 1000.46533 C 304.181372 978.135386 269.514013 955.55333 235.241825 932.286969 Z M 235.241825 932.286969 " stroke="#000000" stroke-width="1" stroke-opacity="1" stroke-miterlimit="10"/><path stroke-linecap="butt" transform="matrix(0.108734, 0, 0, 0.108459, 79.858643, 78.283874)" fill-opacity="1" fill="#e5e1d3" fill-rule="nonzero" stroke-linejoin="miter" d="M 761.143867 1104.803792 C 853.470409 1079.196389 946.192123 1055.137676 1039.021611 1031.619203 C 1085.40043 1019.697894 1131.922948 1008.352842 1178.373617 996.755678 L 1317.941172 962.792554 L 1457.68835 929.693815 L 1562.660395 905.382989 L 1597.687001 897.495477 C 1691.091285 876.28203 1784.603342 855.64484 1878.510572 836.55634 C 1786.18403 862.199759 1693.462316 886.258473 1600.632828 909.776946 L 1565.82177 918.636891 L 1530.974788 927.316756 L 1461.280822 944.604454 L 1321.713268 978.567578 L 1181.930165 1011.666317 C 1135.263948 1022.399097 1088.705505 1033.420005 1041.967438 1043.864656 C 948.563155 1065.042086 855.051097 1085.715292 761.143867 1104.803792 Z M 761.143867 1104.803792 " stroke="#000000" stroke-width="1" stroke-opacity="1" stroke-miterlimit="10"/><path stroke-linecap="butt" transform="matrix(0.108734, 0, 0, 0.108459, 79.858643, 78.283874)" fill-opacity="1" fill="#e5e1d3" fill-rule="nonzero" stroke-linejoin="miter" d="M 761.143867 1147.554829 C 853.470409 1121.947426 946.192123 1097.852697 1039.021611 1074.37024 C 1085.40043 1062.448931 1131.922948 1051.103879 1178.373617 1039.506715 L 1317.941172 1005.543591 L 1457.68835 972.444852 L 1562.660395 948.134026 L 1597.687001 940.246514 C 1691.091285 919.033067 1784.603342 898.395878 1878.510572 879.307377 C 1786.18403 904.950796 1693.462316 929.00951 1600.632828 952.527983 L 1565.82177 961.387928 L 1530.974788 970.067793 L 1461.280822 987.355492 L 1321.713268 1021.318616 L 1181.930165 1054.417355 C 1135.263948 1065.150134 1088.705505 1076.171042 1041.967438 1086.615693 C 948.563155 1107.793123 855.051097 1128.466329 761.143867 1147.554829 Z M 761.143867 1147.554829 " stroke="#000000" stroke-width="1" stroke-opacity="1" stroke-miterlimit="10"/><path stroke-linecap="butt" transform="matrix(0.108734, 0, 0, 0.108459, 79.858643, 78.283874)" fill-opacity="1" fill="#e5e1d3" fill-rule="nonzero" stroke-linejoin="miter" d="M 761.143867 1194.91592 C 853.470409 1169.308516 946.192123 1145.249803 1039.021611 1121.767346 C 1085.40043 1109.846037 1131.922948 1098.500985 1178.373617 1086.903821 L 1317.941172 1052.940697 L 1457.68835 1019.841958 L 1562.660395 995.531132 L 1597.687001 987.607604 C 1691.091285 966.430174 1784.603342 945.792984 1878.510572 926.704484 C 1786.18403 952.347903 1693.462316 976.406616 1600.632828 999.925089 L 1565.82177 1008.749018 L 1530.974788 1017.428884 L 1461.280822 1034.752598 L 1321.713268 1068.715722 L 1181.930165 1101.778445 C 1135.263948 1112.54724 1088.705505 1123.532132 1041.967438 1134.012799 C 948.563155 1155.19023 855.051097 1175.827419 761.143867 1194.91592 Z M 761.143867 1194.91592 " stroke="#000000" stroke-width="1" stroke-opacity="1" stroke-miterlimit="10"/><path stroke-linecap="butt" transform="matrix(0.108734, 0, 0, 0.108459, 79.858643, 78.283874)" fill-opacity="1" fill="#f04d6e" fill-rule="nonzero" stroke-linejoin="miter" d="M 1628.187092 902.357642 L 1714.873452 880.495907 C 1714.873452 880.495907 1727.878202 930.234055 1715.807495 970.175842 L 1682.577125 942.299428 L 1651.466314 983.897952 C 1651.466314 983.897952 1651.21484 919.537292 1628.187092 902.357642 Z M 1628.187092 902.357642 " stroke="#000000" stroke-width="1" stroke-opacity="1" stroke-miterlimit="10"/><path stroke-linecap="butt" transform="matrix(0.108734, 0, 0, 0.108459, 79.858643, 78.283874)" fill-opacity="1" fill="#f04d6e" fill-rule="nonzero" stroke-linejoin="miter" d="M 1081.053538 1074.946497 L 1168.135071 1055.245724 C 1168.135071 1055.245724 1181.139821 1104.119487 1169.069113 1144.09729 L 1135.838743 1116.220876 L 1104.692007 1157.783384 C 1104.692007 1157.783384 1104.045362 1092.126147 1081.053538 1074.946497 Z M 1081.053538 1074.946497 " stroke="#000000" stroke-width="1" stroke-opacity="1" stroke-miterlimit="10"/><path stroke-linecap="butt" transform="matrix(0.108734, 0, 0, 0.108459, 79.858643, 78.283874)" fill-opacity="1" fill="#ffffff" fill-rule="nonzero" stroke-linejoin="miter" d="M 161.452441 654.279171 L 166.266354 485.904193 L 1375.49258 773.276161 L 1839.747794 504.452452 C 1839.747794 504.452452 1849.878567 496.024699 1858.464576 500.094512 C 1867.01466 504.20034 1867.69723 511.763708 1867.69723 511.763708 L 1873.050014 649.993262 C 1873.050014 649.993262 1873.840358 658.853208 1867.373908 662.850988 C 1860.907457 666.884784 1385.264105 959.803223 1385.264105 959.803223 Z M 161.452441 654.279171 " stroke="#000000" stroke-width="1" stroke-opacity="1" stroke-miterlimit="10"/><g clip-path="url(#dd568f34e4)"><path fill="#f0536d" d="M 161.03125 92.878906 L 96.109375 125.113281 L 228.917969 157.78125 L 285.339844 124.539062 Z M 161.03125 92.878906 " fill-opacity="1" fill-rule="nonzero"/></g><g clip-path="url(#76e8812052)"><path stroke-linecap="butt" transform="matrix(0.108734, 0, 0, 0.108459, 79.858643, 78.283874)" fill="none" stroke-linejoin="miter" d="M 746.522504 134.56774 L 149.453583 431.772087 L 1370.858291 732.974214 L 1889.755011 426.47773 Z M 746.522504 134.56774 " stroke="#000000" stroke-width="1" stroke-opacity="1" stroke-miterlimit="10"/></g><g mask="url(#da4bb71672)"><g transform="matrix(1, 0, 0, 1, 107, 96)"><g clip-path="url(#00d5e0f53b)"><g clip-path="url(#817ef7a658)"><path fill="#ffffff" d="M 121.21875 57.742188 C 121.339844 57.742188 121.457031 57.710938 121.5625 57.648438 L 167.253906 30.730469 C 167.484375 30.59375 167.609375 30.332031 167.570312 30.070312 C 167.535156 29.804688 167.339844 29.589844 167.082031 29.523438 L 54.691406 0.902344 C 54.539062 0.863281 54.375 0.878906 54.234375 0.949219 L 1.523438 27.125 C 1.273438 27.246094 1.128906 27.511719 1.160156 27.785156 C 1.191406 28.0625 1.390625 28.289062 1.660156 28.355469 L 121.066406 57.722656 C 121.117188 57.734375 121.167969 57.742188 121.21875 57.742188 Z M 165.203125 30.40625 L 121.121094 56.378906 L 3.722656 27.503906 L 54.601562 2.242188 Z M 165.203125 30.40625 " fill-opacity="1" fill-rule="nonzero"/></g><g clip-path="url(#cd6f0cd9c7)"><path stroke-linecap="butt" transform="matrix(0.108734, 0, 0, 0.108459, -27.141356, -17.716126)" fill="none" stroke-linejoin="miter" d="M 1364.427756 695.733629 C 1365.541423 695.733629 1366.619164 695.4455 1367.589132 694.869244 L 1787.800634 446.682725 C 1789.920193 445.422164 1791.069784 443.009089 1790.710537 440.596014 C 1790.387214 438.146924 1788.590978 436.166042 1786.219946 435.553769 L 752.593774 171.664258 C 751.192709 171.304097 749.683871 171.448161 748.390581 172.09645 L 263.622349 413.439922 C 261.323167 414.556419 259.993952 417.005509 260.28135 419.526632 C 260.568747 422.083771 262.400908 424.172701 264.879714 424.784974 L 1363.026692 695.553548 C 1363.493713 695.661597 1363.960735 695.733629 1364.427756 695.733629 Z M 1768.940154 443.693394 L 1363.529638 683.164031 L 283.847969 416.933477 L 751.767505 184.017759 Z M 1768.940154 443.693394 " stroke="#000000" stroke-width="1" stroke-opacity="1" stroke-miterlimit="10"/></g></g></g></g><path stroke-linecap="butt" transform="matrix(0.108734, 0, 0, 0.108459, 79.858643, 78.283874)" fill-opacity="1" fill="#ed184a" fill-rule="nonzero" stroke-linejoin="miter" d="M 137.49065 648.300509 L 137.131403 696.850128 L 1379.264676 1017.356852 L 1909.908781 681.795424 C 1909.908781 681.795424 1949.102656 548.175923 1889.755011 426.47773 L 1370.822366 732.974214 L 149.453583 431.772087 L 149.058411 481.83438 L 1375.49258 773.276161 L 1845.531675 501.066945 C 1855.195426 495.448443 1867.409832 502.147426 1867.840929 513.348414 L 1873.085939 651.181792 C 1873.265562 656.115989 1870.786756 660.798074 1866.547639 663.427245 L 1385.264105 959.803223 Z M 137.49065 648.300509 " stroke="#000000" stroke-width="1" stroke-opacity="1" stroke-miterlimit="10"/><g mask="url(#8a2121cceb)"><g transform="matrix(1, 0, 0, 1, 96, 130)"><g clip-path="url(#74f3d7fed0)"><g clip-path="url(#caaba4039d)"><path fill="#f9a11b" d="M 134.484375 52.382812 L 133.421875 32.152344 L 1.9375 0.984375 L 1.414062 19.246094 Z M 134.484375 52.382812 " fill-opacity="1" fill-rule="nonzero"/></g><g clip-path="url(#ee7c957635)"><path stroke-linecap="butt" transform="matrix(0.108734, 0, 0, 0.108459, -16.141356, -51.716126)" fill="none" stroke-linejoin="miter" d="M 1385.264096 959.803223 L 1375.492571 773.276161 L 166.266346 485.904193 L 161.452433 654.279171 Z M 1385.264096 959.803223 " stroke="#000000" stroke-width="1" stroke-opacity="1" stroke-miterlimit="10"/></g></g></g></g><path stroke-linecap="butt" transform="matrix(0.108734, 0, 0, 0.108459, 79.858643, 78.283874)" fill-opacity="1" fill="#e98d24" fill-rule="nonzero" stroke-linejoin="miter" d="M 137.49065 648.300509 L 162.027237 635.262703 L 161.452441 654.279171 Z M 137.49065 648.300509 " stroke="#000000" stroke-width="1" stroke-opacity="1" stroke-miterlimit="10"/><path stroke-linecap="butt" transform="matrix(0.108734, 0, 0, 0.108459, 79.858643, 78.283874)" fill-opacity="1" fill="#e98d24" fill-rule="nonzero" stroke-linejoin="miter" d="M 149.058411 481.83438 L 166.194505 489.397748 L 166.266354 485.904193 Z M 149.058411 481.83438 " stroke="#000000" stroke-width="1" stroke-opacity="1" stroke-miterlimit="10"/><path stroke-linecap="butt" transform="matrix(0.108734, 0, 0, 0.108459, 79.858643, 78.283874)" fill-opacity="1" fill="#f7acbc" fill-rule="nonzero" stroke-linejoin="miter" d="M 787.800013 223.707435 L 465.842632 397.556851 L 587.914846 441.496418 L 892.772057 253.02449 Z M 787.800013 223.707435 " stroke="#000000" stroke-width="1" stroke-opacity="1" stroke-miterlimit="10"/><path stroke-linecap="butt" transform="matrix(0.108734, 0, 0, 0.108459, 79.858643, 78.283874)" fill-opacity="1" fill="#f7acbc" fill-rule="nonzero" stroke-linejoin="miter" d="M 988.870695 288.968496 L 683.726086 467.211869 L 695.976417 474.523125 L 1000.797704 295.091222 Z M 988.870695 288.968496 " stroke="#000000" stroke-width="1" stroke-opacity="1" stroke-miterlimit="10"/><path stroke-linecap="butt" transform="matrix(0.108734, 0, 0, 0.108459, 79.858643, 78.283874)" fill-opacity="1" fill="#e5e1d3" fill-rule="nonzero" stroke-linejoin="miter" d="M 1841.831429 542.233276 C 1805.619306 562.402258 1769.874205 583.219528 1734.236879 604.28891 C 1716.382291 614.733561 1698.671401 625.46634 1680.888663 636.055056 L 1627.827845 668.217378 L 1574.94665 700.775876 C 1557.415385 711.760768 1539.776345 722.601595 1522.316929 733.694535 C 1487.326247 755.772366 1452.479265 778.10231 1418.027454 801.116558 C 1454.203651 780.983593 1489.984677 760.166323 1525.622004 739.096941 C 1543.476592 728.65229 1561.187481 717.91951 1578.934295 707.330795 L 1632.031038 675.132457 L 1684.876307 642.573959 C 1702.407573 631.625083 1720.046613 620.748239 1737.506029 609.6553 C 1772.532635 587.577468 1807.379618 565.247525 1841.831429 542.233276 Z M 1841.831429 542.233276 " stroke="#000000" stroke-width="1" stroke-opacity="1" stroke-miterlimit="10"/><path stroke-linecap="butt" transform="matrix(0.108734, 0, 0, 0.108459, 79.858643, 78.283874)" fill-opacity="1" fill="#e5e1d3" fill-rule="nonzero" stroke-linejoin="miter" d="M 1843.340267 587.865597 C 1807.164069 608.034578 1771.383044 628.851848 1735.745717 649.92123 C 1717.891129 660.365881 1700.216165 671.098661 1682.433426 681.687376 L 1629.336683 713.849698 L 1576.455489 746.408197 C 1558.924223 757.393088 1541.321108 768.233916 1523.861692 779.326855 C 1488.835086 801.404687 1453.988103 823.73463 1419.536292 846.748879 C 1455.748415 826.615913 1491.52944 805.798643 1527.130842 784.729261 C 1544.98543 774.28461 1562.696319 763.551831 1580.443133 752.963115 L 1633.539876 720.764777 L 1686.385146 688.206279 C 1703.952336 677.257403 1721.555451 666.38056 1739.014867 655.28762 C 1774.041473 633.209789 1808.888456 610.879845 1843.340267 587.865597 Z M 1843.340267 587.865597 " stroke="#000000" stroke-width="1" stroke-opacity="1" stroke-miterlimit="10"/><path stroke-linecap="butt" transform="matrix(0.108734, 0, 0, 0.108459, 79.858643, 78.283874)" fill-opacity="1" fill="#e5e1d3" fill-rule="nonzero" stroke-linejoin="miter" d="M 1841.112934 635.154655 C 1804.936736 655.323636 1769.155711 676.140906 1733.554309 697.210288 C 1715.699721 707.654939 1697.988832 718.387719 1680.206093 728.976434 L 1627.10935 761.138756 L 1574.264081 793.697255 C 1556.732815 804.682146 1539.093775 815.522974 1521.634359 826.615913 C 1486.643678 848.693745 1451.796695 871.023689 1417.344884 894.037937 C 1453.521082 873.904972 1489.302107 853.087702 1524.939434 832.018319 C 1542.794022 821.573668 1560.468986 810.840889 1578.251725 800.252174 L 1631.312543 768.053835 L 1684.193738 735.495337 C 1701.725003 724.546461 1719.364043 713.669618 1736.823459 702.576678 C 1771.814141 680.498847 1806.697048 658.168903 1841.112934 635.154655 Z M 1841.112934 635.154655 " stroke="#000000" stroke-width="1" stroke-opacity="1" stroke-miterlimit="10"/><path stroke-linecap="butt" transform="matrix(0.108734, 0, 0, 0.108459, 79.858643, 78.283874)" fill-opacity="1" fill="#e5e1d3" fill-rule="nonzero" stroke-linejoin="miter" d="M 1313.953527 803.781745 C 1221.806609 777.490037 1129.300443 752.747019 1036.650579 728.544242 C 990.343609 716.298789 943.928865 704.593576 897.550046 692.672268 L 758.233964 657.664679 L 618.702334 623.521474 L 548.86467 606.774017 L 513.945838 598.418296 L 478.955156 590.242655 C 385.730496 568.344904 292.362137 547.023409 198.634531 527.250604 C 290.745525 553.578328 383.287615 578.321346 475.937479 602.524124 L 510.676688 611.636182 L 545.451821 620.568159 L 615.002088 638.396098 L 754.318169 673.367671 L 893.849799 707.510875 C 940.444167 718.603815 986.93076 729.984883 1033.596977 740.753679 C 1126.821637 762.65143 1220.189996 783.972924 1313.953527 803.781745 Z M 1313.953527 803.781745 " stroke="#000000" stroke-width="1" stroke-opacity="1" stroke-miterlimit="10"/><path stroke-linecap="butt" transform="matrix(0.108734, 0, 0, 0.108459, 79.858643, 78.283874)" fill-opacity="1" fill="#e5e1d3" fill-rule="nonzero" stroke-linejoin="miter" d="M 1313.630205 846.532783 C 1221.483286 820.205059 1128.977121 795.46204 1036.327256 771.295279 C 990.020287 759.01381 943.605543 747.344614 897.226723 735.387289 L 757.910642 700.415716 L 618.414937 666.236496 L 548.541348 649.525054 L 513.622515 641.169333 L 478.667758 632.993692 C 385.407174 611.095941 292.038815 589.774447 198.311209 570.001642 C 290.422202 596.329366 382.964293 621.072384 475.614157 645.275161 L 510.353365 654.387219 L 545.128499 663.28318 L 614.71469 681.147135 L 753.994847 716.118708 L 893.526477 750.261913 C 940.120844 761.354852 986.607438 772.699904 1033.273655 783.504716 C 1126.498315 805.402467 1219.866674 826.723962 1313.630205 846.532783 Z M 1313.630205 846.532783 " stroke="#000000" stroke-width="1" stroke-opacity="1" stroke-miterlimit="10"/><path stroke-linecap="butt" transform="matrix(0.108734, 0, 0, 0.108459, 79.858643, 78.283874)" fill-opacity="1" fill="#e5e1d3" fill-rule="nonzero" stroke-linejoin="miter" d="M 1313.270957 893.893873 C 1221.124039 867.602165 1128.617874 842.859147 1035.968009 818.656369 C 989.696964 806.410916 943.246295 794.74172 896.867476 782.784395 L 757.587319 747.776806 L 618.055689 713.633602 L 548.1821 696.886144 L 513.263268 688.566439 L 478.308511 680.354783 C 385.083851 658.493047 291.715492 637.135537 197.951961 617.362732 C 290.062955 643.690456 382.605045 668.433474 475.25491 692.636252 L 509.994118 701.748309 L 544.769252 710.680287 L 614.355443 728.508226 L 753.671524 763.515815 L 893.167229 797.623003 C 939.761597 808.715943 986.284115 820.097011 1032.914408 830.865806 C 1126.174992 852.763557 1219.543351 874.121068 1313.270957 893.893873 Z M 1313.270957 893.893873 " stroke="#000000" stroke-width="1" stroke-opacity="1" stroke-miterlimit="10"/><path stroke-linecap="butt" transform="matrix(0.108734, 0, 0, 0.108459, 79.858643, 78.283874)" fill-opacity="1" fill="#f04d6e" fill-rule="nonzero" stroke-linejoin="miter" d="M 448.41914 594.92474 L 361.912404 572.414716 C 361.912404 572.414716 348.512482 622.044817 360.295791 662.094651 L 393.74171 634.434334 L 424.565123 676.248954 C 424.565123 676.248954 425.283618 611.92431 448.41914 594.92474 Z M 448.41914 594.92474 " stroke="#000000" stroke-width="1" stroke-opacity="1" stroke-miterlimit="10"/><path stroke-linecap="butt" transform="matrix(0.108734, 0, 0, 0.108459, 79.858643, 78.283874)" fill-opacity="1" fill="#f04d6e" fill-rule="nonzero" stroke-linejoin="miter" d="M 994.259404 771.547391 L 907.357496 751.234346 C 907.357496 751.234346 893.993498 800.000061 905.776808 840.049896 L 939.186801 812.425594 L 970.010215 854.240215 C 970.010215 854.240215 971.123882 788.546961 994.259404 771.547391 Z M 994.259404 771.547391 " stroke="#000000" stroke-width="1" stroke-opacity="1" stroke-miterlimit="10"/><g mask="url(#0527231c0d)"><g transform="matrix(1, 0, 0, 1, 269, 154)"><g clip-path="url(#bd18437387)"><g clip-path="url(#06c0cafb69)"><path fill="#010101" d="M 13.730469 1.257812 L 17.804688 3.320312 L 0.828125 9.394531 Z M 13.730469 1.257812 " fill-opacity="1" fill-rule="nonzero"/></g><g clip-path="url(#cb3d7b2c5e)"><path stroke-linecap="butt" transform="matrix(0.108734, 0, 0, 0.108459, -189.14135, -75.716126)" fill="none" stroke-linejoin="miter" d="M 1865.757229 709.707854 L 1903.226716 728.724322 L 1747.097864 784.729261 Z M 1865.757229 709.707854 " stroke="#000000" stroke-width="1" stroke-opacity="1" stroke-miterlimit="10"/></g></g></g></g></svg>