<svg xmlns="http://www.w3.org/2000/svg" xmlns:xlink="http://www.w3.org/1999/xlink" width="500" zoomAndPan="magnify" viewBox="0 0 375 374.999991" height="500" preserveAspectRatio="xMidYMid meet" version="1.0"><path fill="#ffcc00" d="M 154.574219 245.335938 C 153.558594 244.730469 152.75 244.324219 151.734375 243.71875 L 133.886719 246.953125 L 146.460938 239.875 L 224.949219 195.984375 L 200.613281 176.769531 L 261.863281 116.292969 L 244.824219 124.785156 C 243 123.167969 240.972656 121.550781 238.945312 119.933594 C 230.425781 113.660156 220.691406 108.605469 209.738281 105.773438 C 164.308594 93.636719 117.863281 120.335938 105.695312 165.441406 C 98.800781 191.535156 104.882812 218.234375 119.894531 238.257812 L 132.0625 224.097656 C 121.921875 208.726562 118.066406 189.308594 123.339844 170.09375 C 132.871094 134.496094 169.582031 113.460938 205.277344 122.964844 C 210.550781 124.382812 215.621094 126.40625 220.285156 128.832031 L 240.769531 126.808594 L 144.230469 181.621094 L 172.21875 196.589844 L 113.605469 258.484375 L 129.832031 249.382812 C 131.859375 251.203125 133.886719 253.023438 136.117188 254.640625 C 144.636719 261.113281 154.371094 265.96875 165.324219 269 C 210.550781 281.136719 257.199219 254.234375 269.367188 209.132812 C 276.464844 183.039062 270.378906 156.339844 255.167969 136.316406 L 243 150.472656 C 253.140625 165.847656 256.996094 185.265625 251.925781 204.480469 C 242.796875 240.28125 206.089844 261.316406 170.394531 251.808594 C 164.714844 250.191406 159.441406 247.964844 154.574219 245.335938 Z M 154.574219 245.335938 " fill-opacity="1" fill-rule="evenodd"/></svg>