<svg xmlns="http://www.w3.org/2000/svg" xmlns:xlink="http://www.w3.org/1999/xlink" width="500" zoomAndPan="magnify" viewBox="0 0 375 374.999991" height="500" preserveAspectRatio="xMidYMid meet" version="1.0"><defs><clipPath id="ae95583be8"><path d="M 113 93 L 289.667969 93 L 289.667969 289.667969 L 113 289.667969 Z M 113 93 " clip-rule="nonzero"/></clipPath><clipPath id="b7115f3f16"><path d="M 85.667969 85.667969 L 185 85.667969 L 185 184 L 85.667969 184 Z M 85.667969 85.667969 " clip-rule="nonzero"/></clipPath></defs><g clip-path="url(#ae95583be8)"><path fill="#008c3b" d="M 253.152344 157.34375 L 276.175781 157.34375 C 278.132812 157.34375 279.726562 158.941406 279.726562 160.894531 L 279.726562 273.960938 L 249.601562 273.960938 L 249.601562 160.894531 C 249.601562 158.941406 251.195312 157.34375 253.152344 157.34375 Z M 255.089844 124.722656 L 262.316406 128.398438 C 263.648438 129.078125 265.160156 128.933594 266.339844 128.015625 C 267.523438 127.09375 268.03125 125.664062 267.699219 124.203125 L 264.96875 112.203125 L 261.460938 96.773438 C 261.203125 95.640625 260.527344 94.773438 259.496094 94.246094 C 258.460938 93.722656 257.363281 93.6875 256.296875 94.144531 L 241.753906 100.390625 L 230.445312 105.25 C 229.074219 105.839844 228.214844 107.09375 228.167969 108.589844 C 228.121094 110.085938 228.890625 111.390625 230.226562 112.070312 L 238.21875 116.136719 C 213.304688 156.648438 171.570312 185.738281 113.015625 203.410156 C 155.726562 201.421875 224.890625 170.824219 255.089844 124.722656 Z M 118.734375 289.675781 L 284.3125 289.675781 C 287.234375 289.675781 289.628906 287.285156 289.628906 284.359375 C 289.628906 281.433594 287.234375 279.042969 284.3125 279.042969 L 118.734375 279.042969 C 115.808594 279.042969 113.414062 281.433594 113.414062 284.359375 C 113.414062 287.285156 115.808594 289.675781 118.734375 289.675781 Z M 126.867188 241.425781 L 149.894531 241.425781 C 151.847656 241.425781 153.445312 243.019531 153.445312 244.976562 L 153.445312 273.960938 L 123.316406 273.960938 L 123.316406 244.976562 C 123.316406 243.019531 124.914062 241.425781 126.867188 241.425781 Z M 165.410156 273.960938 L 165.410156 216.949219 C 165.410156 214.992188 167.007812 213.398438 168.960938 213.398438 L 191.988281 213.398438 C 193.945312 213.398438 195.539062 214.992188 195.539062 216.949219 L 195.539062 273.960938 Z M 207.503906 273.960938 L 207.503906 188.921875 C 207.503906 186.96875 209.101562 185.371094 211.054688 185.371094 L 234.082031 185.371094 C 236.039062 185.371094 237.632812 186.96875 237.632812 188.921875 L 237.632812 273.960938 Z M 207.503906 273.960938 " fill-opacity="1" fill-rule="evenodd"/></g><g clip-path="url(#b7115f3f16)"><path fill="#49db6c" d="M 132.453125 123.375 C 132.453125 122.011719 133.558594 120.910156 134.917969 120.910156 C 136.28125 120.910156 137.382812 122.011719 137.382812 123.375 L 137.382812 125.074219 C 137.578125 125.132812 137.769531 125.195312 137.960938 125.265625 L 138.105469 125.316406 C 139.152344 125.71875 140.117188 126.3125 140.875 127.046875 C 141.847656 127.992188 141.871094 129.550781 140.921875 130.523438 C 139.976562 131.496094 138.421875 131.515625 137.449219 130.570312 C 137.167969 130.300781 136.777344 130.070312 136.335938 129.898438 L 136.242188 129.859375 C 135.851562 129.722656 135.433594 129.636719 135.023438 129.613281 L 134.917969 129.617188 C 134.859375 129.617188 134.800781 129.617188 134.742188 129.613281 C 134.648438 129.613281 134.554688 129.621094 134.464844 129.628906 C 134.003906 129.679688 133.597656 129.828125 133.335938 130.097656 C 133.21875 130.222656 133.113281 130.378906 133.042969 130.570312 L 133.039062 130.578125 L 133.042969 130.582031 C 132.960938 130.789062 132.953125 130.984375 133.027344 131.132812 C 133.148438 131.390625 133.449219 131.65625 133.941406 131.90625 C 134.539062 132.207031 135.398438 132.429688 136.242188 132.652344 C 137.089844 132.871094 137.929688 133.089844 138.703125 133.40625 C 141.230469 134.425781 142.367188 136.292969 142.429688 138.300781 C 142.472656 139.507812 142.085938 140.714844 141.359375 141.761719 C 140.695312 142.726562 139.738281 143.566406 138.566406 144.136719 C 138.195312 144.316406 137.800781 144.472656 137.382812 144.597656 L 137.382812 146.265625 C 137.382812 147.628906 136.28125 148.730469 134.917969 148.730469 C 133.558594 148.730469 132.453125 147.628906 132.453125 146.265625 L 132.453125 144.605469 C 131.144531 144.246094 129.777344 143.582031 128.386719 142.539062 C 127.300781 141.726562 127.082031 140.1875 127.894531 139.101562 C 128.707031 138.015625 130.25 137.796875 131.332031 138.609375 C 132.644531 139.59375 133.84375 140 134.84375 140.027344 L 134.917969 140.023438 L 135.007812 140.027344 C 135.542969 140.019531 136.011719 139.902344 136.410156 139.707031 C 136.8125 139.511719 137.121094 139.25 137.316406 138.972656 C 137.449219 138.777344 137.523438 138.59375 137.519531 138.453125 C 137.515625 138.320312 137.320312 138.148438 136.875 137.96875 C 136.347656 137.753906 135.683594 137.582031 135.011719 137.40625 C 133.898438 137.117188 132.769531 136.820312 131.726562 136.296875 C 130.207031 135.527344 129.160156 134.460938 128.578125 133.234375 C 127.914062 131.835938 127.878906 130.308594 128.457031 128.808594 L 128.460938 128.808594 C 128.789062 127.957031 129.253906 127.246094 129.8125 126.667969 C 130.566406 125.890625 131.472656 125.363281 132.453125 125.050781 Z M 153.453125 134.820312 C 153.453125 124.585938 145.152344 116.285156 134.917969 116.285156 C 124.683594 116.285156 116.382812 124.585938 116.382812 134.820312 C 116.382812 145.054688 124.683594 153.355469 134.917969 153.355469 C 145.152344 153.355469 153.453125 145.054688 153.453125 134.820312 Z M 102.761719 132.277344 L 108.09375 132.277344 C 109.496094 132.277344 110.632812 133.417969 110.632812 134.820312 C 110.632812 136.222656 109.496094 137.359375 108.09375 137.359375 L 102.761719 137.359375 C 103.375 145.257812 106.832031 152.351562 112.109375 157.628906 C 117.382812 162.90625 124.480469 166.363281 132.375 166.976562 L 132.375 161.644531 C 132.375 160.242188 133.515625 159.105469 134.917969 159.105469 C 136.320312 159.105469 137.457031 160.242188 137.457031 161.644531 L 137.457031 166.976562 C 145.351562 166.363281 152.449219 162.90625 157.726562 157.628906 C 163 152.351562 166.460938 145.257812 167.074219 137.359375 L 161.742188 137.359375 C 160.339844 137.359375 159.199219 136.222656 159.199219 134.820312 C 159.199219 133.417969 160.339844 132.277344 161.742188 132.277344 L 167.074219 132.277344 C 166.460938 124.382812 163 117.289062 157.726562 112.011719 C 152.449219 106.734375 145.351562 103.277344 137.457031 102.664062 L 137.457031 107.996094 C 137.457031 109.398438 136.320312 110.535156 134.917969 110.535156 C 133.515625 110.535156 132.375 109.398438 132.375 107.996094 L 132.375 102.664062 C 124.480469 103.277344 117.382812 106.734375 112.109375 112.011719 C 106.832031 117.289062 103.375 124.386719 102.761719 132.277344 Z M 88.292969 137.359375 L 97.664062 137.359375 C 98.289062 146.660156 102.320312 155.023438 108.515625 161.222656 C 114.714844 167.417969 123.078125 171.449219 132.375 172.074219 L 132.375 181.441406 C 132.375 182.847656 133.515625 183.984375 134.917969 183.984375 C 136.320312 183.984375 137.457031 182.847656 137.457031 181.441406 L 137.457031 172.074219 C 146.757812 171.449219 155.121094 167.417969 161.320312 161.222656 C 167.515625 155.023438 171.542969 146.660156 172.171875 137.359375 L 181.539062 137.359375 C 182.941406 137.359375 184.082031 136.222656 184.082031 134.820312 C 184.082031 133.417969 182.941406 132.277344 181.539062 132.277344 L 172.171875 132.277344 C 171.542969 122.980469 167.515625 114.617188 161.320312 108.417969 C 155.121094 102.222656 146.757812 98.191406 137.457031 97.566406 L 137.457031 88.199219 C 137.457031 86.792969 136.320312 85.65625 134.917969 85.65625 C 133.515625 85.65625 132.375 86.792969 132.375 88.199219 L 132.375 97.566406 C 123.078125 98.191406 114.714844 102.222656 108.515625 108.417969 C 102.320312 114.617188 98.289062 122.980469 97.664062 132.277344 L 88.292969 132.277344 C 86.890625 132.277344 85.753906 133.417969 85.753906 134.820312 C 85.753906 136.222656 86.890625 137.359375 88.292969 137.359375 Z M 88.292969 137.359375 " fill-opacity="1" fill-rule="evenodd"/></g></svg>