<svg xmlns="http://www.w3.org/2000/svg" xmlns:xlink="http://www.w3.org/1999/xlink" width="500" zoomAndPan="magnify" viewBox="0 0 375 374.999991" height="500" preserveAspectRatio="xMidYMid meet" version="1.0"><defs><clipPath id="6dd98ee441"><path d="M 83 83.332031 L 278 83.332031 L 278 290 L 83 290 Z M 83 83.332031 " clip-rule="nonzero"/></clipPath></defs><path fill="#3b6a75" d="M 246.726562 246.496094 C 246.726562 246.785156 246.699219 247.074219 246.644531 247.355469 C 246.585938 247.640625 246.503906 247.914062 246.394531 248.183594 C 246.28125 248.449219 246.144531 248.703125 245.984375 248.945312 C 245.824219 249.1875 245.640625 249.410156 245.4375 249.613281 C 245.234375 249.816406 245.011719 250 244.769531 250.160156 C 244.53125 250.320312 244.277344 250.457031 244.007812 250.566406 C 243.742188 250.679688 243.46875 250.761719 243.183594 250.820312 C 242.898438 250.875 242.613281 250.902344 242.324219 250.902344 C 242.035156 250.902344 241.75 250.875 241.464844 250.820312 C 241.179688 250.761719 240.90625 250.679688 240.640625 250.566406 C 240.371094 250.457031 240.117188 250.320312 239.878906 250.160156 C 239.636719 250 239.414062 249.816406 239.210938 249.613281 C 239.003906 249.410156 238.824219 249.1875 238.664062 248.945312 C 238.5 248.703125 238.367188 248.449219 238.253906 248.183594 C 238.144531 247.914062 238.0625 247.640625 238.003906 247.355469 C 237.949219 247.074219 237.921875 246.785156 237.921875 246.496094 C 237.921875 246.207031 237.949219 245.921875 238.003906 245.636719 C 238.0625 245.351562 238.144531 245.078125 238.253906 244.808594 C 238.367188 244.542969 238.5 244.289062 238.664062 244.046875 C 238.824219 243.808594 239.003906 243.585938 239.210938 243.378906 C 239.414062 243.175781 239.636719 242.992188 239.878906 242.832031 C 240.117188 242.671875 240.371094 242.535156 240.640625 242.425781 C 240.90625 242.316406 241.179688 242.230469 241.464844 242.175781 C 241.75 242.117188 242.035156 242.089844 242.324219 242.089844 C 242.613281 242.089844 242.898438 242.117188 243.183594 242.175781 C 243.46875 242.230469 243.742188 242.316406 244.007812 242.425781 C 244.277344 242.535156 244.53125 242.671875 244.769531 242.832031 C 245.011719 242.992188 245.234375 243.175781 245.4375 243.378906 C 245.640625 243.585938 245.824219 243.808594 245.984375 244.046875 C 246.144531 244.289062 246.28125 244.542969 246.394531 244.808594 C 246.503906 245.078125 246.585938 245.351562 246.644531 245.636719 C 246.699219 245.921875 246.726562 246.207031 246.726562 246.496094 Z M 246.726562 246.496094 " fill-opacity="1" fill-rule="nonzero"/><path fill="#3b6a75" d="M 126.902344 120.320312 C 129.449219 120.320312 131.535156 118.230469 131.535156 115.679688 C 131.535156 113.128906 129.449219 111.042969 126.902344 111.042969 C 124.351562 111.042969 122.265625 113.128906 122.265625 115.679688 C 122.265625 118.230469 124.351562 120.320312 126.902344 120.320312 Z M 126.902344 120.320312 " fill-opacity="1" fill-rule="nonzero"/><path fill="#3b6a75" d="M 245.105469 232.582031 C 246.265625 229.332031 245.570312 224.925781 245.570312 221.445312 C 245.570312 216.808594 245.105469 191.292969 243.484375 183.175781 C 243.25 182.480469 242.789062 182.015625 242.09375 182.25 C 241.628906 182.25 241.164062 182.710938 241.164062 183.175781 C 239.773438 191.292969 239.078125 216.808594 239.078125 221.445312 C 239.078125 224.925781 238.382812 229.332031 239.3125 232.582031 C 239.773438 234.203125 241.398438 235.132812 243.019531 234.667969 C 243.945312 234.4375 244.640625 233.507812 245.105469 232.582031 Z M 245.105469 232.582031 " fill-opacity="1" fill-rule="nonzero"/><g clip-path="url(#6dd98ee441)"><path fill="#3b6a75" d="M 272.6875 266.90625 C 268.746094 266.675781 264.804688 266.445312 260.867188 266.445312 C 261.792969 255.078125 262.257812 243.714844 262.023438 232.347656 C 262.023438 219.359375 262.023438 206.136719 261.328125 193.148438 C 260.867188 181.785156 261.328125 168.101562 254.375 158.589844 C 251.59375 154.878906 248.117188 152.09375 243.945312 150.472656 C 244.179688 146.066406 243.945312 141.660156 243.484375 137.25 C 243.25 135.164062 243.019531 134.234375 241.398438 132.84375 C 239.078125 131.222656 234.445312 131.917969 231.664062 131.917969 C 232.359375 126.351562 232.125 120.550781 232.359375 114.984375 C 232.589844 109.417969 233.285156 103.621094 233.75 97.820312 C 233.75 97.820312 245.105469 94.574219 250.667969 93.414062 C 256.925781 92.253906 264.574219 91.328125 267.355469 98.75 C 269.210938 104.316406 278.015625 101.996094 276.164062 96.429688 C 273.84375 89.007812 267.125 83.902344 259.476562 83.441406 C 252.289062 83.441406 245.105469 84.601562 238.152344 86.917969 C 230.503906 89.472656 223.320312 92.253906 216.132812 94.574219 C 211.960938 95.964844 207.789062 97.125 203.617188 98.285156 C 200.140625 99.210938 196.203125 99.445312 192.957031 101.066406 C 191.566406 101.996094 191.332031 103.621094 192.027344 105.011719 C 192.261719 105.476562 192.722656 105.9375 193.417969 106.171875 C 197.824219 108.027344 205.242188 105.9375 210.339844 104.777344 C 211.265625 113.824219 211.730469 122.871094 211.730469 131.917969 C 209.875 131.917969 205.242188 131.683594 204.777344 131.683594 C 203.15625 131.683594 201.765625 132.378906 200.375 133.539062 C 199.445312 134.699219 199.214844 136.089844 199.214844 137.484375 C 199.214844 138.410156 199.679688 146.527344 199.679688 149.3125 C 192.261719 150.703125 185.074219 156.039062 182.988281 162.765625 C 181.367188 168.332031 180.902344 196.859375 181.136719 204.746094 L 181.136719 212.863281 C 175.804688 212.167969 172.097656 219.824219 177.660156 222.375 C 185.308594 225.855469 194.113281 229.566406 199.214844 236.753906 C 204.546875 244.410156 202.226562 252.527344 196.433594 259.023438 C 190.40625 265.515625 183.453125 270.851562 176.035156 275.488281 C 172.328125 278.273438 168.386719 280.359375 164.214844 281.984375 C 158.652344 283.839844 154.25 282.214844 149.613281 279.199219 C 145.441406 276.417969 131.074219 264.589844 127.597656 261.804688 C 120.410156 256.46875 112.996094 251.136719 105.578125 245.800781 C 98.855469 240.929688 93.527344 234.898438 93.527344 226.316406 C 93.292969 219.824219 96.308594 213.792969 101.636719 210.3125 C 103.957031 211.9375 106.503906 213.097656 109.519531 213.097656 C 115.3125 213.328125 118.789062 210.777344 122.730469 207.53125 C 122.960938 207.761719 124.582031 208.921875 125.277344 209.386719 C 127.363281 210.777344 129.449219 211.707031 132 212.402344 C 136.171875 213.328125 140.808594 211.9375 143.820312 209.152344 C 147.066406 206.136719 142.429688 201.730469 138.953125 204.28125 C 133.390625 208.691406 129.449219 201.730469 125.277344 199.644531 C 120.644531 197.324219 118.558594 202.425781 115.082031 204.28125 C 112.761719 205.90625 109.519531 206.136719 106.96875 204.746094 C 102.566406 202.195312 100.710938 192.453125 109.054688 189.207031 C 112.761719 188.046875 113.691406 185.261719 112.066406 184.105469 C 110.675781 183.175781 108.824219 182.710938 106.96875 183.175781 C 106.738281 179.929688 106.503906 176.683594 108.824219 173.898438 C 111.371094 171.347656 114.617188 170.652344 117.863281 171.113281 C 116.933594 174.128906 117.167969 177.378906 118.558594 180.160156 C 119.949219 182.945312 123.425781 181.320312 123.65625 178.769531 C 124.351562 170.652344 128.523438 165.316406 137.332031 165.316406 C 144.746094 164.851562 151.003906 170.417969 151.46875 177.839844 C 151.699219 180.855469 156.335938 182.015625 157.03125 178.539062 C 157.726562 175.289062 157.261719 171.8125 155.871094 168.796875 C 159.117188 168.332031 162.128906 167.867188 164.679688 169.957031 C 167.925781 172.96875 168.15625 178.074219 165.144531 181.320312 C 164.449219 182.015625 163.519531 182.710938 162.59375 183.175781 C 160.507812 183.640625 159.8125 186.191406 162.128906 187.582031 C 163.984375 188.976562 165.375 190.832031 165.839844 193.148438 C 166.300781 195.699219 165.839844 198.484375 164.679688 200.804688 C 162.128906 205.90625 157.496094 206.601562 152.628906 208.457031 C 150.773438 208.921875 149.613281 210.777344 150.078125 212.632812 C 150.542969 214.257812 151.699219 215.417969 153.554688 215.417969 C 163.289062 215.183594 170.242188 207.992188 172.328125 200.570312 C 173.488281 196.859375 173.023438 188.976562 169.777344 185.03125 C 173.71875 180.394531 174.183594 173.667969 170.9375 168.332031 C 167.460938 162.53125 158.421875 161.140625 152.394531 164.15625 C 147.992188 160.445312 142.429688 158.359375 136.867188 158.359375 C 130.609375 158.589844 124.816406 161.375 120.644531 166.011719 C 115.082031 164.621094 108.824219 165.78125 105.347656 169.957031 C 101.871094 174.59375 100.941406 180.160156 102.101562 185.03125 C 102.101562 185.03125 91.671875 191.292969 96.769531 203.585938 C 85.414062 209.851562 81.007812 224 85.644531 236.753906 C 89.355469 247.65625 99.785156 255.3125 110.214844 261.574219 C 114.847656 264.355469 132.230469 277.113281 140.34375 282.214844 C 148.917969 287.550781 159.347656 291.726562 168.386719 287.085938 C 169.082031 286.621094 185.074219 277.34375 187.855469 275.488281 C 194.117188 276.417969 265.269531 276.417969 272.917969 276.882812 C 278.945312 277.113281 278.945312 267.371094 272.6875 266.90625 Z M 226.101562 100.605469 C 225.636719 105.476562 224.476562 132.148438 224.476562 132.148438 L 217.757812 131.917969 C 217.757812 131.917969 217.0625 112.898438 215.902344 103.386719 C 219.609375 102.921875 222.855469 101.765625 226.101562 100.605469 Z M 254.375 266.445312 C 253.21875 266.445312 200.605469 268.300781 196.898438 268.300781 C 201.765625 264.589844 205.703125 259.71875 208.484375 253.917969 C 211.730469 245.570312 210.339844 236.292969 205.242188 229.101562 C 201.53125 224 196.664062 219.824219 190.871094 217.039062 C 190.871094 206.601562 189.941406 176.449219 189.941406 171.8125 C 189.941406 167.171875 189.941406 162.996094 193.421875 159.75 C 198.054688 155.574219 203.851562 156.039062 209.414062 154.414062 C 210.804688 153.953125 211.5 152.558594 211.035156 151.167969 C 210.804688 150.472656 210.109375 149.777344 209.414062 149.542969 C 208.253906 149.082031 207.09375 148.847656 205.9375 148.847656 C 205.9375 146.066406 205.9375 139.105469 205.9375 138.410156 C 207.558594 138.875 233.054688 138.410156 236.761719 138.875 C 236.761719 138.875 237.457031 146.527344 237.457031 148.382812 C 231.894531 147.457031 226.101562 147.457031 220.304688 148.152344 C 215.207031 148.847656 217.523438 156.503906 222.390625 155.808594 C 234.675781 154.183594 248.117188 156.964844 252.058594 170.417969 C 254.839844 180.394531 254.375 191.988281 254.609375 202.425781 C 254.839844 213.792969 254.144531 256.703125 254.375 266.445312 Z M 254.375 266.445312 " fill-opacity="1" fill-rule="nonzero"/></g><path fill="#3b6a75" d="M 292.851562 136.789062 C 292.386719 130.988281 289.375 126.8125 285.433594 122.640625 C 283.347656 120.320312 281.03125 118.230469 279.175781 115.914062 C 277.320312 113.59375 275.929688 111.042969 274.308594 108.492188 C 273.148438 106.867188 270.601562 106.402344 268.976562 107.5625 C 268.28125 108.027344 267.820312 108.722656 267.585938 109.417969 C 263.878906 121.480469 251.363281 127.972656 252.058594 141.425781 C 252.753906 152.558594 262.488281 161.140625 273.613281 160.445312 C 285.203125 159.519531 294.007812 148.152344 292.851562 136.789062 Z M 272.917969 153.253906 C 268.515625 153.488281 264.109375 151.632812 260.867188 148.382812 C 257.390625 144.671875 257.621094 139.105469 259.476562 134.46875 C 261.328125 129.828125 265.5 127.277344 268.28125 123.566406 C 270.136719 121.246094 271.757812 118.464844 272.917969 115.914062 C 275.699219 121.015625 281.03125 125.652344 283.578125 129.597656 C 289.605469 138.644531 284.738281 152.558594 272.917969 153.253906 Z M 272.917969 153.253906 " fill-opacity="1" fill-rule="nonzero"/><path fill="#3b6a75" d="M 279.640625 140.265625 C 277.785156 141.195312 276.625 142.585938 274.539062 143.28125 C 272.222656 143.976562 269.90625 143.515625 268.050781 142.121094 C 267.125 141.195312 265.5 141.195312 264.574219 142.121094 C 263.648438 143.050781 263.648438 144.671875 264.574219 145.601562 C 264.804688 145.832031 264.804688 145.832031 265.039062 146.066406 C 268.050781 148.152344 271.527344 148.617188 275.003906 147.6875 C 277.785156 146.992188 281.492188 144.671875 281.726562 141.425781 C 281.726562 140.730469 281.261719 139.339844 279.640625 140.265625 Z M 279.640625 140.265625 " fill-opacity="1" fill-rule="nonzero"/><path fill="#3b6a75" d="M 141.269531 246.730469 C 132 240.929688 122.496094 235.828125 112.996094 230.027344 C 110.910156 228.867188 108.589844 231.882812 110.445312 233.277344 C 120.410156 241.160156 132 246.03125 141.734375 253.453125 C 147.761719 258.09375 153.324219 262.035156 161.433594 260.878906 C 169.546875 259.71875 177.660156 254.152344 184.613281 249.742188 C 186.234375 248.585938 186.699219 246.496094 185.539062 244.875 C 184.613281 243.480469 182.527344 243.019531 181.136719 243.714844 C 174.414062 247.191406 167.460938 252.992188 159.8125 254.152344 C 152.859375 255.078125 146.832031 249.976562 141.269531 246.730469 Z M 141.269531 246.730469 " fill-opacity="1" fill-rule="nonzero"/><path fill="#3b6a75" d="M 159.582031 127.277344 C 160.277344 125.421875 160.042969 118 159.347656 116.375 C 158.886719 115.449219 157.726562 115.214844 156.800781 115.679688 C 156.566406 115.914062 156.335938 116.144531 156.105469 116.375 C 155.175781 118 154.714844 125.421875 155.410156 127.277344 C 156.105469 128.4375 157.726562 128.902344 158.886719 128.207031 C 159.117188 127.972656 159.347656 127.742188 159.582031 127.277344 Z M 159.582031 127.277344 " fill-opacity="1" fill-rule="nonzero"/><path fill="#3b6a75" d="M 155.871094 134.933594 C 155.175781 136.554688 154.480469 143.976562 155.175781 145.601562 C 155.871094 146.761719 157.496094 147.226562 158.652344 146.527344 C 159.117188 146.296875 159.347656 146.066406 159.582031 145.601562 C 160.277344 143.746094 160.042969 136.324219 159.347656 134.699219 C 158.886719 133.773438 157.496094 133.539062 156.800781 134.234375 C 156.335938 134.46875 156.105469 134.699219 155.871094 134.933594 Z M 155.871094 134.933594 " fill-opacity="1" fill-rule="nonzero"/><path fill="#3b6a75" d="M 144.980469 133.308594 C 146.601562 133.773438 148.222656 134.003906 149.847656 134.003906 C 151.699219 134.003906 153.554688 134.234375 154.714844 132.378906 C 155.175781 131.453125 155.175781 130.0625 154.25 129.132812 C 153.089844 127.507812 151.238281 127.972656 149.613281 128.207031 C 147.992188 128.4375 146.601562 128.667969 144.980469 128.902344 C 143.820312 129.363281 143.125 130.523438 143.355469 131.683594 C 143.589844 132.613281 144.285156 133.308594 144.980469 133.308594 Z M 144.980469 133.308594 " fill-opacity="1" fill-rule="nonzero"/><path fill="#3b6a75" d="M 160.738281 133.308594 C 162.363281 133.773438 163.984375 134.003906 165.605469 134.003906 C 167.460938 134.003906 169.316406 134.234375 170.472656 132.378906 C 171.167969 131.453125 170.9375 130.0625 170.011719 129.132812 C 168.851562 127.507812 166.996094 127.972656 165.375 128.207031 C 163.753906 128.4375 162.363281 128.667969 160.738281 128.902344 C 159.582031 129.363281 158.886719 130.523438 159.117188 131.683594 C 159.347656 132.613281 160.042969 133.308594 160.738281 133.308594 Z M 160.738281 133.308594 " fill-opacity="1" fill-rule="nonzero"/><path fill="#3b6a75" d="M 111.140625 155.574219 C 116.703125 152.328125 119.484375 144.210938 115.777344 138.410156 C 112.996094 134.46875 108.128906 132.84375 103.722656 134.234375 C 101.636719 134.933594 97.464844 137.714844 95.613281 139.570312 C 93.292969 142.121094 92.367188 145.601562 93.527344 149.082031 C 95.84375 156.269531 104.882812 159.285156 111.140625 155.574219 Z M 109.980469 142.355469 C 111.140625 144.90625 110.214844 147.457031 107.894531 149.082031 C 105.347656 150.703125 101.636719 150.238281 100.246094 147.457031 C 97.699219 141.890625 107.199219 137.019531 109.980469 142.355469 Z M 109.980469 142.355469 " fill-opacity="1" fill-rule="nonzero"/></svg>